<?xml version="1.0" encoding="utf-8" standalone="no"?>
<!DOCTYPE svg PUBLIC "-//W3C//DTD SVG 1.1//EN"
  "http://www.w3.org/Graphics/SVG/1.1/DTD/svg11.dtd">
<!-- Created with matplotlib (https://matplotlib.org/) -->
<svg height="60.90675pt" version="1.1" viewBox="0 0 57.6 60.90675" width="57.6pt" xmlns="http://www.w3.org/2000/svg" xmlns:xlink="http://www.w3.org/1999/xlink">
 <metadata>
  <rdf:RDF xmlns:cc="http://creativecommons.org/ns#" xmlns:dc="http://purl.org/dc/elements/1.1/" xmlns:rdf="http://www.w3.org/1999/02/22-rdf-syntax-ns#">
   <cc:Work>
    <dc:type rdf:resource="http://purl.org/dc/dcmitype/StillImage"/>
    <dc:date>2022-02-09T10:57:13.684590</dc:date>
    <dc:format>image/svg+xml</dc:format>
    <dc:creator>
     <cc:Agent>
      <dc:title>Matplotlib v3.3.2, https://matplotlib.org/</dc:title>
     </cc:Agent>
    </dc:creator>
   </cc:Work>
  </rdf:RDF>
 </metadata>
 <defs>
  <style type="text/css">*{stroke-linecap:butt;stroke-linejoin:round;}</style>
 </defs>
 <g id="figure_1">
  <g id="patch_1">
   <path d="M 0 60.90675 
L 57.6 60.90675 
L 57.6 0 
L 0 0 
z
" style="fill:none;"/>
  </g>
  <g id="axes_1">
   <g id="patch_2">
    <path d="M 45.035471 26.190005 
C 43.82182 22.859761 41.612407 19.982225 38.708508 17.949777 
C 35.804608 15.917329 32.344499 14.82675 28.8 14.82675 
L 28.8 32.10675 
L 45.035471 26.190005 
z
" style="fill:#708090;"/>
   </g>
   <g id="patch_3">
    <path d="M 28.8 14.82675 
C 26.973938 14.82675 25.159364 15.116203 23.423926 15.68432 
C 21.688487 16.252436 20.05402 17.092066 18.581457 18.171909 
C 17.108894 19.251753 15.816765 20.558222 14.753238 22.042612 
C 13.689711 23.527002 12.86817 25.170635 12.31924 26.912238 
C 11.770311 28.65384 11.5009 30.471498 11.521052 32.297449 
C 11.541204 34.1234 11.850665 35.934669 12.437899 37.663732 
C 13.025132 39.392795 13.882749 41.017897 14.978778 42.478453 
C 16.074807 43.939009 17.395456 45.216642 18.891492 46.263723 
C 20.387529 47.310803 22.040129 48.114156 23.787683 48.643832 
C 25.535237 49.173508 27.355757 49.422843 29.181375 49.382541 
C 31.006992 49.342239 32.814735 49.012808 34.537213 48.406529 
C 36.25969 47.800249 37.875228 46.92475 39.3236 45.81267 
C 40.771971 44.70059 42.034952 43.365921 43.065459 41.85842 
C 44.095966 40.35092 44.881032 38.689555 45.39139 36.936262 
C 45.901748 35.182968 46.130977 33.359807 46.07053 31.534746 
C 46.010084 29.709685 45.660723 27.905687 45.035471 26.190005 
L 28.8 32.10675 
L 28.8 14.82675 
z
" style="fill:#f5f5f5;"/>
   </g>
   <g id="matplotlib.axis_1"/>
   <g id="matplotlib.axis_2"/>
   <g id="text_1">
    <!-- 20% -->
    <g transform="translate(24.48 13.09875)scale(0.08 -0.08)">
     <defs>
      <path d="M 3.375 0 
L 3.375 1.953125 
L 25.78125 36.28125 
Q 32.8125 47.078125 32.8125 54.59375 
Q 32.8125 64.5 21.625 64.5 
Q 17.671875 64.5 14.203125 62.421875 
Q 10.75 60.359375 9.1875 57.171875 
L 2.875 62.359375 
Q 4.546875 67.140625 9.40625 69.96875 
Q 14.265625 72.796875 21.140625 72.796875 
Q 31.453125 72.796875 37.25 68.03125 
Q 43.0625 63.28125 43.0625 54.59375 
Q 43.0625 46.53125 35.359375 34.28125 
L 19.28125 8.796875 
L 47.3125 8.796875 
L 47.3125 0 
z
" id="TrebuchetMS-50"/>
      <path d="M 3.125 37.9375 
Q 3.125 53.375 9.375 63.078125 
Q 15.625 72.796875 26.953125 72.796875 
Q 38.1875 72.796875 43.828125 64.6875 
Q 49.46875 56.59375 49.46875 36.375 
Q 49.46875 19 43.546875 9 
Q 37.640625 -0.984375 26.265625 -0.984375 
Q 14.890625 -0.984375 9 7.078125 
Q 3.125 15.140625 3.125 37.9375 
z
M 12.890625 37.0625 
Q 12.890625 7.328125 25.59375 7.328125 
Q 32.859375 7.328125 36.28125 13.921875 
Q 39.703125 20.515625 39.703125 37.015625 
Q 39.703125 48.390625 38.375 53.703125 
Q 37.0625 59.03125 34.125 61.765625 
Q 31.203125 64.5 26.703125 64.5 
Q 12.890625 64.5 12.890625 37.0625 
z
" id="TrebuchetMS-48"/>
      <path d="M 10.640625 -0.984375 
L 4.4375 -0.984375 
L 47.5625 72.796875 
L 53.71875 72.796875 
z
M 2.984375 56.734375 
Q 2.984375 63.921875 6.9375 68.359375 
Q 10.890625 72.796875 17 72.796875 
Q 23 72.796875 26.578125 68.40625 
Q 30.171875 64.015625 30.171875 55.8125 
Q 30.171875 48.1875 26.359375 43.71875 
Q 22.5625 39.265625 16.546875 39.265625 
Q 2.984375 39.265625 2.984375 56.734375 
z
M 9.125 56.25 
Q 9.125 50.53125 11.046875 47.375 
Q 12.984375 44.234375 16.109375 44.234375 
Q 24.03125 44.234375 24.03125 56.203125 
Q 24.03125 67.828125 16.84375 67.828125 
Q 13.28125 67.828125 11.203125 64.703125 
Q 9.125 61.578125 9.125 56.25 
z
M 29.34375 16.5 
Q 29.34375 23.6875 33.296875 28.125 
Q 37.25 32.5625 43.359375 32.5625 
Q 49.359375 32.5625 52.953125 28.171875 
Q 56.546875 23.78125 56.546875 15.578125 
Q 56.546875 7.953125 52.734375 3.484375 
Q 48.921875 -0.984375 42.921875 -0.984375 
Q 29.34375 -0.984375 29.34375 16.5 
z
M 35.5 16.015625 
Q 35.5 10.296875 37.421875 7.140625 
Q 39.359375 4 42.484375 4 
Q 50.390625 4 50.390625 15.96875 
Q 50.390625 27.59375 43.21875 27.59375 
Q 39.65625 27.59375 37.578125 24.46875 
Q 35.5 21.34375 35.5 16.015625 
z
" id="TrebuchetMS-37"/>
     </defs>
     <use xlink:href="#TrebuchetMS-50"/>
     <use x="52.441406" xlink:href="#TrebuchetMS-48"/>
     <use x="104.882812" xlink:href="#TrebuchetMS-37"/>
    </g>
   </g>
  </g>
 </g>
</svg>
