<?xml version="1.0" encoding="utf-8" standalone="no"?>
<!DOCTYPE svg PUBLIC "-//W3C//DTD SVG 1.1//EN"
  "http://www.w3.org/Graphics/SVG/1.1/DTD/svg11.dtd">
<!-- Created with matplotlib (https://matplotlib.org/) -->
<svg height="60.90675pt" version="1.1" viewBox="0 0 57.6 60.90675" width="57.6pt" xmlns="http://www.w3.org/2000/svg" xmlns:xlink="http://www.w3.org/1999/xlink">
 <metadata>
  <rdf:RDF xmlns:cc="http://creativecommons.org/ns#" xmlns:dc="http://purl.org/dc/elements/1.1/" xmlns:rdf="http://www.w3.org/1999/02/22-rdf-syntax-ns#">
   <cc:Work>
    <dc:type rdf:resource="http://purl.org/dc/dcmitype/StillImage"/>
    <dc:date>2022-02-09T10:57:14.567161</dc:date>
    <dc:format>image/svg+xml</dc:format>
    <dc:creator>
     <cc:Agent>
      <dc:title>Matplotlib v3.3.2, https://matplotlib.org/</dc:title>
     </cc:Agent>
    </dc:creator>
   </cc:Work>
  </rdf:RDF>
 </metadata>
 <defs>
  <style type="text/css">*{stroke-linecap:butt;stroke-linejoin:round;}</style>
 </defs>
 <g id="figure_1">
  <g id="patch_1">
   <path d="M 0 60.90675 
L 57.6 60.90675 
L 57.6 0 
L 0 0 
z
" style="fill:none;"/>
  </g>
  <g id="axes_1">
   <g id="patch_2">
    <path d="M 31.333538 15.013489 
C 30.914286 14.951348 30.49289 14.904653 30.070205 14.873498 
C 29.64752 14.842343 29.223832 14.82675 28.8 14.82675 
L 28.8 32.10675 
L 31.333538 15.013489 
z
" style="fill:#708090;"/>
   </g>
   <g id="patch_3">
    <path d="M 28.8 14.82675 
C 26.58428 14.82675 24.3891 15.252914 22.33433 16.081972 
C 20.27956 16.911029 18.403296 18.12761 16.807994 19.665279 
C 15.212693 21.202948 13.927929 23.033199 13.023861 25.056087 
C 12.119793 27.078975 11.613182 29.256996 11.531691 31.471217 
C 11.4502 33.685438 11.795341 35.894807 12.548266 37.978678 
C 13.301191 40.062549 14.447942 41.982288 15.925898 43.633064 
C 17.403854 45.283839 19.185615 46.635047 21.173884 47.612902 
C 23.162153 48.590757 25.320069 49.177131 27.529795 49.340002 
C 29.739521 49.502874 31.960089 49.239224 34.070241 48.563449 
C 36.180394 47.887675 38.141009 46.812305 39.845025 45.396062 
C 41.549041 43.979819 42.964865 42.248959 44.015184 40.297999 
C 45.065503 38.347039 45.730845 36.212149 45.974877 34.009909 
C 46.218908 31.807668 46.037106 29.578906 45.439397 27.445327 
C 44.841688 25.311748 43.839155 23.312909 42.486541 21.557958 
C 41.133927 19.803008 39.45631 18.324483 37.545299 17.203121 
C 35.634288 16.08176 33.525313 15.33835 31.333538 15.013489 
L 28.8 32.10675 
L 28.8 14.82675 
z
" style="fill:#f5f5f5;"/>
   </g>
   <g id="matplotlib.axis_1"/>
   <g id="matplotlib.axis_2"/>
   <g id="text_1">
    <!-- 3% -->
    <g transform="translate(24.48 13.09875)scale(0.08 -0.08)">
     <defs>
      <path d="M 5.328125 5.078125 
L 10.015625 12.59375 
Q 14.796875 7.328125 22.125 7.328125 
Q 35.6875 7.328125 35.6875 20.609375 
Q 35.6875 26.65625 31.734375 30.4375 
Q 27.78125 34.234375 21.234375 34.234375 
L 20.453125 34.234375 
L 20.453125 42.140625 
L 20.90625 42.140625 
Q 33.296875 42.140625 33.296875 53.078125 
Q 33.296875 64.5 21.625 64.5 
Q 15.28125 64.5 11.53125 60.25 
L 7.171875 66.890625 
Q 11.71875 72.796875 22.359375 72.796875 
Q 31.734375 72.796875 37.640625 67.796875 
Q 43.5625 62.796875 43.5625 54.984375 
Q 43.5625 49.03125 40.265625 44.4375 
Q 36.96875 39.84375 32.515625 38.28125 
Q 38.671875 36.28125 42.3125 31.46875 
Q 45.953125 26.65625 45.953125 19.828125 
Q 45.953125 9.859375 39.640625 4.4375 
Q 33.34375 -0.984375 21.96875 -0.984375 
Q 17.1875 -0.984375 12.59375 0.796875 
Q 8.015625 2.59375 5.328125 5.078125 
z
" id="TrebuchetMS-51"/>
      <path d="M 10.640625 -0.984375 
L 4.4375 -0.984375 
L 47.5625 72.796875 
L 53.71875 72.796875 
z
M 2.984375 56.734375 
Q 2.984375 63.921875 6.9375 68.359375 
Q 10.890625 72.796875 17 72.796875 
Q 23 72.796875 26.578125 68.40625 
Q 30.171875 64.015625 30.171875 55.8125 
Q 30.171875 48.1875 26.359375 43.71875 
Q 22.5625 39.265625 16.546875 39.265625 
Q 2.984375 39.265625 2.984375 56.734375 
z
M 9.125 56.25 
Q 9.125 50.53125 11.046875 47.375 
Q 12.984375 44.234375 16.109375 44.234375 
Q 24.03125 44.234375 24.03125 56.203125 
Q 24.03125 67.828125 16.84375 67.828125 
Q 13.28125 67.828125 11.203125 64.703125 
Q 9.125 61.578125 9.125 56.25 
z
M 29.34375 16.5 
Q 29.34375 23.6875 33.296875 28.125 
Q 37.25 32.5625 43.359375 32.5625 
Q 49.359375 32.5625 52.953125 28.171875 
Q 56.546875 23.78125 56.546875 15.578125 
Q 56.546875 7.953125 52.734375 3.484375 
Q 48.921875 -0.984375 42.921875 -0.984375 
Q 29.34375 -0.984375 29.34375 16.5 
z
M 35.5 16.015625 
Q 35.5 10.296875 37.421875 7.140625 
Q 39.359375 4 42.484375 4 
Q 50.390625 4 50.390625 15.96875 
Q 50.390625 27.59375 43.21875 27.59375 
Q 39.65625 27.59375 37.578125 24.46875 
Q 35.5 21.34375 35.5 16.015625 
z
" id="TrebuchetMS-37"/>
     </defs>
     <use xlink:href="#TrebuchetMS-51"/>
     <use x="52.441406" xlink:href="#TrebuchetMS-37"/>
    </g>
   </g>
  </g>
 </g>
</svg>
