<?xml version="1.0" encoding="utf-8" standalone="no"?>
<!DOCTYPE svg PUBLIC "-//W3C//DTD SVG 1.1//EN"
  "http://www.w3.org/Graphics/SVG/1.1/DTD/svg11.dtd">
<!-- Created with matplotlib (https://matplotlib.org/) -->
<svg height="60.90675pt" version="1.1" viewBox="0 0 57.6 60.90675" width="57.6pt" xmlns="http://www.w3.org/2000/svg" xmlns:xlink="http://www.w3.org/1999/xlink">
 <metadata>
  <rdf:RDF xmlns:cc="http://creativecommons.org/ns#" xmlns:dc="http://purl.org/dc/elements/1.1/" xmlns:rdf="http://www.w3.org/1999/02/22-rdf-syntax-ns#">
   <cc:Work>
    <dc:type rdf:resource="http://purl.org/dc/dcmitype/StillImage"/>
    <dc:date>2022-02-09T10:57:14.738747</dc:date>
    <dc:format>image/svg+xml</dc:format>
    <dc:creator>
     <cc:Agent>
      <dc:title>Matplotlib v3.3.2, https://matplotlib.org/</dc:title>
     </cc:Agent>
    </dc:creator>
   </cc:Work>
  </rdf:RDF>
 </metadata>
 <defs>
  <style type="text/css">*{stroke-linecap:butt;stroke-linejoin:round;}</style>
 </defs>
 <g id="figure_1">
  <g id="patch_1">
   <path d="M 0 60.90675 
L 57.6 60.90675 
L 57.6 0 
L 0 0 
z
" style="fill:none;"/>
  </g>
  <g id="axes_1">
   <g id="patch_2">
    <path d="M 45.701509 35.70361 
C 46.23738 33.18557 46.203822 30.579313 45.603294 28.075905 
C 45.002766 25.572498 43.850311 23.234646 42.230416 21.233741 
C 40.610521 19.232835 38.563762 17.618995 36.240188 16.510533 
C 33.916614 15.40207 31.374429 14.82675 28.8 14.82675 
L 28.8 32.10675 
L 45.701509 35.70361 
z
" style="fill:#708090;"/>
   </g>
   <g id="patch_3">
    <path d="M 28.800003 14.82675 
C 25.536814 14.826749 22.339415 15.751089 19.579592 17.492289 
C 16.819768 19.233489 14.608804 21.72134 13.203784 24.66656 
C 11.798764 27.611779 11.256342 30.895611 11.63959 34.136216 
C 12.022838 37.376821 13.316303 40.443532 15.369583 42.979758 
C 17.422863 45.515984 20.153166 47.419459 23.243016 48.468851 
C 26.332867 49.518242 29.657677 49.671237 32.830844 48.910044 
C 36.004011 48.148852 38.897585 46.504165 41.175109 44.167226 
C 43.452633 41.830286 45.022271 38.895324 45.701509 35.70361 
L 28.8 32.10675 
L 28.800003 14.82675 
z
" style="fill:#f5f5f5;"/>
   </g>
   <g id="matplotlib.axis_1"/>
   <g id="matplotlib.axis_2"/>
   <g id="text_1">
    <!-- 29% -->
    <g transform="translate(24.48 13.09875)scale(0.08 -0.08)">
     <defs>
      <path d="M 3.375 0 
L 3.375 1.953125 
L 25.78125 36.28125 
Q 32.8125 47.078125 32.8125 54.59375 
Q 32.8125 64.5 21.625 64.5 
Q 17.671875 64.5 14.203125 62.421875 
Q 10.75 60.359375 9.1875 57.171875 
L 2.875 62.359375 
Q 4.546875 67.140625 9.40625 69.96875 
Q 14.265625 72.796875 21.140625 72.796875 
Q 31.453125 72.796875 37.25 68.03125 
Q 43.0625 63.28125 43.0625 54.59375 
Q 43.0625 46.53125 35.359375 34.28125 
L 19.28125 8.796875 
L 47.3125 8.796875 
L 47.3125 0 
z
" id="TrebuchetMS-50"/>
      <path d="M 19.09375 -1.21875 
L 14.359375 4 
Q 18.609375 5.71875 26.78125 15.53125 
Q 34.96875 25.34375 35.796875 30.671875 
Q 31.78125 26.8125 24.515625 26.8125 
Q 15.046875 26.8125 9.328125 32.859375 
Q 3.609375 38.921875 3.609375 49.515625 
Q 3.609375 60.015625 9.484375 66.40625 
Q 15.375 72.796875 24.265625 72.796875 
Q 47.796875 72.796875 47.796875 41.609375 
Q 47.796875 28.609375 38.59375 15.015625 
Q 29.390625 1.421875 19.09375 -1.21875 
z
M 37.546875 49.21875 
Q 37.546875 64.5 25 64.5 
Q 19.734375 64.5 16.671875 60.515625 
Q 13.625 56.546875 13.625 50 
Q 13.625 43.21875 16.84375 39.15625 
Q 20.0625 35.109375 25.140625 35.109375 
Q 37.546875 35.109375 37.546875 49.21875 
z
" id="TrebuchetMS-57"/>
      <path d="M 10.640625 -0.984375 
L 4.4375 -0.984375 
L 47.5625 72.796875 
L 53.71875 72.796875 
z
M 2.984375 56.734375 
Q 2.984375 63.921875 6.9375 68.359375 
Q 10.890625 72.796875 17 72.796875 
Q 23 72.796875 26.578125 68.40625 
Q 30.171875 64.015625 30.171875 55.8125 
Q 30.171875 48.1875 26.359375 43.71875 
Q 22.5625 39.265625 16.546875 39.265625 
Q 2.984375 39.265625 2.984375 56.734375 
z
M 9.125 56.25 
Q 9.125 50.53125 11.046875 47.375 
Q 12.984375 44.234375 16.109375 44.234375 
Q 24.03125 44.234375 24.03125 56.203125 
Q 24.03125 67.828125 16.84375 67.828125 
Q 13.28125 67.828125 11.203125 64.703125 
Q 9.125 61.578125 9.125 56.25 
z
M 29.34375 16.5 
Q 29.34375 23.6875 33.296875 28.125 
Q 37.25 32.5625 43.359375 32.5625 
Q 49.359375 32.5625 52.953125 28.171875 
Q 56.546875 23.78125 56.546875 15.578125 
Q 56.546875 7.953125 52.734375 3.484375 
Q 48.921875 -0.984375 42.921875 -0.984375 
Q 29.34375 -0.984375 29.34375 16.5 
z
M 35.5 16.015625 
Q 35.5 10.296875 37.421875 7.140625 
Q 39.359375 4 42.484375 4 
Q 50.390625 4 50.390625 15.96875 
Q 50.390625 27.59375 43.21875 27.59375 
Q 39.65625 27.59375 37.578125 24.46875 
Q 35.5 21.34375 35.5 16.015625 
z
" id="TrebuchetMS-37"/>
     </defs>
     <use xlink:href="#TrebuchetMS-50"/>
     <use x="52.441406" xlink:href="#TrebuchetMS-57"/>
     <use x="104.882812" xlink:href="#TrebuchetMS-37"/>
    </g>
   </g>
  </g>
 </g>
</svg>
