<?xml version="1.0" encoding="utf-8" standalone="no"?>
<!DOCTYPE svg PUBLIC "-//W3C//DTD SVG 1.1//EN"
  "http://www.w3.org/Graphics/SVG/1.1/DTD/svg11.dtd">
<!-- Created with matplotlib (https://matplotlib.org/) -->
<svg height="212.929375pt" version="1.1" viewBox="0 0 284.965 212.929375" width="284.965pt" xmlns="http://www.w3.org/2000/svg" xmlns:xlink="http://www.w3.org/1999/xlink">
 <metadata>
  <rdf:RDF xmlns:cc="http://creativecommons.org/ns#" xmlns:dc="http://purl.org/dc/elements/1.1/" xmlns:rdf="http://www.w3.org/1999/02/22-rdf-syntax-ns#">
   <cc:Work>
    <dc:type rdf:resource="http://purl.org/dc/dcmitype/StillImage"/>
    <dc:date>2022-02-09T10:56:12.274923</dc:date>
    <dc:format>image/svg+xml</dc:format>
    <dc:creator>
     <cc:Agent>
      <dc:title>Matplotlib v3.3.2, https://matplotlib.org/</dc:title>
     </cc:Agent>
    </dc:creator>
   </cc:Work>
  </rdf:RDF>
 </metadata>
 <defs>
  <style type="text/css">*{stroke-linecap:butt;stroke-linejoin:round;}</style>
 </defs>
 <g id="figure_1">
  <g id="patch_1">
   <path d="M 0 212.929375 
L 284.965 212.929375 
L 284.965 0 
L 0 0 
z
" style="fill:none;"/>
  </g>
  <g id="axes_1">
   <g id="patch_2">
    <path d="M 38.325 58.282708 
L 277.765 58.282708 
L 277.765 10.149375 
L 38.325 10.149375 
z
" style="fill:#ffffff;"/>
   </g>
   <g id="patch_3">
    <path clip-path="url(#pd7f59eb463)" d="M 49.208636 58.282708 
L 53.940652 58.282708 
L 53.940652 58.282708 
L 49.208636 58.282708 
z
" style="fill:#778899;"/>
   </g>
   <g id="patch_4">
    <path clip-path="url(#pd7f59eb463)" d="M 55.123656 58.282708 
L 59.855672 58.282708 
L 59.855672 58.282708 
L 55.123656 58.282708 
z
" style="fill:#778899;"/>
   </g>
   <g id="patch_5">
    <path clip-path="url(#pd7f59eb463)" d="M 61.038676 58.282708 
L 65.770692 58.282708 
L 65.770692 58.282708 
L 61.038676 58.282708 
z
" style="fill:#778899;"/>
   </g>
   <g id="patch_6">
    <path clip-path="url(#pd7f59eb463)" d="M 66.953696 58.282708 
L 71.685711 58.282708 
L 71.685711 58.282708 
L 66.953696 58.282708 
z
" style="fill:#778899;"/>
   </g>
   <g id="patch_7">
    <path clip-path="url(#pd7f59eb463)" d="M 72.868715 58.282708 
L 77.600731 58.282708 
L 77.600731 58.282708 
L 72.868715 58.282708 
z
" style="fill:#778899;"/>
   </g>
   <g id="patch_8">
    <path clip-path="url(#pd7f59eb463)" d="M 78.783735 58.282708 
L 83.515751 58.282708 
L 83.515751 58.282708 
L 78.783735 58.282708 
z
" style="fill:#778899;"/>
   </g>
   <g id="patch_9">
    <path clip-path="url(#pd7f59eb463)" d="M 84.698755 58.282708 
L 89.430771 58.282708 
L 89.430771 50.260486 
L 84.698755 50.260486 
z
" style="fill:#778899;"/>
   </g>
   <g id="patch_10">
    <path clip-path="url(#pd7f59eb463)" d="M 90.613775 58.282708 
L 95.345791 58.282708 
L 95.345791 58.282708 
L 90.613775 58.282708 
z
" style="fill:#778899;"/>
   </g>
   <g id="patch_11">
    <path clip-path="url(#pd7f59eb463)" d="M 96.528794 58.282708 
L 101.26081 58.282708 
L 101.26081 58.282708 
L 96.528794 58.282708 
z
" style="fill:#778899;"/>
   </g>
   <g id="patch_12">
    <path clip-path="url(#pd7f59eb463)" d="M 102.443814 58.282708 
L 107.17583 58.282708 
L 107.17583 58.282708 
L 102.443814 58.282708 
z
" style="fill:#778899;"/>
   </g>
   <g id="patch_13">
    <path clip-path="url(#pd7f59eb463)" d="M 108.358834 58.282708 
L 113.09085 58.282708 
L 113.09085 58.282708 
L 108.358834 58.282708 
z
" style="fill:#778899;"/>
   </g>
   <g id="patch_14">
    <path clip-path="url(#pd7f59eb463)" d="M 114.273854 58.282708 
L 119.00587 58.282708 
L 119.00587 58.282708 
L 114.273854 58.282708 
z
" style="fill:#778899;"/>
   </g>
   <g id="patch_15">
    <path clip-path="url(#pd7f59eb463)" d="M 120.188874 58.282708 
L 124.920889 58.282708 
L 124.920889 52.93456 
L 120.188874 52.93456 
z
" style="fill:#778899;"/>
   </g>
   <g id="patch_16">
    <path clip-path="url(#pd7f59eb463)" d="M 126.103893 58.282708 
L 130.835909 58.282708 
L 130.835909 46.249375 
L 126.103893 46.249375 
z
" style="fill:#778899;"/>
   </g>
   <g id="patch_17">
    <path clip-path="url(#pd7f59eb463)" d="M 132.018913 58.282708 
L 136.750929 58.282708 
L 136.750929 58.282708 
L 132.018913 58.282708 
z
" style="fill:#778899;"/>
   </g>
   <g id="patch_18">
    <path clip-path="url(#pd7f59eb463)" d="M 137.933933 58.282708 
L 142.665949 58.282708 
L 142.665949 58.282708 
L 137.933933 58.282708 
z
" style="fill:#778899;"/>
   </g>
   <g id="patch_19">
    <path clip-path="url(#pd7f59eb463)" d="M 143.848953 58.282708 
L 148.580968 58.282708 
L 148.580968 50.260486 
L 143.848953 50.260486 
z
" style="fill:#778899;"/>
   </g>
   <g id="patch_20">
    <path clip-path="url(#pd7f59eb463)" d="M 149.763972 58.282708 
L 154.495988 58.282708 
L 154.495988 48.656042 
L 149.763972 48.656042 
z
" style="fill:#778899;"/>
   </g>
   <g id="patch_21">
    <path clip-path="url(#pd7f59eb463)" d="M 155.678992 58.282708 
L 160.411008 58.282708 
L 160.411008 58.282708 
L 155.678992 58.282708 
z
" style="fill:#778899;"/>
   </g>
   <g id="patch_22">
    <path clip-path="url(#pd7f59eb463)" d="M 161.594012 58.282708 
L 166.326028 58.282708 
L 166.326028 48.656042 
L 161.594012 48.656042 
z
" style="fill:#778899;"/>
   </g>
   <g id="patch_23">
    <path clip-path="url(#pd7f59eb463)" d="M 167.509032 58.282708 
L 172.241047 58.282708 
L 172.241047 54.271597 
L 167.509032 54.271597 
z
" style="fill:#778899;"/>
   </g>
   <g id="patch_24">
    <path clip-path="url(#pd7f59eb463)" d="M 173.424051 58.282708 
L 178.156067 58.282708 
L 178.156067 49.257708 
L 173.424051 49.257708 
z
" style="fill:#778899;"/>
   </g>
   <g id="patch_25">
    <path clip-path="url(#pd7f59eb463)" d="M 179.339071 58.282708 
L 184.071087 58.282708 
L 184.071087 58.282708 
L 179.339071 58.282708 
z
" style="fill:#778899;"/>
   </g>
   <g id="patch_26">
    <path clip-path="url(#pd7f59eb463)" d="M 185.254091 58.282708 
L 189.986107 58.282708 
L 189.986107 58.282708 
L 185.254091 58.282708 
z
" style="fill:#778899;"/>
   </g>
   <g id="patch_27">
    <path clip-path="url(#pd7f59eb463)" d="M 191.169111 58.282708 
L 195.901126 58.282708 
L 195.901126 51.406518 
L 191.169111 51.406518 
z
" style="fill:#778899;"/>
   </g>
   <g id="patch_28">
    <path clip-path="url(#pd7f59eb463)" d="M 197.08413 58.282708 
L 201.816146 58.282708 
L 201.816146 58.282708 
L 197.08413 58.282708 
z
" style="fill:#778899;"/>
   </g>
   <g id="patch_29">
    <path clip-path="url(#pd7f59eb463)" d="M 202.99915 58.282708 
L 207.731166 58.282708 
L 207.731166 58.282708 
L 202.99915 58.282708 
z
" style="fill:#778899;"/>
   </g>
   <g id="patch_30">
    <path clip-path="url(#pd7f59eb463)" d="M 208.91417 58.282708 
L 213.646186 58.282708 
L 213.646186 58.282708 
L 208.91417 58.282708 
z
" style="fill:#778899;"/>
   </g>
   <g id="patch_31">
    <path clip-path="url(#pd7f59eb463)" d="M 214.82919 58.282708 
L 219.561206 58.282708 
L 219.561206 58.282708 
L 214.82919 58.282708 
z
" style="fill:#778899;"/>
   </g>
   <g id="patch_32">
    <path clip-path="url(#pd7f59eb463)" d="M 220.744209 58.282708 
L 225.476225 58.282708 
L 225.476225 58.282708 
L 220.744209 58.282708 
z
" style="fill:#778899;"/>
   </g>
   <g id="patch_33">
    <path clip-path="url(#pd7f59eb463)" d="M 226.659229 58.282708 
L 231.391245 58.282708 
L 231.391245 19.776042 
L 226.659229 19.776042 
z
" style="fill:#778899;"/>
   </g>
   <g id="patch_34">
    <path clip-path="url(#pd7f59eb463)" d="M 232.574249 58.282708 
L 237.306265 58.282708 
L 237.306265 58.282708 
L 232.574249 58.282708 
z
" style="fill:#778899;"/>
   </g>
   <g id="patch_35">
    <path clip-path="url(#pd7f59eb463)" d="M 238.489269 58.282708 
L 243.221285 58.282708 
L 243.221285 58.282708 
L 238.489269 58.282708 
z
" style="fill:#778899;"/>
   </g>
   <g id="patch_36">
    <path clip-path="url(#pd7f59eb463)" d="M 244.404289 58.282708 
L 249.136304 58.282708 
L 249.136304 58.282708 
L 244.404289 58.282708 
z
" style="fill:#778899;"/>
   </g>
   <g id="patch_37">
    <path clip-path="url(#pd7f59eb463)" d="M 250.319308 58.282708 
L 255.051324 58.282708 
L 255.051324 58.282708 
L 250.319308 58.282708 
z
" style="fill:#778899;"/>
   </g>
   <g id="patch_38">
    <path clip-path="url(#pd7f59eb463)" d="M 256.234328 58.282708 
L 260.966344 58.282708 
L 260.966344 58.282708 
L 256.234328 58.282708 
z
" style="fill:#778899;"/>
   </g>
   <g id="patch_39">
    <path clip-path="url(#pd7f59eb463)" d="M 262.149348 58.282708 
L 266.881364 58.282708 
L 266.881364 58.282708 
L 262.149348 58.282708 
z
" style="fill:#778899;"/>
   </g>
   <g id="matplotlib.axis_1">
    <g id="xtick_1">
     <g id="line2d_1">
      <defs>
       <path d="M 0 0 
L 0 3.5 
" id="m3427dc6d2f" style="stroke:#000000;stroke-width:0.8;"/>
      </defs>
      <g>
       <use style="stroke:#000000;stroke-width:0.8;" x="51.574644" xlink:href="#m3427dc6d2f" y="58.282708"/>
      </g>
     </g>
    </g>
    <g id="xtick_2">
     <g id="line2d_2">
      <g>
       <use style="stroke:#000000;stroke-width:0.8;" x="57.489664" xlink:href="#m3427dc6d2f" y="58.282708"/>
      </g>
     </g>
    </g>
    <g id="xtick_3">
     <g id="line2d_3">
      <g>
       <use style="stroke:#000000;stroke-width:0.8;" x="63.404684" xlink:href="#m3427dc6d2f" y="58.282708"/>
      </g>
     </g>
    </g>
    <g id="xtick_4">
     <g id="line2d_4">
      <g>
       <use style="stroke:#000000;stroke-width:0.8;" x="69.319704" xlink:href="#m3427dc6d2f" y="58.282708"/>
      </g>
     </g>
    </g>
    <g id="xtick_5">
     <g id="line2d_5">
      <g>
       <use style="stroke:#000000;stroke-width:0.8;" x="75.234723" xlink:href="#m3427dc6d2f" y="58.282708"/>
      </g>
     </g>
    </g>
    <g id="xtick_6">
     <g id="line2d_6">
      <g>
       <use style="stroke:#000000;stroke-width:0.8;" x="81.149743" xlink:href="#m3427dc6d2f" y="58.282708"/>
      </g>
     </g>
    </g>
    <g id="xtick_7">
     <g id="line2d_7">
      <g>
       <use style="stroke:#000000;stroke-width:0.8;" x="87.064763" xlink:href="#m3427dc6d2f" y="58.282708"/>
      </g>
     </g>
    </g>
    <g id="xtick_8">
     <g id="line2d_8">
      <g>
       <use style="stroke:#000000;stroke-width:0.8;" x="92.979783" xlink:href="#m3427dc6d2f" y="58.282708"/>
      </g>
     </g>
    </g>
    <g id="xtick_9">
     <g id="line2d_9">
      <g>
       <use style="stroke:#000000;stroke-width:0.8;" x="98.894802" xlink:href="#m3427dc6d2f" y="58.282708"/>
      </g>
     </g>
    </g>
    <g id="xtick_10">
     <g id="line2d_10">
      <g>
       <use style="stroke:#000000;stroke-width:0.8;" x="104.809822" xlink:href="#m3427dc6d2f" y="58.282708"/>
      </g>
     </g>
    </g>
    <g id="xtick_11">
     <g id="line2d_11">
      <g>
       <use style="stroke:#000000;stroke-width:0.8;" x="110.724842" xlink:href="#m3427dc6d2f" y="58.282708"/>
      </g>
     </g>
    </g>
    <g id="xtick_12">
     <g id="line2d_12">
      <g>
       <use style="stroke:#000000;stroke-width:0.8;" x="116.639862" xlink:href="#m3427dc6d2f" y="58.282708"/>
      </g>
     </g>
    </g>
    <g id="xtick_13">
     <g id="line2d_13">
      <g>
       <use style="stroke:#000000;stroke-width:0.8;" x="122.554881" xlink:href="#m3427dc6d2f" y="58.282708"/>
      </g>
     </g>
    </g>
    <g id="xtick_14">
     <g id="line2d_14">
      <g>
       <use style="stroke:#000000;stroke-width:0.8;" x="128.469901" xlink:href="#m3427dc6d2f" y="58.282708"/>
      </g>
     </g>
    </g>
    <g id="xtick_15">
     <g id="line2d_15">
      <g>
       <use style="stroke:#000000;stroke-width:0.8;" x="134.384921" xlink:href="#m3427dc6d2f" y="58.282708"/>
      </g>
     </g>
    </g>
    <g id="xtick_16">
     <g id="line2d_16">
      <g>
       <use style="stroke:#000000;stroke-width:0.8;" x="140.299941" xlink:href="#m3427dc6d2f" y="58.282708"/>
      </g>
     </g>
    </g>
    <g id="xtick_17">
     <g id="line2d_17">
      <g>
       <use style="stroke:#000000;stroke-width:0.8;" x="146.21496" xlink:href="#m3427dc6d2f" y="58.282708"/>
      </g>
     </g>
    </g>
    <g id="xtick_18">
     <g id="line2d_18">
      <g>
       <use style="stroke:#000000;stroke-width:0.8;" x="152.12998" xlink:href="#m3427dc6d2f" y="58.282708"/>
      </g>
     </g>
    </g>
    <g id="xtick_19">
     <g id="line2d_19">
      <g>
       <use style="stroke:#000000;stroke-width:0.8;" x="158.045" xlink:href="#m3427dc6d2f" y="58.282708"/>
      </g>
     </g>
    </g>
    <g id="xtick_20">
     <g id="line2d_20">
      <g>
       <use style="stroke:#000000;stroke-width:0.8;" x="163.96002" xlink:href="#m3427dc6d2f" y="58.282708"/>
      </g>
     </g>
    </g>
    <g id="xtick_21">
     <g id="line2d_21">
      <g>
       <use style="stroke:#000000;stroke-width:0.8;" x="169.87504" xlink:href="#m3427dc6d2f" y="58.282708"/>
      </g>
     </g>
    </g>
    <g id="xtick_22">
     <g id="line2d_22">
      <g>
       <use style="stroke:#000000;stroke-width:0.8;" x="175.790059" xlink:href="#m3427dc6d2f" y="58.282708"/>
      </g>
     </g>
    </g>
    <g id="xtick_23">
     <g id="line2d_23">
      <g>
       <use style="stroke:#000000;stroke-width:0.8;" x="181.705079" xlink:href="#m3427dc6d2f" y="58.282708"/>
      </g>
     </g>
    </g>
    <g id="xtick_24">
     <g id="line2d_24">
      <g>
       <use style="stroke:#000000;stroke-width:0.8;" x="187.620099" xlink:href="#m3427dc6d2f" y="58.282708"/>
      </g>
     </g>
    </g>
    <g id="xtick_25">
     <g id="line2d_25">
      <g>
       <use style="stroke:#000000;stroke-width:0.8;" x="193.535119" xlink:href="#m3427dc6d2f" y="58.282708"/>
      </g>
     </g>
    </g>
    <g id="xtick_26">
     <g id="line2d_26">
      <g>
       <use style="stroke:#000000;stroke-width:0.8;" x="199.450138" xlink:href="#m3427dc6d2f" y="58.282708"/>
      </g>
     </g>
    </g>
    <g id="xtick_27">
     <g id="line2d_27">
      <g>
       <use style="stroke:#000000;stroke-width:0.8;" x="205.365158" xlink:href="#m3427dc6d2f" y="58.282708"/>
      </g>
     </g>
    </g>
    <g id="xtick_28">
     <g id="line2d_28">
      <g>
       <use style="stroke:#000000;stroke-width:0.8;" x="211.280178" xlink:href="#m3427dc6d2f" y="58.282708"/>
      </g>
     </g>
    </g>
    <g id="xtick_29">
     <g id="line2d_29">
      <g>
       <use style="stroke:#000000;stroke-width:0.8;" x="217.195198" xlink:href="#m3427dc6d2f" y="58.282708"/>
      </g>
     </g>
    </g>
    <g id="xtick_30">
     <g id="line2d_30">
      <g>
       <use style="stroke:#000000;stroke-width:0.8;" x="223.110217" xlink:href="#m3427dc6d2f" y="58.282708"/>
      </g>
     </g>
    </g>
    <g id="xtick_31">
     <g id="line2d_31">
      <g>
       <use style="stroke:#000000;stroke-width:0.8;" x="229.025237" xlink:href="#m3427dc6d2f" y="58.282708"/>
      </g>
     </g>
    </g>
    <g id="xtick_32">
     <g id="line2d_32">
      <g>
       <use style="stroke:#000000;stroke-width:0.8;" x="234.940257" xlink:href="#m3427dc6d2f" y="58.282708"/>
      </g>
     </g>
    </g>
    <g id="xtick_33">
     <g id="line2d_33">
      <g>
       <use style="stroke:#000000;stroke-width:0.8;" x="240.855277" xlink:href="#m3427dc6d2f" y="58.282708"/>
      </g>
     </g>
    </g>
    <g id="xtick_34">
     <g id="line2d_34">
      <g>
       <use style="stroke:#000000;stroke-width:0.8;" x="246.770296" xlink:href="#m3427dc6d2f" y="58.282708"/>
      </g>
     </g>
    </g>
    <g id="xtick_35">
     <g id="line2d_35">
      <g>
       <use style="stroke:#000000;stroke-width:0.8;" x="252.685316" xlink:href="#m3427dc6d2f" y="58.282708"/>
      </g>
     </g>
    </g>
    <g id="xtick_36">
     <g id="line2d_36">
      <g>
       <use style="stroke:#000000;stroke-width:0.8;" x="258.600336" xlink:href="#m3427dc6d2f" y="58.282708"/>
      </g>
     </g>
    </g>
    <g id="xtick_37">
     <g id="line2d_37">
      <g>
       <use style="stroke:#000000;stroke-width:0.8;" x="264.515356" xlink:href="#m3427dc6d2f" y="58.282708"/>
      </g>
     </g>
    </g>
   </g>
   <g id="matplotlib.axis_2">
    <g id="ytick_1">
     <g id="line2d_38">
      <defs>
       <path d="M 0 0 
L -3.5 0 
" id="md2eeca65f1" style="stroke:#000000;stroke-width:0.8;"/>
      </defs>
      <g>
       <use style="stroke:#000000;stroke-width:0.8;" x="38.325" xlink:href="#md2eeca65f1" y="58.282708"/>
      </g>
     </g>
     <g id="text_1">
      <!-- 0 -->
      <g transform="translate(27.13 61.232083)scale(0.08 -0.08)">
       <defs>
        <path d="M 3.125 37.9375 
Q 3.125 53.375 9.375 63.078125 
Q 15.625 72.796875 26.953125 72.796875 
Q 38.1875 72.796875 43.828125 64.6875 
Q 49.46875 56.59375 49.46875 36.375 
Q 49.46875 19 43.546875 9 
Q 37.640625 -0.984375 26.265625 -0.984375 
Q 14.890625 -0.984375 9 7.078125 
Q 3.125 15.140625 3.125 37.9375 
z
M 12.890625 37.0625 
Q 12.890625 7.328125 25.59375 7.328125 
Q 32.859375 7.328125 36.28125 13.921875 
Q 39.703125 20.515625 39.703125 37.015625 
Q 39.703125 48.390625 38.375 53.703125 
Q 37.0625 59.03125 34.125 61.765625 
Q 31.203125 64.5 26.703125 64.5 
Q 12.890625 64.5 12.890625 37.0625 
z
" id="TrebuchetMS-48"/>
       </defs>
       <use xlink:href="#TrebuchetMS-48"/>
      </g>
     </g>
    </g>
    <g id="ytick_2">
     <g id="line2d_39">
      <g>
       <use style="stroke:#000000;stroke-width:0.8;" x="38.325" xlink:href="#md2eeca65f1" y="34.216042"/>
      </g>
     </g>
     <g id="text_2">
      <!-- 50 -->
      <g transform="translate(22.935 37.165417)scale(0.08 -0.08)">
       <defs>
        <path d="M 11.328125 34.90625 
L 8.015625 37.203125 
L 8.015625 71.828125 
L 43.609375 71.828125 
L 43.609375 63.53125 
L 17.28125 63.53125 
L 17.28125 46.140625 
Q 20.90625 48.828125 26.46875 48.828125 
Q 36.421875 48.828125 41.671875 42.875 
Q 46.921875 36.921875 46.921875 25.921875 
Q 46.921875 -0.984375 22.953125 -0.984375 
Q 12.9375 -0.984375 6.34375 4.59375 
L 10.109375 12.75 
Q 16.75 7.328125 22.90625 7.328125 
Q 36.671875 7.328125 36.671875 24.515625 
Q 36.671875 40.53125 23.09375 40.53125 
Q 16.546875 40.53125 11.328125 34.90625 
z
" id="TrebuchetMS-53"/>
       </defs>
       <use xlink:href="#TrebuchetMS-53"/>
       <use x="52.441406" xlink:href="#TrebuchetMS-48"/>
      </g>
     </g>
    </g>
    <g id="ytick_3">
     <g id="line2d_40">
      <g>
       <use style="stroke:#000000;stroke-width:0.8;" x="38.325" xlink:href="#md2eeca65f1" y="10.149375"/>
      </g>
     </g>
     <g id="text_3">
      <!-- 100 -->
      <g transform="translate(18.74 13.09875)scale(0.08 -0.08)">
       <defs>
        <path d="M 24.3125 0 
L 24.3125 54.828125 
L 9.765625 45.75 
L 9.765625 54.890625 
Q 15.28125 57.671875 21.5 62.546875 
Q 27.734375 67.4375 31.15625 71.828125 
L 34.078125 71.828125 
L 34.078125 0 
z
" id="TrebuchetMS-49"/>
       </defs>
       <use xlink:href="#TrebuchetMS-49"/>
       <use x="52.441406" xlink:href="#TrebuchetMS-48"/>
       <use x="104.882812" xlink:href="#TrebuchetMS-48"/>
      </g>
     </g>
    </g>
    <g id="text_4">
     <!-- patchy -->
     <g transform="translate(13.09875 46.271667)rotate(-90)scale(0.08 -0.08)">
      <defs>
       <path d="M 15.875 2.875 
L 15.875 -20.515625 
L 6.59375 -20.515625 
L 6.59375 52.296875 
L 15.875 52.296875 
L 15.875 48 
Q 21.140625 53.265625 28.609375 53.265625 
Q 39.75 53.265625 45.953125 46.328125 
Q 52.15625 39.40625 52.15625 26.03125 
Q 52.15625 14.109375 45.90625 6.5625 
Q 39.65625 -0.984375 27.828125 -0.984375 
Q 24.515625 -0.984375 20.71875 0.1875 
Q 16.9375 1.375 15.875 2.875 
z
M 15.875 41.015625 
L 15.875 10.546875 
Q 16.75 9.234375 19.578125 8.03125 
Q 22.40625 6.84375 25.09375 6.84375 
Q 42.390625 6.84375 42.390625 26.375 
Q 42.390625 36.28125 38.28125 40.859375 
Q 34.1875 45.453125 25.140625 45.453125 
Q 23.1875 45.453125 20.359375 44.078125 
Q 17.53125 42.71875 15.875 41.015625 
z
" id="TrebuchetMS-112"/>
       <path d="M 36.140625 6 
Q 30.5625 -0.984375 19.09375 -0.984375 
Q 12.9375 -0.984375 8.421875 3.484375 
Q 3.90625 7.953125 3.90625 14.59375 
Q 3.90625 22.5625 10.859375 28.046875 
Q 17.828125 33.546875 28.609375 33.546875 
Q 31.546875 33.546875 35.25 32.28125 
Q 35.25 44.96875 23.921875 44.96875 
Q 15.234375 44.96875 10.546875 40.28125 
L 6.640625 48.046875 
Q 9.28125 50.203125 13.9375 51.734375 
Q 18.609375 53.265625 22.859375 53.265625 
Q 34.234375 53.265625 39.375 48.09375 
Q 44.53125 42.921875 44.53125 31.640625 
L 44.53125 12.890625 
Q 44.53125 6 48.640625 3.71875 
L 48.640625 -0.921875 
Q 42.96875 -0.921875 40.15625 0.6875 
Q 37.359375 2.296875 36.140625 6 
z
M 35.25 25.6875 
Q 30.859375 26.65625 29.109375 26.65625 
Q 22.078125 26.65625 17.625 23.046875 
Q 13.1875 19.4375 13.1875 14.5 
Q 13.1875 6.34375 22.796875 6.34375 
Q 29.828125 6.34375 35.25 13.03125 
z
" id="TrebuchetMS-97"/>
       <path d="M 9.90625 44.96875 
L 3.859375 44.96875 
L 3.859375 52.296875 
L 9.90625 52.296875 
L 9.90625 63.234375 
L 19.1875 66.796875 
L 19.1875 52.296875 
L 33.546875 52.296875 
L 33.546875 44.96875 
L 19.1875 44.96875 
L 19.1875 19 
Q 19.1875 12.40625 21.40625 9.625 
Q 23.640625 6.84375 28.5625 6.84375 
Q 32.125 6.84375 35.9375 8.640625 
L 37.3125 0.484375 
Q 31.546875 -0.984375 24.65625 -0.984375 
Q 18.453125 -0.984375 14.171875 3.625 
Q 9.90625 8.25 9.90625 15.28125 
z
" id="TrebuchetMS-116"/>
       <path d="M 46.046875 48.046875 
L 41.453125 41.5 
Q 40.046875 42.921875 36.453125 44.1875 
Q 32.859375 45.453125 29.390625 45.453125 
Q 21.828125 45.453125 17.375 40.15625 
Q 12.9375 34.859375 12.9375 25.640625 
Q 12.9375 16.453125 17.46875 11.640625 
Q 22.015625 6.84375 30.078125 6.84375 
Q 36.328125 6.84375 42.671875 11.671875 
L 46.34375 3.859375 
Q 38.875 -0.984375 27.828125 -0.984375 
Q 17.140625 -0.984375 10.15625 6.1875 
Q 3.171875 13.375 3.171875 25.640625 
Q 3.171875 38.140625 10.421875 45.703125 
Q 17.671875 53.265625 30.28125 53.265625 
Q 34.328125 53.265625 39.0625 51.5625 
Q 43.796875 49.859375 46.046875 48.046875 
z
" id="TrebuchetMS-99"/>
       <path d="M 38.8125 0 
L 38.8125 32.859375 
Q 38.8125 38.71875 35.9375 42.078125 
Q 33.0625 45.453125 27.828125 45.453125 
Q 24.46875 45.453125 21.0625 43.46875 
Q 17.671875 41.5 15.875 38.875 
L 15.875 0 
L 6.59375 0 
L 6.59375 73.734375 
L 15.875 73.734375 
L 15.875 46.53125 
Q 17.71875 49.421875 21.84375 51.34375 
Q 25.984375 53.265625 30.375 53.265625 
Q 38.671875 53.265625 43.375 47.796875 
Q 48.09375 42.328125 48.09375 32.859375 
L 48.09375 0 
z
" id="TrebuchetMS-104"/>
       <path d="M 26.5625 -8.890625 
Q 24.75 -13.875 18.96875 -17.1875 
Q 13.1875 -20.515625 6.0625 -20.515625 
L 6.0625 -12.203125 
Q 11.859375 -12.203125 16.015625 -9.484375 
Q 20.171875 -6.78125 20.171875 -2.875 
Q 20.171875 1.421875 18.65625 5.59375 
Q 17.140625 9.765625 14.75 15.921875 
L 0.59375 52.296875 
L 10.0625 52.296875 
L 25.4375 11.859375 
L 39.265625 52.296875 
L 48.734375 52.296875 
z
" id="TrebuchetMS-121"/>
      </defs>
      <use xlink:href="#TrebuchetMS-112"/>
      <use x="55.712891" xlink:href="#TrebuchetMS-97"/>
      <use x="108.251953" xlink:href="#TrebuchetMS-116"/>
      <use x="147.900391" xlink:href="#TrebuchetMS-99"/>
      <use x="197.412109" xlink:href="#TrebuchetMS-104"/>
      <use x="252.050781" xlink:href="#TrebuchetMS-121"/>
     </g>
    </g>
   </g>
   <g id="patch_40">
    <path d="M 38.325 58.282708 
L 38.325 10.149375 
" style="fill:none;stroke:#000000;stroke-linecap:square;stroke-linejoin:miter;stroke-width:0.8;"/>
   </g>
   <g id="patch_41">
    <path d="M 38.325 58.282708 
L 277.765 58.282708 
" style="fill:none;stroke:#000000;stroke-linecap:square;stroke-linejoin:miter;stroke-width:0.8;"/>
   </g>
  </g>
  <g id="axes_2">
   <g id="patch_42">
    <path d="M 38.325 122.736042 
L 277.765 122.736042 
L 277.765 74.602708 
L 38.325 74.602708 
z
" style="fill:#ffffff;"/>
   </g>
   <g id="patch_43">
    <path clip-path="url(#pa1b8b415cb)" d="M 49.208636 122.736042 
L 53.940652 122.736042 
L 53.940652 115.859851 
L 49.208636 115.859851 
z
" style="fill:#778899;"/>
   </g>
   <g id="patch_44">
    <path clip-path="url(#pa1b8b415cb)" d="M 55.123656 122.736042 
L 59.855672 122.736042 
L 59.855672 115.330913 
L 55.123656 115.330913 
z
" style="fill:#778899;"/>
   </g>
   <g id="patch_45">
    <path clip-path="url(#pa1b8b415cb)" d="M 61.038676 122.736042 
L 65.770692 122.736042 
L 65.770692 106.691597 
L 61.038676 106.691597 
z
" style="fill:#778899;"/>
   </g>
   <g id="patch_46">
    <path clip-path="url(#pa1b8b415cb)" d="M 66.953696 122.736042 
L 71.685711 122.736042 
L 71.685711 122.736042 
L 66.953696 122.736042 
z
" style="fill:#778899;"/>
   </g>
   <g id="patch_47">
    <path clip-path="url(#pa1b8b415cb)" d="M 72.868715 122.736042 
L 77.600731 122.736042 
L 77.600731 122.736042 
L 72.868715 122.736042 
z
" style="fill:#778899;"/>
   </g>
   <g id="patch_48">
    <path clip-path="url(#pa1b8b415cb)" d="M 78.783735 122.736042 
L 83.515751 122.736042 
L 83.515751 122.736042 
L 78.783735 122.736042 
z
" style="fill:#778899;"/>
   </g>
   <g id="patch_49">
    <path clip-path="url(#pa1b8b415cb)" d="M 84.698755 122.736042 
L 89.430771 122.736042 
L 89.430771 120.061968 
L 84.698755 120.061968 
z
" style="fill:#778899;"/>
   </g>
   <g id="patch_50">
    <path clip-path="url(#pa1b8b415cb)" d="M 90.613775 122.736042 
L 95.345791 122.736042 
L 95.345791 120.061968 
L 90.613775 120.061968 
z
" style="fill:#778899;"/>
   </g>
   <g id="patch_51">
    <path clip-path="url(#pa1b8b415cb)" d="M 96.528794 122.736042 
L 101.26081 122.736042 
L 101.26081 122.736042 
L 96.528794 122.736042 
z
" style="fill:#778899;"/>
   </g>
   <g id="patch_52">
    <path clip-path="url(#pa1b8b415cb)" d="M 102.443814 122.736042 
L 107.17583 122.736042 
L 107.17583 122.736042 
L 102.443814 122.736042 
z
" style="fill:#778899;"/>
   </g>
   <g id="patch_53">
    <path clip-path="url(#pa1b8b415cb)" d="M 108.358834 122.736042 
L 113.09085 122.736042 
L 113.09085 122.736042 
L 108.358834 122.736042 
z
" style="fill:#778899;"/>
   </g>
   <g id="patch_54">
    <path clip-path="url(#pa1b8b415cb)" d="M 114.273854 122.736042 
L 119.00587 122.736042 
L 119.00587 120.061968 
L 114.273854 120.061968 
z
" style="fill:#778899;"/>
   </g>
   <g id="patch_55">
    <path clip-path="url(#pa1b8b415cb)" d="M 120.188874 122.736042 
L 124.920889 122.736042 
L 124.920889 120.061968 
L 120.188874 120.061968 
z
" style="fill:#778899;"/>
   </g>
   <g id="patch_56">
    <path clip-path="url(#pa1b8b415cb)" d="M 126.103893 122.736042 
L 130.835909 122.736042 
L 130.835909 122.736042 
L 126.103893 122.736042 
z
" style="fill:#778899;"/>
   </g>
   <g id="patch_57">
    <path clip-path="url(#pa1b8b415cb)" d="M 132.018913 122.736042 
L 136.750929 122.736042 
L 136.750929 114.713819 
L 132.018913 114.713819 
z
" style="fill:#778899;"/>
   </g>
   <g id="patch_58">
    <path clip-path="url(#pa1b8b415cb)" d="M 137.933933 122.736042 
L 142.665949 122.736042 
L 142.665949 118.724931 
L 137.933933 118.724931 
z
" style="fill:#778899;"/>
   </g>
   <g id="patch_59">
    <path clip-path="url(#pa1b8b415cb)" d="M 143.848953 122.736042 
L 148.580968 122.736042 
L 148.580968 114.713819 
L 143.848953 114.713819 
z
" style="fill:#778899;"/>
   </g>
   <g id="patch_60">
    <path clip-path="url(#pa1b8b415cb)" d="M 149.763972 122.736042 
L 154.495988 122.736042 
L 154.495988 115.516042 
L 149.763972 115.516042 
z
" style="fill:#778899;"/>
   </g>
   <g id="patch_61">
    <path clip-path="url(#pa1b8b415cb)" d="M 155.678992 122.736042 
L 160.411008 122.736042 
L 160.411008 119.727708 
L 155.678992 119.727708 
z
" style="fill:#778899;"/>
   </g>
   <g id="patch_62">
    <path clip-path="url(#pa1b8b415cb)" d="M 161.594012 122.736042 
L 166.326028 122.736042 
L 166.326028 113.109375 
L 161.594012 113.109375 
z
" style="fill:#778899;"/>
   </g>
   <g id="patch_63">
    <path clip-path="url(#pa1b8b415cb)" d="M 167.509032 122.736042 
L 172.241047 122.736042 
L 172.241047 118.724931 
L 167.509032 118.724931 
z
" style="fill:#778899;"/>
   </g>
   <g id="patch_64">
    <path clip-path="url(#pa1b8b415cb)" d="M 173.424051 122.736042 
L 178.156067 122.736042 
L 178.156067 116.719375 
L 173.424051 116.719375 
z
" style="fill:#778899;"/>
   </g>
   <g id="patch_65">
    <path clip-path="url(#pa1b8b415cb)" d="M 179.339071 122.736042 
L 184.071087 122.736042 
L 184.071087 118.724931 
L 179.339071 118.724931 
z
" style="fill:#778899;"/>
   </g>
   <g id="patch_66">
    <path clip-path="url(#pa1b8b415cb)" d="M 185.254091 122.736042 
L 189.986107 122.736042 
L 189.986107 122.736042 
L 185.254091 122.736042 
z
" style="fill:#778899;"/>
   </g>
   <g id="patch_67">
    <path clip-path="url(#pa1b8b415cb)" d="M 191.169111 122.736042 
L 195.901126 122.736042 
L 195.901126 112.421756 
L 191.169111 112.421756 
z
" style="fill:#778899;"/>
   </g>
   <g id="patch_68">
    <path clip-path="url(#pa1b8b415cb)" d="M 197.08413 122.736042 
L 201.816146 122.736042 
L 201.816146 122.736042 
L 197.08413 122.736042 
z
" style="fill:#778899;"/>
   </g>
   <g id="patch_69">
    <path clip-path="url(#pa1b8b415cb)" d="M 202.99915 122.736042 
L 207.731166 122.736042 
L 207.731166 122.736042 
L 202.99915 122.736042 
z
" style="fill:#778899;"/>
   </g>
   <g id="patch_70">
    <path clip-path="url(#pa1b8b415cb)" d="M 208.91417 122.736042 
L 213.646186 122.736042 
L 213.646186 122.736042 
L 208.91417 122.736042 
z
" style="fill:#778899;"/>
   </g>
   <g id="patch_71">
    <path clip-path="url(#pa1b8b415cb)" d="M 214.82919 122.736042 
L 219.561206 122.736042 
L 219.561206 122.736042 
L 214.82919 122.736042 
z
" style="fill:#778899;"/>
   </g>
   <g id="patch_72">
    <path clip-path="url(#pa1b8b415cb)" d="M 220.744209 122.736042 
L 225.476225 122.736042 
L 225.476225 122.736042 
L 220.744209 122.736042 
z
" style="fill:#778899;"/>
   </g>
   <g id="patch_73">
    <path clip-path="url(#pa1b8b415cb)" d="M 226.659229 122.736042 
L 231.391245 122.736042 
L 231.391245 122.736042 
L 226.659229 122.736042 
z
" style="fill:#778899;"/>
   </g>
   <g id="patch_74">
    <path clip-path="url(#pa1b8b415cb)" d="M 232.574249 122.736042 
L 237.306265 122.736042 
L 237.306265 122.736042 
L 232.574249 122.736042 
z
" style="fill:#778899;"/>
   </g>
   <g id="patch_75">
    <path clip-path="url(#pa1b8b415cb)" d="M 238.489269 122.736042 
L 243.221285 122.736042 
L 243.221285 122.736042 
L 238.489269 122.736042 
z
" style="fill:#778899;"/>
   </g>
   <g id="patch_76">
    <path clip-path="url(#pa1b8b415cb)" d="M 244.404289 122.736042 
L 249.136304 122.736042 
L 249.136304 122.736042 
L 244.404289 122.736042 
z
" style="fill:#778899;"/>
   </g>
   <g id="patch_77">
    <path clip-path="url(#pa1b8b415cb)" d="M 250.319308 122.736042 
L 255.051324 122.736042 
L 255.051324 122.736042 
L 250.319308 122.736042 
z
" style="fill:#778899;"/>
   </g>
   <g id="patch_78">
    <path clip-path="url(#pa1b8b415cb)" d="M 256.234328 122.736042 
L 260.966344 122.736042 
L 260.966344 122.736042 
L 256.234328 122.736042 
z
" style="fill:#778899;"/>
   </g>
   <g id="patch_79">
    <path clip-path="url(#pa1b8b415cb)" d="M 262.149348 122.736042 
L 266.881364 122.736042 
L 266.881364 114.713819 
L 262.149348 114.713819 
z
" style="fill:#778899;"/>
   </g>
   <g id="matplotlib.axis_3">
    <g id="xtick_38">
     <g id="line2d_41">
      <g>
       <use style="stroke:#000000;stroke-width:0.8;" x="51.574644" xlink:href="#m3427dc6d2f" y="122.736042"/>
      </g>
     </g>
    </g>
    <g id="xtick_39">
     <g id="line2d_42">
      <g>
       <use style="stroke:#000000;stroke-width:0.8;" x="57.489664" xlink:href="#m3427dc6d2f" y="122.736042"/>
      </g>
     </g>
    </g>
    <g id="xtick_40">
     <g id="line2d_43">
      <g>
       <use style="stroke:#000000;stroke-width:0.8;" x="63.404684" xlink:href="#m3427dc6d2f" y="122.736042"/>
      </g>
     </g>
    </g>
    <g id="xtick_41">
     <g id="line2d_44">
      <g>
       <use style="stroke:#000000;stroke-width:0.8;" x="69.319704" xlink:href="#m3427dc6d2f" y="122.736042"/>
      </g>
     </g>
    </g>
    <g id="xtick_42">
     <g id="line2d_45">
      <g>
       <use style="stroke:#000000;stroke-width:0.8;" x="75.234723" xlink:href="#m3427dc6d2f" y="122.736042"/>
      </g>
     </g>
    </g>
    <g id="xtick_43">
     <g id="line2d_46">
      <g>
       <use style="stroke:#000000;stroke-width:0.8;" x="81.149743" xlink:href="#m3427dc6d2f" y="122.736042"/>
      </g>
     </g>
    </g>
    <g id="xtick_44">
     <g id="line2d_47">
      <g>
       <use style="stroke:#000000;stroke-width:0.8;" x="87.064763" xlink:href="#m3427dc6d2f" y="122.736042"/>
      </g>
     </g>
    </g>
    <g id="xtick_45">
     <g id="line2d_48">
      <g>
       <use style="stroke:#000000;stroke-width:0.8;" x="92.979783" xlink:href="#m3427dc6d2f" y="122.736042"/>
      </g>
     </g>
    </g>
    <g id="xtick_46">
     <g id="line2d_49">
      <g>
       <use style="stroke:#000000;stroke-width:0.8;" x="98.894802" xlink:href="#m3427dc6d2f" y="122.736042"/>
      </g>
     </g>
    </g>
    <g id="xtick_47">
     <g id="line2d_50">
      <g>
       <use style="stroke:#000000;stroke-width:0.8;" x="104.809822" xlink:href="#m3427dc6d2f" y="122.736042"/>
      </g>
     </g>
    </g>
    <g id="xtick_48">
     <g id="line2d_51">
      <g>
       <use style="stroke:#000000;stroke-width:0.8;" x="110.724842" xlink:href="#m3427dc6d2f" y="122.736042"/>
      </g>
     </g>
    </g>
    <g id="xtick_49">
     <g id="line2d_52">
      <g>
       <use style="stroke:#000000;stroke-width:0.8;" x="116.639862" xlink:href="#m3427dc6d2f" y="122.736042"/>
      </g>
     </g>
    </g>
    <g id="xtick_50">
     <g id="line2d_53">
      <g>
       <use style="stroke:#000000;stroke-width:0.8;" x="122.554881" xlink:href="#m3427dc6d2f" y="122.736042"/>
      </g>
     </g>
    </g>
    <g id="xtick_51">
     <g id="line2d_54">
      <g>
       <use style="stroke:#000000;stroke-width:0.8;" x="128.469901" xlink:href="#m3427dc6d2f" y="122.736042"/>
      </g>
     </g>
    </g>
    <g id="xtick_52">
     <g id="line2d_55">
      <g>
       <use style="stroke:#000000;stroke-width:0.8;" x="134.384921" xlink:href="#m3427dc6d2f" y="122.736042"/>
      </g>
     </g>
    </g>
    <g id="xtick_53">
     <g id="line2d_56">
      <g>
       <use style="stroke:#000000;stroke-width:0.8;" x="140.299941" xlink:href="#m3427dc6d2f" y="122.736042"/>
      </g>
     </g>
    </g>
    <g id="xtick_54">
     <g id="line2d_57">
      <g>
       <use style="stroke:#000000;stroke-width:0.8;" x="146.21496" xlink:href="#m3427dc6d2f" y="122.736042"/>
      </g>
     </g>
    </g>
    <g id="xtick_55">
     <g id="line2d_58">
      <g>
       <use style="stroke:#000000;stroke-width:0.8;" x="152.12998" xlink:href="#m3427dc6d2f" y="122.736042"/>
      </g>
     </g>
    </g>
    <g id="xtick_56">
     <g id="line2d_59">
      <g>
       <use style="stroke:#000000;stroke-width:0.8;" x="158.045" xlink:href="#m3427dc6d2f" y="122.736042"/>
      </g>
     </g>
    </g>
    <g id="xtick_57">
     <g id="line2d_60">
      <g>
       <use style="stroke:#000000;stroke-width:0.8;" x="163.96002" xlink:href="#m3427dc6d2f" y="122.736042"/>
      </g>
     </g>
    </g>
    <g id="xtick_58">
     <g id="line2d_61">
      <g>
       <use style="stroke:#000000;stroke-width:0.8;" x="169.87504" xlink:href="#m3427dc6d2f" y="122.736042"/>
      </g>
     </g>
    </g>
    <g id="xtick_59">
     <g id="line2d_62">
      <g>
       <use style="stroke:#000000;stroke-width:0.8;" x="175.790059" xlink:href="#m3427dc6d2f" y="122.736042"/>
      </g>
     </g>
    </g>
    <g id="xtick_60">
     <g id="line2d_63">
      <g>
       <use style="stroke:#000000;stroke-width:0.8;" x="181.705079" xlink:href="#m3427dc6d2f" y="122.736042"/>
      </g>
     </g>
    </g>
    <g id="xtick_61">
     <g id="line2d_64">
      <g>
       <use style="stroke:#000000;stroke-width:0.8;" x="187.620099" xlink:href="#m3427dc6d2f" y="122.736042"/>
      </g>
     </g>
    </g>
    <g id="xtick_62">
     <g id="line2d_65">
      <g>
       <use style="stroke:#000000;stroke-width:0.8;" x="193.535119" xlink:href="#m3427dc6d2f" y="122.736042"/>
      </g>
     </g>
    </g>
    <g id="xtick_63">
     <g id="line2d_66">
      <g>
       <use style="stroke:#000000;stroke-width:0.8;" x="199.450138" xlink:href="#m3427dc6d2f" y="122.736042"/>
      </g>
     </g>
    </g>
    <g id="xtick_64">
     <g id="line2d_67">
      <g>
       <use style="stroke:#000000;stroke-width:0.8;" x="205.365158" xlink:href="#m3427dc6d2f" y="122.736042"/>
      </g>
     </g>
    </g>
    <g id="xtick_65">
     <g id="line2d_68">
      <g>
       <use style="stroke:#000000;stroke-width:0.8;" x="211.280178" xlink:href="#m3427dc6d2f" y="122.736042"/>
      </g>
     </g>
    </g>
    <g id="xtick_66">
     <g id="line2d_69">
      <g>
       <use style="stroke:#000000;stroke-width:0.8;" x="217.195198" xlink:href="#m3427dc6d2f" y="122.736042"/>
      </g>
     </g>
    </g>
    <g id="xtick_67">
     <g id="line2d_70">
      <g>
       <use style="stroke:#000000;stroke-width:0.8;" x="223.110217" xlink:href="#m3427dc6d2f" y="122.736042"/>
      </g>
     </g>
    </g>
    <g id="xtick_68">
     <g id="line2d_71">
      <g>
       <use style="stroke:#000000;stroke-width:0.8;" x="229.025237" xlink:href="#m3427dc6d2f" y="122.736042"/>
      </g>
     </g>
    </g>
    <g id="xtick_69">
     <g id="line2d_72">
      <g>
       <use style="stroke:#000000;stroke-width:0.8;" x="234.940257" xlink:href="#m3427dc6d2f" y="122.736042"/>
      </g>
     </g>
    </g>
    <g id="xtick_70">
     <g id="line2d_73">
      <g>
       <use style="stroke:#000000;stroke-width:0.8;" x="240.855277" xlink:href="#m3427dc6d2f" y="122.736042"/>
      </g>
     </g>
    </g>
    <g id="xtick_71">
     <g id="line2d_74">
      <g>
       <use style="stroke:#000000;stroke-width:0.8;" x="246.770296" xlink:href="#m3427dc6d2f" y="122.736042"/>
      </g>
     </g>
    </g>
    <g id="xtick_72">
     <g id="line2d_75">
      <g>
       <use style="stroke:#000000;stroke-width:0.8;" x="252.685316" xlink:href="#m3427dc6d2f" y="122.736042"/>
      </g>
     </g>
    </g>
    <g id="xtick_73">
     <g id="line2d_76">
      <g>
       <use style="stroke:#000000;stroke-width:0.8;" x="258.600336" xlink:href="#m3427dc6d2f" y="122.736042"/>
      </g>
     </g>
    </g>
    <g id="xtick_74">
     <g id="line2d_77">
      <g>
       <use style="stroke:#000000;stroke-width:0.8;" x="264.515356" xlink:href="#m3427dc6d2f" y="122.736042"/>
      </g>
     </g>
    </g>
   </g>
   <g id="matplotlib.axis_4">
    <g id="ytick_4">
     <g id="line2d_78">
      <g>
       <use style="stroke:#000000;stroke-width:0.8;" x="38.325" xlink:href="#md2eeca65f1" y="122.736042"/>
      </g>
     </g>
     <g id="text_5">
      <!-- 0 -->
      <g transform="translate(27.13 125.685417)scale(0.08 -0.08)">
       <use xlink:href="#TrebuchetMS-48"/>
      </g>
     </g>
    </g>
    <g id="ytick_5">
     <g id="line2d_79">
      <g>
       <use style="stroke:#000000;stroke-width:0.8;" x="38.325" xlink:href="#md2eeca65f1" y="98.669375"/>
      </g>
     </g>
     <g id="text_6">
      <!-- 50 -->
      <g transform="translate(22.935 101.61875)scale(0.08 -0.08)">
       <use xlink:href="#TrebuchetMS-53"/>
       <use x="52.441406" xlink:href="#TrebuchetMS-48"/>
      </g>
     </g>
    </g>
    <g id="ytick_6">
     <g id="line2d_80">
      <g>
       <use style="stroke:#000000;stroke-width:0.8;" x="38.325" xlink:href="#md2eeca65f1" y="74.602708"/>
      </g>
     </g>
     <g id="text_7">
      <!-- 100 -->
      <g transform="translate(18.74 77.552083)scale(0.08 -0.08)">
       <use xlink:href="#TrebuchetMS-49"/>
       <use x="52.441406" xlink:href="#TrebuchetMS-48"/>
       <use x="104.882812" xlink:href="#TrebuchetMS-48"/>
      </g>
     </g>
    </g>
    <g id="text_8">
     <!-- smoky -->
     <g transform="translate(13.09875 109.745625)rotate(-90)scale(0.08 -0.08)">
      <defs>
       <path d="M 3.171875 3.125 
L 6.453125 11.921875 
Q 14.203125 6.84375 18.953125 6.84375 
Q 27.546875 6.84375 27.546875 14.0625 
Q 27.546875 19.234375 19.234375 22.953125 
Q 12.84375 25.875 10.625 27.390625 
Q 8.40625 28.90625 6.765625 30.828125 
Q 5.125 32.765625 4.3125 34.9375 
Q 3.515625 37.109375 3.515625 39.59375 
Q 3.515625 46.046875 8.203125 49.65625 
Q 12.890625 53.265625 20.453125 53.265625 
Q 26.171875 53.265625 34.859375 49.65625 
L 32.234375 41.0625 
Q 26.703125 45.453125 21.140625 45.453125 
Q 17.828125 45.453125 15.546875 43.890625 
Q 13.28125 42.328125 13.28125 39.9375 
Q 13.28125 34.90625 19 32.328125 
L 25.640625 29.296875 
Q 31.734375 26.515625 34.515625 22.953125 
Q 37.3125 19.390625 37.3125 14.015625 
Q 37.3125 6.984375 32.375 3 
Q 27.4375 -0.984375 18.703125 -0.984375 
Q 10.453125 -0.984375 3.171875 3.125 
z
" id="TrebuchetMS-115"/>
       <path d="M 67.140625 0 
L 67.140625 33.109375 
Q 67.140625 45.453125 56.453125 45.453125 
Q 53.078125 45.453125 50.140625 43.375 
Q 47.21875 41.3125 46.140625 38.671875 
L 46.140625 0 
L 36.859375 0 
L 36.859375 37.15625 
Q 36.859375 41.015625 33.953125 43.234375 
Q 31.0625 45.453125 26.265625 45.453125 
Q 23.484375 45.453125 20.328125 43.296875 
Q 17.1875 41.15625 15.875 38.578125 
L 15.875 0 
L 6.59375 0 
L 6.59375 52.296875 
L 12.640625 52.296875 
L 15.71875 46.234375 
Q 21.09375 53.265625 29.15625 53.265625 
Q 40.375 53.265625 44.875 46.296875 
Q 46.4375 49.265625 50.6875 51.265625 
Q 54.9375 53.265625 59.421875 53.265625 
Q 67.53125 53.265625 71.96875 48.453125 
Q 76.421875 43.65625 76.421875 34.96875 
L 76.421875 0 
z
" id="TrebuchetMS-109"/>
       <path d="M 3.171875 26.265625 
Q 3.171875 38.375 9.6875 45.8125 
Q 16.21875 53.265625 26.859375 53.265625 
Q 38.09375 53.265625 44.28125 46.109375 
Q 50.484375 38.96875 50.484375 26.265625 
Q 50.484375 13.625 44.140625 6.3125 
Q 37.796875 -0.984375 26.859375 -0.984375 
Q 15.671875 -0.984375 9.421875 6.390625 
Q 3.171875 13.765625 3.171875 26.265625 
z
M 12.9375 26.265625 
Q 12.9375 6.59375 26.859375 6.59375 
Q 33.34375 6.59375 37.03125 11.859375 
Q 40.71875 17.140625 40.71875 26.265625 
Q 40.71875 45.703125 26.859375 45.703125 
Q 20.515625 45.703125 16.71875 40.53125 
Q 12.9375 35.359375 12.9375 26.265625 
z
" id="TrebuchetMS-111"/>
       <path d="M 40.375 0 
L 23.96875 26.171875 
L 15.875 17.828125 
L 15.875 0 
L 6.59375 0 
L 6.59375 73.734375 
L 15.875 73.734375 
L 15.875 27.984375 
L 35.890625 52.296875 
L 46.734375 52.296875 
L 29.984375 32.421875 
L 50.4375 0 
z
" id="TrebuchetMS-107"/>
      </defs>
      <use xlink:href="#TrebuchetMS-115"/>
      <use x="40.478516" xlink:href="#TrebuchetMS-109"/>
      <use x="123.486328" xlink:href="#TrebuchetMS-111"/>
      <use x="177.148438" xlink:href="#TrebuchetMS-107"/>
      <use x="227.587891" xlink:href="#TrebuchetMS-121"/>
     </g>
    </g>
   </g>
   <g id="patch_80">
    <path d="M 38.325 122.736042 
L 38.325 74.602708 
" style="fill:none;stroke:#000000;stroke-linecap:square;stroke-linejoin:miter;stroke-width:0.8;"/>
   </g>
   <g id="patch_81">
    <path d="M 38.325 122.736042 
L 277.765 122.736042 
" style="fill:none;stroke:#000000;stroke-linecap:square;stroke-linejoin:miter;stroke-width:0.8;"/>
   </g>
  </g>
  <g id="axes_3">
   <g id="patch_82">
    <path d="M 38.325 187.189375 
L 277.765 187.189375 
L 277.765 139.056042 
L 38.325 139.056042 
z
" style="fill:#ffffff;"/>
   </g>
   <g id="patch_83">
    <path clip-path="url(#p7789392f3c)" d="M 49.208636 187.189375 
L 53.940652 187.189375 
L 53.940652 187.189375 
L 49.208636 187.189375 
z
" style="fill:#778899;"/>
   </g>
   <g id="patch_84">
    <path clip-path="url(#p7789392f3c)" d="M 55.123656 187.189375 
L 59.855672 187.189375 
L 59.855672 183.486811 
L 55.123656 183.486811 
z
" style="fill:#778899;"/>
   </g>
   <g id="patch_85">
    <path clip-path="url(#p7789392f3c)" d="M 61.038676 187.189375 
L 65.770692 187.189375 
L 65.770692 179.167153 
L 61.038676 179.167153 
z
" style="fill:#778899;"/>
   </g>
   <g id="patch_86">
    <path clip-path="url(#p7789392f3c)" d="M 66.953696 187.189375 
L 71.685711 187.189375 
L 71.685711 182.376042 
L 66.953696 182.376042 
z
" style="fill:#778899;"/>
   </g>
   <g id="patch_87">
    <path clip-path="url(#p7789392f3c)" d="M 72.868715 187.189375 
L 77.600731 187.189375 
L 77.600731 176.081683 
L 72.868715 176.081683 
z
" style="fill:#778899;"/>
   </g>
   <g id="patch_88">
    <path clip-path="url(#p7789392f3c)" d="M 78.783735 187.189375 
L 83.515751 187.189375 
L 83.515751 168.470856 
L 78.783735 168.470856 
z
" style="fill:#778899;"/>
   </g>
   <g id="patch_89">
    <path clip-path="url(#p7789392f3c)" d="M 84.698755 187.189375 
L 89.430771 187.189375 
L 89.430771 184.515301 
L 84.698755 184.515301 
z
" style="fill:#778899;"/>
   </g>
   <g id="patch_90">
    <path clip-path="url(#p7789392f3c)" d="M 90.613775 187.189375 
L 95.345791 187.189375 
L 95.345791 184.515301 
L 90.613775 184.515301 
z
" style="fill:#778899;"/>
   </g>
   <g id="patch_91">
    <path clip-path="url(#p7789392f3c)" d="M 96.528794 187.189375 
L 101.26081 187.189375 
L 101.26081 187.189375 
L 96.528794 187.189375 
z
" style="fill:#778899;"/>
   </g>
   <g id="patch_92">
    <path clip-path="url(#p7789392f3c)" d="M 102.443814 187.189375 
L 107.17583 187.189375 
L 107.17583 187.189375 
L 102.443814 187.189375 
z
" style="fill:#778899;"/>
   </g>
   <g id="patch_93">
    <path clip-path="url(#p7789392f3c)" d="M 108.358834 187.189375 
L 113.09085 187.189375 
L 113.09085 184.515301 
L 108.358834 184.515301 
z
" style="fill:#778899;"/>
   </g>
   <g id="patch_94">
    <path clip-path="url(#p7789392f3c)" d="M 114.273854 187.189375 
L 119.00587 187.189375 
L 119.00587 184.515301 
L 114.273854 184.515301 
z
" style="fill:#778899;"/>
   </g>
   <g id="patch_95">
    <path clip-path="url(#p7789392f3c)" d="M 120.188874 187.189375 
L 124.920889 187.189375 
L 124.920889 173.819005 
L 120.188874 173.819005 
z
" style="fill:#778899;"/>
   </g>
   <g id="patch_96">
    <path clip-path="url(#p7789392f3c)" d="M 126.103893 187.189375 
L 130.835909 187.189375 
L 130.835909 166.131042 
L 126.103893 166.131042 
z
" style="fill:#778899;"/>
   </g>
   <g id="patch_97">
    <path clip-path="url(#p7789392f3c)" d="M 132.018913 187.189375 
L 136.750929 187.189375 
L 136.750929 167.133819 
L 132.018913 167.133819 
z
" style="fill:#778899;"/>
   </g>
   <g id="patch_98">
    <path clip-path="url(#p7789392f3c)" d="M 137.933933 187.189375 
L 142.665949 187.189375 
L 142.665949 183.178264 
L 137.933933 183.178264 
z
" style="fill:#778899;"/>
   </g>
   <g id="patch_99">
    <path clip-path="url(#p7789392f3c)" d="M 143.848953 187.189375 
L 148.580968 187.189375 
L 148.580968 175.156042 
L 143.848953 175.156042 
z
" style="fill:#778899;"/>
   </g>
   <g id="patch_100">
    <path clip-path="url(#p7789392f3c)" d="M 149.763972 187.189375 
L 154.495988 187.189375 
L 154.495988 172.749375 
L 149.763972 172.749375 
z
" style="fill:#778899;"/>
   </g>
   <g id="patch_101">
    <path clip-path="url(#p7789392f3c)" d="M 155.678992 187.189375 
L 160.411008 187.189375 
L 160.411008 181.172708 
L 155.678992 181.172708 
z
" style="fill:#778899;"/>
   </g>
   <g id="patch_102">
    <path clip-path="url(#p7789392f3c)" d="M 161.594012 187.189375 
L 166.326028 187.189375 
L 166.326028 182.376042 
L 161.594012 182.376042 
z
" style="fill:#778899;"/>
   </g>
   <g id="patch_103">
    <path clip-path="url(#p7789392f3c)" d="M 167.509032 187.189375 
L 172.241047 187.189375 
L 172.241047 175.156042 
L 167.509032 175.156042 
z
" style="fill:#778899;"/>
   </g>
   <g id="patch_104">
    <path clip-path="url(#p7789392f3c)" d="M 173.424051 187.189375 
L 178.156067 187.189375 
L 178.156067 181.172708 
L 173.424051 181.172708 
z
" style="fill:#778899;"/>
   </g>
   <g id="patch_105">
    <path clip-path="url(#p7789392f3c)" d="M 179.339071 187.189375 
L 184.071087 187.189375 
L 184.071087 183.178264 
L 179.339071 183.178264 
z
" style="fill:#778899;"/>
   </g>
   <g id="patch_106">
    <path clip-path="url(#p7789392f3c)" d="M 185.254091 187.189375 
L 189.986107 187.189375 
L 189.986107 180.313185 
L 185.254091 180.313185 
z
" style="fill:#778899;"/>
   </g>
   <g id="patch_107">
    <path clip-path="url(#p7789392f3c)" d="M 191.169111 187.189375 
L 195.901126 187.189375 
L 195.901126 176.875089 
L 191.169111 176.875089 
z
" style="fill:#778899;"/>
   </g>
   <g id="patch_108">
    <path clip-path="url(#p7789392f3c)" d="M 197.08413 187.189375 
L 201.816146 187.189375 
L 201.816146 187.189375 
L 197.08413 187.189375 
z
" style="fill:#778899;"/>
   </g>
   <g id="patch_109">
    <path clip-path="url(#p7789392f3c)" d="M 202.99915 187.189375 
L 207.731166 187.189375 
L 207.731166 177.562708 
L 202.99915 177.562708 
z
" style="fill:#778899;"/>
   </g>
   <g id="patch_110">
    <path clip-path="url(#p7789392f3c)" d="M 208.91417 187.189375 
L 213.646186 187.189375 
L 213.646186 177.562708 
L 208.91417 177.562708 
z
" style="fill:#778899;"/>
   </g>
   <g id="patch_111">
    <path clip-path="url(#p7789392f3c)" d="M 214.82919 187.189375 
L 219.561206 187.189375 
L 219.561206 167.936042 
L 214.82919 167.936042 
z
" style="fill:#778899;"/>
   </g>
   <g id="patch_112">
    <path clip-path="url(#p7789392f3c)" d="M 220.744209 187.189375 
L 225.476225 187.189375 
L 225.476225 187.189375 
L 220.744209 187.189375 
z
" style="fill:#778899;"/>
   </g>
   <g id="patch_113">
    <path clip-path="url(#p7789392f3c)" d="M 226.659229 187.189375 
L 231.391245 187.189375 
L 231.391245 177.562708 
L 226.659229 177.562708 
z
" style="fill:#778899;"/>
   </g>
   <g id="patch_114">
    <path clip-path="url(#p7789392f3c)" d="M 232.574249 187.189375 
L 237.306265 187.189375 
L 237.306265 187.189375 
L 232.574249 187.189375 
z
" style="fill:#778899;"/>
   </g>
   <g id="patch_115">
    <path clip-path="url(#p7789392f3c)" d="M 238.489269 187.189375 
L 243.221285 187.189375 
L 243.221285 187.189375 
L 238.489269 187.189375 
z
" style="fill:#778899;"/>
   </g>
   <g id="patch_116">
    <path clip-path="url(#p7789392f3c)" d="M 244.404289 187.189375 
L 249.136304 187.189375 
L 249.136304 171.144931 
L 244.404289 171.144931 
z
" style="fill:#778899;"/>
   </g>
   <g id="patch_117">
    <path clip-path="url(#p7789392f3c)" d="M 250.319308 187.189375 
L 255.051324 187.189375 
L 255.051324 187.189375 
L 250.319308 187.189375 
z
" style="fill:#778899;"/>
   </g>
   <g id="patch_118">
    <path clip-path="url(#p7789392f3c)" d="M 256.234328 187.189375 
L 260.966344 187.189375 
L 260.966344 179.167153 
L 256.234328 179.167153 
z
" style="fill:#778899;"/>
   </g>
   <g id="patch_119">
    <path clip-path="url(#p7789392f3c)" d="M 262.149348 187.189375 
L 266.881364 187.189375 
L 266.881364 187.189375 
L 262.149348 187.189375 
z
" style="fill:#778899;"/>
   </g>
   <g id="matplotlib.axis_5">
    <g id="xtick_75">
     <g id="line2d_81">
      <g>
       <use style="stroke:#000000;stroke-width:0.8;" x="51.574644" xlink:href="#m3427dc6d2f" y="187.189375"/>
      </g>
     </g>
    </g>
    <g id="xtick_76">
     <g id="line2d_82">
      <g>
       <use style="stroke:#000000;stroke-width:0.8;" x="57.489664" xlink:href="#m3427dc6d2f" y="187.189375"/>
      </g>
     </g>
    </g>
    <g id="xtick_77">
     <g id="line2d_83">
      <g>
       <use style="stroke:#000000;stroke-width:0.8;" x="63.404684" xlink:href="#m3427dc6d2f" y="187.189375"/>
      </g>
     </g>
    </g>
    <g id="xtick_78">
     <g id="line2d_84">
      <g>
       <use style="stroke:#000000;stroke-width:0.8;" x="69.319704" xlink:href="#m3427dc6d2f" y="187.189375"/>
      </g>
     </g>
    </g>
    <g id="xtick_79">
     <g id="line2d_85">
      <g>
       <use style="stroke:#000000;stroke-width:0.8;" x="75.234723" xlink:href="#m3427dc6d2f" y="187.189375"/>
      </g>
     </g>
    </g>
    <g id="xtick_80">
     <g id="line2d_86">
      <g>
       <use style="stroke:#000000;stroke-width:0.8;" x="81.149743" xlink:href="#m3427dc6d2f" y="187.189375"/>
      </g>
     </g>
    </g>
    <g id="xtick_81">
     <g id="line2d_87">
      <g>
       <use style="stroke:#000000;stroke-width:0.8;" x="87.064763" xlink:href="#m3427dc6d2f" y="187.189375"/>
      </g>
     </g>
    </g>
    <g id="xtick_82">
     <g id="line2d_88">
      <g>
       <use style="stroke:#000000;stroke-width:0.8;" x="92.979783" xlink:href="#m3427dc6d2f" y="187.189375"/>
      </g>
     </g>
    </g>
    <g id="xtick_83">
     <g id="line2d_89">
      <g>
       <use style="stroke:#000000;stroke-width:0.8;" x="98.894802" xlink:href="#m3427dc6d2f" y="187.189375"/>
      </g>
     </g>
    </g>
    <g id="xtick_84">
     <g id="line2d_90">
      <g>
       <use style="stroke:#000000;stroke-width:0.8;" x="104.809822" xlink:href="#m3427dc6d2f" y="187.189375"/>
      </g>
     </g>
    </g>
    <g id="xtick_85">
     <g id="line2d_91">
      <g>
       <use style="stroke:#000000;stroke-width:0.8;" x="110.724842" xlink:href="#m3427dc6d2f" y="187.189375"/>
      </g>
     </g>
    </g>
    <g id="xtick_86">
     <g id="line2d_92">
      <g>
       <use style="stroke:#000000;stroke-width:0.8;" x="116.639862" xlink:href="#m3427dc6d2f" y="187.189375"/>
      </g>
     </g>
    </g>
    <g id="xtick_87">
     <g id="line2d_93">
      <g>
       <use style="stroke:#000000;stroke-width:0.8;" x="122.554881" xlink:href="#m3427dc6d2f" y="187.189375"/>
      </g>
     </g>
    </g>
    <g id="xtick_88">
     <g id="line2d_94">
      <g>
       <use style="stroke:#000000;stroke-width:0.8;" x="128.469901" xlink:href="#m3427dc6d2f" y="187.189375"/>
      </g>
     </g>
    </g>
    <g id="xtick_89">
     <g id="line2d_95">
      <g>
       <use style="stroke:#000000;stroke-width:0.8;" x="134.384921" xlink:href="#m3427dc6d2f" y="187.189375"/>
      </g>
     </g>
    </g>
    <g id="xtick_90">
     <g id="line2d_96">
      <g>
       <use style="stroke:#000000;stroke-width:0.8;" x="140.299941" xlink:href="#m3427dc6d2f" y="187.189375"/>
      </g>
     </g>
    </g>
    <g id="xtick_91">
     <g id="line2d_97">
      <g>
       <use style="stroke:#000000;stroke-width:0.8;" x="146.21496" xlink:href="#m3427dc6d2f" y="187.189375"/>
      </g>
     </g>
    </g>
    <g id="xtick_92">
     <g id="line2d_98">
      <g>
       <use style="stroke:#000000;stroke-width:0.8;" x="152.12998" xlink:href="#m3427dc6d2f" y="187.189375"/>
      </g>
     </g>
    </g>
    <g id="xtick_93">
     <g id="line2d_99">
      <g>
       <use style="stroke:#000000;stroke-width:0.8;" x="158.045" xlink:href="#m3427dc6d2f" y="187.189375"/>
      </g>
     </g>
    </g>
    <g id="xtick_94">
     <g id="line2d_100">
      <g>
       <use style="stroke:#000000;stroke-width:0.8;" x="163.96002" xlink:href="#m3427dc6d2f" y="187.189375"/>
      </g>
     </g>
    </g>
    <g id="xtick_95">
     <g id="line2d_101">
      <g>
       <use style="stroke:#000000;stroke-width:0.8;" x="169.87504" xlink:href="#m3427dc6d2f" y="187.189375"/>
      </g>
     </g>
    </g>
    <g id="xtick_96">
     <g id="line2d_102">
      <g>
       <use style="stroke:#000000;stroke-width:0.8;" x="175.790059" xlink:href="#m3427dc6d2f" y="187.189375"/>
      </g>
     </g>
    </g>
    <g id="xtick_97">
     <g id="line2d_103">
      <g>
       <use style="stroke:#000000;stroke-width:0.8;" x="181.705079" xlink:href="#m3427dc6d2f" y="187.189375"/>
      </g>
     </g>
    </g>
    <g id="xtick_98">
     <g id="line2d_104">
      <g>
       <use style="stroke:#000000;stroke-width:0.8;" x="187.620099" xlink:href="#m3427dc6d2f" y="187.189375"/>
      </g>
     </g>
    </g>
    <g id="xtick_99">
     <g id="line2d_105">
      <g>
       <use style="stroke:#000000;stroke-width:0.8;" x="193.535119" xlink:href="#m3427dc6d2f" y="187.189375"/>
      </g>
     </g>
    </g>
    <g id="xtick_100">
     <g id="line2d_106">
      <g>
       <use style="stroke:#000000;stroke-width:0.8;" x="199.450138" xlink:href="#m3427dc6d2f" y="187.189375"/>
      </g>
     </g>
    </g>
    <g id="xtick_101">
     <g id="line2d_107">
      <g>
       <use style="stroke:#000000;stroke-width:0.8;" x="205.365158" xlink:href="#m3427dc6d2f" y="187.189375"/>
      </g>
     </g>
    </g>
    <g id="xtick_102">
     <g id="line2d_108">
      <g>
       <use style="stroke:#000000;stroke-width:0.8;" x="211.280178" xlink:href="#m3427dc6d2f" y="187.189375"/>
      </g>
     </g>
    </g>
    <g id="xtick_103">
     <g id="line2d_109">
      <g>
       <use style="stroke:#000000;stroke-width:0.8;" x="217.195198" xlink:href="#m3427dc6d2f" y="187.189375"/>
      </g>
     </g>
    </g>
    <g id="xtick_104">
     <g id="line2d_110">
      <g>
       <use style="stroke:#000000;stroke-width:0.8;" x="223.110217" xlink:href="#m3427dc6d2f" y="187.189375"/>
      </g>
     </g>
    </g>
    <g id="xtick_105">
     <g id="line2d_111">
      <g>
       <use style="stroke:#000000;stroke-width:0.8;" x="229.025237" xlink:href="#m3427dc6d2f" y="187.189375"/>
      </g>
     </g>
    </g>
    <g id="xtick_106">
     <g id="line2d_112">
      <g>
       <use style="stroke:#000000;stroke-width:0.8;" x="234.940257" xlink:href="#m3427dc6d2f" y="187.189375"/>
      </g>
     </g>
    </g>
    <g id="xtick_107">
     <g id="line2d_113">
      <g>
       <use style="stroke:#000000;stroke-width:0.8;" x="240.855277" xlink:href="#m3427dc6d2f" y="187.189375"/>
      </g>
     </g>
    </g>
    <g id="xtick_108">
     <g id="line2d_114">
      <g>
       <use style="stroke:#000000;stroke-width:0.8;" x="246.770296" xlink:href="#m3427dc6d2f" y="187.189375"/>
      </g>
     </g>
    </g>
    <g id="xtick_109">
     <g id="line2d_115">
      <g>
       <use style="stroke:#000000;stroke-width:0.8;" x="252.685316" xlink:href="#m3427dc6d2f" y="187.189375"/>
      </g>
     </g>
    </g>
    <g id="xtick_110">
     <g id="line2d_116">
      <g>
       <use style="stroke:#000000;stroke-width:0.8;" x="258.600336" xlink:href="#m3427dc6d2f" y="187.189375"/>
      </g>
     </g>
    </g>
    <g id="xtick_111">
     <g id="line2d_117">
      <g>
       <use style="stroke:#000000;stroke-width:0.8;" x="264.515356" xlink:href="#m3427dc6d2f" y="187.189375"/>
      </g>
     </g>
    </g>
    <g id="text_9">
     <!-- experiments -->
     <g transform="translate(135.859375 204.088125)scale(0.08 -0.08)">
      <defs>
       <path d="M 50.640625 25.25 
L 12.9375 25.25 
Q 12.9375 16.0625 17.96875 11.140625 
Q 22.40625 6.84375 29.390625 6.84375 
Q 37.359375 6.84375 42.671875 11.46875 
L 46.578125 4.78125 
Q 44.4375 2.640625 39.984375 1.078125 
Q 34.421875 -0.984375 27.59375 -0.984375 
Q 17.71875 -0.984375 10.84375 5.71875 
Q 3.171875 13.09375 3.171875 25.53125 
Q 3.171875 38.484375 11.03125 46.296875 
Q 18.0625 53.265625 27.6875 53.265625 
Q 38.875 53.265625 45.21875 46.96875 
Q 51.375 40.921875 51.375 30.90625 
Q 51.375 27.828125 50.640625 25.25 
z
M 28.125 45.453125 
Q 21.921875 45.453125 17.71875 41.453125 
Q 13.71875 37.640625 13.1875 31.984375 
L 42.140625 31.984375 
Q 42.140625 37.59375 38.625 41.359375 
Q 34.765625 45.453125 28.125 45.453125 
z
" id="TrebuchetMS-101"/>
       <path d="M 38.421875 0 
L 24.171875 19.046875 
L 11.421875 0 
L 0.59375 0 
L 19.578125 26.765625 
L 2.15625 52.296875 
L 12.59375 52.296875 
L 24.3125 34.328125 
L 37.453125 52.296875 
L 47.703125 52.296875 
L 28.71875 26.765625 
L 49.515625 0 
z
" id="TrebuchetMS-120"/>
       <path d="M 35.015625 43.359375 
Q 31.984375 45.453125 28.90625 45.453125 
Q 23.96875 45.453125 20.28125 40.90625 
Q 16.609375 36.375 16.609375 29.984375 
L 16.609375 0 
L 7.328125 0 
L 7.328125 52.296875 
L 16.609375 52.296875 
L 16.609375 43.953125 
Q 21.6875 53.265625 31.6875 53.265625 
Q 34.1875 53.265625 38.875 52.390625 
z
" id="TrebuchetMS-114"/>
       <path d="M 16.15625 72.078125 
Q 18.5625 72.078125 20.234375 70.390625 
Q 21.921875 68.703125 21.921875 66.359375 
Q 21.921875 63.96875 20.234375 62.28125 
Q 18.5625 60.59375 16.15625 60.59375 
Q 13.8125 60.59375 12.125 62.28125 
Q 10.453125 63.96875 10.453125 66.359375 
Q 10.453125 68.75 12.109375 70.40625 
Q 13.765625 72.078125 16.15625 72.078125 
z
M 11.078125 0 
L 11.078125 44.484375 
L 3.90625 44.484375 
L 3.90625 52.296875 
L 20.359375 52.296875 
L 20.359375 0 
z
" id="TrebuchetMS-105"/>
       <path d="M 38.765625 0 
L 38.765625 30.421875 
Q 38.765625 38.765625 36.25 42.109375 
Q 33.734375 45.453125 27.828125 45.453125 
Q 24.65625 45.453125 21.1875 43.546875 
Q 17.71875 41.65625 15.875 38.875 
L 15.875 0 
L 6.59375 0 
L 6.59375 52.296875 
L 12.9375 52.296875 
L 15.875 45.5625 
Q 20.453125 53.265625 30.859375 53.265625 
Q 48.046875 53.265625 48.046875 32.375 
L 48.046875 0 
z
" id="TrebuchetMS-110"/>
      </defs>
      <use xlink:href="#TrebuchetMS-101"/>
      <use x="54.541016" xlink:href="#TrebuchetMS-120"/>
      <use x="104.638672" xlink:href="#TrebuchetMS-112"/>
      <use x="160.351562" xlink:href="#TrebuchetMS-101"/>
      <use x="214.892578" xlink:href="#TrebuchetMS-114"/>
      <use x="253.759766" xlink:href="#TrebuchetMS-105"/>
      <use x="282.275391" xlink:href="#TrebuchetMS-109"/>
      <use x="365.283203" xlink:href="#TrebuchetMS-101"/>
      <use x="419.824219" xlink:href="#TrebuchetMS-110"/>
      <use x="474.462891" xlink:href="#TrebuchetMS-116"/>
      <use x="514.111328" xlink:href="#TrebuchetMS-115"/>
     </g>
    </g>
   </g>
   <g id="matplotlib.axis_6">
    <g id="ytick_7">
     <g id="line2d_118">
      <g>
       <use style="stroke:#000000;stroke-width:0.8;" x="38.325" xlink:href="#md2eeca65f1" y="187.189375"/>
      </g>
     </g>
     <g id="text_10">
      <!-- 0 -->
      <g transform="translate(27.13 190.13875)scale(0.08 -0.08)">
       <use xlink:href="#TrebuchetMS-48"/>
      </g>
     </g>
    </g>
    <g id="ytick_8">
     <g id="line2d_119">
      <g>
       <use style="stroke:#000000;stroke-width:0.8;" x="38.325" xlink:href="#md2eeca65f1" y="163.122708"/>
      </g>
     </g>
     <g id="text_11">
      <!-- 50 -->
      <g transform="translate(22.935 166.072083)scale(0.08 -0.08)">
       <use xlink:href="#TrebuchetMS-53"/>
       <use x="52.441406" xlink:href="#TrebuchetMS-48"/>
      </g>
     </g>
    </g>
    <g id="ytick_9">
     <g id="line2d_120">
      <g>
       <use style="stroke:#000000;stroke-width:0.8;" x="38.325" xlink:href="#md2eeca65f1" y="139.056042"/>
      </g>
     </g>
     <g id="text_12">
      <!-- 100 -->
      <g transform="translate(18.74 142.005417)scale(0.08 -0.08)">
       <use xlink:href="#TrebuchetMS-49"/>
       <use x="52.441406" xlink:href="#TrebuchetMS-48"/>
       <use x="104.882812" xlink:href="#TrebuchetMS-48"/>
      </g>
     </g>
    </g>
    <g id="text_13">
     <!-- undefined -->
     <g transform="translate(13.09875 181.120208)rotate(-90)scale(0.08 -0.08)">
      <defs>
       <path d="M 15.375 52.296875 
L 15.375 18.953125 
Q 15.375 6.84375 25.875 6.84375 
Q 30.46875 6.84375 34.28125 9.46875 
Q 38.09375 12.109375 39.3125 15.578125 
L 39.3125 52.296875 
L 48.578125 52.296875 
L 48.578125 0 
L 39.3125 0 
L 39.3125 7.234375 
Q 37.75 4.15625 33.03125 1.578125 
Q 28.328125 -0.984375 23.828125 -0.984375 
Q 15.234375 -0.984375 10.671875 3.953125 
Q 6.109375 8.890625 6.109375 17.96875 
L 6.109375 52.296875 
z
" id="TrebuchetMS-117"/>
       <path d="M 39.75 0.046875 
L 39.75 3.90625 
Q 34.90625 -0.921875 25.6875 -0.921875 
Q 15.875 -0.921875 9.765625 6.109375 
Q 3.65625 13.140625 3.65625 24.859375 
Q 3.65625 36.625 10.6875 44.9375 
Q 17.71875 53.265625 27.4375 53.265625 
Q 35.546875 53.265625 39.75 49.46875 
L 39.75 73.734375 
L 49.03125 73.734375 
L 49.03125 0.046875 
z
M 39.75 40.1875 
Q 36.234375 45.453125 30.125 45.453125 
Q 22.65625 45.453125 18.03125 39.890625 
Q 13.421875 34.328125 13.421875 25.734375 
Q 13.421875 6.84375 30.609375 6.84375 
Q 32.8125 6.84375 35.890625 8.234375 
Q 38.96875 9.625 39.75 11.1875 
z
" id="TrebuchetMS-100"/>
       <path d="M 34.859375 65.4375 
Q 32.03125 66.40625 29.59375 66.40625 
Q 25.34375 66.40625 22.578125 63.1875 
Q 19.828125 59.96875 19.828125 55.03125 
Q 19.828125 53.71875 20.0625 52.296875 
L 30.71875 52.296875 
L 30.71875 44.484375 
L 20.0625 44.484375 
L 20.0625 0 
L 10.796875 0 
L 10.796875 44.484375 
L 3.171875 44.484375 
L 3.171875 52.296875 
L 10.796875 52.296875 
Q 10.796875 62.3125 15.71875 68.015625 
Q 20.65625 73.734375 28.765625 73.734375 
Q 32.8125 73.734375 37.453125 72.265625 
z
" id="TrebuchetMS-102"/>
      </defs>
      <use xlink:href="#TrebuchetMS-117"/>
      <use x="54.638672" xlink:href="#TrebuchetMS-110"/>
      <use x="109.277344" xlink:href="#TrebuchetMS-100"/>
      <use x="164.990234" xlink:href="#TrebuchetMS-101"/>
      <use x="219.53125" xlink:href="#TrebuchetMS-102"/>
      <use x="256.494141" xlink:href="#TrebuchetMS-105"/>
      <use x="285.009766" xlink:href="#TrebuchetMS-110"/>
      <use x="339.648438" xlink:href="#TrebuchetMS-101"/>
      <use x="394.189453" xlink:href="#TrebuchetMS-100"/>
     </g>
    </g>
   </g>
   <g id="patch_120">
    <path d="M 38.325 187.189375 
L 38.325 139.056042 
" style="fill:none;stroke:#000000;stroke-linecap:square;stroke-linejoin:miter;stroke-width:0.8;"/>
   </g>
   <g id="patch_121">
    <path d="M 38.325 187.189375 
L 277.765 187.189375 
" style="fill:none;stroke:#000000;stroke-linecap:square;stroke-linejoin:miter;stroke-width:0.8;"/>
   </g>
  </g>
 </g>
 <defs>
  <clipPath id="pd7f59eb463">
   <rect height="48.133333" width="239.44" x="38.325" y="10.149375"/>
  </clipPath>
  <clipPath id="pa1b8b415cb">
   <rect height="48.133333" width="239.44" x="38.325" y="74.602708"/>
  </clipPath>
  <clipPath id="p7789392f3c">
   <rect height="48.133333" width="239.44" x="38.325" y="139.056042"/>
  </clipPath>
 </defs>
</svg>
