<?xml version="1.0" encoding="utf-8" standalone="no"?>
<!DOCTYPE svg PUBLIC "-//W3C//DTD SVG 1.1//EN"
  "http://www.w3.org/Graphics/SVG/1.1/DTD/svg11.dtd">
<!-- Created with matplotlib (https://matplotlib.org/) -->
<svg height="60.90675pt" version="1.1" viewBox="0 0 57.6 60.90675" width="57.6pt" xmlns="http://www.w3.org/2000/svg" xmlns:xlink="http://www.w3.org/1999/xlink">
 <metadata>
  <rdf:RDF xmlns:cc="http://creativecommons.org/ns#" xmlns:dc="http://purl.org/dc/elements/1.1/" xmlns:rdf="http://www.w3.org/1999/02/22-rdf-syntax-ns#">
   <cc:Work>
    <dc:type rdf:resource="http://purl.org/dc/dcmitype/StillImage"/>
    <dc:date>2022-02-09T10:57:14.400484</dc:date>
    <dc:format>image/svg+xml</dc:format>
    <dc:creator>
     <cc:Agent>
      <dc:title>Matplotlib v3.3.2, https://matplotlib.org/</dc:title>
     </cc:Agent>
    </dc:creator>
   </cc:Work>
  </rdf:RDF>
 </metadata>
 <defs>
  <style type="text/css">*{stroke-linecap:butt;stroke-linejoin:round;}</style>
 </defs>
 <g id="figure_1">
  <g id="patch_1">
   <path d="M 0 60.90675 
L 57.6 60.90675 
L 57.6 0 
L 0 0 
z
" style="fill:none;"/>
  </g>
  <g id="axes_1">
   <g id="patch_2">
    <path d="M 29.308467 14.834232 
C 29.223747 14.831738 29.139009 14.829868 29.054261 14.828621 
C 28.969513 14.827374 28.884757 14.82675 28.8 14.82675 
L 28.8 32.10675 
L 29.308467 14.834232 
z
" style="fill:#708090;"/>
   </g>
   <g id="patch_3">
    <path d="M 28.799999 14.82675 
C 26.541506 14.82675 24.304766 15.269527 22.216605 16.129976 
C 20.128443 16.990425 18.229085 18.251969 16.626226 19.843079 
C 15.023366 21.43419 13.747882 23.324214 12.872094 25.405989 
C 11.996305 27.487764 11.537084 29.721185 11.520468 31.979617 
C 11.503851 34.238049 11.93016 36.477985 12.775222 38.572421 
C 13.620284 40.666857 14.86782 42.575445 16.447095 44.189967 
C 18.026369 45.80449 19.906959 47.093845 21.982234 47.984926 
C 24.057509 48.876007 26.287491 49.351647 28.545739 49.384879 
C 30.803988 49.418111 33.047 49.008294 35.147597 48.178664 
C 37.248193 47.349034 39.165908 46.115574 40.792006 44.548221 
C 42.418104 42.980867 43.72126 41.109815 44.627586 39.041152 
C 45.533911 36.972489 46.025945 34.746067 46.075791 32.488124 
C 46.125637 30.230181 45.732333 27.984215 44.91818 25.877571 
C 44.104028 23.770928 42.88471 21.84419 41.329363 20.206604 
C 39.774016 18.569019 37.912602 17.252132 35.850663 16.330611 
C 33.788724 15.409091 31.565982 14.900689 29.308467 14.834232 
L 28.8 32.10675 
L 28.799999 14.82675 
z
" style="fill:#f5f5f5;"/>
   </g>
   <g id="matplotlib.axis_1"/>
   <g id="matplotlib.axis_2"/>
   <g id="text_1">
    <!-- 1% -->
    <g transform="translate(24.48 13.09875)scale(0.08 -0.08)">
     <defs>
      <path d="M 24.3125 0 
L 24.3125 54.828125 
L 9.765625 45.75 
L 9.765625 54.890625 
Q 15.28125 57.671875 21.5 62.546875 
Q 27.734375 67.4375 31.15625 71.828125 
L 34.078125 71.828125 
L 34.078125 0 
z
" id="TrebuchetMS-49"/>
      <path d="M 10.640625 -0.984375 
L 4.4375 -0.984375 
L 47.5625 72.796875 
L 53.71875 72.796875 
z
M 2.984375 56.734375 
Q 2.984375 63.921875 6.9375 68.359375 
Q 10.890625 72.796875 17 72.796875 
Q 23 72.796875 26.578125 68.40625 
Q 30.171875 64.015625 30.171875 55.8125 
Q 30.171875 48.1875 26.359375 43.71875 
Q 22.5625 39.265625 16.546875 39.265625 
Q 2.984375 39.265625 2.984375 56.734375 
z
M 9.125 56.25 
Q 9.125 50.53125 11.046875 47.375 
Q 12.984375 44.234375 16.109375 44.234375 
Q 24.03125 44.234375 24.03125 56.203125 
Q 24.03125 67.828125 16.84375 67.828125 
Q 13.28125 67.828125 11.203125 64.703125 
Q 9.125 61.578125 9.125 56.25 
z
M 29.34375 16.5 
Q 29.34375 23.6875 33.296875 28.125 
Q 37.25 32.5625 43.359375 32.5625 
Q 49.359375 32.5625 52.953125 28.171875 
Q 56.546875 23.78125 56.546875 15.578125 
Q 56.546875 7.953125 52.734375 3.484375 
Q 48.921875 -0.984375 42.921875 -0.984375 
Q 29.34375 -0.984375 29.34375 16.5 
z
M 35.5 16.015625 
Q 35.5 10.296875 37.421875 7.140625 
Q 39.359375 4 42.484375 4 
Q 50.390625 4 50.390625 15.96875 
Q 50.390625 27.59375 43.21875 27.59375 
Q 39.65625 27.59375 37.578125 24.46875 
Q 35.5 21.34375 35.5 16.015625 
z
" id="TrebuchetMS-37"/>
     </defs>
     <use xlink:href="#TrebuchetMS-49"/>
     <use x="52.441406" xlink:href="#TrebuchetMS-37"/>
    </g>
   </g>
  </g>
 </g>
</svg>
