<?xml version="1.0" encoding="utf-8" standalone="no"?>
<!DOCTYPE svg PUBLIC "-//W3C//DTD SVG 1.1//EN"
  "http://www.w3.org/Graphics/SVG/1.1/DTD/svg11.dtd">
<!-- Created with matplotlib (https://matplotlib.org/) -->
<svg height="60.90675pt" version="1.1" viewBox="0 0 57.6 60.90675" width="57.6pt" xmlns="http://www.w3.org/2000/svg" xmlns:xlink="http://www.w3.org/1999/xlink">
 <metadata>
  <rdf:RDF xmlns:cc="http://creativecommons.org/ns#" xmlns:dc="http://purl.org/dc/elements/1.1/" xmlns:rdf="http://www.w3.org/1999/02/22-rdf-syntax-ns#">
   <cc:Work>
    <dc:type rdf:resource="http://purl.org/dc/dcmitype/StillImage"/>
    <dc:date>2022-02-09T10:57:14.211706</dc:date>
    <dc:format>image/svg+xml</dc:format>
    <dc:creator>
     <cc:Agent>
      <dc:title>Matplotlib v3.3.2, https://matplotlib.org/</dc:title>
     </cc:Agent>
    </dc:creator>
   </cc:Work>
  </rdf:RDF>
 </metadata>
 <defs>
  <style type="text/css">*{stroke-linecap:butt;stroke-linejoin:round;}</style>
 </defs>
 <g id="figure_1">
  <g id="patch_1">
   <path d="M 0 60.90675 
L 57.6 60.90675 
L 57.6 0 
L 0 0 
z
" style="fill:none;"/>
  </g>
  <g id="axes_1">
   <g id="patch_2">
    <path d="M 40.01521 18.960744 
C 38.463682 17.637094 36.690003 16.598509 34.77643 15.893154 
C 32.862856 15.187799 30.839433 14.82675 28.8 14.82675 
L 28.8 32.10675 
L 40.01521 18.960744 
z
" style="fill:#708090;"/>
   </g>
   <g id="patch_3">
    <path d="M 28.800002 14.82675 
C 26.787258 14.82675 24.789904 15.178411 22.898191 15.865843 
C 21.006479 16.553276 19.249337 17.565967 17.706164 18.858157 
C 16.162991 20.150348 14.857386 21.702278 13.848343 23.44382 
C 12.8393 25.185363 12.14225 27.089888 11.78869 29.071335 
C 11.435131 31.052783 11.430467 33.080853 11.774912 35.063906 
C 12.119356 37.046958 12.80764 38.954668 13.808664 40.700832 
C 14.809688 42.446997 16.108143 44.004914 17.645357 45.304187 
C 19.182572 46.60346 20.935038 47.624221 22.823569 48.320345 
C 24.712101 49.01647 26.707817 49.377312 28.72054 49.386567 
C 30.733263 49.395823 32.732213 49.05335 34.627067 48.374623 
C 36.52192 47.695897 38.2837 46.691296 39.832798 45.406215 
C 41.381897 44.121134 42.694624 42.575224 43.711665 40.838339 
C 44.728705 39.101455 45.434505 37.200156 45.797172 35.220355 
C 46.15984 33.240554 46.173828 31.212527 45.838506 29.227911 
C 45.503184 27.243296 44.823679 25.332442 43.830695 23.581693 
C 42.837711 21.830943 41.546434 20.267072 40.01521 18.960744 
L 28.8 32.10675 
L 28.800002 14.82675 
z
" style="fill:#f5f5f5;"/>
   </g>
   <g id="matplotlib.axis_1"/>
   <g id="matplotlib.axis_2"/>
   <g id="text_1">
    <!-- 12% -->
    <g transform="translate(24.48 13.09875)scale(0.08 -0.08)">
     <defs>
      <path d="M 24.3125 0 
L 24.3125 54.828125 
L 9.765625 45.75 
L 9.765625 54.890625 
Q 15.28125 57.671875 21.5 62.546875 
Q 27.734375 67.4375 31.15625 71.828125 
L 34.078125 71.828125 
L 34.078125 0 
z
" id="TrebuchetMS-49"/>
      <path d="M 3.375 0 
L 3.375 1.953125 
L 25.78125 36.28125 
Q 32.8125 47.078125 32.8125 54.59375 
Q 32.8125 64.5 21.625 64.5 
Q 17.671875 64.5 14.203125 62.421875 
Q 10.75 60.359375 9.1875 57.171875 
L 2.875 62.359375 
Q 4.546875 67.140625 9.40625 69.96875 
Q 14.265625 72.796875 21.140625 72.796875 
Q 31.453125 72.796875 37.25 68.03125 
Q 43.0625 63.28125 43.0625 54.59375 
Q 43.0625 46.53125 35.359375 34.28125 
L 19.28125 8.796875 
L 47.3125 8.796875 
L 47.3125 0 
z
" id="TrebuchetMS-50"/>
      <path d="M 10.640625 -0.984375 
L 4.4375 -0.984375 
L 47.5625 72.796875 
L 53.71875 72.796875 
z
M 2.984375 56.734375 
Q 2.984375 63.921875 6.9375 68.359375 
Q 10.890625 72.796875 17 72.796875 
Q 23 72.796875 26.578125 68.40625 
Q 30.171875 64.015625 30.171875 55.8125 
Q 30.171875 48.1875 26.359375 43.71875 
Q 22.5625 39.265625 16.546875 39.265625 
Q 2.984375 39.265625 2.984375 56.734375 
z
M 9.125 56.25 
Q 9.125 50.53125 11.046875 47.375 
Q 12.984375 44.234375 16.109375 44.234375 
Q 24.03125 44.234375 24.03125 56.203125 
Q 24.03125 67.828125 16.84375 67.828125 
Q 13.28125 67.828125 11.203125 64.703125 
Q 9.125 61.578125 9.125 56.25 
z
M 29.34375 16.5 
Q 29.34375 23.6875 33.296875 28.125 
Q 37.25 32.5625 43.359375 32.5625 
Q 49.359375 32.5625 52.953125 28.171875 
Q 56.546875 23.78125 56.546875 15.578125 
Q 56.546875 7.953125 52.734375 3.484375 
Q 48.921875 -0.984375 42.921875 -0.984375 
Q 29.34375 -0.984375 29.34375 16.5 
z
M 35.5 16.015625 
Q 35.5 10.296875 37.421875 7.140625 
Q 39.359375 4 42.484375 4 
Q 50.390625 4 50.390625 15.96875 
Q 50.390625 27.59375 43.21875 27.59375 
Q 39.65625 27.59375 37.578125 24.46875 
Q 35.5 21.34375 35.5 16.015625 
z
" id="TrebuchetMS-37"/>
     </defs>
     <use xlink:href="#TrebuchetMS-49"/>
     <use x="52.441406" xlink:href="#TrebuchetMS-50"/>
     <use x="104.882812" xlink:href="#TrebuchetMS-37"/>
    </g>
   </g>
  </g>
 </g>
</svg>
