<?xml version="1.0" encoding="utf-8" standalone="no"?>
<!DOCTYPE svg PUBLIC "-//W3C//DTD SVG 1.1//EN"
  "http://www.w3.org/Graphics/SVG/1.1/DTD/svg11.dtd">
<!-- Created with matplotlib (https://matplotlib.org/) -->
<svg height="60.90675pt" version="1.1" viewBox="0 0 57.6 60.90675" width="57.6pt" xmlns="http://www.w3.org/2000/svg" xmlns:xlink="http://www.w3.org/1999/xlink">
 <metadata>
  <rdf:RDF xmlns:cc="http://creativecommons.org/ns#" xmlns:dc="http://purl.org/dc/elements/1.1/" xmlns:rdf="http://www.w3.org/1999/02/22-rdf-syntax-ns#">
   <cc:Work>
    <dc:type rdf:resource="http://purl.org/dc/dcmitype/StillImage"/>
    <dc:date>2022-02-09T10:57:14.128823</dc:date>
    <dc:format>image/svg+xml</dc:format>
    <dc:creator>
     <cc:Agent>
      <dc:title>Matplotlib v3.3.2, https://matplotlib.org/</dc:title>
     </cc:Agent>
    </dc:creator>
   </cc:Work>
  </rdf:RDF>
 </metadata>
 <defs>
  <style type="text/css">*{stroke-linecap:butt;stroke-linejoin:round;}</style>
 </defs>
 <g id="figure_1">
  <g id="patch_1">
   <path d="M 0 60.90675 
L 57.6 60.90675 
L 57.6 0 
L 0 0 
z
" style="fill:none;"/>
  </g>
  <g id="axes_1">
   <g id="patch_2">
    <path d="M 35.25093 16.076032 
C 34.227972 15.664383 33.167956 15.351594 32.085392 15.141945 
C 31.002828 14.932297 29.902678 14.82675 28.8 14.82675 
L 28.8 32.10675 
L 35.25093 16.076032 
z
" style="fill:#708090;"/>
   </g>
   <g id="patch_3">
    <path d="M 28.799997 14.82675 
C 26.669779 14.82675 24.557811 15.220659 22.570819 15.988571 
C 20.583826 16.756482 18.755854 17.88524 17.179278 19.317801 
C 15.602701 20.750363 14.304532 22.462184 13.350374 24.36676 
C 12.396215 26.271335 11.802414 28.336033 11.598979 30.456514 
C 11.395544 32.576995 11.585959 34.716929 12.160603 36.768175 
C 12.735248 38.819421 13.684274 40.746835 14.959725 42.453015 
C 16.235176 44.159195 17.815199 45.614909 19.619947 46.746594 
C 21.424696 47.878278 23.423248 48.666544 25.51461 49.071555 
C 27.605971 49.476566 29.754309 49.491385 31.851058 49.115261 
C 33.947807 48.739137 35.957043 47.978516 37.777231 46.871835 
C 39.597419 45.765153 41.197371 44.331373 42.496237 42.642949 
C 43.795102 40.954526 44.770626 39.040387 45.373512 36.997263 
C 45.976397 34.954139 46.196313 32.817035 46.022148 30.693949 
C 45.847983 28.570864 45.28272 26.498171 44.354925 24.580615 
C 43.42713 22.663059 42.152698 20.933493 40.596033 19.479319 
C 39.039368 18.025146 37.22714 16.87128 35.25093 16.076032 
L 28.8 32.10675 
L 28.799997 14.82675 
z
" style="fill:#f5f5f5;"/>
   </g>
   <g id="matplotlib.axis_1"/>
   <g id="matplotlib.axis_2"/>
   <g id="text_1">
    <!-- 7% -->
    <g transform="translate(24.48 13.09875)scale(0.08 -0.08)">
     <defs>
      <path d="M 20.90625 0 
L 10.0625 0 
Q 13.671875 11.46875 22.21875 30.34375 
Q 30.765625 49.21875 37.84375 62.546875 
L 4.109375 62.546875 
L 4.109375 71.828125 
L 50.484375 71.828125 
L 50.484375 68.015625 
L 44.1875 55.609375 
Q 41.015625 49.3125 37.546875 41.796875 
Q 34.078125 34.28125 30.75 26.46875 
Q 27.4375 18.65625 24.953125 11.96875 
Q 22.46875 5.28125 20.90625 0 
z
" id="TrebuchetMS-55"/>
      <path d="M 10.640625 -0.984375 
L 4.4375 -0.984375 
L 47.5625 72.796875 
L 53.71875 72.796875 
z
M 2.984375 56.734375 
Q 2.984375 63.921875 6.9375 68.359375 
Q 10.890625 72.796875 17 72.796875 
Q 23 72.796875 26.578125 68.40625 
Q 30.171875 64.015625 30.171875 55.8125 
Q 30.171875 48.1875 26.359375 43.71875 
Q 22.5625 39.265625 16.546875 39.265625 
Q 2.984375 39.265625 2.984375 56.734375 
z
M 9.125 56.25 
Q 9.125 50.53125 11.046875 47.375 
Q 12.984375 44.234375 16.109375 44.234375 
Q 24.03125 44.234375 24.03125 56.203125 
Q 24.03125 67.828125 16.84375 67.828125 
Q 13.28125 67.828125 11.203125 64.703125 
Q 9.125 61.578125 9.125 56.25 
z
M 29.34375 16.5 
Q 29.34375 23.6875 33.296875 28.125 
Q 37.25 32.5625 43.359375 32.5625 
Q 49.359375 32.5625 52.953125 28.171875 
Q 56.546875 23.78125 56.546875 15.578125 
Q 56.546875 7.953125 52.734375 3.484375 
Q 48.921875 -0.984375 42.921875 -0.984375 
Q 29.34375 -0.984375 29.34375 16.5 
z
M 35.5 16.015625 
Q 35.5 10.296875 37.421875 7.140625 
Q 39.359375 4 42.484375 4 
Q 50.390625 4 50.390625 15.96875 
Q 50.390625 27.59375 43.21875 27.59375 
Q 39.65625 27.59375 37.578125 24.46875 
Q 35.5 21.34375 35.5 16.015625 
z
" id="TrebuchetMS-37"/>
     </defs>
     <use xlink:href="#TrebuchetMS-55"/>
     <use x="52.441406" xlink:href="#TrebuchetMS-37"/>
    </g>
   </g>
  </g>
 </g>
</svg>
