<?xml version="1.0" encoding="utf-8" standalone="no"?>
<!DOCTYPE svg PUBLIC "-//W3C//DTD SVG 1.1//EN"
  "http://www.w3.org/Graphics/SVG/1.1/DTD/svg11.dtd">
<!-- Created with matplotlib (https://matplotlib.org/) -->
<svg height="113.455pt" version="1.1" viewBox="0 0 113.455 113.455" width="113.455pt" xmlns="http://www.w3.org/2000/svg" xmlns:xlink="http://www.w3.org/1999/xlink">
 <metadata>
  <rdf:RDF xmlns:cc="http://creativecommons.org/ns#" xmlns:dc="http://purl.org/dc/elements/1.1/" xmlns:rdf="http://www.w3.org/1999/02/22-rdf-syntax-ns#">
   <cc:Work>
    <dc:type rdf:resource="http://purl.org/dc/dcmitype/StillImage"/>
    <dc:date>2022-02-09T11:08:52.503625</dc:date>
    <dc:format>image/svg+xml</dc:format>
    <dc:creator>
     <cc:Agent>
      <dc:title>Matplotlib v3.3.2, https://matplotlib.org/</dc:title>
     </cc:Agent>
    </dc:creator>
   </cc:Work>
  </rdf:RDF>
 </metadata>
 <defs>
  <style type="text/css">*{stroke-linecap:butt;stroke-linejoin:round;}</style>
 </defs>
 <g id="figure_1">
  <g id="patch_1">
   <path d="M 0 113.455 
L 113.455 113.455 
L 113.455 0 
L 0 0 
z
" style="fill:none;"/>
  </g>
  <g id="axes_1">
   <g id="patch_2">
    <path d="M 19.855 93.6 
L 106.255 93.6 
L 106.255 7.2 
L 19.855 7.2 
z
" style="fill:#ffffff;"/>
   </g>
   <g id="PathCollection_1">
    <path clip-path="url(#p1972bd2438)" d="M 73.855 62.148683 
C 74.106594 62.148683 74.347917 62.048724 74.52582 61.87082 
C 74.703724 61.692917 74.803683 61.451594 74.803683 61.2 
C 74.803683 60.948406 74.703724 60.707083 74.52582 60.52918 
C 74.347917 60.351276 74.106594 60.251317 73.855 60.251317 
C 73.603406 60.251317 73.362083 60.351276 73.18418 60.52918 
C 73.006276 60.707083 72.906317 60.948406 72.906317 61.2 
C 72.906317 61.451594 73.006276 61.692917 73.18418 61.87082 
C 73.362083 62.048724 73.603406 62.148683 73.855 62.148683 
z
" style="fill:#5f9ea0;stroke:#5f9ea0;"/>
    <path clip-path="url(#p1972bd2438)" d="M 81.055 62.148683 
C 81.306594 62.148683 81.547917 62.048724 81.72582 61.87082 
C 81.903724 61.692917 82.003683 61.451594 82.003683 61.2 
C 82.003683 60.948406 81.903724 60.707083 81.72582 60.52918 
C 81.547917 60.351276 81.306594 60.251317 81.055 60.251317 
C 80.803406 60.251317 80.562083 60.351276 80.38418 60.52918 
C 80.206276 60.707083 80.106317 60.948406 80.106317 61.2 
C 80.106317 61.451594 80.206276 61.692917 80.38418 61.87082 
C 80.562083 62.048724 80.803406 62.148683 81.055 62.148683 
z
" style="fill:#5f9ea0;stroke:#5f9ea0;"/>
    <path clip-path="url(#p1972bd2438)" d="M 88.255 62.148683 
C 88.506594 62.148683 88.747917 62.048724 88.92582 61.87082 
C 89.103724 61.692917 89.203683 61.451594 89.203683 61.2 
C 89.203683 60.948406 89.103724 60.707083 88.92582 60.52918 
C 88.747917 60.351276 88.506594 60.251317 88.255 60.251317 
C 88.003406 60.251317 87.762083 60.351276 87.58418 60.52918 
C 87.406276 60.707083 87.306317 60.948406 87.306317 61.2 
C 87.306317 61.451594 87.406276 61.692917 87.58418 61.87082 
C 87.762083 62.048724 88.003406 62.148683 88.255 62.148683 
z
" style="fill:#5f9ea0;stroke:#5f9ea0;"/>
    <path clip-path="url(#p1972bd2438)" d="M 95.455 62.148683 
C 95.706594 62.148683 95.947917 62.048724 96.12582 61.87082 
C 96.303724 61.692917 96.403683 61.451594 96.403683 61.2 
C 96.403683 60.948406 96.303724 60.707083 96.12582 60.52918 
C 95.947917 60.351276 95.706594 60.251317 95.455 60.251317 
C 95.203406 60.251317 94.962083 60.351276 94.78418 60.52918 
C 94.606276 60.707083 94.506317 60.948406 94.506317 61.2 
C 94.506317 61.451594 94.606276 61.692917 94.78418 61.87082 
C 94.962083 62.048724 95.203406 62.148683 95.455 62.148683 
z
" style="fill:#ff4500;stroke:#ff4500;"/>
    <path clip-path="url(#p1972bd2438)" d="M 73.855 69.624745 
C 74.179806 69.624745 74.491353 69.495698 74.721025 69.266025 
C 74.950698 69.036353 75.079745 68.724806 75.079745 68.4 
C 75.079745 68.075194 74.950698 67.763647 74.721025 67.533975 
C 74.491353 67.304302 74.179806 67.175255 73.855 67.175255 
C 73.530194 67.175255 73.218647 67.304302 72.988975 67.533975 
C 72.759302 67.763647 72.630255 68.075194 72.630255 68.4 
C 72.630255 68.724806 72.759302 69.036353 72.988975 69.266025 
C 73.218647 69.495698 73.530194 69.624745 73.855 69.624745 
z
" style="fill:#5f9ea0;stroke:#5f9ea0;"/>
    <path clip-path="url(#p1972bd2438)" d="M 81.055 69.624745 
C 81.379806 69.624745 81.691353 69.495698 81.921025 69.266025 
C 82.150698 69.036353 82.279745 68.724806 82.279745 68.4 
C 82.279745 68.075194 82.150698 67.763647 81.921025 67.533975 
C 81.691353 67.304302 81.379806 67.175255 81.055 67.175255 
C 80.730194 67.175255 80.418647 67.304302 80.188975 67.533975 
C 79.959302 67.763647 79.830255 68.075194 79.830255 68.4 
C 79.830255 68.724806 79.959302 69.036353 80.188975 69.266025 
C 80.418647 69.495698 80.730194 69.624745 81.055 69.624745 
z
" style="fill:#5f9ea0;stroke:#5f9ea0;"/>
    <path clip-path="url(#p1972bd2438)" d="M 88.255 69.624745 
C 88.579806 69.624745 88.891353 69.495698 89.121025 69.266025 
C 89.350698 69.036353 89.479745 68.724806 89.479745 68.4 
C 89.479745 68.075194 89.350698 67.763647 89.121025 67.533975 
C 88.891353 67.304302 88.579806 67.175255 88.255 67.175255 
C 87.930194 67.175255 87.618647 67.304302 87.388975 67.533975 
C 87.159302 67.763647 87.030255 68.075194 87.030255 68.4 
C 87.030255 68.724806 87.159302 69.036353 87.388975 69.266025 
C 87.618647 69.495698 87.930194 69.624745 88.255 69.624745 
z
" style="fill:#5f9ea0;stroke:#5f9ea0;"/>
    <path clip-path="url(#p1972bd2438)" d="M 95.455 69.624745 
C 95.779806 69.624745 96.091353 69.495698 96.321025 69.266025 
C 96.550698 69.036353 96.679745 68.724806 96.679745 68.4 
C 96.679745 68.075194 96.550698 67.763647 96.321025 67.533975 
C 96.091353 67.304302 95.779806 67.175255 95.455 67.175255 
C 95.130194 67.175255 94.818647 67.304302 94.588975 67.533975 
C 94.359302 67.763647 94.230255 68.075194 94.230255 68.4 
C 94.230255 68.724806 94.359302 69.036353 94.588975 69.266025 
C 94.818647 69.495698 95.130194 69.624745 95.455 69.624745 
z
" style="fill:#ff4500;stroke:#ff4500;"/>
    <path clip-path="url(#p1972bd2438)" d="M 73.855 77.72132 
C 74.417581 77.72132 74.957195 77.497805 75.355 77.1 
C 75.752805 76.702195 75.97632 76.162581 75.97632 75.6 
C 75.97632 75.037419 75.752805 74.497805 75.355 74.1 
C 74.957195 73.702195 74.417581 73.47868 73.855 73.47868 
C 73.292419 73.47868 72.752805 73.702195 72.355 74.1 
C 71.957195 74.497805 71.73368 75.037419 71.73368 75.6 
C 71.73368 76.162581 71.957195 76.702195 72.355 77.1 
C 72.752805 77.497805 73.292419 77.72132 73.855 77.72132 
z
" style="fill:#5f9ea0;stroke:#5f9ea0;"/>
    <path clip-path="url(#p1972bd2438)" d="M 81.055 77.72132 
C 81.617581 77.72132 82.157195 77.497805 82.555 77.1 
C 82.952805 76.702195 83.17632 76.162581 83.17632 75.6 
C 83.17632 75.037419 82.952805 74.497805 82.555 74.1 
C 82.157195 73.702195 81.617581 73.47868 81.055 73.47868 
C 80.492419 73.47868 79.952805 73.702195 79.555 74.1 
C 79.157195 74.497805 78.93368 75.037419 78.93368 75.6 
C 78.93368 76.162581 79.157195 76.702195 79.555 77.1 
C 79.952805 77.497805 80.492419 77.72132 81.055 77.72132 
z
" style="fill:#5f9ea0;stroke:#5f9ea0;"/>
    <path clip-path="url(#p1972bd2438)" d="M 88.255 77.72132 
C 88.817581 77.72132 89.357195 77.497805 89.755 77.1 
C 90.152805 76.702195 90.37632 76.162581 90.37632 75.6 
C 90.37632 75.037419 90.152805 74.497805 89.755 74.1 
C 89.357195 73.702195 88.817581 73.47868 88.255 73.47868 
C 87.692419 73.47868 87.152805 73.702195 86.755 74.1 
C 86.357195 74.497805 86.13368 75.037419 86.13368 75.6 
C 86.13368 76.162581 86.357195 76.702195 86.755 77.1 
C 87.152805 77.497805 87.692419 77.72132 88.255 77.72132 
z
" style="fill:#5f9ea0;stroke:#5f9ea0;"/>
    <path clip-path="url(#p1972bd2438)" d="M 95.455 77.72132 
C 96.017581 77.72132 96.557195 77.497805 96.955 77.1 
C 97.352805 76.702195 97.57632 76.162581 97.57632 75.6 
C 97.57632 75.037419 97.352805 74.497805 96.955 74.1 
C 96.557195 73.702195 96.017581 73.47868 95.455 73.47868 
C 94.892419 73.47868 94.352805 73.702195 93.955 74.1 
C 93.557195 74.497805 93.33368 75.037419 93.33368 75.6 
C 93.33368 76.162581 93.557195 76.702195 93.955 77.1 
C 94.352805 77.497805 94.892419 77.72132 95.455 77.72132 
z
" style="fill:#5f9ea0;stroke:#5f9ea0;"/>
    <path clip-path="url(#p1972bd2438)" d="M 73.855 85.538613 
C 74.581289 85.538613 75.277928 85.250055 75.791492 84.736492 
C 76.305055 84.222928 76.593613 83.526289 76.593613 82.8 
C 76.593613 82.073711 76.305055 81.377072 75.791492 80.863508 
C 75.277928 80.349945 74.581289 80.061387 73.855 80.061387 
C 73.128711 80.061387 72.432072 80.349945 71.918508 80.863508 
C 71.404945 81.377072 71.116387 82.073711 71.116387 82.8 
C 71.116387 83.526289 71.404945 84.222928 71.918508 84.736492 
C 72.432072 85.250055 73.128711 85.538613 73.855 85.538613 
z
" style="fill:#5f9ea0;stroke:#5f9ea0;"/>
    <path clip-path="url(#p1972bd2438)" d="M 81.055 85.538613 
C 81.781289 85.538613 82.477928 85.250055 82.991492 84.736492 
C 83.505055 84.222928 83.793613 83.526289 83.793613 82.8 
C 83.793613 82.073711 83.505055 81.377072 82.991492 80.863508 
C 82.477928 80.349945 81.781289 80.061387 81.055 80.061387 
C 80.328711 80.061387 79.632072 80.349945 79.118508 80.863508 
C 78.604945 81.377072 78.316387 82.073711 78.316387 82.8 
C 78.316387 83.526289 78.604945 84.222928 79.118508 84.736492 
C 79.632072 85.250055 80.328711 85.538613 81.055 85.538613 
z
" style="fill:#ff4500;stroke:#ff4500;"/>
    <path clip-path="url(#p1972bd2438)" d="M 88.255 85.538613 
C 88.981289 85.538613 89.677928 85.250055 90.191492 84.736492 
C 90.705055 84.222928 90.993613 83.526289 90.993613 82.8 
C 90.993613 82.073711 90.705055 81.377072 90.191492 80.863508 
C 89.677928 80.349945 88.981289 80.061387 88.255 80.061387 
C 87.528711 80.061387 86.832072 80.349945 86.318508 80.863508 
C 85.804945 81.377072 85.516387 82.073711 85.516387 82.8 
C 85.516387 83.526289 85.804945 84.222928 86.318508 84.736492 
C 86.832072 85.250055 87.528711 85.538613 88.255 85.538613 
z
" style="fill:#ff4500;stroke:#ff4500;"/>
    <path clip-path="url(#p1972bd2438)" d="M 95.455 85.538613 
C 96.181289 85.538613 96.877928 85.250055 97.391492 84.736492 
C 97.905055 84.222928 98.193613 83.526289 98.193613 82.8 
C 98.193613 82.073711 97.905055 81.377072 97.391492 80.863508 
C 96.877928 80.349945 96.181289 80.061387 95.455 80.061387 
C 94.728711 80.061387 94.032072 80.349945 93.518508 80.863508 
C 93.004945 81.377072 92.716387 82.073711 92.716387 82.8 
C 92.716387 83.526289 93.004945 84.222928 93.518508 84.736492 
C 94.032072 85.250055 94.728711 85.538613 95.455 85.538613 
z
" style="fill:#ff4500;stroke:#ff4500;"/>
   </g>
   <g id="PathCollection_2">
    <path clip-path="url(#p1972bd2438)" d="M 73.855 18.948683 
C 74.106594 18.948683 74.347917 18.848724 74.52582 18.67082 
C 74.703724 18.492917 74.803683 18.251594 74.803683 18 
C 74.803683 17.748406 74.703724 17.507083 74.52582 17.32918 
C 74.347917 17.151276 74.106594 17.051317 73.855 17.051317 
C 73.603406 17.051317 73.362083 17.151276 73.18418 17.32918 
C 73.006276 17.507083 72.906317 17.748406 72.906317 18 
C 72.906317 18.251594 73.006276 18.492917 73.18418 18.67082 
C 73.362083 18.848724 73.603406 18.948683 73.855 18.948683 
z
" style="fill:#5f9ea0;stroke:#5f9ea0;"/>
    <path clip-path="url(#p1972bd2438)" d="M 81.055 18.948683 
C 81.306594 18.948683 81.547917 18.848724 81.72582 18.67082 
C 81.903724 18.492917 82.003683 18.251594 82.003683 18 
C 82.003683 17.748406 81.903724 17.507083 81.72582 17.32918 
C 81.547917 17.151276 81.306594 17.051317 81.055 17.051317 
C 80.803406 17.051317 80.562083 17.151276 80.38418 17.32918 
C 80.206276 17.507083 80.106317 17.748406 80.106317 18 
C 80.106317 18.251594 80.206276 18.492917 80.38418 18.67082 
C 80.562083 18.848724 80.803406 18.948683 81.055 18.948683 
z
" style="fill:#ff4500;stroke:#ff4500;"/>
    <path clip-path="url(#p1972bd2438)" d="M 88.255 18.948683 
C 88.506594 18.948683 88.747917 18.848724 88.92582 18.67082 
C 89.103724 18.492917 89.203683 18.251594 89.203683 18 
C 89.203683 17.748406 89.103724 17.507083 88.92582 17.32918 
C 88.747917 17.151276 88.506594 17.051317 88.255 17.051317 
C 88.003406 17.051317 87.762083 17.151276 87.58418 17.32918 
C 87.406276 17.507083 87.306317 17.748406 87.306317 18 
C 87.306317 18.251594 87.406276 18.492917 87.58418 18.67082 
C 87.762083 18.848724 88.003406 18.948683 88.255 18.948683 
z
" style="fill:#ff4500;stroke:#ff4500;"/>
    <path clip-path="url(#p1972bd2438)" d="M 95.455 18.948683 
C 95.706594 18.948683 95.947917 18.848724 96.12582 18.67082 
C 96.303724 18.492917 96.403683 18.251594 96.403683 18 
C 96.403683 17.748406 96.303724 17.507083 96.12582 17.32918 
C 95.947917 17.151276 95.706594 17.051317 95.455 17.051317 
C 95.203406 17.051317 94.962083 17.151276 94.78418 17.32918 
C 94.606276 17.507083 94.506317 17.748406 94.506317 18 
C 94.506317 18.251594 94.606276 18.492917 94.78418 18.67082 
C 94.962083 18.848724 95.203406 18.948683 95.455 18.948683 
z
" style="fill:#ff4500;stroke:#ff4500;"/>
    <path clip-path="url(#p1972bd2438)" d="M 73.855 30.024745 
C 74.179806 30.024745 74.491353 29.895698 74.721025 29.666025 
C 74.950698 29.436353 75.079745 29.124806 75.079745 28.8 
C 75.079745 28.475194 74.950698 28.163647 74.721025 27.933975 
C 74.491353 27.704302 74.179806 27.575255 73.855 27.575255 
C 73.530194 27.575255 73.218647 27.704302 72.988975 27.933975 
C 72.759302 28.163647 72.630255 28.475194 72.630255 28.8 
C 72.630255 29.124806 72.759302 29.436353 72.988975 29.666025 
C 73.218647 29.895698 73.530194 30.024745 73.855 30.024745 
z
" style="fill:#ff4500;stroke:#ff4500;"/>
    <path clip-path="url(#p1972bd2438)" d="M 81.055 30.024745 
C 81.379806 30.024745 81.691353 29.895698 81.921025 29.666025 
C 82.150698 29.436353 82.279745 29.124806 82.279745 28.8 
C 82.279745 28.475194 82.150698 28.163647 81.921025 27.933975 
C 81.691353 27.704302 81.379806 27.575255 81.055 27.575255 
C 80.730194 27.575255 80.418647 27.704302 80.188975 27.933975 
C 79.959302 28.163647 79.830255 28.475194 79.830255 28.8 
C 79.830255 29.124806 79.959302 29.436353 80.188975 29.666025 
C 80.418647 29.895698 80.730194 30.024745 81.055 30.024745 
z
" style="fill:#ff4500;stroke:#ff4500;"/>
    <path clip-path="url(#p1972bd2438)" d="M 88.255 30.024745 
C 88.579806 30.024745 88.891353 29.895698 89.121025 29.666025 
C 89.350698 29.436353 89.479745 29.124806 89.479745 28.8 
C 89.479745 28.475194 89.350698 28.163647 89.121025 27.933975 
C 88.891353 27.704302 88.579806 27.575255 88.255 27.575255 
C 87.930194 27.575255 87.618647 27.704302 87.388975 27.933975 
C 87.159302 28.163647 87.030255 28.475194 87.030255 28.8 
C 87.030255 29.124806 87.159302 29.436353 87.388975 29.666025 
C 87.618647 29.895698 87.930194 30.024745 88.255 30.024745 
z
" style="fill:#ff4500;stroke:#ff4500;"/>
    <path clip-path="url(#p1972bd2438)" d="M 95.455 30.024745 
C 95.779806 30.024745 96.091353 29.895698 96.321025 29.666025 
C 96.550698 29.436353 96.679745 29.124806 96.679745 28.8 
C 96.679745 28.475194 96.550698 28.163647 96.321025 27.933975 
C 96.091353 27.704302 95.779806 27.575255 95.455 27.575255 
C 95.130194 27.575255 94.818647 27.704302 94.588975 27.933975 
C 94.359302 28.163647 94.230255 28.475194 94.230255 28.8 
C 94.230255 29.124806 94.359302 29.436353 94.588975 29.666025 
C 94.818647 29.895698 95.130194 30.024745 95.455 30.024745 
z
" style="fill:#ff4500;stroke:#ff4500;"/>
    <path clip-path="url(#p1972bd2438)" d="M 73.855 42.338613 
C 74.581289 42.338613 75.277928 42.050055 75.791492 41.536492 
C 76.305055 41.022928 76.593613 40.326289 76.593613 39.6 
C 76.593613 38.873711 76.305055 38.177072 75.791492 37.663508 
C 75.277928 37.149945 74.581289 36.861387 73.855 36.861387 
C 73.128711 36.861387 72.432072 37.149945 71.918508 37.663508 
C 71.404945 38.177072 71.116387 38.873711 71.116387 39.6 
C 71.116387 40.326289 71.404945 41.022928 71.918508 41.536492 
C 72.432072 42.050055 73.128711 42.338613 73.855 42.338613 
z
" style="fill:#ff4500;stroke:#ff4500;"/>
    <path clip-path="url(#p1972bd2438)" d="M 81.055 42.338613 
C 81.781289 42.338613 82.477928 42.050055 82.991492 41.536492 
C 83.505055 41.022928 83.793613 40.326289 83.793613 39.6 
C 83.793613 38.873711 83.505055 38.177072 82.991492 37.663508 
C 82.477928 37.149945 81.781289 36.861387 81.055 36.861387 
C 80.328711 36.861387 79.632072 37.149945 79.118508 37.663508 
C 78.604945 38.177072 78.316387 38.873711 78.316387 39.6 
C 78.316387 40.326289 78.604945 41.022928 79.118508 41.536492 
C 79.632072 42.050055 80.328711 42.338613 81.055 42.338613 
z
" style="fill:#ff4500;stroke:#ff4500;"/>
    <path clip-path="url(#p1972bd2438)" d="M 88.255 42.338613 
C 88.981289 42.338613 89.677928 42.050055 90.191492 41.536492 
C 90.705055 41.022928 90.993613 40.326289 90.993613 39.6 
C 90.993613 38.873711 90.705055 38.177072 90.191492 37.663508 
C 89.677928 37.149945 88.981289 36.861387 88.255 36.861387 
C 87.528711 36.861387 86.832072 37.149945 86.318508 37.663508 
C 85.804945 38.177072 85.516387 38.873711 85.516387 39.6 
C 85.516387 40.326289 85.804945 41.022928 86.318508 41.536492 
C 86.832072 42.050055 87.528711 42.338613 88.255 42.338613 
z
" style="fill:#ff4500;stroke:#ff4500;"/>
    <path clip-path="url(#p1972bd2438)" d="M 95.455 42.338613 
C 96.181289 42.338613 96.877928 42.050055 97.391492 41.536492 
C 97.905055 41.022928 98.193613 40.326289 98.193613 39.6 
C 98.193613 38.873711 97.905055 38.177072 97.391492 37.663508 
C 96.877928 37.149945 96.181289 36.861387 95.455 36.861387 
C 94.728711 36.861387 94.032072 37.149945 93.518508 37.663508 
C 93.004945 38.177072 92.716387 38.873711 92.716387 39.6 
C 92.716387 40.326289 93.004945 41.022928 93.518508 41.536492 
C 94.032072 42.050055 94.728711 42.338613 95.455 42.338613 
z
" style="fill:#ff4500;stroke:#ff4500;"/>
   </g>
   <g id="PathCollection_3">
    <path clip-path="url(#p1972bd2438)" d="M 30.655 18.774597 
C 30.860425 18.774597 31.057465 18.69298 31.202723 18.547723 
C 31.34798 18.402465 31.429597 18.205425 31.429597 18 
C 31.429597 17.794575 31.34798 17.597535 31.202723 17.452277 
C 31.057465 17.30702 30.860425 17.225403 30.655 17.225403 
C 30.449575 17.225403 30.252535 17.30702 30.107277 17.452277 
C 29.96202 17.597535 29.880403 17.794575 29.880403 18 
C 29.880403 18.205425 29.96202 18.402465 30.107277 18.547723 
C 30.252535 18.69298 30.449575 18.774597 30.655 18.774597 
z
" style="fill:#5f9ea0;stroke:#5f9ea0;"/>
    <path clip-path="url(#p1972bd2438)" d="M 37.855 18.774597 
C 38.060425 18.774597 38.257465 18.69298 38.402723 18.547723 
C 38.54798 18.402465 38.629597 18.205425 38.629597 18 
C 38.629597 17.794575 38.54798 17.597535 38.402723 17.452277 
C 38.257465 17.30702 38.060425 17.225403 37.855 17.225403 
C 37.649575 17.225403 37.452535 17.30702 37.307277 17.452277 
C 37.16202 17.597535 37.080403 17.794575 37.080403 18 
C 37.080403 18.205425 37.16202 18.402465 37.307277 18.547723 
C 37.452535 18.69298 37.649575 18.774597 37.855 18.774597 
z
" style="fill:#5f9ea0;stroke:#5f9ea0;"/>
    <path clip-path="url(#p1972bd2438)" d="M 45.055 18.774597 
C 45.260425 18.774597 45.457465 18.69298 45.602723 18.547723 
C 45.74798 18.402465 45.829597 18.205425 45.829597 18 
C 45.829597 17.794575 45.74798 17.597535 45.602723 17.452277 
C 45.457465 17.30702 45.260425 17.225403 45.055 17.225403 
C 44.849575 17.225403 44.652535 17.30702 44.507277 17.452277 
C 44.36202 17.597535 44.280403 17.794575 44.280403 18 
C 44.280403 18.205425 44.36202 18.402465 44.507277 18.547723 
C 44.652535 18.69298 44.849575 18.774597 45.055 18.774597 
z
" style="fill:#5f9ea0;stroke:#5f9ea0;"/>
    <path clip-path="url(#p1972bd2438)" d="M 52.255 18.774597 
C 52.460425 18.774597 52.657465 18.69298 52.802723 18.547723 
C 52.94798 18.402465 53.029597 18.205425 53.029597 18 
C 53.029597 17.794575 52.94798 17.597535 52.802723 17.452277 
C 52.657465 17.30702 52.460425 17.225403 52.255 17.225403 
C 52.049575 17.225403 51.852535 17.30702 51.707277 17.452277 
C 51.56202 17.597535 51.480403 17.794575 51.480403 18 
C 51.480403 18.205425 51.56202 18.402465 51.707277 18.547723 
C 51.852535 18.69298 52.049575 18.774597 52.255 18.774597 
z
" style="fill:#5f9ea0;stroke:#5f9ea0;"/>
    <path clip-path="url(#p1972bd2438)" d="M 30.655 23.094597 
C 30.860425 23.094597 31.057465 23.01298 31.202723 22.867723 
C 31.34798 22.722465 31.429597 22.525425 31.429597 22.32 
C 31.429597 22.114575 31.34798 21.917535 31.202723 21.772277 
C 31.057465 21.62702 30.860425 21.545403 30.655 21.545403 
C 30.449575 21.545403 30.252535 21.62702 30.107277 21.772277 
C 29.96202 21.917535 29.880403 22.114575 29.880403 22.32 
C 29.880403 22.525425 29.96202 22.722465 30.107277 22.867723 
C 30.252535 23.01298 30.449575 23.094597 30.655 23.094597 
z
" style="fill:#5f9ea0;stroke:#5f9ea0;"/>
    <path clip-path="url(#p1972bd2438)" d="M 37.855 23.094597 
C 38.060425 23.094597 38.257465 23.01298 38.402723 22.867723 
C 38.54798 22.722465 38.629597 22.525425 38.629597 22.32 
C 38.629597 22.114575 38.54798 21.917535 38.402723 21.772277 
C 38.257465 21.62702 38.060425 21.545403 37.855 21.545403 
C 37.649575 21.545403 37.452535 21.62702 37.307277 21.772277 
C 37.16202 21.917535 37.080403 22.114575 37.080403 22.32 
C 37.080403 22.525425 37.16202 22.722465 37.307277 22.867723 
C 37.452535 23.01298 37.649575 23.094597 37.855 23.094597 
z
" style="fill:#5f9ea0;stroke:#5f9ea0;"/>
    <path clip-path="url(#p1972bd2438)" d="M 45.055 23.094597 
C 45.260425 23.094597 45.457465 23.01298 45.602723 22.867723 
C 45.74798 22.722465 45.829597 22.525425 45.829597 22.32 
C 45.829597 22.114575 45.74798 21.917535 45.602723 21.772277 
C 45.457465 21.62702 45.260425 21.545403 45.055 21.545403 
C 44.849575 21.545403 44.652535 21.62702 44.507277 21.772277 
C 44.36202 21.917535 44.280403 22.114575 44.280403 22.32 
C 44.280403 22.525425 44.36202 22.722465 44.507277 22.867723 
C 44.652535 23.01298 44.849575 23.094597 45.055 23.094597 
z
" style="fill:#ff4500;stroke:#ff4500;"/>
    <path clip-path="url(#p1972bd2438)" d="M 52.255 23.094597 
C 52.460425 23.094597 52.657465 23.01298 52.802723 22.867723 
C 52.94798 22.722465 53.029597 22.525425 53.029597 22.32 
C 53.029597 22.114575 52.94798 21.917535 52.802723 21.772277 
C 52.657465 21.62702 52.460425 21.545403 52.255 21.545403 
C 52.049575 21.545403 51.852535 21.62702 51.707277 21.772277 
C 51.56202 21.917535 51.480403 22.114575 51.480403 22.32 
C 51.480403 22.525425 51.56202 22.722465 51.707277 22.867723 
C 51.852535 23.01298 52.049575 23.094597 52.255 23.094597 
z
" style="fill:#ff4500;stroke:#ff4500;"/>
    <path clip-path="url(#p1972bd2438)" d="M 30.655 27.588683 
C 30.906594 27.588683 31.147917 27.488724 31.32582 27.31082 
C 31.503724 27.132917 31.603683 26.891594 31.603683 26.64 
C 31.603683 26.388406 31.503724 26.147083 31.32582 25.96918 
C 31.147917 25.791276 30.906594 25.691317 30.655 25.691317 
C 30.403406 25.691317 30.162083 25.791276 29.98418 25.96918 
C 29.806276 26.147083 29.706317 26.388406 29.706317 26.64 
C 29.706317 26.891594 29.806276 27.132917 29.98418 27.31082 
C 30.162083 27.488724 30.403406 27.588683 30.655 27.588683 
z
" style="fill:#5f9ea0;stroke:#5f9ea0;"/>
    <path clip-path="url(#p1972bd2438)" d="M 37.855 27.588683 
C 38.106594 27.588683 38.347917 27.488724 38.52582 27.31082 
C 38.703724 27.132917 38.803683 26.891594 38.803683 26.64 
C 38.803683 26.388406 38.703724 26.147083 38.52582 25.96918 
C 38.347917 25.791276 38.106594 25.691317 37.855 25.691317 
C 37.603406 25.691317 37.362083 25.791276 37.18418 25.96918 
C 37.006276 26.147083 36.906317 26.388406 36.906317 26.64 
C 36.906317 26.891594 37.006276 27.132917 37.18418 27.31082 
C 37.362083 27.488724 37.603406 27.588683 37.855 27.588683 
z
" style="fill:#5f9ea0;stroke:#5f9ea0;"/>
    <path clip-path="url(#p1972bd2438)" d="M 45.055 27.588683 
C 45.306594 27.588683 45.547917 27.488724 45.72582 27.31082 
C 45.903724 27.132917 46.003683 26.891594 46.003683 26.64 
C 46.003683 26.388406 45.903724 26.147083 45.72582 25.96918 
C 45.547917 25.791276 45.306594 25.691317 45.055 25.691317 
C 44.803406 25.691317 44.562083 25.791276 44.38418 25.96918 
C 44.206276 26.147083 44.106317 26.388406 44.106317 26.64 
C 44.106317 26.891594 44.206276 27.132917 44.38418 27.31082 
C 44.562083 27.488724 44.803406 27.588683 45.055 27.588683 
z
" style="fill:#5f9ea0;stroke:#5f9ea0;"/>
    <path clip-path="url(#p1972bd2438)" d="M 52.255 27.588683 
C 52.506594 27.588683 52.747917 27.488724 52.92582 27.31082 
C 53.103724 27.132917 53.203683 26.891594 53.203683 26.64 
C 53.203683 26.388406 53.103724 26.147083 52.92582 25.96918 
C 52.747917 25.791276 52.506594 25.691317 52.255 25.691317 
C 52.003406 25.691317 51.762083 25.791276 51.58418 25.96918 
C 51.406276 26.147083 51.306317 26.388406 51.306317 26.64 
C 51.306317 26.891594 51.406276 27.132917 51.58418 27.31082 
C 51.762083 27.488724 52.003406 27.588683 52.255 27.588683 
z
" style="fill:#5f9ea0;stroke:#5f9ea0;"/>
    <path clip-path="url(#p1972bd2438)" d="M 30.655 31.908683 
C 30.906594 31.908683 31.147917 31.808724 31.32582 31.63082 
C 31.503724 31.452917 31.603683 31.211594 31.603683 30.96 
C 31.603683 30.708406 31.503724 30.467083 31.32582 30.28918 
C 31.147917 30.111276 30.906594 30.011317 30.655 30.011317 
C 30.403406 30.011317 30.162083 30.111276 29.98418 30.28918 
C 29.806276 30.467083 29.706317 30.708406 29.706317 30.96 
C 29.706317 31.211594 29.806276 31.452917 29.98418 31.63082 
C 30.162083 31.808724 30.403406 31.908683 30.655 31.908683 
z
" style="fill:#5f9ea0;stroke:#5f9ea0;"/>
    <path clip-path="url(#p1972bd2438)" d="M 37.855 31.908683 
C 38.106594 31.908683 38.347917 31.808724 38.52582 31.63082 
C 38.703724 31.452917 38.803683 31.211594 38.803683 30.96 
C 38.803683 30.708406 38.703724 30.467083 38.52582 30.28918 
C 38.347917 30.111276 38.106594 30.011317 37.855 30.011317 
C 37.603406 30.011317 37.362083 30.111276 37.18418 30.28918 
C 37.006276 30.467083 36.906317 30.708406 36.906317 30.96 
C 36.906317 31.211594 37.006276 31.452917 37.18418 31.63082 
C 37.362083 31.808724 37.603406 31.908683 37.855 31.908683 
z
" style="fill:#5f9ea0;stroke:#5f9ea0;"/>
    <path clip-path="url(#p1972bd2438)" d="M 45.055 31.908683 
C 45.306594 31.908683 45.547917 31.808724 45.72582 31.63082 
C 45.903724 31.452917 46.003683 31.211594 46.003683 30.96 
C 46.003683 30.708406 45.903724 30.467083 45.72582 30.28918 
C 45.547917 30.111276 45.306594 30.011317 45.055 30.011317 
C 44.803406 30.011317 44.562083 30.111276 44.38418 30.28918 
C 44.206276 30.467083 44.106317 30.708406 44.106317 30.96 
C 44.106317 31.211594 44.206276 31.452917 44.38418 31.63082 
C 44.562083 31.808724 44.803406 31.908683 45.055 31.908683 
z
" style="fill:#ff4500;stroke:#ff4500;"/>
    <path clip-path="url(#p1972bd2438)" d="M 52.255 31.908683 
C 52.506594 31.908683 52.747917 31.808724 52.92582 31.63082 
C 53.103724 31.452917 53.203683 31.211594 53.203683 30.96 
C 53.203683 30.708406 53.103724 30.467083 52.92582 30.28918 
C 52.747917 30.111276 52.506594 30.011317 52.255 30.011317 
C 52.003406 30.011317 51.762083 30.111276 51.58418 30.28918 
C 51.406276 30.467083 51.306317 30.708406 51.306317 30.96 
C 51.306317 31.211594 51.406276 31.452917 51.58418 31.63082 
C 51.762083 31.808724 52.003406 31.908683 52.255 31.908683 
z
" style="fill:#ff4500;stroke:#ff4500;"/>
    <path clip-path="url(#p1972bd2438)" d="M 30.655 36.504745 
C 30.979806 36.504745 31.291353 36.375698 31.521025 36.146025 
C 31.750698 35.916353 31.879745 35.604806 31.879745 35.28 
C 31.879745 34.955194 31.750698 34.643647 31.521025 34.413975 
C 31.291353 34.184302 30.979806 34.055255 30.655 34.055255 
C 30.330194 34.055255 30.018647 34.184302 29.788975 34.413975 
C 29.559302 34.643647 29.430255 34.955194 29.430255 35.28 
C 29.430255 35.604806 29.559302 35.916353 29.788975 36.146025 
C 30.018647 36.375698 30.330194 36.504745 30.655 36.504745 
z
" style="fill:#5f9ea0;stroke:#5f9ea0;"/>
    <path clip-path="url(#p1972bd2438)" d="M 37.855 36.504745 
C 38.179806 36.504745 38.491353 36.375698 38.721025 36.146025 
C 38.950698 35.916353 39.079745 35.604806 39.079745 35.28 
C 39.079745 34.955194 38.950698 34.643647 38.721025 34.413975 
C 38.491353 34.184302 38.179806 34.055255 37.855 34.055255 
C 37.530194 34.055255 37.218647 34.184302 36.988975 34.413975 
C 36.759302 34.643647 36.630255 34.955194 36.630255 35.28 
C 36.630255 35.604806 36.759302 35.916353 36.988975 36.146025 
C 37.218647 36.375698 37.530194 36.504745 37.855 36.504745 
z
" style="fill:#5f9ea0;stroke:#5f9ea0;"/>
    <path clip-path="url(#p1972bd2438)" d="M 45.055 36.504745 
C 45.379806 36.504745 45.691353 36.375698 45.921025 36.146025 
C 46.150698 35.916353 46.279745 35.604806 46.279745 35.28 
C 46.279745 34.955194 46.150698 34.643647 45.921025 34.413975 
C 45.691353 34.184302 45.379806 34.055255 45.055 34.055255 
C 44.730194 34.055255 44.418647 34.184302 44.188975 34.413975 
C 43.959302 34.643647 43.830255 34.955194 43.830255 35.28 
C 43.830255 35.604806 43.959302 35.916353 44.188975 36.146025 
C 44.418647 36.375698 44.730194 36.504745 45.055 36.504745 
z
" style="fill:#5f9ea0;stroke:#5f9ea0;"/>
    <path clip-path="url(#p1972bd2438)" d="M 52.255 36.504745 
C 52.579806 36.504745 52.891353 36.375698 53.121025 36.146025 
C 53.350698 35.916353 53.479745 35.604806 53.479745 35.28 
C 53.479745 34.955194 53.350698 34.643647 53.121025 34.413975 
C 52.891353 34.184302 52.579806 34.055255 52.255 34.055255 
C 51.930194 34.055255 51.618647 34.184302 51.388975 34.413975 
C 51.159302 34.643647 51.030255 34.955194 51.030255 35.28 
C 51.030255 35.604806 51.159302 35.916353 51.388975 36.146025 
C 51.618647 36.375698 51.930194 36.504745 52.255 36.504745 
z
" style="fill:#5f9ea0;stroke:#5f9ea0;"/>
    <path clip-path="url(#p1972bd2438)" d="M 30.655 40.824745 
C 30.979806 40.824745 31.291353 40.695698 31.521025 40.466025 
C 31.750698 40.236353 31.879745 39.924806 31.879745 39.6 
C 31.879745 39.275194 31.750698 38.963647 31.521025 38.733975 
C 31.291353 38.504302 30.979806 38.375255 30.655 38.375255 
C 30.330194 38.375255 30.018647 38.504302 29.788975 38.733975 
C 29.559302 38.963647 29.430255 39.275194 29.430255 39.6 
C 29.430255 39.924806 29.559302 40.236353 29.788975 40.466025 
C 30.018647 40.695698 30.330194 40.824745 30.655 40.824745 
z
" style="fill:#5f9ea0;stroke:#5f9ea0;"/>
    <path clip-path="url(#p1972bd2438)" d="M 37.855 40.824745 
C 38.179806 40.824745 38.491353 40.695698 38.721025 40.466025 
C 38.950698 40.236353 39.079745 39.924806 39.079745 39.6 
C 39.079745 39.275194 38.950698 38.963647 38.721025 38.733975 
C 38.491353 38.504302 38.179806 38.375255 37.855 38.375255 
C 37.530194 38.375255 37.218647 38.504302 36.988975 38.733975 
C 36.759302 38.963647 36.630255 39.275194 36.630255 39.6 
C 36.630255 39.924806 36.759302 40.236353 36.988975 40.466025 
C 37.218647 40.695698 37.530194 40.824745 37.855 40.824745 
z
" style="fill:#5f9ea0;stroke:#5f9ea0;"/>
    <path clip-path="url(#p1972bd2438)" d="M 45.055 40.824745 
C 45.379806 40.824745 45.691353 40.695698 45.921025 40.466025 
C 46.150698 40.236353 46.279745 39.924806 46.279745 39.6 
C 46.279745 39.275194 46.150698 38.963647 45.921025 38.733975 
C 45.691353 38.504302 45.379806 38.375255 45.055 38.375255 
C 44.730194 38.375255 44.418647 38.504302 44.188975 38.733975 
C 43.959302 38.963647 43.830255 39.275194 43.830255 39.6 
C 43.830255 39.924806 43.959302 40.236353 44.188975 40.466025 
C 44.418647 40.695698 44.730194 40.824745 45.055 40.824745 
z
" style="fill:#ff4500;stroke:#ff4500;"/>
    <path clip-path="url(#p1972bd2438)" d="M 52.255 40.824745 
C 52.579806 40.824745 52.891353 40.695698 53.121025 40.466025 
C 53.350698 40.236353 53.479745 39.924806 53.479745 39.6 
C 53.479745 39.275194 53.350698 38.963647 53.121025 38.733975 
C 52.891353 38.504302 52.579806 38.375255 52.255 38.375255 
C 51.930194 38.375255 51.618647 38.504302 51.388975 38.733975 
C 51.159302 38.963647 51.030255 39.275194 51.030255 39.6 
C 51.030255 39.924806 51.159302 40.236353 51.388975 40.466025 
C 51.618647 40.695698 51.930194 40.824745 52.255 40.824745 
z
" style="fill:#ff4500;stroke:#ff4500;"/>
   </g>
   <g id="PathCollection_4">
    <path clip-path="url(#p1972bd2438)" d="M 31.683571 63.69154 
C 31.935165 63.69154 32.176488 63.591581 32.354392 63.413678 
C 32.532295 63.235774 32.632255 62.994451 32.632255 62.742857 
C 32.632255 62.491263 32.532295 62.24994 32.354392 62.072037 
C 32.176488 61.894133 31.935165 61.794174 31.683571 61.794174 
C 31.431978 61.794174 31.190655 61.894133 31.012751 62.072037 
C 30.834847 62.24994 30.734888 62.491263 30.734888 62.742857 
C 30.734888 62.994451 30.834847 63.235774 31.012751 63.413678 
C 31.190655 63.591581 31.431978 63.69154 31.683571 63.69154 
z
" style="fill:#5f9ea0;stroke:#5f9ea0;"/>
    <path clip-path="url(#p1972bd2438)" d="M 38.883571 63.69154 
C 39.135165 63.69154 39.376488 63.591581 39.554392 63.413678 
C 39.732295 63.235774 39.832255 62.994451 39.832255 62.742857 
C 39.832255 62.491263 39.732295 62.24994 39.554392 62.072037 
C 39.376488 61.894133 39.135165 61.794174 38.883571 61.794174 
C 38.631978 61.794174 38.390655 61.894133 38.212751 62.072037 
C 38.034847 62.24994 37.934888 62.491263 37.934888 62.742857 
C 37.934888 62.994451 38.034847 63.235774 38.212751 63.413678 
C 38.390655 63.591581 38.631978 63.69154 38.883571 63.69154 
z
" style="fill:#5f9ea0;stroke:#5f9ea0;"/>
    <path clip-path="url(#p1972bd2438)" d="M 46.083571 63.69154 
C 46.335165 63.69154 46.576488 63.591581 46.754392 63.413678 
C 46.932295 63.235774 47.032255 62.994451 47.032255 62.742857 
C 47.032255 62.491263 46.932295 62.24994 46.754392 62.072037 
C 46.576488 61.894133 46.335165 61.794174 46.083571 61.794174 
C 45.831978 61.794174 45.590655 61.894133 45.412751 62.072037 
C 45.234847 62.24994 45.134888 62.491263 45.134888 62.742857 
C 45.134888 62.994451 45.234847 63.235774 45.412751 63.413678 
C 45.590655 63.591581 45.831978 63.69154 46.083571 63.69154 
z
" style="fill:#5f9ea0;stroke:#5f9ea0;"/>
    <path clip-path="url(#p1972bd2438)" d="M 53.283571 63.69154 
C 53.535165 63.69154 53.776488 63.591581 53.954392 63.413678 
C 54.132295 63.235774 54.232255 62.994451 54.232255 62.742857 
C 54.232255 62.491263 54.132295 62.24994 53.954392 62.072037 
C 53.776488 61.894133 53.535165 61.794174 53.283571 61.794174 
C 53.031978 61.794174 52.790655 61.894133 52.612751 62.072037 
C 52.434847 62.24994 52.334888 62.491263 52.334888 62.742857 
C 52.334888 62.994451 52.434847 63.235774 52.612751 63.413678 
C 52.790655 63.591581 53.031978 63.69154 53.283571 63.69154 
z
" style="fill:#5f9ea0;stroke:#5f9ea0;"/>
    <path clip-path="url(#p1972bd2438)" d="M 31.683571 70.89154 
C 31.935165 70.89154 32.176488 70.791581 32.354392 70.613678 
C 32.532295 70.435774 32.632255 70.194451 32.632255 69.942857 
C 32.632255 69.691263 32.532295 69.44994 32.354392 69.272037 
C 32.176488 69.094133 31.935165 68.994174 31.683571 68.994174 
C 31.431978 68.994174 31.190655 69.094133 31.012751 69.272037 
C 30.834847 69.44994 30.734888 69.691263 30.734888 69.942857 
C 30.734888 70.194451 30.834847 70.435774 31.012751 70.613678 
C 31.190655 70.791581 31.431978 70.89154 31.683571 70.89154 
z
" style="fill:#5f9ea0;stroke:#5f9ea0;"/>
    <path clip-path="url(#p1972bd2438)" d="M 38.883571 70.89154 
C 39.135165 70.89154 39.376488 70.791581 39.554392 70.613678 
C 39.732295 70.435774 39.832255 70.194451 39.832255 69.942857 
C 39.832255 69.691263 39.732295 69.44994 39.554392 69.272037 
C 39.376488 69.094133 39.135165 68.994174 38.883571 68.994174 
C 38.631978 68.994174 38.390655 69.094133 38.212751 69.272037 
C 38.034847 69.44994 37.934888 69.691263 37.934888 69.942857 
C 37.934888 70.194451 38.034847 70.435774 38.212751 70.613678 
C 38.390655 70.791581 38.631978 70.89154 38.883571 70.89154 
z
" style="fill:#5f9ea0;stroke:#5f9ea0;"/>
    <path clip-path="url(#p1972bd2438)" d="M 46.083571 70.89154 
C 46.335165 70.89154 46.576488 70.791581 46.754392 70.613678 
C 46.932295 70.435774 47.032255 70.194451 47.032255 69.942857 
C 47.032255 69.691263 46.932295 69.44994 46.754392 69.272037 
C 46.576488 69.094133 46.335165 68.994174 46.083571 68.994174 
C 45.831978 68.994174 45.590655 69.094133 45.412751 69.272037 
C 45.234847 69.44994 45.134888 69.691263 45.134888 69.942857 
C 45.134888 70.194451 45.234847 70.435774 45.412751 70.613678 
C 45.590655 70.791581 45.831978 70.89154 46.083571 70.89154 
z
" style="fill:#5f9ea0;stroke:#5f9ea0;"/>
    <path clip-path="url(#p1972bd2438)" d="M 53.283571 70.89154 
C 53.535165 70.89154 53.776488 70.791581 53.954392 70.613678 
C 54.132295 70.435774 54.232255 70.194451 54.232255 69.942857 
C 54.232255 69.691263 54.132295 69.44994 53.954392 69.272037 
C 53.776488 69.094133 53.535165 68.994174 53.283571 68.994174 
C 53.031978 68.994174 52.790655 69.094133 52.612751 69.272037 
C 52.434847 69.44994 52.334888 69.691263 52.334888 69.942857 
C 52.334888 70.194451 52.434847 70.435774 52.612751 70.613678 
C 52.790655 70.791581 53.031978 70.89154 53.283571 70.89154 
z
" style="fill:#5f9ea0;stroke:#5f9ea0;"/>
    <path clip-path="url(#p1972bd2438)" d="M 31.683571 78.09154 
C 31.935165 78.09154 32.176488 77.991581 32.354392 77.813678 
C 32.532295 77.635774 32.632255 77.394451 32.632255 77.142857 
C 32.632255 76.891263 32.532295 76.64994 32.354392 76.472037 
C 32.176488 76.294133 31.935165 76.194174 31.683571 76.194174 
C 31.431978 76.194174 31.190655 76.294133 31.012751 76.472037 
C 30.834847 76.64994 30.734888 76.891263 30.734888 77.142857 
C 30.734888 77.394451 30.834847 77.635774 31.012751 77.813678 
C 31.190655 77.991581 31.431978 78.09154 31.683571 78.09154 
z
" style="fill:#5f9ea0;stroke:#5f9ea0;"/>
    <path clip-path="url(#p1972bd2438)" d="M 38.883571 78.09154 
C 39.135165 78.09154 39.376488 77.991581 39.554392 77.813678 
C 39.732295 77.635774 39.832255 77.394451 39.832255 77.142857 
C 39.832255 76.891263 39.732295 76.64994 39.554392 76.472037 
C 39.376488 76.294133 39.135165 76.194174 38.883571 76.194174 
C 38.631978 76.194174 38.390655 76.294133 38.212751 76.472037 
C 38.034847 76.64994 37.934888 76.891263 37.934888 77.142857 
C 37.934888 77.394451 38.034847 77.635774 38.212751 77.813678 
C 38.390655 77.991581 38.631978 78.09154 38.883571 78.09154 
z
" style="fill:#5f9ea0;stroke:#5f9ea0;"/>
    <path clip-path="url(#p1972bd2438)" d="M 46.083571 78.09154 
C 46.335165 78.09154 46.576488 77.991581 46.754392 77.813678 
C 46.932295 77.635774 47.032255 77.394451 47.032255 77.142857 
C 47.032255 76.891263 46.932295 76.64994 46.754392 76.472037 
C 46.576488 76.294133 46.335165 76.194174 46.083571 76.194174 
C 45.831978 76.194174 45.590655 76.294133 45.412751 76.472037 
C 45.234847 76.64994 45.134888 76.891263 45.134888 77.142857 
C 45.134888 77.394451 45.234847 77.635774 45.412751 77.813678 
C 45.590655 77.991581 45.831978 78.09154 46.083571 78.09154 
z
" style="fill:#5f9ea0;stroke:#5f9ea0;"/>
    <path clip-path="url(#p1972bd2438)" d="M 53.283571 78.09154 
C 53.535165 78.09154 53.776488 77.991581 53.954392 77.813678 
C 54.132295 77.635774 54.232255 77.394451 54.232255 77.142857 
C 54.232255 76.891263 54.132295 76.64994 53.954392 76.472037 
C 53.776488 76.294133 53.535165 76.194174 53.283571 76.194174 
C 53.031978 76.194174 52.790655 76.294133 52.612751 76.472037 
C 52.434847 76.64994 52.334888 76.891263 52.334888 77.142857 
C 52.334888 77.394451 52.434847 77.635774 52.612751 77.813678 
C 52.790655 77.991581 53.031978 78.09154 53.283571 78.09154 
z
" style="fill:#5f9ea0;stroke:#5f9ea0;"/>
    <path clip-path="url(#p1972bd2438)" d="M 31.683571 85.29154 
C 31.935165 85.29154 32.176488 85.191581 32.354392 85.013678 
C 32.532295 84.835774 32.632255 84.594451 32.632255 84.342857 
C 32.632255 84.091263 32.532295 83.84994 32.354392 83.672037 
C 32.176488 83.494133 31.935165 83.394174 31.683571 83.394174 
C 31.431978 83.394174 31.190655 83.494133 31.012751 83.672037 
C 30.834847 83.84994 30.734888 84.091263 30.734888 84.342857 
C 30.734888 84.594451 30.834847 84.835774 31.012751 85.013678 
C 31.190655 85.191581 31.431978 85.29154 31.683571 85.29154 
z
" style="fill:#ff4500;stroke:#ff4500;"/>
    <path clip-path="url(#p1972bd2438)" d="M 38.883571 85.29154 
C 39.135165 85.29154 39.376488 85.191581 39.554392 85.013678 
C 39.732295 84.835774 39.832255 84.594451 39.832255 84.342857 
C 39.832255 84.091263 39.732295 83.84994 39.554392 83.672037 
C 39.376488 83.494133 39.135165 83.394174 38.883571 83.394174 
C 38.631978 83.394174 38.390655 83.494133 38.212751 83.672037 
C 38.034847 83.84994 37.934888 84.091263 37.934888 84.342857 
C 37.934888 84.594451 38.034847 84.835774 38.212751 85.013678 
C 38.390655 85.191581 38.631978 85.29154 38.883571 85.29154 
z
" style="fill:#ff4500;stroke:#ff4500;"/>
   </g>
   <g id="matplotlib.axis_1">
    <g id="xtick_1">
     <g id="line2d_1">
      <defs>
       <path d="M 0 0 
L 0 3.5 
" id="mf902cc67f0" style="stroke:#000000;stroke-width:0.8;"/>
      </defs>
      <g>
       <use style="stroke:#000000;stroke-width:0.8;" x="41.455" xlink:href="#mf902cc67f0" y="93.6"/>
      </g>
     </g>
     <g id="text_1">
      <!-- low stress -->
      <g transform="translate(28.187969 105.024063)scale(0.06 -0.06)">
       <defs>
        <path d="M 7.328125 14.796875 
L 7.328125 73.734375 
L 16.609375 73.734375 
L 16.609375 16.359375 
Q 16.609375 12.15625 19.015625 9.734375 
Q 21.4375 7.328125 25.34375 7.328125 
L 25.34375 -0.984375 
Q 7.328125 -0.984375 7.328125 14.796875 
z
" id="TrebuchetMS-108"/>
        <path d="M 3.171875 26.265625 
Q 3.171875 38.375 9.6875 45.8125 
Q 16.21875 53.265625 26.859375 53.265625 
Q 38.09375 53.265625 44.28125 46.109375 
Q 50.484375 38.96875 50.484375 26.265625 
Q 50.484375 13.625 44.140625 6.3125 
Q 37.796875 -0.984375 26.859375 -0.984375 
Q 15.671875 -0.984375 9.421875 6.390625 
Q 3.171875 13.765625 3.171875 26.265625 
z
M 12.9375 26.265625 
Q 12.9375 6.59375 26.859375 6.59375 
Q 33.34375 6.59375 37.03125 11.859375 
Q 40.71875 17.140625 40.71875 26.265625 
Q 40.71875 45.703125 26.859375 45.703125 
Q 20.515625 45.703125 16.71875 40.53125 
Q 12.9375 35.359375 12.9375 26.265625 
z
" id="TrebuchetMS-111"/>
        <path d="M 54.9375 -0.984375 
L 52.484375 -0.984375 
L 37.15625 34.625 
L 21.875 -0.984375 
L 19.4375 -0.984375 
L 0.734375 52.4375 
L 10.640625 52.4375 
L 21.828125 18.109375 
L 35.75 52.4375 
L 38.1875 52.4375 
L 52.546875 18.109375 
L 64.546875 52.4375 
L 73.6875 52.4375 
z
" id="TrebuchetMS-119"/>
        <path id="TrebuchetMS-32"/>
        <path d="M 3.171875 3.125 
L 6.453125 11.921875 
Q 14.203125 6.84375 18.953125 6.84375 
Q 27.546875 6.84375 27.546875 14.0625 
Q 27.546875 19.234375 19.234375 22.953125 
Q 12.84375 25.875 10.625 27.390625 
Q 8.40625 28.90625 6.765625 30.828125 
Q 5.125 32.765625 4.3125 34.9375 
Q 3.515625 37.109375 3.515625 39.59375 
Q 3.515625 46.046875 8.203125 49.65625 
Q 12.890625 53.265625 20.453125 53.265625 
Q 26.171875 53.265625 34.859375 49.65625 
L 32.234375 41.0625 
Q 26.703125 45.453125 21.140625 45.453125 
Q 17.828125 45.453125 15.546875 43.890625 
Q 13.28125 42.328125 13.28125 39.9375 
Q 13.28125 34.90625 19 32.328125 
L 25.640625 29.296875 
Q 31.734375 26.515625 34.515625 22.953125 
Q 37.3125 19.390625 37.3125 14.015625 
Q 37.3125 6.984375 32.375 3 
Q 27.4375 -0.984375 18.703125 -0.984375 
Q 10.453125 -0.984375 3.171875 3.125 
z
" id="TrebuchetMS-115"/>
        <path d="M 9.90625 44.96875 
L 3.859375 44.96875 
L 3.859375 52.296875 
L 9.90625 52.296875 
L 9.90625 63.234375 
L 19.1875 66.796875 
L 19.1875 52.296875 
L 33.546875 52.296875 
L 33.546875 44.96875 
L 19.1875 44.96875 
L 19.1875 19 
Q 19.1875 12.40625 21.40625 9.625 
Q 23.640625 6.84375 28.5625 6.84375 
Q 32.125 6.84375 35.9375 8.640625 
L 37.3125 0.484375 
Q 31.546875 -0.984375 24.65625 -0.984375 
Q 18.453125 -0.984375 14.171875 3.625 
Q 9.90625 8.25 9.90625 15.28125 
z
" id="TrebuchetMS-116"/>
        <path d="M 35.015625 43.359375 
Q 31.984375 45.453125 28.90625 45.453125 
Q 23.96875 45.453125 20.28125 40.90625 
Q 16.609375 36.375 16.609375 29.984375 
L 16.609375 0 
L 7.328125 0 
L 7.328125 52.296875 
L 16.609375 52.296875 
L 16.609375 43.953125 
Q 21.6875 53.265625 31.6875 53.265625 
Q 34.1875 53.265625 38.875 52.390625 
z
" id="TrebuchetMS-114"/>
        <path d="M 50.640625 25.25 
L 12.9375 25.25 
Q 12.9375 16.0625 17.96875 11.140625 
Q 22.40625 6.84375 29.390625 6.84375 
Q 37.359375 6.84375 42.671875 11.46875 
L 46.578125 4.78125 
Q 44.4375 2.640625 39.984375 1.078125 
Q 34.421875 -0.984375 27.59375 -0.984375 
Q 17.71875 -0.984375 10.84375 5.71875 
Q 3.171875 13.09375 3.171875 25.53125 
Q 3.171875 38.484375 11.03125 46.296875 
Q 18.0625 53.265625 27.6875 53.265625 
Q 38.875 53.265625 45.21875 46.96875 
Q 51.375 40.921875 51.375 30.90625 
Q 51.375 27.828125 50.640625 25.25 
z
M 28.125 45.453125 
Q 21.921875 45.453125 17.71875 41.453125 
Q 13.71875 37.640625 13.1875 31.984375 
L 42.140625 31.984375 
Q 42.140625 37.59375 38.625 41.359375 
Q 34.765625 45.453125 28.125 45.453125 
z
" id="TrebuchetMS-101"/>
       </defs>
       <use xlink:href="#TrebuchetMS-108"/>
       <use x="29.492188" xlink:href="#TrebuchetMS-111"/>
       <use x="83.154297" xlink:href="#TrebuchetMS-119"/>
       <use x="157.568359" xlink:href="#TrebuchetMS-32"/>
       <use x="187.695312" xlink:href="#TrebuchetMS-115"/>
       <use x="228.173828" xlink:href="#TrebuchetMS-116"/>
       <use x="267.822266" xlink:href="#TrebuchetMS-114"/>
       <use x="306.689453" xlink:href="#TrebuchetMS-101"/>
       <use x="361.230469" xlink:href="#TrebuchetMS-115"/>
       <use x="401.708984" xlink:href="#TrebuchetMS-115"/>
      </g>
     </g>
    </g>
    <g id="xtick_2">
     <g id="line2d_2">
      <g>
       <use style="stroke:#000000;stroke-width:0.8;" x="84.655" xlink:href="#mf902cc67f0" y="93.6"/>
      </g>
     </g>
     <g id="text_2">
      <!-- high stress -->
      <g transform="translate(70.475313 105.024063)scale(0.06 -0.06)">
       <defs>
        <path d="M 38.8125 0 
L 38.8125 32.859375 
Q 38.8125 38.71875 35.9375 42.078125 
Q 33.0625 45.453125 27.828125 45.453125 
Q 24.46875 45.453125 21.0625 43.46875 
Q 17.671875 41.5 15.875 38.875 
L 15.875 0 
L 6.59375 0 
L 6.59375 73.734375 
L 15.875 73.734375 
L 15.875 46.53125 
Q 17.71875 49.421875 21.84375 51.34375 
Q 25.984375 53.265625 30.375 53.265625 
Q 38.671875 53.265625 43.375 47.796875 
Q 48.09375 42.328125 48.09375 32.859375 
L 48.09375 0 
z
" id="TrebuchetMS-104"/>
        <path d="M 16.15625 72.078125 
Q 18.5625 72.078125 20.234375 70.390625 
Q 21.921875 68.703125 21.921875 66.359375 
Q 21.921875 63.96875 20.234375 62.28125 
Q 18.5625 60.59375 16.15625 60.59375 
Q 13.8125 60.59375 12.125 62.28125 
Q 10.453125 63.96875 10.453125 66.359375 
Q 10.453125 68.75 12.109375 70.40625 
Q 13.765625 72.078125 16.15625 72.078125 
z
M 11.078125 0 
L 11.078125 44.484375 
L 3.90625 44.484375 
L 3.90625 52.296875 
L 20.359375 52.296875 
L 20.359375 0 
z
" id="TrebuchetMS-105"/>
        <path d="M 4.6875 -14.3125 
L 9.71875 -6.890625 
Q 17.828125 -12.3125 24.65625 -12.3125 
Q 30.953125 -12.3125 34.59375 -10.125 
Q 38.234375 -7.953125 38.234375 -4.734375 
Q 38.234375 1.609375 29.046875 1.609375 
Q 27.484375 1.609375 23.375 0.828125 
Q 19.28125 0.046875 17 0.046875 
Q 5.859375 0.046875 5.859375 8.453125 
Q 5.859375 11.03125 8.46875 13.125 
Q 11.078125 15.234375 14.9375 16.15625 
Q 3.90625 21.34375 3.90625 34.125 
Q 3.90625 42.328125 9.609375 47.796875 
Q 15.328125 53.265625 23.734375 53.265625 
Q 31.453125 53.265625 35.796875 50.09375 
L 40.4375 55.671875 
L 46.484375 49.953125 
L 40.921875 45.75 
Q 44.484375 41.109375 44.484375 33.640625 
Q 44.484375 25.734375 39.546875 20.359375 
Q 34.625 14.984375 26.609375 14.203125 
L 18.953125 13.421875 
Q 17.578125 13.28125 15.28125 12.375 
Q 12.984375 11.46875 12.984375 10.015625 
Q 12.984375 8.015625 17.78125 8.015625 
Q 19.875 8.015625 24.3125 8.765625 
Q 28.765625 9.515625 30.90625 9.515625 
Q 38.625 9.515625 42.9375 5.828125 
Q 47.265625 2.15625 47.265625 -4.390625 
Q 47.265625 -11.625 40.796875 -16.0625 
Q 34.328125 -20.515625 24.421875 -20.515625 
Q 19.34375 -20.515625 13.71875 -18.703125 
Q 8.109375 -16.890625 4.6875 -14.3125 
z
M 24.359375 45.796875 
Q 19.53125 45.796875 16.46875 42.375 
Q 13.421875 38.96875 13.421875 34.078125 
Q 13.421875 28.609375 16.375 25.015625 
Q 19.34375 21.4375 24.359375 21.4375 
Q 29.296875 21.4375 32.078125 24.921875 
Q 34.859375 28.421875 34.859375 34.078125 
Q 34.859375 38.96875 31.859375 42.375 
Q 28.859375 45.796875 24.359375 45.796875 
z
" id="TrebuchetMS-103"/>
       </defs>
       <use xlink:href="#TrebuchetMS-104"/>
       <use x="54.638672" xlink:href="#TrebuchetMS-105"/>
       <use x="83.154297" xlink:href="#TrebuchetMS-103"/>
       <use x="133.349609" xlink:href="#TrebuchetMS-104"/>
       <use x="187.988281" xlink:href="#TrebuchetMS-32"/>
       <use x="218.115234" xlink:href="#TrebuchetMS-115"/>
       <use x="258.59375" xlink:href="#TrebuchetMS-116"/>
       <use x="298.242188" xlink:href="#TrebuchetMS-114"/>
       <use x="337.109375" xlink:href="#TrebuchetMS-101"/>
       <use x="391.650391" xlink:href="#TrebuchetMS-115"/>
       <use x="432.128906" xlink:href="#TrebuchetMS-115"/>
      </g>
     </g>
    </g>
   </g>
   <g id="matplotlib.axis_2">
    <g id="ytick_1">
     <g id="line2d_3">
      <defs>
       <path d="M 0 0 
L -3.5 0 
" id="m859d6d4e88" style="stroke:#000000;stroke-width:0.8;"/>
      </defs>
      <g>
       <use style="stroke:#000000;stroke-width:0.8;" x="19.855" xlink:href="#m859d6d4e88" y="72"/>
      </g>
     </g>
     <g id="text_3">
      <!-- low fragility -->
      <g transform="translate(11.624063 88.253906)rotate(-90)scale(0.06 -0.06)">
       <defs>
        <path d="M 34.859375 65.4375 
Q 32.03125 66.40625 29.59375 66.40625 
Q 25.34375 66.40625 22.578125 63.1875 
Q 19.828125 59.96875 19.828125 55.03125 
Q 19.828125 53.71875 20.0625 52.296875 
L 30.71875 52.296875 
L 30.71875 44.484375 
L 20.0625 44.484375 
L 20.0625 0 
L 10.796875 0 
L 10.796875 44.484375 
L 3.171875 44.484375 
L 3.171875 52.296875 
L 10.796875 52.296875 
Q 10.796875 62.3125 15.71875 68.015625 
Q 20.65625 73.734375 28.765625 73.734375 
Q 32.8125 73.734375 37.453125 72.265625 
z
" id="TrebuchetMS-102"/>
        <path d="M 36.140625 6 
Q 30.5625 -0.984375 19.09375 -0.984375 
Q 12.9375 -0.984375 8.421875 3.484375 
Q 3.90625 7.953125 3.90625 14.59375 
Q 3.90625 22.5625 10.859375 28.046875 
Q 17.828125 33.546875 28.609375 33.546875 
Q 31.546875 33.546875 35.25 32.28125 
Q 35.25 44.96875 23.921875 44.96875 
Q 15.234375 44.96875 10.546875 40.28125 
L 6.640625 48.046875 
Q 9.28125 50.203125 13.9375 51.734375 
Q 18.609375 53.265625 22.859375 53.265625 
Q 34.234375 53.265625 39.375 48.09375 
Q 44.53125 42.921875 44.53125 31.640625 
L 44.53125 12.890625 
Q 44.53125 6 48.640625 3.71875 
L 48.640625 -0.921875 
Q 42.96875 -0.921875 40.15625 0.6875 
Q 37.359375 2.296875 36.140625 6 
z
M 35.25 25.6875 
Q 30.859375 26.65625 29.109375 26.65625 
Q 22.078125 26.65625 17.625 23.046875 
Q 13.1875 19.4375 13.1875 14.5 
Q 13.1875 6.34375 22.796875 6.34375 
Q 29.828125 6.34375 35.25 13.03125 
z
" id="TrebuchetMS-97"/>
        <path d="M 26.5625 -8.890625 
Q 24.75 -13.875 18.96875 -17.1875 
Q 13.1875 -20.515625 6.0625 -20.515625 
L 6.0625 -12.203125 
Q 11.859375 -12.203125 16.015625 -9.484375 
Q 20.171875 -6.78125 20.171875 -2.875 
Q 20.171875 1.421875 18.65625 5.59375 
Q 17.140625 9.765625 14.75 15.921875 
L 0.59375 52.296875 
L 10.0625 52.296875 
L 25.4375 11.859375 
L 39.265625 52.296875 
L 48.734375 52.296875 
z
" id="TrebuchetMS-121"/>
       </defs>
       <use xlink:href="#TrebuchetMS-108"/>
       <use x="29.492188" xlink:href="#TrebuchetMS-111"/>
       <use x="83.154297" xlink:href="#TrebuchetMS-119"/>
       <use x="157.568359" xlink:href="#TrebuchetMS-32"/>
       <use x="187.695312" xlink:href="#TrebuchetMS-102"/>
       <use x="224.658203" xlink:href="#TrebuchetMS-114"/>
       <use x="263.525391" xlink:href="#TrebuchetMS-97"/>
       <use x="316.064453" xlink:href="#TrebuchetMS-103"/>
       <use x="366.259766" xlink:href="#TrebuchetMS-105"/>
       <use x="394.775391" xlink:href="#TrebuchetMS-108"/>
       <use x="424.267578" xlink:href="#TrebuchetMS-105"/>
       <use x="452.783203" xlink:href="#TrebuchetMS-116"/>
       <use x="492.431641" xlink:href="#TrebuchetMS-121"/>
      </g>
     </g>
    </g>
    <g id="ytick_2">
     <g id="line2d_4">
      <g>
       <use style="stroke:#000000;stroke-width:0.8;" x="19.855" xlink:href="#m859d6d4e88" y="28.8"/>
      </g>
     </g>
     <g id="text_4">
      <!-- high fragility -->
      <g transform="translate(11.624063 45.966563)rotate(-90)scale(0.06 -0.06)">
       <use xlink:href="#TrebuchetMS-104"/>
       <use x="54.638672" xlink:href="#TrebuchetMS-105"/>
       <use x="83.154297" xlink:href="#TrebuchetMS-103"/>
       <use x="133.349609" xlink:href="#TrebuchetMS-104"/>
       <use x="187.988281" xlink:href="#TrebuchetMS-32"/>
       <use x="218.115234" xlink:href="#TrebuchetMS-102"/>
       <use x="255.078125" xlink:href="#TrebuchetMS-114"/>
       <use x="293.945312" xlink:href="#TrebuchetMS-97"/>
       <use x="346.484375" xlink:href="#TrebuchetMS-103"/>
       <use x="396.679688" xlink:href="#TrebuchetMS-105"/>
       <use x="425.195312" xlink:href="#TrebuchetMS-108"/>
       <use x="454.6875" xlink:href="#TrebuchetMS-105"/>
       <use x="483.203125" xlink:href="#TrebuchetMS-116"/>
       <use x="522.851562" xlink:href="#TrebuchetMS-121"/>
      </g>
     </g>
    </g>
   </g>
   <g id="patch_3">
    <path d="M 19.855 93.6 
L 19.855 7.2 
" style="fill:none;stroke:#000000;stroke-linecap:square;stroke-linejoin:miter;stroke-width:0.8;"/>
   </g>
   <g id="patch_4">
    <path d="M 106.255 93.6 
L 106.255 7.2 
" style="fill:none;stroke:#000000;stroke-linecap:square;stroke-linejoin:miter;stroke-width:0.8;"/>
   </g>
   <g id="patch_5">
    <path d="M 19.855 93.6 
L 106.255 93.6 
" style="fill:none;stroke:#000000;stroke-linecap:square;stroke-linejoin:miter;stroke-width:0.8;"/>
   </g>
   <g id="patch_6">
    <path d="M 19.855 7.2 
L 106.255 7.2 
" style="fill:none;stroke:#000000;stroke-linecap:square;stroke-linejoin:miter;stroke-width:0.8;"/>
   </g>
  </g>
 </g>
 <defs>
  <clipPath id="p1972bd2438">
   <rect height="86.4" width="86.4" x="19.855" y="7.2"/>
  </clipPath>
 </defs>
</svg>
