<?xml version="1.0" encoding="utf-8" standalone="no"?>
<!DOCTYPE svg PUBLIC "-//W3C//DTD SVG 1.1//EN"
  "http://www.w3.org/Graphics/SVG/1.1/DTD/svg11.dtd">
<!-- Created with matplotlib (https://matplotlib.org/) -->
<svg height="122.944187pt" version="1.1" viewBox="0 0 124.955 122.944187" width="124.955pt" xmlns="http://www.w3.org/2000/svg" xmlns:xlink="http://www.w3.org/1999/xlink">
 <metadata>
  <rdf:RDF xmlns:cc="http://creativecommons.org/ns#" xmlns:dc="http://purl.org/dc/elements/1.1/" xmlns:rdf="http://www.w3.org/1999/02/22-rdf-syntax-ns#">
   <cc:Work>
    <dc:type rdf:resource="http://purl.org/dc/dcmitype/StillImage"/>
    <dc:date>2022-02-09T11:07:36.655950</dc:date>
    <dc:format>image/svg+xml</dc:format>
    <dc:creator>
     <cc:Agent>
      <dc:title>Matplotlib v3.3.2, https://matplotlib.org/</dc:title>
     </cc:Agent>
    </dc:creator>
   </cc:Work>
  </rdf:RDF>
 </metadata>
 <defs>
  <style type="text/css">*{stroke-linecap:butt;stroke-linejoin:round;}</style>
 </defs>
 <g id="figure_1">
  <g id="patch_1">
   <path d="M 0 122.944187 
L 124.955 122.944187 
L 124.955 0 
L 0 0 
z
" style="fill:none;"/>
  </g>
  <g id="axes_1">
   <g id="patch_2">
    <path d="M 31.355 96.549375 
L 117.755 96.549375 
L 117.755 10.149375 
L 31.355 10.149375 
z
" style="fill:#ffffff;"/>
   </g>
   <g id="matplotlib.axis_1">
    <g id="xtick_1">
     <g id="line2d_1">
      <defs>
       <path d="M 0 0 
L 0 3.5 
" id="m703db9b9a1" style="stroke:#000000;stroke-width:0.8;"/>
      </defs>
      <g>
       <use style="stroke:#000000;stroke-width:0.8;" x="42.155" xlink:href="#m703db9b9a1" y="96.549375"/>
      </g>
     </g>
     <g id="text_1">
      <!-- no -->
      <g transform="translate(38.906094 107.973438)scale(0.06 -0.06)">
       <defs>
        <path d="M 38.765625 0 
L 38.765625 30.421875 
Q 38.765625 38.765625 36.25 42.109375 
Q 33.734375 45.453125 27.828125 45.453125 
Q 24.65625 45.453125 21.1875 43.546875 
Q 17.71875 41.65625 15.875 38.875 
L 15.875 0 
L 6.59375 0 
L 6.59375 52.296875 
L 12.9375 52.296875 
L 15.875 45.5625 
Q 20.453125 53.265625 30.859375 53.265625 
Q 48.046875 53.265625 48.046875 32.375 
L 48.046875 0 
z
" id="TrebuchetMS-110"/>
        <path d="M 3.171875 26.265625 
Q 3.171875 38.375 9.6875 45.8125 
Q 16.21875 53.265625 26.859375 53.265625 
Q 38.09375 53.265625 44.28125 46.109375 
Q 50.484375 38.96875 50.484375 26.265625 
Q 50.484375 13.625 44.140625 6.3125 
Q 37.796875 -0.984375 26.859375 -0.984375 
Q 15.671875 -0.984375 9.421875 6.390625 
Q 3.171875 13.765625 3.171875 26.265625 
z
M 12.9375 26.265625 
Q 12.9375 6.59375 26.859375 6.59375 
Q 33.34375 6.59375 37.03125 11.859375 
Q 40.71875 17.140625 40.71875 26.265625 
Q 40.71875 45.703125 26.859375 45.703125 
Q 20.515625 45.703125 16.71875 40.53125 
Q 12.9375 35.359375 12.9375 26.265625 
z
" id="TrebuchetMS-111"/>
       </defs>
       <use xlink:href="#TrebuchetMS-110"/>
       <use x="54.638672" xlink:href="#TrebuchetMS-111"/>
      </g>
      <!-- crack -->
      <g transform="translate(34.928281 114.51325)scale(0.06 -0.06)">
       <defs>
        <path d="M 46.046875 48.046875 
L 41.453125 41.5 
Q 40.046875 42.921875 36.453125 44.1875 
Q 32.859375 45.453125 29.390625 45.453125 
Q 21.828125 45.453125 17.375 40.15625 
Q 12.9375 34.859375 12.9375 25.640625 
Q 12.9375 16.453125 17.46875 11.640625 
Q 22.015625 6.84375 30.078125 6.84375 
Q 36.328125 6.84375 42.671875 11.671875 
L 46.34375 3.859375 
Q 38.875 -0.984375 27.828125 -0.984375 
Q 17.140625 -0.984375 10.15625 6.1875 
Q 3.171875 13.375 3.171875 25.640625 
Q 3.171875 38.140625 10.421875 45.703125 
Q 17.671875 53.265625 30.28125 53.265625 
Q 34.328125 53.265625 39.0625 51.5625 
Q 43.796875 49.859375 46.046875 48.046875 
z
" id="TrebuchetMS-99"/>
        <path d="M 35.015625 43.359375 
Q 31.984375 45.453125 28.90625 45.453125 
Q 23.96875 45.453125 20.28125 40.90625 
Q 16.609375 36.375 16.609375 29.984375 
L 16.609375 0 
L 7.328125 0 
L 7.328125 52.296875 
L 16.609375 52.296875 
L 16.609375 43.953125 
Q 21.6875 53.265625 31.6875 53.265625 
Q 34.1875 53.265625 38.875 52.390625 
z
" id="TrebuchetMS-114"/>
        <path d="M 36.140625 6 
Q 30.5625 -0.984375 19.09375 -0.984375 
Q 12.9375 -0.984375 8.421875 3.484375 
Q 3.90625 7.953125 3.90625 14.59375 
Q 3.90625 22.5625 10.859375 28.046875 
Q 17.828125 33.546875 28.609375 33.546875 
Q 31.546875 33.546875 35.25 32.28125 
Q 35.25 44.96875 23.921875 44.96875 
Q 15.234375 44.96875 10.546875 40.28125 
L 6.640625 48.046875 
Q 9.28125 50.203125 13.9375 51.734375 
Q 18.609375 53.265625 22.859375 53.265625 
Q 34.234375 53.265625 39.375 48.09375 
Q 44.53125 42.921875 44.53125 31.640625 
L 44.53125 12.890625 
Q 44.53125 6 48.640625 3.71875 
L 48.640625 -0.921875 
Q 42.96875 -0.921875 40.15625 0.6875 
Q 37.359375 2.296875 36.140625 6 
z
M 35.25 25.6875 
Q 30.859375 26.65625 29.109375 26.65625 
Q 22.078125 26.65625 17.625 23.046875 
Q 13.1875 19.4375 13.1875 14.5 
Q 13.1875 6.34375 22.796875 6.34375 
Q 29.828125 6.34375 35.25 13.03125 
z
" id="TrebuchetMS-97"/>
        <path d="M 40.375 0 
L 23.96875 26.171875 
L 15.875 17.828125 
L 15.875 0 
L 6.59375 0 
L 6.59375 73.734375 
L 15.875 73.734375 
L 15.875 27.984375 
L 35.890625 52.296875 
L 46.734375 52.296875 
L 29.984375 32.421875 
L 50.4375 0 
z
" id="TrebuchetMS-107"/>
       </defs>
       <use xlink:href="#TrebuchetMS-99"/>
       <use x="49.511719" xlink:href="#TrebuchetMS-114"/>
       <use x="88.378906" xlink:href="#TrebuchetMS-97"/>
       <use x="140.917969" xlink:href="#TrebuchetMS-99"/>
       <use x="190.429688" xlink:href="#TrebuchetMS-107"/>
      </g>
     </g>
    </g>
    <g id="xtick_2">
     <g id="line2d_2">
      <g>
       <use style="stroke:#000000;stroke-width:0.8;" x="63.755" xlink:href="#m703db9b9a1" y="96.549375"/>
      </g>
     </g>
     <g id="text_2">
      <!-- crack -->
      <g transform="translate(56.528281 107.973438)scale(0.06 -0.06)">
       <use xlink:href="#TrebuchetMS-99"/>
       <use x="49.511719" xlink:href="#TrebuchetMS-114"/>
       <use x="88.378906" xlink:href="#TrebuchetMS-97"/>
       <use x="140.917969" xlink:href="#TrebuchetMS-99"/>
       <use x="190.429688" xlink:href="#TrebuchetMS-107"/>
      </g>
      <!-- I only -->
      <g transform="translate(56.403125 114.51325)scale(0.06 -0.06)">
       <defs>
        <path d="M 9.03125 0 
L 9.03125 71.53125 
L 18.796875 71.53125 
L 18.796875 0 
z
" id="TrebuchetMS-73"/>
        <path id="TrebuchetMS-32"/>
        <path d="M 7.328125 14.796875 
L 7.328125 73.734375 
L 16.609375 73.734375 
L 16.609375 16.359375 
Q 16.609375 12.15625 19.015625 9.734375 
Q 21.4375 7.328125 25.34375 7.328125 
L 25.34375 -0.984375 
Q 7.328125 -0.984375 7.328125 14.796875 
z
" id="TrebuchetMS-108"/>
        <path d="M 26.5625 -8.890625 
Q 24.75 -13.875 18.96875 -17.1875 
Q 13.1875 -20.515625 6.0625 -20.515625 
L 6.0625 -12.203125 
Q 11.859375 -12.203125 16.015625 -9.484375 
Q 20.171875 -6.78125 20.171875 -2.875 
Q 20.171875 1.421875 18.65625 5.59375 
Q 17.140625 9.765625 14.75 15.921875 
L 0.59375 52.296875 
L 10.0625 52.296875 
L 25.4375 11.859375 
L 39.265625 52.296875 
L 48.734375 52.296875 
z
" id="TrebuchetMS-121"/>
       </defs>
       <use xlink:href="#TrebuchetMS-73"/>
       <use x="27.832031" xlink:href="#TrebuchetMS-32"/>
       <use x="57.958984" xlink:href="#TrebuchetMS-111"/>
       <use x="111.621094" xlink:href="#TrebuchetMS-110"/>
       <use x="166.259766" xlink:href="#TrebuchetMS-108"/>
       <use x="195.751953" xlink:href="#TrebuchetMS-121"/>
      </g>
     </g>
    </g>
    <g id="xtick_3">
     <g id="line2d_3">
      <g>
       <use style="stroke:#000000;stroke-width:0.8;" x="85.355" xlink:href="#m703db9b9a1" y="96.549375"/>
      </g>
     </g>
     <g id="text_3">
      <!-- crack -->
      <g transform="translate(78.128281 107.973438)scale(0.06 -0.06)">
       <use xlink:href="#TrebuchetMS-99"/>
       <use x="49.511719" xlink:href="#TrebuchetMS-114"/>
       <use x="88.378906" xlink:href="#TrebuchetMS-97"/>
       <use x="140.917969" xlink:href="#TrebuchetMS-99"/>
       <use x="190.429688" xlink:href="#TrebuchetMS-107"/>
      </g>
      <!-- II only -->
      <g transform="translate(77.168281 114.51325)scale(0.06 -0.06)">
       <use xlink:href="#TrebuchetMS-73"/>
       <use x="27.832031" xlink:href="#TrebuchetMS-73"/>
       <use x="55.664062" xlink:href="#TrebuchetMS-32"/>
       <use x="85.791016" xlink:href="#TrebuchetMS-111"/>
       <use x="139.453125" xlink:href="#TrebuchetMS-110"/>
       <use x="194.091797" xlink:href="#TrebuchetMS-108"/>
       <use x="223.583984" xlink:href="#TrebuchetMS-121"/>
      </g>
     </g>
    </g>
    <g id="xtick_4">
     <g id="line2d_4">
      <g>
       <use style="stroke:#000000;stroke-width:0.8;" x="106.955" xlink:href="#m703db9b9a1" y="96.549375"/>
      </g>
     </g>
     <g id="text_4">
      <!-- both -->
      <g transform="translate(100.844844 107.973438)scale(0.06 -0.06)">
       <defs>
        <path d="M 14.5 3.765625 
L 11.234375 -0.984375 
L 6.59375 -0.984375 
L 6.59375 73.734375 
L 15.875 73.734375 
L 15.875 48.4375 
Q 17.1875 50.25 20.828125 51.75 
Q 24.46875 53.265625 27.984375 53.265625 
Q 38.71875 53.265625 45.375 45.84375 
Q 52.046875 38.421875 52.046875 27.09375 
Q 52.046875 14.015625 45.359375 6.515625 
Q 38.671875 -0.984375 27.25 -0.984375 
Q 23.53125 -0.984375 19.9375 0.40625 
Q 16.359375 1.8125 14.5 3.765625 
z
M 15.875 41.359375 
L 15.875 11.1875 
Q 15.875 10.40625 19.328125 8.625 
Q 22.796875 6.84375 24.609375 6.84375 
Q 34.078125 6.84375 38.171875 11.375 
Q 42.28125 15.921875 42.28125 26.609375 
Q 42.28125 35.5 37.5 40.46875 
Q 32.71875 45.453125 24.609375 45.453125 
Q 22.90625 45.453125 19.84375 43.984375 
Q 16.796875 42.53125 15.875 41.359375 
z
" id="TrebuchetMS-98"/>
        <path d="M 9.90625 44.96875 
L 3.859375 44.96875 
L 3.859375 52.296875 
L 9.90625 52.296875 
L 9.90625 63.234375 
L 19.1875 66.796875 
L 19.1875 52.296875 
L 33.546875 52.296875 
L 33.546875 44.96875 
L 19.1875 44.96875 
L 19.1875 19 
Q 19.1875 12.40625 21.40625 9.625 
Q 23.640625 6.84375 28.5625 6.84375 
Q 32.125 6.84375 35.9375 8.640625 
L 37.3125 0.484375 
Q 31.546875 -0.984375 24.65625 -0.984375 
Q 18.453125 -0.984375 14.171875 3.625 
Q 9.90625 8.25 9.90625 15.28125 
z
" id="TrebuchetMS-116"/>
        <path d="M 38.8125 0 
L 38.8125 32.859375 
Q 38.8125 38.71875 35.9375 42.078125 
Q 33.0625 45.453125 27.828125 45.453125 
Q 24.46875 45.453125 21.0625 43.46875 
Q 17.671875 41.5 15.875 38.875 
L 15.875 0 
L 6.59375 0 
L 6.59375 73.734375 
L 15.875 73.734375 
L 15.875 46.53125 
Q 17.71875 49.421875 21.84375 51.34375 
Q 25.984375 53.265625 30.375 53.265625 
Q 38.671875 53.265625 43.375 47.796875 
Q 48.09375 42.328125 48.09375 32.859375 
L 48.09375 0 
z
" id="TrebuchetMS-104"/>
       </defs>
       <use xlink:href="#TrebuchetMS-98"/>
       <use x="55.712891" xlink:href="#TrebuchetMS-111"/>
       <use x="109.375" xlink:href="#TrebuchetMS-116"/>
       <use x="149.023438" xlink:href="#TrebuchetMS-104"/>
      </g>
     </g>
    </g>
   </g>
   <g id="matplotlib.axis_2">
    <g id="ytick_1">
     <g id="line2d_5">
      <defs>
       <path d="M 0 0 
L -3.5 0 
" id="md42279b4bd" style="stroke:#000000;stroke-width:0.8;"/>
      </defs>
      <g>
       <use style="stroke:#000000;stroke-width:0.8;" x="31.355" xlink:href="#md42279b4bd" y="96.549375"/>
      </g>
     </g>
     <g id="text_5">
      <!-- 0 -->
      <g transform="translate(20.16 99.49875)scale(0.08 -0.08)">
       <defs>
        <path d="M 3.125 37.9375 
Q 3.125 53.375 9.375 63.078125 
Q 15.625 72.796875 26.953125 72.796875 
Q 38.1875 72.796875 43.828125 64.6875 
Q 49.46875 56.59375 49.46875 36.375 
Q 49.46875 19 43.546875 9 
Q 37.640625 -0.984375 26.265625 -0.984375 
Q 14.890625 -0.984375 9 7.078125 
Q 3.125 15.140625 3.125 37.9375 
z
M 12.890625 37.0625 
Q 12.890625 7.328125 25.59375 7.328125 
Q 32.859375 7.328125 36.28125 13.921875 
Q 39.703125 20.515625 39.703125 37.015625 
Q 39.703125 48.390625 38.375 53.703125 
Q 37.0625 59.03125 34.125 61.765625 
Q 31.203125 64.5 26.703125 64.5 
Q 12.890625 64.5 12.890625 37.0625 
z
" id="TrebuchetMS-48"/>
       </defs>
       <use xlink:href="#TrebuchetMS-48"/>
      </g>
     </g>
    </g>
    <g id="ytick_2">
     <g id="line2d_6">
      <g>
       <use style="stroke:#000000;stroke-width:0.8;" x="31.355" xlink:href="#md42279b4bd" y="74.949375"/>
      </g>
     </g>
     <g id="text_6">
      <!-- 2 -->
      <g transform="translate(20.16 77.89875)scale(0.08 -0.08)">
       <defs>
        <path d="M 3.375 0 
L 3.375 1.953125 
L 25.78125 36.28125 
Q 32.8125 47.078125 32.8125 54.59375 
Q 32.8125 64.5 21.625 64.5 
Q 17.671875 64.5 14.203125 62.421875 
Q 10.75 60.359375 9.1875 57.171875 
L 2.875 62.359375 
Q 4.546875 67.140625 9.40625 69.96875 
Q 14.265625 72.796875 21.140625 72.796875 
Q 31.453125 72.796875 37.25 68.03125 
Q 43.0625 63.28125 43.0625 54.59375 
Q 43.0625 46.53125 35.359375 34.28125 
L 19.28125 8.796875 
L 47.3125 8.796875 
L 47.3125 0 
z
" id="TrebuchetMS-50"/>
       </defs>
       <use xlink:href="#TrebuchetMS-50"/>
      </g>
     </g>
    </g>
    <g id="ytick_3">
     <g id="line2d_7">
      <g>
       <use style="stroke:#000000;stroke-width:0.8;" x="31.355" xlink:href="#md42279b4bd" y="53.349375"/>
      </g>
     </g>
     <g id="text_7">
      <!-- 4 -->
      <g transform="translate(20.16 56.29875)scale(0.08 -0.08)">
       <defs>
        <path d="M 43.0625 19.484375 
L 43.0625 0 
L 33.796875 0 
L 33.796875 19.484375 
L 1.21875 19.484375 
L 1.21875 25.046875 
L 39.65625 71.828125 
L 43.0625 71.828125 
L 43.0625 27 
L 50.296875 27 
L 50.296875 19.484375 
z
M 33.796875 52.34375 
L 12.796875 27 
L 33.796875 27 
z
" id="TrebuchetMS-52"/>
       </defs>
       <use xlink:href="#TrebuchetMS-52"/>
      </g>
     </g>
    </g>
    <g id="ytick_4">
     <g id="line2d_8">
      <g>
       <use style="stroke:#000000;stroke-width:0.8;" x="31.355" xlink:href="#md42279b4bd" y="31.749375"/>
      </g>
     </g>
     <g id="text_8">
      <!-- 6 -->
      <g transform="translate(20.16 34.69875)scale(0.08 -0.08)">
       <defs>
        <path d="M 32.8125 72.796875 
L 37.546875 67.578125 
Q 33.25 65.875 25.125 56.03125 
Q 17 46.1875 16.109375 40.875 
Q 20.171875 44.78125 27.390625 44.78125 
Q 36.859375 44.78125 42.578125 38.71875 
Q 48.296875 32.671875 48.296875 22.078125 
Q 48.296875 11.578125 42.40625 5.171875 
Q 36.53125 -1.21875 27.640625 -1.21875 
Q 4.109375 -1.21875 4.109375 29.984375 
Q 4.109375 42.96875 13.3125 56.5625 
Q 22.515625 70.171875 32.8125 72.796875 
z
M 14.359375 22.359375 
Q 14.359375 7.078125 26.90625 7.078125 
Q 32.171875 7.078125 35.21875 11.0625 
Q 38.28125 15.046875 38.28125 21.578125 
Q 38.28125 28.375 35.0625 32.421875 
Q 31.84375 36.46875 26.765625 36.46875 
Q 14.359375 36.46875 14.359375 22.359375 
z
" id="TrebuchetMS-54"/>
       </defs>
       <use xlink:href="#TrebuchetMS-54"/>
      </g>
     </g>
    </g>
    <g id="ytick_5">
     <g id="line2d_9">
      <g>
       <use style="stroke:#000000;stroke-width:0.8;" x="31.355" xlink:href="#md42279b4bd" y="10.149375"/>
      </g>
     </g>
     <g id="text_9">
      <!-- 8 -->
      <g transform="translate(20.16 13.09875)scale(0.08 -0.08)">
       <defs>
        <path d="M 17.234375 39.796875 
Q 12.703125 42.234375 9.8125 46.578125 
Q 6.9375 50.921875 6.9375 55.5625 
Q 6.9375 63.53125 12.328125 68.15625 
Q 17.71875 72.796875 26.265625 72.796875 
Q 35.5 72.796875 40.578125 68.15625 
Q 45.65625 63.53125 45.65625 55.515625 
Q 45.65625 50.828125 42.578125 45.96875 
Q 39.5 41.109375 35.453125 38.8125 
Q 48.34375 31.59375 48.34375 19.828125 
Q 48.34375 9.90625 42.375 4.453125 
Q 36.421875 -0.984375 26.03125 -0.984375 
Q 4.34375 -0.984375 4.34375 19.828125 
Q 4.34375 25.828125 8.046875 31.640625 
Q 11.765625 37.453125 17.234375 39.796875 
z
M 29.203125 42.828125 
Q 35.84375 49.078125 35.84375 55.765625 
Q 35.84375 59.765625 33.171875 62.125 
Q 30.515625 64.5 26.265625 64.5 
Q 16.703125 64.5 16.703125 55.671875 
Q 16.703125 49.125 29.203125 42.828125 
z
M 24.859375 35.546875 
Q 14.109375 29.734375 14.109375 19.828125 
Q 14.109375 14.5 17.421875 10.90625 
Q 20.75 7.328125 26.03125 7.328125 
Q 31.5 7.328125 35.03125 10.84375 
Q 38.578125 14.359375 38.578125 19.828125 
Q 38.578125 23.78125 36.125 27.265625 
Q 33.6875 30.765625 24.859375 35.546875 
z
" id="TrebuchetMS-56"/>
       </defs>
       <use xlink:href="#TrebuchetMS-56"/>
      </g>
     </g>
    </g>
    <g id="text_10">
     <!-- sample volume ($mm^3$) -->
     <g transform="translate(14.48 94.189375)rotate(-90)scale(0.08 -0.08)">
      <defs>
       <path d="M 3.171875 3.125 
L 6.453125 11.921875 
Q 14.203125 6.84375 18.953125 6.84375 
Q 27.546875 6.84375 27.546875 14.0625 
Q 27.546875 19.234375 19.234375 22.953125 
Q 12.84375 25.875 10.625 27.390625 
Q 8.40625 28.90625 6.765625 30.828125 
Q 5.125 32.765625 4.3125 34.9375 
Q 3.515625 37.109375 3.515625 39.59375 
Q 3.515625 46.046875 8.203125 49.65625 
Q 12.890625 53.265625 20.453125 53.265625 
Q 26.171875 53.265625 34.859375 49.65625 
L 32.234375 41.0625 
Q 26.703125 45.453125 21.140625 45.453125 
Q 17.828125 45.453125 15.546875 43.890625 
Q 13.28125 42.328125 13.28125 39.9375 
Q 13.28125 34.90625 19 32.328125 
L 25.640625 29.296875 
Q 31.734375 26.515625 34.515625 22.953125 
Q 37.3125 19.390625 37.3125 14.015625 
Q 37.3125 6.984375 32.375 3 
Q 27.4375 -0.984375 18.703125 -0.984375 
Q 10.453125 -0.984375 3.171875 3.125 
z
" id="TrebuchetMS-115"/>
       <path d="M 67.140625 0 
L 67.140625 33.109375 
Q 67.140625 45.453125 56.453125 45.453125 
Q 53.078125 45.453125 50.140625 43.375 
Q 47.21875 41.3125 46.140625 38.671875 
L 46.140625 0 
L 36.859375 0 
L 36.859375 37.15625 
Q 36.859375 41.015625 33.953125 43.234375 
Q 31.0625 45.453125 26.265625 45.453125 
Q 23.484375 45.453125 20.328125 43.296875 
Q 17.1875 41.15625 15.875 38.578125 
L 15.875 0 
L 6.59375 0 
L 6.59375 52.296875 
L 12.640625 52.296875 
L 15.71875 46.234375 
Q 21.09375 53.265625 29.15625 53.265625 
Q 40.375 53.265625 44.875 46.296875 
Q 46.4375 49.265625 50.6875 51.265625 
Q 54.9375 53.265625 59.421875 53.265625 
Q 67.53125 53.265625 71.96875 48.453125 
Q 76.421875 43.65625 76.421875 34.96875 
L 76.421875 0 
z
" id="TrebuchetMS-109"/>
       <path d="M 15.875 2.875 
L 15.875 -20.515625 
L 6.59375 -20.515625 
L 6.59375 52.296875 
L 15.875 52.296875 
L 15.875 48 
Q 21.140625 53.265625 28.609375 53.265625 
Q 39.75 53.265625 45.953125 46.328125 
Q 52.15625 39.40625 52.15625 26.03125 
Q 52.15625 14.109375 45.90625 6.5625 
Q 39.65625 -0.984375 27.828125 -0.984375 
Q 24.515625 -0.984375 20.71875 0.1875 
Q 16.9375 1.375 15.875 2.875 
z
M 15.875 41.015625 
L 15.875 10.546875 
Q 16.75 9.234375 19.578125 8.03125 
Q 22.40625 6.84375 25.09375 6.84375 
Q 42.390625 6.84375 42.390625 26.375 
Q 42.390625 36.28125 38.28125 40.859375 
Q 34.1875 45.453125 25.140625 45.453125 
Q 23.1875 45.453125 20.359375 44.078125 
Q 17.53125 42.71875 15.875 41.015625 
z
" id="TrebuchetMS-112"/>
       <path d="M 50.640625 25.25 
L 12.9375 25.25 
Q 12.9375 16.0625 17.96875 11.140625 
Q 22.40625 6.84375 29.390625 6.84375 
Q 37.359375 6.84375 42.671875 11.46875 
L 46.578125 4.78125 
Q 44.4375 2.640625 39.984375 1.078125 
Q 34.421875 -0.984375 27.59375 -0.984375 
Q 17.71875 -0.984375 10.84375 5.71875 
Q 3.171875 13.09375 3.171875 25.53125 
Q 3.171875 38.484375 11.03125 46.296875 
Q 18.0625 53.265625 27.6875 53.265625 
Q 38.875 53.265625 45.21875 46.96875 
Q 51.375 40.921875 51.375 30.90625 
Q 51.375 27.828125 50.640625 25.25 
z
M 28.125 45.453125 
Q 21.921875 45.453125 17.71875 41.453125 
Q 13.71875 37.640625 13.1875 31.984375 
L 42.140625 31.984375 
Q 42.140625 37.59375 38.625 41.359375 
Q 34.765625 45.453125 28.125 45.453125 
z
" id="TrebuchetMS-101"/>
       <path d="M 25.4375 -0.984375 
L 23 -0.984375 
L 0.59375 52.4375 
L 10.75 52.4375 
L 24.5625 15.828125 
L 38.671875 52.4375 
L 48.390625 52.4375 
z
" id="TrebuchetMS-118"/>
       <path d="M 15.375 52.296875 
L 15.375 18.953125 
Q 15.375 6.84375 25.875 6.84375 
Q 30.46875 6.84375 34.28125 9.46875 
Q 38.09375 12.109375 39.3125 15.578125 
L 39.3125 52.296875 
L 48.578125 52.296875 
L 48.578125 0 
L 39.3125 0 
L 39.3125 7.234375 
Q 37.75 4.15625 33.03125 1.578125 
Q 28.328125 -0.984375 23.828125 -0.984375 
Q 15.234375 -0.984375 10.671875 3.953125 
Q 6.109375 8.890625 6.109375 17.96875 
L 6.109375 52.296875 
z
" id="TrebuchetMS-117"/>
       <path d="M 30.171875 72.015625 
L 30.171875 67.96875 
Q 20.515625 54 20.515625 27.203125 
Q 20.515625 -4.640625 30.171875 -15.765625 
L 30.171875 -20.90625 
Q 20.3125 -14.015625 14.859375 -1.140625 
Q 9.421875 11.71875 9.421875 27.296875 
Q 9.421875 40.578125 15.625 54.125 
Q 21.828125 67.671875 30.171875 72.015625 
z
" id="TrebuchetMS-40"/>
       <path d="M 89.796875 33.015625 
L 83.40625 0 
L 74.421875 0 
L 80.71875 32.71875 
Q 81.109375 34.8125 81.296875 36.328125 
Q 81.5 37.84375 81.5 38.921875 
Q 81.5 43.3125 79.046875 45.75 
Q 76.609375 48.1875 72.21875 48.1875 
Q 65.671875 48.1875 60.546875 43.28125 
Q 55.421875 38.375 53.90625 30.515625 
L 47.90625 0 
L 38.921875 0 
L 45.3125 32.71875 
Q 45.703125 34.515625 45.890625 36.046875 
Q 46.09375 37.59375 46.09375 38.8125 
Q 46.09375 43.265625 43.65625 45.71875 
Q 41.21875 48.1875 36.921875 48.1875 
Q 30.28125 48.1875 25.140625 43.28125 
Q 20.015625 38.375 18.5 30.515625 
L 12.5 0 
L 3.515625 0 
L 14.203125 54.6875 
L 23.1875 54.6875 
L 21.484375 46.1875 
Q 25.140625 50.984375 30.046875 53.484375 
Q 34.96875 56 40.578125 56 
Q 46.53125 56 50.359375 52.875 
Q 54.203125 49.75 54.984375 44.1875 
Q 59.078125 49.953125 64.46875 52.96875 
Q 69.875 56 75.875 56 
Q 82.90625 56 86.734375 51.953125 
Q 90.578125 47.90625 90.578125 40.484375 
Q 90.578125 38.875 90.375 36.9375 
Q 90.1875 35.015625 89.796875 33.015625 
z
" id="DejaVuSans-Oblique-109"/>
       <path d="M 40.578125 39.3125 
Q 47.65625 37.796875 51.625 33 
Q 55.609375 28.21875 55.609375 21.1875 
Q 55.609375 10.40625 48.1875 4.484375 
Q 40.765625 -1.421875 27.09375 -1.421875 
Q 22.515625 -1.421875 17.65625 -0.515625 
Q 12.796875 0.390625 7.625 2.203125 
L 7.625 11.71875 
Q 11.71875 9.328125 16.59375 8.109375 
Q 21.484375 6.890625 26.8125 6.890625 
Q 36.078125 6.890625 40.9375 10.546875 
Q 45.796875 14.203125 45.796875 21.1875 
Q 45.796875 27.640625 41.28125 31.265625 
Q 36.765625 34.90625 28.71875 34.90625 
L 20.21875 34.90625 
L 20.21875 43.015625 
L 29.109375 43.015625 
Q 36.375 43.015625 40.234375 45.921875 
Q 44.09375 48.828125 44.09375 54.296875 
Q 44.09375 59.90625 40.109375 62.90625 
Q 36.140625 65.921875 28.71875 65.921875 
Q 24.65625 65.921875 20.015625 65.03125 
Q 15.375 64.15625 9.8125 62.3125 
L 9.8125 71.09375 
Q 15.4375 72.65625 20.34375 73.4375 
Q 25.25 74.21875 29.59375 74.21875 
Q 40.828125 74.21875 47.359375 69.109375 
Q 53.90625 64.015625 53.90625 55.328125 
Q 53.90625 49.265625 50.4375 45.09375 
Q 46.96875 40.921875 40.578125 39.3125 
z
" id="DejaVuSans-51"/>
       <path d="M 9.421875 -20.90625 
L 9.421875 -15.765625 
Q 19.09375 -4.640625 19.09375 27.203125 
Q 19.09375 54 9.421875 67.96875 
L 9.421875 72.015625 
Q 17.78125 67.671875 23.96875 54.125 
Q 30.171875 40.578125 30.171875 27.296875 
Q 30.171875 11.71875 24.71875 -1.140625 
Q 19.28125 -14.015625 9.421875 -20.90625 
z
" id="TrebuchetMS-41"/>
      </defs>
      <use transform="translate(0 0.765625)" xlink:href="#TrebuchetMS-115"/>
      <use transform="translate(40.478516 0.765625)" xlink:href="#TrebuchetMS-97"/>
      <use transform="translate(93.017578 0.765625)" xlink:href="#TrebuchetMS-109"/>
      <use transform="translate(176.025391 0.765625)" xlink:href="#TrebuchetMS-112"/>
      <use transform="translate(231.738281 0.765625)" xlink:href="#TrebuchetMS-108"/>
      <use transform="translate(261.230469 0.765625)" xlink:href="#TrebuchetMS-101"/>
      <use transform="translate(315.771484 0.765625)" xlink:href="#TrebuchetMS-32"/>
      <use transform="translate(345.898438 0.765625)" xlink:href="#TrebuchetMS-118"/>
      <use transform="translate(394.873047 0.765625)" xlink:href="#TrebuchetMS-111"/>
      <use transform="translate(448.535156 0.765625)" xlink:href="#TrebuchetMS-108"/>
      <use transform="translate(478.027344 0.765625)" xlink:href="#TrebuchetMS-117"/>
      <use transform="translate(532.666016 0.765625)" xlink:href="#TrebuchetMS-109"/>
      <use transform="translate(615.673828 0.765625)" xlink:href="#TrebuchetMS-101"/>
      <use transform="translate(670.214844 0.765625)" xlink:href="#TrebuchetMS-32"/>
      <use transform="translate(700.341797 0.765625)" xlink:href="#TrebuchetMS-40"/>
      <use transform="translate(737.060547 0.765625)" xlink:href="#DejaVuSans-Oblique-109"/>
      <use transform="translate(834.472656 0.765625)" xlink:href="#DejaVuSans-Oblique-109"/>
      <use transform="translate(936.534661 39.046875)scale(0.7)" xlink:href="#DejaVuSans-51"/>
      <use transform="translate(983.805169 0.765625)" xlink:href="#TrebuchetMS-41"/>
     </g>
    </g>
   </g>
   <g id="line2d_10">
    <path clip-path="url(#p680f3bcb65)" d="M 36.755 75.448211 
L 47.555 75.448211 
L 47.555 65.007457 
L 36.755 65.007457 
L 36.755 75.448211 
" style="fill:none;stroke:#666666;stroke-linecap:square;"/>
   </g>
   <g id="line2d_11">
    <path clip-path="url(#p680f3bcb65)" d="M 42.155 75.448211 
L 42.155 83.054637 
" style="fill:none;stroke:#666666;stroke-linecap:square;"/>
   </g>
   <g id="line2d_12">
    <path clip-path="url(#p680f3bcb65)" d="M 42.155 65.007457 
L 42.155 50.208094 
" style="fill:none;stroke:#666666;stroke-linecap:square;"/>
   </g>
   <g id="line2d_13">
    <path clip-path="url(#p680f3bcb65)" d="M 39.455 83.054637 
L 44.855 83.054637 
" style="fill:none;stroke:#666666;stroke-linecap:square;"/>
   </g>
   <g id="line2d_14">
    <path clip-path="url(#p680f3bcb65)" d="M 39.455 50.208094 
L 44.855 50.208094 
" style="fill:none;stroke:#666666;stroke-linecap:square;"/>
   </g>
   <g id="line2d_15">
    <defs>
     <path d="M 0 0.25 
C 0.066301 0.25 0.129895 0.223658 0.176777 0.176777 
C 0.223658 0.129895 0.25 0.066301 0.25 0 
C 0.25 -0.066301 0.223658 -0.129895 0.176777 -0.176777 
C 0.129895 -0.223658 0.066301 -0.25 0 -0.25 
C -0.066301 -0.25 -0.129895 -0.223658 -0.176777 -0.176777 
C -0.223658 -0.129895 -0.25 -0.066301 -0.25 0 
C -0.25 0.066301 -0.223658 0.129895 -0.176777 0.176777 
C -0.129895 0.223658 -0.066301 0.25 0 0.25 
z
" id="m7c65b3ed54" style="stroke:#666666;"/>
    </defs>
    <g clip-path="url(#p680f3bcb65)">
     <use style="fill:#666666;stroke:#666666;" x="43.909293" xlink:href="#m7c65b3ed54" y="51.552909"/>
     <use style="fill:#666666;stroke:#666666;" x="41.494303" xlink:href="#m7c65b3ed54" y="68.705292"/>
     <use style="fill:#666666;stroke:#666666;" x="41.584575" xlink:href="#m7c65b3ed54" y="66.336421"/>
     <use style="fill:#666666;stroke:#666666;" x="40.996194" xlink:href="#m7c65b3ed54" y="61.577554"/>
     <use style="fill:#666666;stroke:#666666;" x="43.08964" xlink:href="#m7c65b3ed54" y="71.340905"/>
     <use style="fill:#666666;stroke:#666666;" x="39.669338" xlink:href="#m7c65b3ed54" y="75.331457"/>
     <use style="fill:#666666;stroke:#666666;" x="44.039397" xlink:href="#m7c65b3ed54" y="72.872627"/>
     <use style="fill:#666666;stroke:#666666;" x="41.332897" xlink:href="#m7c65b3ed54" y="67.388039"/>
     <use style="fill:#666666;stroke:#666666;" x="42.499562" xlink:href="#m7c65b3ed54" y="77.468137"/>
     <use style="fill:#666666;stroke:#666666;" x="41.88568" xlink:href="#m7c65b3ed54" y="75.48713"/>
     <use style="fill:#666666;stroke:#666666;" x="43.734077" xlink:href="#m7c65b3ed54" y="74.424742"/>
     <use style="fill:#666666;stroke:#666666;" x="39.930048" xlink:href="#m7c65b3ed54" y="72.144909"/>
     <use style="fill:#666666;stroke:#666666;" x="41.806789" xlink:href="#m7c65b3ed54" y="64.470172"/>
     <use style="fill:#666666;stroke:#666666;" x="41.740221" xlink:href="#m7c65b3ed54" y="52.934502"/>
     <use style="fill:#666666;stroke:#666666;" x="43.379471" xlink:href="#m7c65b3ed54" y="43.023164"/>
     <use style="fill:#666666;stroke:#666666;" x="40.967117" xlink:href="#m7c65b3ed54" y="65.860739"/>
     <use style="fill:#666666;stroke:#666666;" x="41.968778" xlink:href="#m7c65b3ed54" y="75.329649"/>
     <use style="fill:#666666;stroke:#666666;" x="41.206913" xlink:href="#m7c65b3ed54" y="76.207751"/>
     <use style="fill:#666666;stroke:#666666;" x="42.200591" xlink:href="#m7c65b3ed54" y="69.994747"/>
     <use style="fill:#666666;stroke:#666666;" x="42.78444" xlink:href="#m7c65b3ed54" y="68.445651"/>
     <use style="fill:#666666;stroke:#666666;" x="40.966331" xlink:href="#m7c65b3ed54" y="78.593325"/>
     <use style="fill:#666666;stroke:#666666;" x="43.391302" xlink:href="#m7c65b3ed54" y="79.764288"/>
     <use style="fill:#666666;stroke:#666666;" x="43.128718" xlink:href="#m7c65b3ed54" y="83.054637"/>
     <use style="fill:#666666;stroke:#666666;" x="42.697694" xlink:href="#m7c65b3ed54" y="74.574995"/>
     <use style="fill:#666666;stroke:#666666;" x="43.127924" xlink:href="#m7c65b3ed54" y="67.740161"/>
     <use style="fill:#666666;stroke:#666666;" x="41.416574" xlink:href="#m7c65b3ed54" y="73.430622"/>
     <use style="fill:#666666;stroke:#666666;" x="42.022279" xlink:href="#m7c65b3ed54" y="72.56123"/>
     <use style="fill:#666666;stroke:#666666;" x="41.144369" xlink:href="#m7c65b3ed54" y="70.006315"/>
     <use style="fill:#666666;stroke:#666666;" x="41.865681" xlink:href="#m7c65b3ed54" y="51.943257"/>
     <use style="fill:#666666;stroke:#666666;" x="42.727784" xlink:href="#m7c65b3ed54" y="67.38817"/>
     <use style="fill:#666666;stroke:#666666;" x="41.408006" xlink:href="#m7c65b3ed54" y="74.861251"/>
     <use style="fill:#666666;stroke:#666666;" x="41.726506" xlink:href="#m7c65b3ed54" y="63.623167"/>
     <use style="fill:#666666;stroke:#666666;" x="41.412853" xlink:href="#m7c65b3ed54" y="64.861901"/>
     <use style="fill:#666666;stroke:#666666;" x="41.242178" xlink:href="#m7c65b3ed54" y="65.32969"/>
     <use style="fill:#666666;stroke:#666666;" x="41.430054" xlink:href="#m7c65b3ed54" y="67.059863"/>
     <use style="fill:#666666;stroke:#666666;" x="42.141322" xlink:href="#m7c65b3ed54" y="71.704285"/>
     <use style="fill:#666666;stroke:#666666;" x="40.948305" xlink:href="#m7c65b3ed54" y="50.208094"/>
     <use style="fill:#666666;stroke:#666666;" x="42.408169" xlink:href="#m7c65b3ed54" y="66.624071"/>
     <use style="fill:#666666;stroke:#666666;" x="43.947586" xlink:href="#m7c65b3ed54" y="53.303989"/>
     <use style="fill:#666666;stroke:#666666;" x="42.956408" xlink:href="#m7c65b3ed54" y="71.186527"/>
     <use style="fill:#666666;stroke:#666666;" x="41.947818" xlink:href="#m7c65b3ed54" y="57.631105"/>
     <use style="fill:#666666;stroke:#666666;" x="41.196361" xlink:href="#m7c65b3ed54" y="74.727466"/>
     <use style="fill:#666666;stroke:#666666;" x="41.348069" xlink:href="#m7c65b3ed54" y="82.774024"/>
     <use style="fill:#666666;stroke:#666666;" x="43.982851" xlink:href="#m7c65b3ed54" y="75.68139"/>
     <use style="fill:#666666;stroke:#666666;" x="42.209872" xlink:href="#m7c65b3ed54" y="79.800014"/>
     <use style="fill:#666666;stroke:#666666;" x="41.467045" xlink:href="#m7c65b3ed54" y="79.535052"/>
     <use style="fill:#666666;stroke:#666666;" x="42.361189" xlink:href="#m7c65b3ed54" y="76.493331"/>
     <use style="fill:#666666;stroke:#666666;" x="44.423276" xlink:href="#m7c65b3ed54" y="78.69565"/>
     <use style="fill:#666666;stroke:#666666;" x="42.284772" xlink:href="#m7c65b3ed54" y="78.310541"/>
     <use style="fill:#666666;stroke:#666666;" x="42.821579" xlink:href="#m7c65b3ed54" y="78.472599"/>
     <use style="fill:#666666;stroke:#666666;" x="42.479184" xlink:href="#m7c65b3ed54" y="64.342023"/>
     <use style="fill:#666666;stroke:#666666;" x="41.77457" xlink:href="#m7c65b3ed54" y="66.366099"/>
     <use style="fill:#666666;stroke:#666666;" x="40.92108" xlink:href="#m7c65b3ed54" y="64.900046"/>
     <use style="fill:#666666;stroke:#666666;" x="41.77771" xlink:href="#m7c65b3ed54" y="55.570261"/>
    </g>
   </g>
   <g id="line2d_16">
    <path clip-path="url(#p680f3bcb65)" d="M 58.355 61.942359 
L 69.155 61.942359 
L 69.155 44.759222 
L 58.355 44.759222 
L 58.355 61.942359 
" style="fill:none;stroke:#cccccc;stroke-linecap:square;"/>
   </g>
   <g id="line2d_17">
    <path clip-path="url(#p680f3bcb65)" d="M 63.755 61.942359 
L 63.755 62.959849 
" style="fill:none;stroke:#cccccc;stroke-linecap:square;"/>
   </g>
   <g id="line2d_18">
    <path clip-path="url(#p680f3bcb65)" d="M 63.755 44.759222 
L 63.755 43.992217 
" style="fill:none;stroke:#cccccc;stroke-linecap:square;"/>
   </g>
   <g id="line2d_19">
    <path clip-path="url(#p680f3bcb65)" d="M 61.055 62.959849 
L 66.455 62.959849 
" style="fill:none;stroke:#cccccc;stroke-linecap:square;"/>
   </g>
   <g id="line2d_20">
    <path clip-path="url(#p680f3bcb65)" d="M 61.055 43.992217 
L 66.455 43.992217 
" style="fill:none;stroke:#cccccc;stroke-linecap:square;"/>
   </g>
   <g id="line2d_21">
    <defs>
     <path d="M 0 0.25 
C 0.066301 0.25 0.129895 0.223658 0.176777 0.176777 
C 0.223658 0.129895 0.25 0.066301 0.25 0 
C 0.25 -0.066301 0.223658 -0.129895 0.176777 -0.176777 
C 0.129895 -0.223658 0.066301 -0.25 0 -0.25 
C -0.066301 -0.25 -0.129895 -0.223658 -0.176777 -0.176777 
C -0.223658 -0.129895 -0.25 -0.066301 -0.25 0 
C -0.25 0.066301 -0.223658 0.129895 -0.176777 0.176777 
C -0.129895 0.223658 -0.066301 0.25 0 0.25 
z
" id="m1fcc5568d6" style="stroke:#cccccc;"/>
    </defs>
    <g clip-path="url(#p680f3bcb65)">
     <use style="fill:#cccccc;stroke:#cccccc;" x="65.509293" xlink:href="#m1fcc5568d6" y="62.959849"/>
     <use style="fill:#cccccc;stroke:#cccccc;" x="63.094303" xlink:href="#m1fcc5568d6" y="61.603196"/>
     <use style="fill:#cccccc;stroke:#cccccc;" x="63.184575" xlink:href="#m1fcc5568d6" y="43.992217"/>
     <use style="fill:#cccccc;stroke:#cccccc;" x="62.596194" xlink:href="#m1fcc5568d6" y="45.01489"/>
    </g>
   </g>
   <g id="line2d_22">
    <path clip-path="url(#p680f3bcb65)" d="M 42.155 24.189375 
L 63.755 24.189375 
" style="fill:none;stroke:#000000;stroke-linecap:square;stroke-width:0.5;"/>
   </g>
   <g id="line2d_23">
    <path clip-path="url(#p680f3bcb65)" d="M 79.955 57.772307 
L 90.755 57.772307 
L 90.755 49.112958 
L 79.955 49.112958 
L 79.955 57.772307 
" style="fill:none;stroke:#b0c4de;stroke-linecap:square;"/>
   </g>
   <g id="line2d_24">
    <path clip-path="url(#p680f3bcb65)" d="M 85.355 57.772307 
L 85.355 66.121744 
" style="fill:none;stroke:#b0c4de;stroke-linecap:square;"/>
   </g>
   <g id="line2d_25">
    <path clip-path="url(#p680f3bcb65)" d="M 85.355 49.112958 
L 85.355 36.411214 
" style="fill:none;stroke:#b0c4de;stroke-linecap:square;"/>
   </g>
   <g id="line2d_26">
    <path clip-path="url(#p680f3bcb65)" d="M 82.655 66.121744 
L 88.055 66.121744 
" style="fill:none;stroke:#b0c4de;stroke-linecap:square;"/>
   </g>
   <g id="line2d_27">
    <path clip-path="url(#p680f3bcb65)" d="M 82.655 36.411214 
L 88.055 36.411214 
" style="fill:none;stroke:#b0c4de;stroke-linecap:square;"/>
   </g>
   <g id="line2d_28">
    <defs>
     <path d="M 0 0.25 
C 0.066301 0.25 0.129895 0.223658 0.176777 0.176777 
C 0.223658 0.129895 0.25 0.066301 0.25 0 
C 0.25 -0.066301 0.223658 -0.129895 0.176777 -0.176777 
C 0.129895 -0.223658 0.066301 -0.25 0 -0.25 
C -0.066301 -0.25 -0.129895 -0.223658 -0.176777 -0.176777 
C -0.223658 -0.129895 -0.25 -0.066301 -0.25 0 
C -0.25 0.066301 -0.223658 0.129895 -0.176777 0.176777 
C -0.129895 0.223658 -0.066301 0.25 0 0.25 
z
" id="m2000869129" style="stroke:#b0c4de;"/>
    </defs>
    <g clip-path="url(#p680f3bcb65)">
     <use style="fill:#b0c4de;stroke:#b0c4de;" x="87.109293" xlink:href="#m2000869129" y="55.028967"/>
     <use style="fill:#b0c4de;stroke:#b0c4de;" x="84.694303" xlink:href="#m2000869129" y="56.886278"/>
     <use style="fill:#b0c4de;stroke:#b0c4de;" x="84.784575" xlink:href="#m2000869129" y="56.747695"/>
     <use style="fill:#b0c4de;stroke:#b0c4de;" x="84.196194" xlink:href="#m2000869129" y="31.286395"/>
     <use style="fill:#b0c4de;stroke:#b0c4de;" x="86.28964" xlink:href="#m2000869129" y="66.121744"/>
     <use style="fill:#b0c4de;stroke:#b0c4de;" x="82.869338" xlink:href="#m2000869129" y="52.463402"/>
     <use style="fill:#b0c4de;stroke:#b0c4de;" x="87.239397" xlink:href="#m2000869129" y="71.023073"/>
     <use style="fill:#b0c4de;stroke:#b0c4de;" x="84.532897" xlink:href="#m2000869129" y="47.996143"/>
     <use style="fill:#b0c4de;stroke:#b0c4de;" x="85.699562" xlink:href="#m2000869129" y="64.871757"/>
     <use style="fill:#b0c4de;stroke:#b0c4de;" x="85.08568" xlink:href="#m2000869129" y="37.223343"/>
     <use style="fill:#b0c4de;stroke:#b0c4de;" x="86.934077" xlink:href="#m2000869129" y="56.205058"/>
     <use style="fill:#b0c4de;stroke:#b0c4de;" x="83.130048" xlink:href="#m2000869129" y="55.228301"/>
     <use style="fill:#b0c4de;stroke:#b0c4de;" x="85.006789" xlink:href="#m2000869129" y="58.06765"/>
     <use style="fill:#b0c4de;stroke:#b0c4de;" x="84.940221" xlink:href="#m2000869129" y="36.411214"/>
     <use style="fill:#b0c4de;stroke:#b0c4de;" x="86.579471" xlink:href="#m2000869129" y="58.690198"/>
     <use style="fill:#b0c4de;stroke:#b0c4de;" x="84.167117" xlink:href="#m2000869129" y="55.015138"/>
     <use style="fill:#b0c4de;stroke:#b0c4de;" x="85.168778" xlink:href="#m2000869129" y="40.154537"/>
     <use style="fill:#b0c4de;stroke:#b0c4de;" x="84.406913" xlink:href="#m2000869129" y="56.731749"/>
    </g>
   </g>
   <g id="line2d_29">
    <path clip-path="url(#p680f3bcb65)" d="M 42.155 18.789375 
L 85.355 18.789375 
" style="fill:none;stroke:#000000;stroke-linecap:square;stroke-width:0.5;"/>
   </g>
   <g id="line2d_30">
    <path clip-path="url(#p680f3bcb65)" d="M 101.555 67.66822 
L 112.355 67.66822 
L 112.355 44.610748 
L 101.555 44.610748 
L 101.555 67.66822 
" style="fill:none;stroke:#708090;stroke-linecap:square;"/>
   </g>
   <g id="line2d_31">
    <path clip-path="url(#p680f3bcb65)" d="M 106.955 67.66822 
L 106.955 71.914686 
" style="fill:none;stroke:#708090;stroke-linecap:square;"/>
   </g>
   <g id="line2d_32">
    <path clip-path="url(#p680f3bcb65)" d="M 106.955 44.610748 
L 106.955 36.487578 
" style="fill:none;stroke:#708090;stroke-linecap:square;"/>
   </g>
   <g id="line2d_33">
    <path clip-path="url(#p680f3bcb65)" d="M 104.255 71.914686 
L 109.655 71.914686 
" style="fill:none;stroke:#708090;stroke-linecap:square;"/>
   </g>
   <g id="line2d_34">
    <path clip-path="url(#p680f3bcb65)" d="M 104.255 36.487578 
L 109.655 36.487578 
" style="fill:none;stroke:#708090;stroke-linecap:square;"/>
   </g>
   <g id="line2d_35">
    <defs>
     <path d="M 0 0.25 
C 0.066301 0.25 0.129895 0.223658 0.176777 0.176777 
C 0.223658 0.129895 0.25 0.066301 0.25 0 
C 0.25 -0.066301 0.223658 -0.129895 0.176777 -0.176777 
C 0.129895 -0.223658 0.066301 -0.25 0 -0.25 
C -0.066301 -0.25 -0.129895 -0.223658 -0.176777 -0.176777 
C -0.223658 -0.129895 -0.25 -0.066301 -0.25 0 
C -0.25 0.066301 -0.223658 0.129895 -0.176777 0.176777 
C -0.129895 0.223658 -0.066301 0.25 0 0.25 
z
" id="mc8bac59c22" style="stroke:#708090;"/>
    </defs>
    <g clip-path="url(#p680f3bcb65)">
     <use style="fill:#708090;stroke:#708090;" x="108.709293" xlink:href="#mc8bac59c22" y="66.252732"/>
     <use style="fill:#708090;stroke:#708090;" x="106.294303" xlink:href="#mc8bac59c22" y="71.914686"/>
     <use style="fill:#708090;stroke:#708090;" x="106.384575" xlink:href="#mc8bac59c22" y="36.487578"/>
     <use style="fill:#708090;stroke:#708090;" x="105.796194" xlink:href="#mc8bac59c22" y="47.318472"/>
    </g>
   </g>
   <g id="line2d_36">
    <path clip-path="url(#p680f3bcb65)" d="M 42.155 13.389375 
L 106.955 13.389375 
" style="fill:none;stroke:#000000;stroke-linecap:square;stroke-width:0.5;"/>
   </g>
   <g id="line2d_37">
    <path clip-path="url(#p680f3bcb65)" d="M 36.755 70.596421 
L 47.555 70.596421 
" style="fill:none;stroke:#666666;stroke-linecap:square;"/>
   </g>
   <g id="line2d_38">
    <path clip-path="url(#p680f3bcb65)" d="M 58.355 53.309043 
L 69.155 53.309043 
" style="fill:none;stroke:#cccccc;stroke-linecap:square;"/>
   </g>
   <g id="line2d_39">
    <path clip-path="url(#p680f3bcb65)" d="M 79.955 55.71668 
L 90.755 55.71668 
" style="fill:none;stroke:#b0c4de;stroke-linecap:square;"/>
   </g>
   <g id="line2d_40">
    <path clip-path="url(#p680f3bcb65)" d="M 101.555 56.785602 
L 112.355 56.785602 
" style="fill:none;stroke:#708090;stroke-linecap:square;"/>
   </g>
   <g id="patch_3">
    <path d="M 31.355 96.549375 
L 31.355 10.149375 
" style="fill:none;stroke:#000000;stroke-linecap:square;stroke-linejoin:miter;stroke-width:0.8;"/>
   </g>
   <g id="patch_4">
    <path d="M 31.355 96.549375 
L 117.755 96.549375 
" style="fill:none;stroke:#000000;stroke-linecap:square;stroke-linejoin:miter;stroke-width:0.8;"/>
   </g>
   <g id="text_11">
    <!-- * * -->
    <g transform="translate(48.8125 25.636575)scale(0.08 -0.08)">
     <defs>
      <path d="M 29.15625 55.03125 
L 20.703125 54.890625 
L 28.421875 49.75 
L 30.71875 46.734375 
L 24.75 41.65625 
L 22.125 45.0625 
L 18.109375 52.828125 
L 13.671875 44.921875 
L 11.578125 41.796875 
L 5.171875 46.734375 
L 7.625 50.09375 
L 15.328125 54.15625 
L 6.734375 55.46875 
L 2.34375 57.03125 
L 5.859375 64.359375 
L 10.546875 62.546875 
L 16.65625 57.90625 
L 13.578125 67.921875 
L 13.578125 71.78125 
L 22.171875 71.78125 
L 22.171875 68.0625 
L 19.234375 57.765625 
L 26.953125 62.984375 
L 30.5625 64.3125 
L 33.34375 56.453125 
z
" id="TrebuchetMS-42"/>
     </defs>
     <use xlink:href="#TrebuchetMS-42"/>
     <use x="36.71875" xlink:href="#TrebuchetMS-32"/>
     <use x="66.845703" xlink:href="#TrebuchetMS-42"/>
    </g>
   </g>
   <g id="text_12">
    <!-- * * * -->
    <g transform="translate(56.93875 20.344575)scale(0.08 -0.08)">
     <use xlink:href="#TrebuchetMS-42"/>
     <use x="36.71875" xlink:href="#TrebuchetMS-32"/>
     <use x="66.845703" xlink:href="#TrebuchetMS-42"/>
     <use x="103.564453" xlink:href="#TrebuchetMS-32"/>
     <use x="133.691406" xlink:href="#TrebuchetMS-42"/>
    </g>
   </g>
   <g id="text_13">
    <!-- * -->
    <g transform="translate(73.08625 15.052575)scale(0.08 -0.08)">
     <use xlink:href="#TrebuchetMS-42"/>
    </g>
   </g>
  </g>
 </g>
 <defs>
  <clipPath id="p680f3bcb65">
   <rect height="86.4" width="86.4" x="31.355" y="10.149375"/>
  </clipPath>
 </defs>
</svg>
