<?xml version="1.0" encoding="utf-8" standalone="no"?>
<!DOCTYPE svg PUBLIC "-//W3C//DTD SVG 1.1//EN"
  "http://www.w3.org/Graphics/SVG/1.1/DTD/svg11.dtd">
<!-- Created with matplotlib (https://matplotlib.org/) -->
<svg height="115.34pt" version="1.1" viewBox="0 0 125.058977 115.34" width="125.058977pt" xmlns="http://www.w3.org/2000/svg" xmlns:xlink="http://www.w3.org/1999/xlink">
 <metadata>
  <rdf:RDF xmlns:cc="http://creativecommons.org/ns#" xmlns:dc="http://purl.org/dc/elements/1.1/" xmlns:rdf="http://www.w3.org/1999/02/22-rdf-syntax-ns#">
   <cc:Work>
    <dc:type rdf:resource="http://purl.org/dc/dcmitype/StillImage"/>
    <dc:date>2022-02-09T11:09:56.860627</dc:date>
    <dc:format>image/svg+xml</dc:format>
    <dc:creator>
     <cc:Agent>
      <dc:title>Matplotlib v3.3.2, https://matplotlib.org/</dc:title>
     </cc:Agent>
    </dc:creator>
   </cc:Work>
  </rdf:RDF>
 </metadata>
 <defs>
  <style type="text/css">*{stroke-linecap:butt;stroke-linejoin:round;}</style>
 </defs>
 <g id="figure_1">
  <g id="patch_1">
   <path d="M 0 115.34 
L 125.058977 115.34 
L 125.058977 0 
L 0 0 
z
" style="fill:none;"/>
  </g>
  <g id="axes_1">
   <g id="patch_2">
    <path d="M 29.7225 93.6 
L 116.1225 93.6 
L 116.1225 7.2 
L 29.7225 7.2 
z
" style="fill:#ffffff;"/>
   </g>
   <g id="matplotlib.axis_1">
    <g id="xtick_1">
     <g id="line2d_1">
      <defs>
       <path d="M 0 0 
L 0 3.5 
" id="mdb85dd64bb" style="stroke:#000000;stroke-width:0.8;"/>
      </defs>
      <g>
       <use style="stroke:#000000;stroke-width:0.8;" x="33.649773" xlink:href="#mdb85dd64bb" y="93.6"/>
      </g>
     </g>
     <g id="text_1">
      <!-- 0.0 -->
      <g transform="translate(27.986023 106.49875)scale(0.08 -0.08)">
       <defs>
        <path d="M 3.125 37.9375 
Q 3.125 53.375 9.375 63.078125 
Q 15.625 72.796875 26.953125 72.796875 
Q 38.1875 72.796875 43.828125 64.6875 
Q 49.46875 56.59375 49.46875 36.375 
Q 49.46875 19 43.546875 9 
Q 37.640625 -0.984375 26.265625 -0.984375 
Q 14.890625 -0.984375 9 7.078125 
Q 3.125 15.140625 3.125 37.9375 
z
M 12.890625 37.0625 
Q 12.890625 7.328125 25.59375 7.328125 
Q 32.859375 7.328125 36.28125 13.921875 
Q 39.703125 20.515625 39.703125 37.015625 
Q 39.703125 48.390625 38.375 53.703125 
Q 37.0625 59.03125 34.125 61.765625 
Q 31.203125 64.5 26.703125 64.5 
Q 12.890625 64.5 12.890625 37.0625 
z
" id="TrebuchetMS-48"/>
        <path d="M 17.28125 13.71875 
Q 20.3125 13.71875 22.453125 11.5625 
Q 24.609375 9.421875 24.609375 6.390625 
Q 24.609375 3.375 22.453125 1.1875 
Q 20.3125 -0.984375 17.28125 -0.984375 
Q 14.265625 -0.984375 12.109375 1.1875 
Q 9.96875 3.375 9.96875 6.390625 
Q 9.96875 9.421875 12.109375 11.5625 
Q 14.265625 13.71875 17.28125 13.71875 
z
" id="TrebuchetMS-46"/>
       </defs>
       <use xlink:href="#TrebuchetMS-48"/>
       <use x="52.441406" xlink:href="#TrebuchetMS-46"/>
       <use x="89.160156" xlink:href="#TrebuchetMS-48"/>
      </g>
     </g>
    </g>
    <g id="xtick_2">
     <g id="line2d_2">
      <g>
       <use style="stroke:#000000;stroke-width:0.8;" x="72.9225" xlink:href="#mdb85dd64bb" y="93.6"/>
      </g>
     </g>
     <g id="text_2">
      <!-- 0.5 -->
      <g transform="translate(67.25875 106.49875)scale(0.08 -0.08)">
       <defs>
        <path d="M 11.328125 34.90625 
L 8.015625 37.203125 
L 8.015625 71.828125 
L 43.609375 71.828125 
L 43.609375 63.53125 
L 17.28125 63.53125 
L 17.28125 46.140625 
Q 20.90625 48.828125 26.46875 48.828125 
Q 36.421875 48.828125 41.671875 42.875 
Q 46.921875 36.921875 46.921875 25.921875 
Q 46.921875 -0.984375 22.953125 -0.984375 
Q 12.9375 -0.984375 6.34375 4.59375 
L 10.109375 12.75 
Q 16.75 7.328125 22.90625 7.328125 
Q 36.671875 7.328125 36.671875 24.515625 
Q 36.671875 40.53125 23.09375 40.53125 
Q 16.546875 40.53125 11.328125 34.90625 
z
" id="TrebuchetMS-53"/>
       </defs>
       <use xlink:href="#TrebuchetMS-48"/>
       <use x="52.441406" xlink:href="#TrebuchetMS-46"/>
       <use x="89.160156" xlink:href="#TrebuchetMS-53"/>
      </g>
     </g>
    </g>
    <g id="xtick_3">
     <g id="line2d_3">
      <g>
       <use style="stroke:#000000;stroke-width:0.8;" x="112.195227" xlink:href="#mdb85dd64bb" y="93.6"/>
      </g>
     </g>
     <g id="text_3">
      <!-- 1.0 -->
      <g transform="translate(106.531477 106.49875)scale(0.08 -0.08)">
       <defs>
        <path d="M 24.3125 0 
L 24.3125 54.828125 
L 9.765625 45.75 
L 9.765625 54.890625 
Q 15.28125 57.671875 21.5 62.546875 
Q 27.734375 67.4375 31.15625 71.828125 
L 34.078125 71.828125 
L 34.078125 0 
z
" id="TrebuchetMS-49"/>
       </defs>
       <use xlink:href="#TrebuchetMS-49"/>
       <use x="52.441406" xlink:href="#TrebuchetMS-46"/>
       <use x="89.160156" xlink:href="#TrebuchetMS-48"/>
      </g>
     </g>
    </g>
   </g>
   <g id="matplotlib.axis_2">
    <g id="ytick_1">
     <g id="line2d_4">
      <defs>
       <path d="M 0 0 
L -3.5 0 
" id="mbb13c989d9" style="stroke:#000000;stroke-width:0.8;"/>
      </defs>
      <g>
       <use style="stroke:#000000;stroke-width:0.8;" x="29.7225" xlink:href="#mbb13c989d9" y="89.672727"/>
      </g>
     </g>
     <g id="text_4">
      <!-- 0.00 -->
      <g transform="translate(7.2 92.622102)scale(0.08 -0.08)">
       <use xlink:href="#TrebuchetMS-48"/>
       <use x="52.441406" xlink:href="#TrebuchetMS-46"/>
       <use x="89.160156" xlink:href="#TrebuchetMS-48"/>
       <use x="141.601562" xlink:href="#TrebuchetMS-48"/>
      </g>
     </g>
    </g>
    <g id="ytick_2">
     <g id="line2d_5">
      <g>
       <use style="stroke:#000000;stroke-width:0.8;" x="29.7225" xlink:href="#mbb13c989d9" y="70.036364"/>
      </g>
     </g>
     <g id="text_5">
      <!-- 0.25 -->
      <g transform="translate(7.2 72.985739)scale(0.08 -0.08)">
       <defs>
        <path d="M 3.375 0 
L 3.375 1.953125 
L 25.78125 36.28125 
Q 32.8125 47.078125 32.8125 54.59375 
Q 32.8125 64.5 21.625 64.5 
Q 17.671875 64.5 14.203125 62.421875 
Q 10.75 60.359375 9.1875 57.171875 
L 2.875 62.359375 
Q 4.546875 67.140625 9.40625 69.96875 
Q 14.265625 72.796875 21.140625 72.796875 
Q 31.453125 72.796875 37.25 68.03125 
Q 43.0625 63.28125 43.0625 54.59375 
Q 43.0625 46.53125 35.359375 34.28125 
L 19.28125 8.796875 
L 47.3125 8.796875 
L 47.3125 0 
z
" id="TrebuchetMS-50"/>
       </defs>
       <use xlink:href="#TrebuchetMS-48"/>
       <use x="52.441406" xlink:href="#TrebuchetMS-46"/>
       <use x="89.160156" xlink:href="#TrebuchetMS-50"/>
       <use x="141.601562" xlink:href="#TrebuchetMS-53"/>
      </g>
     </g>
    </g>
    <g id="ytick_3">
     <g id="line2d_6">
      <g>
       <use style="stroke:#000000;stroke-width:0.8;" x="29.7225" xlink:href="#mbb13c989d9" y="50.4"/>
      </g>
     </g>
     <g id="text_6">
      <!-- 0.50 -->
      <g transform="translate(7.2 53.349375)scale(0.08 -0.08)">
       <use xlink:href="#TrebuchetMS-48"/>
       <use x="52.441406" xlink:href="#TrebuchetMS-46"/>
       <use x="89.160156" xlink:href="#TrebuchetMS-53"/>
       <use x="141.601562" xlink:href="#TrebuchetMS-48"/>
      </g>
     </g>
    </g>
    <g id="ytick_4">
     <g id="line2d_7">
      <g>
       <use style="stroke:#000000;stroke-width:0.8;" x="29.7225" xlink:href="#mbb13c989d9" y="30.763636"/>
      </g>
     </g>
     <g id="text_7">
      <!-- 0.75 -->
      <g transform="translate(7.2 33.713011)scale(0.08 -0.08)">
       <defs>
        <path d="M 20.90625 0 
L 10.0625 0 
Q 13.671875 11.46875 22.21875 30.34375 
Q 30.765625 49.21875 37.84375 62.546875 
L 4.109375 62.546875 
L 4.109375 71.828125 
L 50.484375 71.828125 
L 50.484375 68.015625 
L 44.1875 55.609375 
Q 41.015625 49.3125 37.546875 41.796875 
Q 34.078125 34.28125 30.75 26.46875 
Q 27.4375 18.65625 24.953125 11.96875 
Q 22.46875 5.28125 20.90625 0 
z
" id="TrebuchetMS-55"/>
       </defs>
       <use xlink:href="#TrebuchetMS-48"/>
       <use x="52.441406" xlink:href="#TrebuchetMS-46"/>
       <use x="89.160156" xlink:href="#TrebuchetMS-55"/>
       <use x="141.601562" xlink:href="#TrebuchetMS-53"/>
      </g>
     </g>
    </g>
    <g id="ytick_5">
     <g id="line2d_8">
      <g>
       <use style="stroke:#000000;stroke-width:0.8;" x="29.7225" xlink:href="#mbb13c989d9" y="11.127273"/>
      </g>
     </g>
     <g id="text_8">
      <!-- 1.00 -->
      <g transform="translate(7.2 14.076648)scale(0.08 -0.08)">
       <use xlink:href="#TrebuchetMS-49"/>
       <use x="52.441406" xlink:href="#TrebuchetMS-46"/>
       <use x="89.160156" xlink:href="#TrebuchetMS-48"/>
       <use x="141.601562" xlink:href="#TrebuchetMS-48"/>
      </g>
     </g>
    </g>
   </g>
   <g id="line2d_9">
    <defs>
     <path d="M 0 1.5 
C 0.397805 1.5 0.77937 1.341951 1.06066 1.06066 
C 1.341951 0.77937 1.5 0.397805 1.5 0 
C 1.5 -0.397805 1.341951 -0.77937 1.06066 -1.06066 
C 0.77937 -1.341951 0.397805 -1.5 0 -1.5 
C -0.397805 -1.5 -0.77937 -1.341951 -1.06066 -1.06066 
C -1.341951 -0.77937 -1.5 -0.397805 -1.5 0 
C -1.5 0.397805 -1.341951 0.77937 -1.06066 1.06066 
C -0.77937 1.341951 -0.397805 1.5 0 1.5 
z
" id="m906ef8a145" style="stroke:#5f9ea0;"/>
    </defs>
    <g clip-path="url(#p012282e525)">
     <use style="fill:#5f9ea0;stroke:#5f9ea0;" x="33.649773" xlink:href="#m906ef8a145" y="89.672727"/>
    </g>
   </g>
   <g id="line2d_10">
    <defs>
     <path d="M 0 1.5 
C 0.397805 1.5 0.77937 1.341951 1.06066 1.06066 
C 1.341951 0.77937 1.5 0.397805 1.5 0 
C 1.5 -0.397805 1.341951 -0.77937 1.06066 -1.06066 
C 0.77937 -1.341951 0.397805 -1.5 0 -1.5 
C -0.397805 -1.5 -0.77937 -1.341951 -1.06066 -1.06066 
C -1.341951 -0.77937 -1.5 -0.397805 -1.5 0 
C -1.5 0.397805 -1.341951 0.77937 -1.06066 1.06066 
C -0.77937 1.341951 -0.397805 1.5 0 1.5 
z
" id="m36fa9644d6" style="stroke:#ff4500;"/>
    </defs>
    <g clip-path="url(#p012282e525)">
     <use style="fill:#ff4500;stroke:#ff4500;" x="112.195227" xlink:href="#m36fa9644d6" y="11.127273"/>
    </g>
   </g>
   <g id="patch_3">
    <path d="M 29.7225 93.6 
L 29.7225 7.2 
" style="fill:none;stroke:#000000;stroke-linecap:square;stroke-linejoin:miter;stroke-width:0.8;"/>
   </g>
   <g id="patch_4">
    <path d="M 116.1225 93.6 
L 116.1225 7.2 
" style="fill:none;stroke:#000000;stroke-linecap:square;stroke-linejoin:miter;stroke-width:0.8;"/>
   </g>
   <g id="patch_5">
    <path d="M 29.7225 93.6 
L 116.1225 93.6 
" style="fill:none;stroke:#000000;stroke-linecap:square;stroke-linejoin:miter;stroke-width:0.8;"/>
   </g>
   <g id="patch_6">
    <path d="M 29.7225 7.2 
L 116.1225 7.2 
" style="fill:none;stroke:#000000;stroke-linecap:square;stroke-linejoin:miter;stroke-width:0.8;"/>
   </g>
   <g id="legend_1">
    <g id="patch_7">
     <path d="M 33.2225 25.625 
L 68.188125 25.625 
Q 69.188125 25.625 69.188125 24.625 
L 69.188125 10.7 
Q 69.188125 9.7 68.188125 9.7 
L 33.2225 9.7 
Q 32.2225 9.7 32.2225 10.7 
L 32.2225 24.625 
Q 32.2225 25.625 33.2225 25.625 
z
" style="fill:#ffffff;opacity:0.8;stroke:#cccccc;stroke-linejoin:miter;stroke-width:0.5;"/>
    </g>
    <g id="line2d_11"/>
    <g id="line2d_12">
     <g>
      <use style="fill:#5f9ea0;stroke:#5f9ea0;" x="39.2225" xlink:href="#m906ef8a145" y="13.636719"/>
     </g>
    </g>
    <g id="text_9">
     <!-- no crack -->
     <g transform="translate(48.2225 15.386719)scale(0.05 -0.05)">
      <defs>
       <path d="M 38.765625 0 
L 38.765625 30.421875 
Q 38.765625 38.765625 36.25 42.109375 
Q 33.734375 45.453125 27.828125 45.453125 
Q 24.65625 45.453125 21.1875 43.546875 
Q 17.71875 41.65625 15.875 38.875 
L 15.875 0 
L 6.59375 0 
L 6.59375 52.296875 
L 12.9375 52.296875 
L 15.875 45.5625 
Q 20.453125 53.265625 30.859375 53.265625 
Q 48.046875 53.265625 48.046875 32.375 
L 48.046875 0 
z
" id="TrebuchetMS-110"/>
       <path d="M 3.171875 26.265625 
Q 3.171875 38.375 9.6875 45.8125 
Q 16.21875 53.265625 26.859375 53.265625 
Q 38.09375 53.265625 44.28125 46.109375 
Q 50.484375 38.96875 50.484375 26.265625 
Q 50.484375 13.625 44.140625 6.3125 
Q 37.796875 -0.984375 26.859375 -0.984375 
Q 15.671875 -0.984375 9.421875 6.390625 
Q 3.171875 13.765625 3.171875 26.265625 
z
M 12.9375 26.265625 
Q 12.9375 6.59375 26.859375 6.59375 
Q 33.34375 6.59375 37.03125 11.859375 
Q 40.71875 17.140625 40.71875 26.265625 
Q 40.71875 45.703125 26.859375 45.703125 
Q 20.515625 45.703125 16.71875 40.53125 
Q 12.9375 35.359375 12.9375 26.265625 
z
" id="TrebuchetMS-111"/>
       <path id="TrebuchetMS-32"/>
       <path d="M 46.046875 48.046875 
L 41.453125 41.5 
Q 40.046875 42.921875 36.453125 44.1875 
Q 32.859375 45.453125 29.390625 45.453125 
Q 21.828125 45.453125 17.375 40.15625 
Q 12.9375 34.859375 12.9375 25.640625 
Q 12.9375 16.453125 17.46875 11.640625 
Q 22.015625 6.84375 30.078125 6.84375 
Q 36.328125 6.84375 42.671875 11.671875 
L 46.34375 3.859375 
Q 38.875 -0.984375 27.828125 -0.984375 
Q 17.140625 -0.984375 10.15625 6.1875 
Q 3.171875 13.375 3.171875 25.640625 
Q 3.171875 38.140625 10.421875 45.703125 
Q 17.671875 53.265625 30.28125 53.265625 
Q 34.328125 53.265625 39.0625 51.5625 
Q 43.796875 49.859375 46.046875 48.046875 
z
" id="TrebuchetMS-99"/>
       <path d="M 35.015625 43.359375 
Q 31.984375 45.453125 28.90625 45.453125 
Q 23.96875 45.453125 20.28125 40.90625 
Q 16.609375 36.375 16.609375 29.984375 
L 16.609375 0 
L 7.328125 0 
L 7.328125 52.296875 
L 16.609375 52.296875 
L 16.609375 43.953125 
Q 21.6875 53.265625 31.6875 53.265625 
Q 34.1875 53.265625 38.875 52.390625 
z
" id="TrebuchetMS-114"/>
       <path d="M 36.140625 6 
Q 30.5625 -0.984375 19.09375 -0.984375 
Q 12.9375 -0.984375 8.421875 3.484375 
Q 3.90625 7.953125 3.90625 14.59375 
Q 3.90625 22.5625 10.859375 28.046875 
Q 17.828125 33.546875 28.609375 33.546875 
Q 31.546875 33.546875 35.25 32.28125 
Q 35.25 44.96875 23.921875 44.96875 
Q 15.234375 44.96875 10.546875 40.28125 
L 6.640625 48.046875 
Q 9.28125 50.203125 13.9375 51.734375 
Q 18.609375 53.265625 22.859375 53.265625 
Q 34.234375 53.265625 39.375 48.09375 
Q 44.53125 42.921875 44.53125 31.640625 
L 44.53125 12.890625 
Q 44.53125 6 48.640625 3.71875 
L 48.640625 -0.921875 
Q 42.96875 -0.921875 40.15625 0.6875 
Q 37.359375 2.296875 36.140625 6 
z
M 35.25 25.6875 
Q 30.859375 26.65625 29.109375 26.65625 
Q 22.078125 26.65625 17.625 23.046875 
Q 13.1875 19.4375 13.1875 14.5 
Q 13.1875 6.34375 22.796875 6.34375 
Q 29.828125 6.34375 35.25 13.03125 
z
" id="TrebuchetMS-97"/>
       <path d="M 40.375 0 
L 23.96875 26.171875 
L 15.875 17.828125 
L 15.875 0 
L 6.59375 0 
L 6.59375 73.734375 
L 15.875 73.734375 
L 15.875 27.984375 
L 35.890625 52.296875 
L 46.734375 52.296875 
L 29.984375 32.421875 
L 50.4375 0 
z
" id="TrebuchetMS-107"/>
      </defs>
      <use xlink:href="#TrebuchetMS-110"/>
      <use x="54.638672" xlink:href="#TrebuchetMS-111"/>
      <use x="108.300781" xlink:href="#TrebuchetMS-32"/>
      <use x="138.427734" xlink:href="#TrebuchetMS-99"/>
      <use x="187.939453" xlink:href="#TrebuchetMS-114"/>
      <use x="226.806641" xlink:href="#TrebuchetMS-97"/>
      <use x="279.345703" xlink:href="#TrebuchetMS-99"/>
      <use x="328.857422" xlink:href="#TrebuchetMS-107"/>
     </g>
    </g>
    <g id="line2d_13"/>
    <g id="line2d_14">
     <g>
      <use style="fill:#ff4500;stroke:#ff4500;" x="39.2225" xlink:href="#m36fa9644d6" y="20.849219"/>
     </g>
    </g>
    <g id="text_10">
     <!-- crack -->
     <g transform="translate(48.2225 22.599219)scale(0.05 -0.05)">
      <use xlink:href="#TrebuchetMS-99"/>
      <use x="49.511719" xlink:href="#TrebuchetMS-114"/>
      <use x="88.378906" xlink:href="#TrebuchetMS-97"/>
      <use x="140.917969" xlink:href="#TrebuchetMS-99"/>
      <use x="190.429688" xlink:href="#TrebuchetMS-107"/>
     </g>
    </g>
   </g>
  </g>
 </g>
 <defs>
  <clipPath id="p012282e525">
   <rect height="86.4" width="86.4" x="29.7225" y="7.2"/>
  </clipPath>
 </defs>
</svg>
