<?xml version="1.0" encoding="utf-8" standalone="no"?>
<!DOCTYPE svg PUBLIC "-//W3C//DTD SVG 1.1//EN"
  "http://www.w3.org/Graphics/SVG/1.1/DTD/svg11.dtd">
<!-- Created with matplotlib (https://matplotlib.org/) -->
<svg height="102.944386pt" version="1.1" viewBox="0 0 129.223577 102.944386" width="129.223577pt" xmlns="http://www.w3.org/2000/svg" xmlns:xlink="http://www.w3.org/1999/xlink">
 <metadata>
  <rdf:RDF xmlns:cc="http://creativecommons.org/ns#" xmlns:dc="http://purl.org/dc/elements/1.1/" xmlns:rdf="http://www.w3.org/1999/02/22-rdf-syntax-ns#">
   <cc:Work>
    <dc:type rdf:resource="http://purl.org/dc/dcmitype/StillImage"/>
    <dc:date>2022-02-09T11:00:21.298278</dc:date>
    <dc:format>image/svg+xml</dc:format>
    <dc:creator>
     <cc:Agent>
      <dc:title>Matplotlib v3.3.2, https://matplotlib.org/</dc:title>
     </cc:Agent>
    </dc:creator>
   </cc:Work>
  </rdf:RDF>
 </metadata>
 <defs>
  <style type="text/css">*{stroke-linecap:butt;stroke-linejoin:round;}</style>
 </defs>
 <g id="figure_1">
  <g id="patch_1">
   <path d="M 0 102.944386 
L 129.223577 102.944386 
L 129.223577 0 
L 0 0 
z
" style="fill:none;"/>
  </g>
  <g id="axes_1">
   <g id="patch_2">
    <path d="M 91.307919 39.379601 
C 89.000535 32.521387 84.596508 26.558001 78.720487 22.335266 
C 72.844466 18.112531 65.788048 15.84 58.552088 15.84 
L 58.552088 50.4 
L 91.307919 39.379601 
z
" style="fill:#f5f5f5;"/>
   </g>
   <g id="patch_3">
    <path d="M 33.029719 27.097591 
C 28.922505 31.596089 26.076718 37.101518 24.781891 43.053754 
C 23.487063 49.00599 23.788647 55.196086 25.655961 60.994261 
C 27.523274 66.792437 30.890767 71.995152 35.415829 76.073081 
C 39.940891 80.15101 45.464675 82.961003 51.42519 84.217169 
C 57.385705 85.473335 63.573714 85.131579 69.359646 83.22667 
C 75.145579 81.321762 80.326327 77.920571 84.3748 73.369136 
C 88.423272 68.8177 91.197352 63.275794 92.414804 57.307251 
C 93.632256 51.338708 93.250342 45.153048 91.307919 39.379601 
L 58.552088 50.4 
L 33.029719 27.097591 
z
" style="fill:#b0c4de;"/>
   </g>
   <g id="patch_4">
    <path d="M 58.552079 15.84 
C 53.749333 15.840001 48.998903 16.841147 44.604641 18.779401 
C 40.210379 20.717654 36.268016 23.55079 33.029719 27.097591 
L 58.552088 50.4 
L 58.552079 15.84 
z
" style="fill:#708090;"/>
   </g>
   <g id="matplotlib.axis_1"/>
   <g id="matplotlib.axis_2"/>
   <g id="text_1">
    <!-- crack I only -->
    <g transform="translate(80.737327 17.282043)scale(0.08 -0.08)">
     <defs>
      <path d="M 46.046875 48.046875 
L 41.453125 41.5 
Q 40.046875 42.921875 36.453125 44.1875 
Q 32.859375 45.453125 29.390625 45.453125 
Q 21.828125 45.453125 17.375 40.15625 
Q 12.9375 34.859375 12.9375 25.640625 
Q 12.9375 16.453125 17.46875 11.640625 
Q 22.015625 6.84375 30.078125 6.84375 
Q 36.328125 6.84375 42.671875 11.671875 
L 46.34375 3.859375 
Q 38.875 -0.984375 27.828125 -0.984375 
Q 17.140625 -0.984375 10.15625 6.1875 
Q 3.171875 13.375 3.171875 25.640625 
Q 3.171875 38.140625 10.421875 45.703125 
Q 17.671875 53.265625 30.28125 53.265625 
Q 34.328125 53.265625 39.0625 51.5625 
Q 43.796875 49.859375 46.046875 48.046875 
z
" id="TrebuchetMS-99"/>
      <path d="M 35.015625 43.359375 
Q 31.984375 45.453125 28.90625 45.453125 
Q 23.96875 45.453125 20.28125 40.90625 
Q 16.609375 36.375 16.609375 29.984375 
L 16.609375 0 
L 7.328125 0 
L 7.328125 52.296875 
L 16.609375 52.296875 
L 16.609375 43.953125 
Q 21.6875 53.265625 31.6875 53.265625 
Q 34.1875 53.265625 38.875 52.390625 
z
" id="TrebuchetMS-114"/>
      <path d="M 36.140625 6 
Q 30.5625 -0.984375 19.09375 -0.984375 
Q 12.9375 -0.984375 8.421875 3.484375 
Q 3.90625 7.953125 3.90625 14.59375 
Q 3.90625 22.5625 10.859375 28.046875 
Q 17.828125 33.546875 28.609375 33.546875 
Q 31.546875 33.546875 35.25 32.28125 
Q 35.25 44.96875 23.921875 44.96875 
Q 15.234375 44.96875 10.546875 40.28125 
L 6.640625 48.046875 
Q 9.28125 50.203125 13.9375 51.734375 
Q 18.609375 53.265625 22.859375 53.265625 
Q 34.234375 53.265625 39.375 48.09375 
Q 44.53125 42.921875 44.53125 31.640625 
L 44.53125 12.890625 
Q 44.53125 6 48.640625 3.71875 
L 48.640625 -0.921875 
Q 42.96875 -0.921875 40.15625 0.6875 
Q 37.359375 2.296875 36.140625 6 
z
M 35.25 25.6875 
Q 30.859375 26.65625 29.109375 26.65625 
Q 22.078125 26.65625 17.625 23.046875 
Q 13.1875 19.4375 13.1875 14.5 
Q 13.1875 6.34375 22.796875 6.34375 
Q 29.828125 6.34375 35.25 13.03125 
z
" id="TrebuchetMS-97"/>
      <path d="M 40.375 0 
L 23.96875 26.171875 
L 15.875 17.828125 
L 15.875 0 
L 6.59375 0 
L 6.59375 73.734375 
L 15.875 73.734375 
L 15.875 27.984375 
L 35.890625 52.296875 
L 46.734375 52.296875 
L 29.984375 32.421875 
L 50.4375 0 
z
" id="TrebuchetMS-107"/>
      <path id="TrebuchetMS-32"/>
      <path d="M 9.03125 0 
L 9.03125 71.53125 
L 18.796875 71.53125 
L 18.796875 0 
z
" id="TrebuchetMS-73"/>
      <path d="M 3.171875 26.265625 
Q 3.171875 38.375 9.6875 45.8125 
Q 16.21875 53.265625 26.859375 53.265625 
Q 38.09375 53.265625 44.28125 46.109375 
Q 50.484375 38.96875 50.484375 26.265625 
Q 50.484375 13.625 44.140625 6.3125 
Q 37.796875 -0.984375 26.859375 -0.984375 
Q 15.671875 -0.984375 9.421875 6.390625 
Q 3.171875 13.765625 3.171875 26.265625 
z
M 12.9375 26.265625 
Q 12.9375 6.59375 26.859375 6.59375 
Q 33.34375 6.59375 37.03125 11.859375 
Q 40.71875 17.140625 40.71875 26.265625 
Q 40.71875 45.703125 26.859375 45.703125 
Q 20.515625 45.703125 16.71875 40.53125 
Q 12.9375 35.359375 12.9375 26.265625 
z
" id="TrebuchetMS-111"/>
      <path d="M 38.765625 0 
L 38.765625 30.421875 
Q 38.765625 38.765625 36.25 42.109375 
Q 33.734375 45.453125 27.828125 45.453125 
Q 24.65625 45.453125 21.1875 43.546875 
Q 17.71875 41.65625 15.875 38.875 
L 15.875 0 
L 6.59375 0 
L 6.59375 52.296875 
L 12.9375 52.296875 
L 15.875 45.5625 
Q 20.453125 53.265625 30.859375 53.265625 
Q 48.046875 53.265625 48.046875 32.375 
L 48.046875 0 
z
" id="TrebuchetMS-110"/>
      <path d="M 7.328125 14.796875 
L 7.328125 73.734375 
L 16.609375 73.734375 
L 16.609375 16.359375 
Q 16.609375 12.15625 19.015625 9.734375 
Q 21.4375 7.328125 25.34375 7.328125 
L 25.34375 -0.984375 
Q 7.328125 -0.984375 7.328125 14.796875 
z
" id="TrebuchetMS-108"/>
      <path d="M 26.5625 -8.890625 
Q 24.75 -13.875 18.96875 -17.1875 
Q 13.1875 -20.515625 6.0625 -20.515625 
L 6.0625 -12.203125 
Q 11.859375 -12.203125 16.015625 -9.484375 
Q 20.171875 -6.78125 20.171875 -2.875 
Q 20.171875 1.421875 18.65625 5.59375 
Q 17.140625 9.765625 14.75 15.921875 
L 0.59375 52.296875 
L 10.0625 52.296875 
L 25.4375 11.859375 
L 39.265625 52.296875 
L 48.734375 52.296875 
z
" id="TrebuchetMS-121"/>
     </defs>
     <use xlink:href="#TrebuchetMS-99"/>
     <use x="49.511719" xlink:href="#TrebuchetMS-114"/>
     <use x="88.378906" xlink:href="#TrebuchetMS-97"/>
     <use x="140.917969" xlink:href="#TrebuchetMS-99"/>
     <use x="190.429688" xlink:href="#TrebuchetMS-107"/>
     <use x="240.869141" xlink:href="#TrebuchetMS-32"/>
     <use x="270.996094" xlink:href="#TrebuchetMS-73"/>
     <use x="298.828125" xlink:href="#TrebuchetMS-32"/>
     <use x="328.955078" xlink:href="#TrebuchetMS-111"/>
     <use x="382.617188" xlink:href="#TrebuchetMS-110"/>
     <use x="437.255859" xlink:href="#TrebuchetMS-108"/>
     <use x="466.748047" xlink:href="#TrebuchetMS-121"/>
    </g>
    <!-- (n=24) -->
    <g transform="translate(80.737327 26.001793)scale(0.08 -0.08)">
     <defs>
      <path d="M 30.171875 72.015625 
L 30.171875 67.96875 
Q 20.515625 54 20.515625 27.203125 
Q 20.515625 -4.640625 30.171875 -15.765625 
L 30.171875 -20.90625 
Q 20.3125 -14.015625 14.859375 -1.140625 
Q 9.421875 11.71875 9.421875 27.296875 
Q 9.421875 40.578125 15.625 54.125 
Q 21.828125 67.671875 30.171875 72.015625 
z
" id="TrebuchetMS-40"/>
      <path d="M 46.875 42.78125 
L 46.875 35.890625 
L 5.953125 35.890625 
L 5.953125 42.78125 
z
M 46.875 26.171875 
L 46.875 19.28125 
L 5.953125 19.28125 
L 5.953125 26.171875 
z
" id="TrebuchetMS-61"/>
      <path d="M 3.375 0 
L 3.375 1.953125 
L 25.78125 36.28125 
Q 32.8125 47.078125 32.8125 54.59375 
Q 32.8125 64.5 21.625 64.5 
Q 17.671875 64.5 14.203125 62.421875 
Q 10.75 60.359375 9.1875 57.171875 
L 2.875 62.359375 
Q 4.546875 67.140625 9.40625 69.96875 
Q 14.265625 72.796875 21.140625 72.796875 
Q 31.453125 72.796875 37.25 68.03125 
Q 43.0625 63.28125 43.0625 54.59375 
Q 43.0625 46.53125 35.359375 34.28125 
L 19.28125 8.796875 
L 47.3125 8.796875 
L 47.3125 0 
z
" id="TrebuchetMS-50"/>
      <path d="M 43.0625 19.484375 
L 43.0625 0 
L 33.796875 0 
L 33.796875 19.484375 
L 1.21875 19.484375 
L 1.21875 25.046875 
L 39.65625 71.828125 
L 43.0625 71.828125 
L 43.0625 27 
L 50.296875 27 
L 50.296875 19.484375 
z
M 33.796875 52.34375 
L 12.796875 27 
L 33.796875 27 
z
" id="TrebuchetMS-52"/>
      <path d="M 9.421875 -20.90625 
L 9.421875 -15.765625 
Q 19.09375 -4.640625 19.09375 27.203125 
Q 19.09375 54 9.421875 67.96875 
L 9.421875 72.015625 
Q 17.78125 67.671875 23.96875 54.125 
Q 30.171875 40.578125 30.171875 27.296875 
Q 30.171875 11.71875 24.71875 -1.140625 
Q 19.28125 -14.015625 9.421875 -20.90625 
z
" id="TrebuchetMS-41"/>
     </defs>
     <use xlink:href="#TrebuchetMS-40"/>
     <use x="36.71875" xlink:href="#TrebuchetMS-110"/>
     <use x="91.357422" xlink:href="#TrebuchetMS-61"/>
     <use x="143.798828" xlink:href="#TrebuchetMS-50"/>
     <use x="196.240234" xlink:href="#TrebuchetMS-52"/>
     <use x="248.681641" xlink:href="#TrebuchetMS-41"/>
    </g>
   </g>
   <g id="text_2">
    <!-- 20% -->
    <g transform="translate(64.057503 35.68991)scale(0.08 -0.08)">
     <defs>
      <path d="M 3.125 37.9375 
Q 3.125 53.375 9.375 63.078125 
Q 15.625 72.796875 26.953125 72.796875 
Q 38.1875 72.796875 43.828125 64.6875 
Q 49.46875 56.59375 49.46875 36.375 
Q 49.46875 19 43.546875 9 
Q 37.640625 -0.984375 26.265625 -0.984375 
Q 14.890625 -0.984375 9 7.078125 
Q 3.125 15.140625 3.125 37.9375 
z
M 12.890625 37.0625 
Q 12.890625 7.328125 25.59375 7.328125 
Q 32.859375 7.328125 36.28125 13.921875 
Q 39.703125 20.515625 39.703125 37.015625 
Q 39.703125 48.390625 38.375 53.703125 
Q 37.0625 59.03125 34.125 61.765625 
Q 31.203125 64.5 26.703125 64.5 
Q 12.890625 64.5 12.890625 37.0625 
z
" id="TrebuchetMS-48"/>
      <path d="M 10.640625 -0.984375 
L 4.4375 -0.984375 
L 47.5625 72.796875 
L 53.71875 72.796875 
z
M 2.984375 56.734375 
Q 2.984375 63.921875 6.9375 68.359375 
Q 10.890625 72.796875 17 72.796875 
Q 23 72.796875 26.578125 68.40625 
Q 30.171875 64.015625 30.171875 55.8125 
Q 30.171875 48.1875 26.359375 43.71875 
Q 22.5625 39.265625 16.546875 39.265625 
Q 2.984375 39.265625 2.984375 56.734375 
z
M 9.125 56.25 
Q 9.125 50.53125 11.046875 47.375 
Q 12.984375 44.234375 16.109375 44.234375 
Q 24.03125 44.234375 24.03125 56.203125 
Q 24.03125 67.828125 16.84375 67.828125 
Q 13.28125 67.828125 11.203125 64.703125 
Q 9.125 61.578125 9.125 56.25 
z
M 29.34375 16.5 
Q 29.34375 23.6875 33.296875 28.125 
Q 37.25 32.5625 43.359375 32.5625 
Q 49.359375 32.5625 52.953125 28.171875 
Q 56.546875 23.78125 56.546875 15.578125 
Q 56.546875 7.953125 52.734375 3.484375 
Q 48.921875 -0.984375 42.921875 -0.984375 
Q 29.34375 -0.984375 29.34375 16.5 
z
M 35.5 16.015625 
Q 35.5 10.296875 37.421875 7.140625 
Q 39.359375 4 42.484375 4 
Q 50.390625 4 50.390625 15.96875 
Q 50.390625 27.59375 43.21875 27.59375 
Q 39.65625 27.59375 37.578125 24.46875 
Q 35.5 21.34375 35.5 16.015625 
z
" id="TrebuchetMS-37"/>
     </defs>
     <use xlink:href="#TrebuchetMS-50"/>
     <use x="52.441406" xlink:href="#TrebuchetMS-48"/>
     <use x="104.882812" xlink:href="#TrebuchetMS-37"/>
    </g>
   </g>
   <g id="text_3">
    <!-- crack II only -->
    <g transform="translate(7.2 85.352136)scale(0.08 -0.08)">
     <use xlink:href="#TrebuchetMS-99"/>
     <use x="49.511719" xlink:href="#TrebuchetMS-114"/>
     <use x="88.378906" xlink:href="#TrebuchetMS-97"/>
     <use x="140.917969" xlink:href="#TrebuchetMS-99"/>
     <use x="190.429688" xlink:href="#TrebuchetMS-107"/>
     <use x="240.869141" xlink:href="#TrebuchetMS-32"/>
     <use x="270.996094" xlink:href="#TrebuchetMS-73"/>
     <use x="298.828125" xlink:href="#TrebuchetMS-73"/>
     <use x="326.660156" xlink:href="#TrebuchetMS-32"/>
     <use x="356.787109" xlink:href="#TrebuchetMS-111"/>
     <use x="410.449219" xlink:href="#TrebuchetMS-110"/>
     <use x="465.087891" xlink:href="#TrebuchetMS-108"/>
     <use x="494.580078" xlink:href="#TrebuchetMS-121"/>
    </g>
    <!-- (n=81) -->
    <g transform="translate(27.88125 94.071886)scale(0.08 -0.08)">
     <defs>
      <path d="M 17.234375 39.796875 
Q 12.703125 42.234375 9.8125 46.578125 
Q 6.9375 50.921875 6.9375 55.5625 
Q 6.9375 63.53125 12.328125 68.15625 
Q 17.71875 72.796875 26.265625 72.796875 
Q 35.5 72.796875 40.578125 68.15625 
Q 45.65625 63.53125 45.65625 55.515625 
Q 45.65625 50.828125 42.578125 45.96875 
Q 39.5 41.109375 35.453125 38.8125 
Q 48.34375 31.59375 48.34375 19.828125 
Q 48.34375 9.90625 42.375 4.453125 
Q 36.421875 -0.984375 26.03125 -0.984375 
Q 4.34375 -0.984375 4.34375 19.828125 
Q 4.34375 25.828125 8.046875 31.640625 
Q 11.765625 37.453125 17.234375 39.796875 
z
M 29.203125 42.828125 
Q 35.84375 49.078125 35.84375 55.765625 
Q 35.84375 59.765625 33.171875 62.125 
Q 30.515625 64.5 26.265625 64.5 
Q 16.703125 64.5 16.703125 55.671875 
Q 16.703125 49.125 29.203125 42.828125 
z
M 24.859375 35.546875 
Q 14.109375 29.734375 14.109375 19.828125 
Q 14.109375 14.5 17.421875 10.90625 
Q 20.75 7.328125 26.03125 7.328125 
Q 31.5 7.328125 35.03125 10.84375 
Q 38.578125 14.359375 38.578125 19.828125 
Q 38.578125 23.78125 36.125 27.265625 
Q 33.6875 30.765625 24.859375 35.546875 
z
" id="TrebuchetMS-56"/>
      <path d="M 24.3125 0 
L 24.3125 54.828125 
L 9.765625 45.75 
L 9.765625 54.890625 
Q 15.28125 57.671875 21.5 62.546875 
Q 27.734375 67.4375 31.15625 71.828125 
L 34.078125 71.828125 
L 34.078125 0 
z
" id="TrebuchetMS-49"/>
     </defs>
     <use xlink:href="#TrebuchetMS-40"/>
     <use x="36.71875" xlink:href="#TrebuchetMS-110"/>
     <use x="91.357422" xlink:href="#TrebuchetMS-61"/>
     <use x="143.798828" xlink:href="#TrebuchetMS-56"/>
     <use x="196.240234" xlink:href="#TrebuchetMS-49"/>
     <use x="248.681641" xlink:href="#TrebuchetMS-41"/>
    </g>
   </g>
   <g id="text_4">
    <!-- 67% -->
    <g transform="translate(47.680324 72.819051)scale(0.08 -0.08)">
     <defs>
      <path d="M 32.8125 72.796875 
L 37.546875 67.578125 
Q 33.25 65.875 25.125 56.03125 
Q 17 46.1875 16.109375 40.875 
Q 20.171875 44.78125 27.390625 44.78125 
Q 36.859375 44.78125 42.578125 38.71875 
Q 48.296875 32.671875 48.296875 22.078125 
Q 48.296875 11.578125 42.40625 5.171875 
Q 36.53125 -1.21875 27.640625 -1.21875 
Q 4.109375 -1.21875 4.109375 29.984375 
Q 4.109375 42.96875 13.3125 56.5625 
Q 22.515625 70.171875 32.8125 72.796875 
z
M 14.359375 22.359375 
Q 14.359375 7.078125 26.90625 7.078125 
Q 32.171875 7.078125 35.21875 11.0625 
Q 38.28125 15.046875 38.28125 21.578125 
Q 38.28125 28.375 35.0625 32.421875 
Q 31.84375 36.46875 26.765625 36.46875 
Q 14.359375 36.46875 14.359375 22.359375 
z
" id="TrebuchetMS-54"/>
      <path d="M 20.90625 0 
L 10.0625 0 
Q 13.671875 11.46875 22.21875 30.34375 
Q 30.765625 49.21875 37.84375 62.546875 
L 4.109375 62.546875 
L 4.109375 71.828125 
L 50.484375 71.828125 
L 50.484375 68.015625 
L 44.1875 55.609375 
Q 41.015625 49.3125 37.546875 41.796875 
Q 34.078125 34.28125 30.75 26.46875 
Q 27.4375 18.65625 24.953125 11.96875 
Q 22.46875 5.28125 20.90625 0 
z
" id="TrebuchetMS-55"/>
     </defs>
     <use xlink:href="#TrebuchetMS-54"/>
     <use x="52.441406" xlink:href="#TrebuchetMS-55"/>
     <use x="104.882812" xlink:href="#TrebuchetMS-37"/>
    </g>
   </g>
   <g id="text_5">
    <!-- both -->
    <g transform="translate(26.916146 13.370591)scale(0.08 -0.08)">
     <defs>
      <path d="M 14.5 3.765625 
L 11.234375 -0.984375 
L 6.59375 -0.984375 
L 6.59375 73.734375 
L 15.875 73.734375 
L 15.875 48.4375 
Q 17.1875 50.25 20.828125 51.75 
Q 24.46875 53.265625 27.984375 53.265625 
Q 38.71875 53.265625 45.375 45.84375 
Q 52.046875 38.421875 52.046875 27.09375 
Q 52.046875 14.015625 45.359375 6.515625 
Q 38.671875 -0.984375 27.25 -0.984375 
Q 23.53125 -0.984375 19.9375 0.40625 
Q 16.359375 1.8125 14.5 3.765625 
z
M 15.875 41.359375 
L 15.875 11.1875 
Q 15.875 10.40625 19.328125 8.625 
Q 22.796875 6.84375 24.609375 6.84375 
Q 34.078125 6.84375 38.171875 11.375 
Q 42.28125 15.921875 42.28125 26.609375 
Q 42.28125 35.5 37.5 40.46875 
Q 32.71875 45.453125 24.609375 45.453125 
Q 22.90625 45.453125 19.84375 43.984375 
Q 16.796875 42.53125 15.875 41.359375 
z
" id="TrebuchetMS-98"/>
      <path d="M 9.90625 44.96875 
L 3.859375 44.96875 
L 3.859375 52.296875 
L 9.90625 52.296875 
L 9.90625 63.234375 
L 19.1875 66.796875 
L 19.1875 52.296875 
L 33.546875 52.296875 
L 33.546875 44.96875 
L 19.1875 44.96875 
L 19.1875 19 
Q 19.1875 12.40625 21.40625 9.625 
Q 23.640625 6.84375 28.5625 6.84375 
Q 32.125 6.84375 35.9375 8.640625 
L 37.3125 0.484375 
Q 31.546875 -0.984375 24.65625 -0.984375 
Q 18.453125 -0.984375 14.171875 3.625 
Q 9.90625 8.25 9.90625 15.28125 
z
" id="TrebuchetMS-116"/>
      <path d="M 38.8125 0 
L 38.8125 32.859375 
Q 38.8125 38.71875 35.9375 42.078125 
Q 33.0625 45.453125 27.828125 45.453125 
Q 24.46875 45.453125 21.0625 43.46875 
Q 17.671875 41.5 15.875 38.875 
L 15.875 0 
L 6.59375 0 
L 6.59375 73.734375 
L 15.875 73.734375 
L 15.875 46.53125 
Q 17.71875 49.421875 21.84375 51.34375 
Q 25.984375 53.265625 30.375 53.265625 
Q 38.671875 53.265625 43.375 47.796875 
Q 48.09375 42.328125 48.09375 32.859375 
L 48.09375 0 
z
" id="TrebuchetMS-104"/>
     </defs>
     <use xlink:href="#TrebuchetMS-98"/>
     <use x="55.712891" xlink:href="#TrebuchetMS-111"/>
     <use x="109.375" xlink:href="#TrebuchetMS-116"/>
     <use x="149.023438" xlink:href="#TrebuchetMS-104"/>
    </g>
    <!-- (n=16) -->
    <g transform="translate(20.378646 22.090341)scale(0.08 -0.08)">
     <use xlink:href="#TrebuchetMS-40"/>
     <use x="36.71875" xlink:href="#TrebuchetMS-110"/>
     <use x="91.357422" xlink:href="#TrebuchetMS-61"/>
     <use x="143.798828" xlink:href="#TrebuchetMS-49"/>
     <use x="196.240234" xlink:href="#TrebuchetMS-54"/>
     <use x="248.681641" xlink:href="#TrebuchetMS-41"/>
    </g>
   </g>
   <g id="text_6">
    <!-- 13% -->
    <g transform="translate(43.587995 33.55639)scale(0.08 -0.08)">
     <defs>
      <path d="M 5.328125 5.078125 
L 10.015625 12.59375 
Q 14.796875 7.328125 22.125 7.328125 
Q 35.6875 7.328125 35.6875 20.609375 
Q 35.6875 26.65625 31.734375 30.4375 
Q 27.78125 34.234375 21.234375 34.234375 
L 20.453125 34.234375 
L 20.453125 42.140625 
L 20.90625 42.140625 
Q 33.296875 42.140625 33.296875 53.078125 
Q 33.296875 64.5 21.625 64.5 
Q 15.28125 64.5 11.53125 60.25 
L 7.171875 66.890625 
Q 11.71875 72.796875 22.359375 72.796875 
Q 31.734375 72.796875 37.640625 67.796875 
Q 43.5625 62.796875 43.5625 54.984375 
Q 43.5625 49.03125 40.265625 44.4375 
Q 36.96875 39.84375 32.515625 38.28125 
Q 38.671875 36.28125 42.3125 31.46875 
Q 45.953125 26.65625 45.953125 19.828125 
Q 45.953125 9.859375 39.640625 4.4375 
Q 33.34375 -0.984375 21.96875 -0.984375 
Q 17.1875 -0.984375 12.59375 0.796875 
Q 8.015625 2.59375 5.328125 5.078125 
z
" id="TrebuchetMS-51"/>
     </defs>
     <use xlink:href="#TrebuchetMS-49"/>
     <use x="52.441406" xlink:href="#TrebuchetMS-51"/>
     <use x="104.882812" xlink:href="#TrebuchetMS-37"/>
    </g>
   </g>
  </g>
 </g>
</svg>
