<?xml version="1.0" encoding="utf-8" standalone="no"?>
<!DOCTYPE svg PUBLIC "-//W3C//DTD SVG 1.1//EN"
  "http://www.w3.org/Graphics/SVG/1.1/DTD/svg11.dtd">
<!-- Created with matplotlib (https://matplotlib.org/) -->
<svg height="115.34pt" version="1.1" viewBox="0 0 111.995 115.34" width="111.995pt" xmlns="http://www.w3.org/2000/svg" xmlns:xlink="http://www.w3.org/1999/xlink">
 <metadata>
  <rdf:RDF xmlns:cc="http://creativecommons.org/ns#" xmlns:dc="http://purl.org/dc/elements/1.1/" xmlns:rdf="http://www.w3.org/1999/02/22-rdf-syntax-ns#">
   <cc:Work>
    <dc:type rdf:resource="http://purl.org/dc/dcmitype/StillImage"/>
    <dc:date>2022-02-09T11:09:56.494466</dc:date>
    <dc:format>image/svg+xml</dc:format>
    <dc:creator>
     <cc:Agent>
      <dc:title>Matplotlib v3.3.2, https://matplotlib.org/</dc:title>
     </cc:Agent>
    </dc:creator>
   </cc:Work>
  </rdf:RDF>
 </metadata>
 <defs>
  <style type="text/css">*{stroke-linecap:butt;stroke-linejoin:round;}</style>
 </defs>
 <g id="figure_1">
  <g id="patch_1">
   <path d="M 0 115.34 
L 111.995 115.34 
L 111.995 0 
L 0 0 
z
" style="fill:none;"/>
  </g>
  <g id="axes_1">
   <g id="patch_2">
    <path d="M 18.395 93.6 
L 104.795 93.6 
L 104.795 7.2 
L 18.395 7.2 
z
" style="fill:#ffffff;"/>
   </g>
   <g id="PathCollection_1">
    <defs>
     <path d="M 0 0.774597 
C 0.205425 0.774597 0.402465 0.69298 0.547723 0.547723 
C 0.69298 0.402465 0.774597 0.205425 0.774597 0 
C 0.774597 -0.205425 0.69298 -0.402465 0.547723 -0.547723 
C 0.402465 -0.69298 0.205425 -0.774597 0 -0.774597 
C -0.205425 -0.774597 -0.402465 -0.69298 -0.547723 -0.547723 
C -0.69298 -0.402465 -0.774597 -0.205425 -0.774597 0 
C -0.774597 0.205425 -0.69298 0.402465 -0.547723 0.547723 
C -0.402465 0.69298 -0.205425 0.774597 0 0.774597 
z
" id="m04d4aec548" style="stroke:#000000;"/>
    </defs>
    <g clip-path="url(#pb00e22462f)">
     <use style="stroke:#000000;" x="22.322273" xlink:href="#m04d4aec548" y="89.672727"/>
    </g>
   </g>
   <g id="PathCollection_2">
    <defs>
     <path d="M 0 0.948683 
C 0.251594 0.948683 0.492917 0.848724 0.67082 0.67082 
C 0.848724 0.492917 0.948683 0.251594 0.948683 0 
C 0.948683 -0.251594 0.848724 -0.492917 0.67082 -0.67082 
C 0.492917 -0.848724 0.251594 -0.948683 0 -0.948683 
C -0.251594 -0.948683 -0.492917 -0.848724 -0.67082 -0.67082 
C -0.848724 -0.492917 -0.948683 -0.251594 -0.948683 0 
C -0.948683 0.251594 -0.848724 0.492917 -0.67082 0.67082 
C -0.492917 0.848724 -0.251594 0.948683 0 0.948683 
z
" id="m47b79f6557" style="stroke:#000000;"/>
    </defs>
    <g clip-path="url(#pb00e22462f)">
     <use style="stroke:#000000;" x="25.737292" xlink:href="#m47b79f6557" y="86.257708"/>
    </g>
   </g>
   <g id="PathCollection_3">
    <defs>
     <path d="M 0 1.224745 
C 0.324806 1.224745 0.636353 1.095698 0.866025 0.866025 
C 1.095698 0.636353 1.224745 0.324806 1.224745 0 
C 1.224745 -0.324806 1.095698 -0.636353 0.866025 -0.866025 
C 0.636353 -1.095698 0.324806 -1.224745 0 -1.224745 
C -0.324806 -1.224745 -0.636353 -1.095698 -0.866025 -0.866025 
C -1.095698 -0.636353 -1.224745 -0.324806 -1.224745 0 
C -1.224745 0.324806 -1.095698 0.636353 -0.866025 0.866025 
C -0.636353 1.095698 -0.324806 1.224745 0 1.224745 
z
" id="m33c2fdfe0b" style="stroke:#000000;"/>
    </defs>
    <g clip-path="url(#pb00e22462f)">
     <use style="stroke:#000000;" x="32.567332" xlink:href="#m33c2fdfe0b" y="79.427668"/>
    </g>
   </g>
   <g id="PathCollection_4">
    <defs>
     <path d="M 0 2.12132 
C 0.562581 2.12132 1.102195 1.897805 1.5 1.5 
C 1.897805 1.102195 2.12132 0.562581 2.12132 0 
C 2.12132 -0.562581 1.897805 -1.102195 1.5 -1.5 
C 1.102195 -1.897805 0.562581 -2.12132 0 -2.12132 
C -0.562581 -2.12132 -1.102195 -1.897805 -1.5 -1.5 
C -1.897805 -1.102195 -2.12132 -0.562581 -2.12132 0 
C -2.12132 0.562581 -1.897805 1.102195 -1.5 1.5 
C -1.102195 1.897805 -0.562581 2.12132 0 2.12132 
z
" id="mdaf46b82a6" style="stroke:#000000;"/>
    </defs>
    <g clip-path="url(#pb00e22462f)">
     <use style="stroke:#000000;" x="66.71753" xlink:href="#mdaf46b82a6" y="45.27747"/>
    </g>
   </g>
   <g id="PathCollection_5">
    <defs>
     <path d="M 0 2.738613 
C 0.726289 2.738613 1.422928 2.450055 1.936492 1.936492 
C 2.450055 1.422928 2.738613 0.726289 2.738613 0 
C 2.738613 -0.726289 2.450055 -1.422928 1.936492 -1.936492 
C 1.422928 -2.450055 0.726289 -2.738613 0 -2.738613 
C -0.726289 -2.738613 -1.422928 -2.450055 -1.936492 -1.936492 
C -2.450055 -1.422928 -2.738613 -0.726289 -2.738613 0 
C -2.738613 0.726289 -2.450055 1.422928 -1.936492 1.936492 
C -1.422928 2.450055 -0.726289 2.738613 0 2.738613 
z
" id="mcd9abd9c18" style="stroke:#000000;"/>
    </defs>
    <g clip-path="url(#pb00e22462f)">
     <use style="stroke:#000000;" x="100.867727" xlink:href="#mcd9abd9c18" y="11.127273"/>
    </g>
   </g>
   <g id="matplotlib.axis_1">
    <g id="xtick_1">
     <g id="line2d_1">
      <defs>
       <path d="M 0 0 
L 0 3.5 
" id="m6d6f2cdf0c" style="stroke:#000000;stroke-width:0.8;"/>
      </defs>
      <g>
       <use style="stroke:#000000;stroke-width:0.8;" x="49.642431" xlink:href="#m6d6f2cdf0c" y="93.6"/>
      </g>
     </g>
     <g id="text_1">
      <!-- 2 -->
      <g transform="translate(47.544931 106.49875)scale(0.08 -0.08)">
       <defs>
        <path d="M 3.375 0 
L 3.375 1.953125 
L 25.78125 36.28125 
Q 32.8125 47.078125 32.8125 54.59375 
Q 32.8125 64.5 21.625 64.5 
Q 17.671875 64.5 14.203125 62.421875 
Q 10.75 60.359375 9.1875 57.171875 
L 2.875 62.359375 
Q 4.546875 67.140625 9.40625 69.96875 
Q 14.265625 72.796875 21.140625 72.796875 
Q 31.453125 72.796875 37.25 68.03125 
Q 43.0625 63.28125 43.0625 54.59375 
Q 43.0625 46.53125 35.359375 34.28125 
L 19.28125 8.796875 
L 47.3125 8.796875 
L 47.3125 0 
z
" id="TrebuchetMS-50"/>
       </defs>
       <use xlink:href="#TrebuchetMS-50"/>
      </g>
     </g>
    </g>
    <g id="xtick_2">
     <g id="line2d_2">
      <g>
       <use style="stroke:#000000;stroke-width:0.8;" x="83.792628" xlink:href="#m6d6f2cdf0c" y="93.6"/>
      </g>
     </g>
     <g id="text_2">
      <!-- 4 -->
      <g transform="translate(81.695128 106.49875)scale(0.08 -0.08)">
       <defs>
        <path d="M 43.0625 19.484375 
L 43.0625 0 
L 33.796875 0 
L 33.796875 19.484375 
L 1.21875 19.484375 
L 1.21875 25.046875 
L 39.65625 71.828125 
L 43.0625 71.828125 
L 43.0625 27 
L 50.296875 27 
L 50.296875 19.484375 
z
M 33.796875 52.34375 
L 12.796875 27 
L 33.796875 27 
z
" id="TrebuchetMS-52"/>
       </defs>
       <use xlink:href="#TrebuchetMS-52"/>
      </g>
     </g>
    </g>
   </g>
   <g id="matplotlib.axis_2">
    <g id="ytick_1">
     <g id="line2d_3">
      <defs>
       <path d="M 0 0 
L -3.5 0 
" id="mbde4cdaae9" style="stroke:#000000;stroke-width:0.8;"/>
      </defs>
      <g>
       <use style="stroke:#000000;stroke-width:0.8;" x="18.395" xlink:href="#mbde4cdaae9" y="62.352569"/>
      </g>
     </g>
     <g id="text_3">
      <!-- 2 -->
      <g transform="translate(7.2 65.301944)scale(0.08 -0.08)">
       <use xlink:href="#TrebuchetMS-50"/>
      </g>
     </g>
    </g>
    <g id="ytick_2">
     <g id="line2d_4">
      <g>
       <use style="stroke:#000000;stroke-width:0.8;" x="18.395" xlink:href="#mbde4cdaae9" y="28.202372"/>
      </g>
     </g>
     <g id="text_4">
      <!-- 4 -->
      <g transform="translate(7.2 31.151747)scale(0.08 -0.08)">
       <use xlink:href="#TrebuchetMS-52"/>
      </g>
     </g>
    </g>
   </g>
   <g id="patch_3">
    <path d="M 18.395 93.6 
L 18.395 7.2 
" style="fill:none;stroke:#000000;stroke-linecap:square;stroke-linejoin:miter;stroke-width:0.8;"/>
   </g>
   <g id="patch_4">
    <path d="M 104.795 93.6 
L 104.795 7.2 
" style="fill:none;stroke:#000000;stroke-linecap:square;stroke-linejoin:miter;stroke-width:0.8;"/>
   </g>
   <g id="patch_5">
    <path d="M 18.395 93.6 
L 104.795 93.6 
" style="fill:none;stroke:#000000;stroke-linecap:square;stroke-linejoin:miter;stroke-width:0.8;"/>
   </g>
   <g id="patch_6">
    <path d="M 18.395 7.2 
L 104.795 7.2 
" style="fill:none;stroke:#000000;stroke-linecap:square;stroke-linejoin:miter;stroke-width:0.8;"/>
   </g>
   <g id="legend_1">
    <g id="patch_7">
     <path d="M 21.895 47.2625 
L 58.93875 47.2625 
Q 59.93875 47.2625 59.93875 46.2625 
L 59.93875 10.7 
Q 59.93875 9.7 58.93875 9.7 
L 21.895 9.7 
Q 20.895 9.7 20.895 10.7 
L 20.895 46.2625 
Q 20.895 47.2625 21.895 47.2625 
z
" style="fill:#ffffff;opacity:0.8;stroke:#cccccc;stroke-linejoin:miter;stroke-width:0.5;"/>
    </g>
    <g id="PathCollection_6">
     <g>
      <use style="stroke:#000000;" x="27.895" xlink:href="#m04d4aec548" y="14.074219"/>
     </g>
    </g>
    <g id="text_5">
     <!-- 0.4mm -->
     <g transform="translate(36.895 15.386719)scale(0.05 -0.05)">
      <defs>
       <path d="M 3.125 37.9375 
Q 3.125 53.375 9.375 63.078125 
Q 15.625 72.796875 26.953125 72.796875 
Q 38.1875 72.796875 43.828125 64.6875 
Q 49.46875 56.59375 49.46875 36.375 
Q 49.46875 19 43.546875 9 
Q 37.640625 -0.984375 26.265625 -0.984375 
Q 14.890625 -0.984375 9 7.078125 
Q 3.125 15.140625 3.125 37.9375 
z
M 12.890625 37.0625 
Q 12.890625 7.328125 25.59375 7.328125 
Q 32.859375 7.328125 36.28125 13.921875 
Q 39.703125 20.515625 39.703125 37.015625 
Q 39.703125 48.390625 38.375 53.703125 
Q 37.0625 59.03125 34.125 61.765625 
Q 31.203125 64.5 26.703125 64.5 
Q 12.890625 64.5 12.890625 37.0625 
z
" id="TrebuchetMS-48"/>
       <path d="M 17.28125 13.71875 
Q 20.3125 13.71875 22.453125 11.5625 
Q 24.609375 9.421875 24.609375 6.390625 
Q 24.609375 3.375 22.453125 1.1875 
Q 20.3125 -0.984375 17.28125 -0.984375 
Q 14.265625 -0.984375 12.109375 1.1875 
Q 9.96875 3.375 9.96875 6.390625 
Q 9.96875 9.421875 12.109375 11.5625 
Q 14.265625 13.71875 17.28125 13.71875 
z
" id="TrebuchetMS-46"/>
       <path d="M 67.140625 0 
L 67.140625 33.109375 
Q 67.140625 45.453125 56.453125 45.453125 
Q 53.078125 45.453125 50.140625 43.375 
Q 47.21875 41.3125 46.140625 38.671875 
L 46.140625 0 
L 36.859375 0 
L 36.859375 37.15625 
Q 36.859375 41.015625 33.953125 43.234375 
Q 31.0625 45.453125 26.265625 45.453125 
Q 23.484375 45.453125 20.328125 43.296875 
Q 17.1875 41.15625 15.875 38.578125 
L 15.875 0 
L 6.59375 0 
L 6.59375 52.296875 
L 12.640625 52.296875 
L 15.71875 46.234375 
Q 21.09375 53.265625 29.15625 53.265625 
Q 40.375 53.265625 44.875 46.296875 
Q 46.4375 49.265625 50.6875 51.265625 
Q 54.9375 53.265625 59.421875 53.265625 
Q 67.53125 53.265625 71.96875 48.453125 
Q 76.421875 43.65625 76.421875 34.96875 
L 76.421875 0 
z
" id="TrebuchetMS-109"/>
      </defs>
      <use xlink:href="#TrebuchetMS-48"/>
      <use x="52.441406" xlink:href="#TrebuchetMS-46"/>
      <use x="89.160156" xlink:href="#TrebuchetMS-52"/>
      <use x="141.601562" xlink:href="#TrebuchetMS-109"/>
      <use x="224.609375" xlink:href="#TrebuchetMS-109"/>
     </g>
    </g>
    <g id="PathCollection_7">
     <g>
      <use style="stroke:#000000;" x="27.895" xlink:href="#m47b79f6557" y="21.286719"/>
     </g>
    </g>
    <g id="text_6">
     <!-- 0.6mm -->
     <g transform="translate(36.895 22.599219)scale(0.05 -0.05)">
      <defs>
       <path d="M 32.8125 72.796875 
L 37.546875 67.578125 
Q 33.25 65.875 25.125 56.03125 
Q 17 46.1875 16.109375 40.875 
Q 20.171875 44.78125 27.390625 44.78125 
Q 36.859375 44.78125 42.578125 38.71875 
Q 48.296875 32.671875 48.296875 22.078125 
Q 48.296875 11.578125 42.40625 5.171875 
Q 36.53125 -1.21875 27.640625 -1.21875 
Q 4.109375 -1.21875 4.109375 29.984375 
Q 4.109375 42.96875 13.3125 56.5625 
Q 22.515625 70.171875 32.8125 72.796875 
z
M 14.359375 22.359375 
Q 14.359375 7.078125 26.90625 7.078125 
Q 32.171875 7.078125 35.21875 11.0625 
Q 38.28125 15.046875 38.28125 21.578125 
Q 38.28125 28.375 35.0625 32.421875 
Q 31.84375 36.46875 26.765625 36.46875 
Q 14.359375 36.46875 14.359375 22.359375 
z
" id="TrebuchetMS-54"/>
      </defs>
      <use xlink:href="#TrebuchetMS-48"/>
      <use x="52.441406" xlink:href="#TrebuchetMS-46"/>
      <use x="89.160156" xlink:href="#TrebuchetMS-54"/>
      <use x="141.601562" xlink:href="#TrebuchetMS-109"/>
      <use x="224.609375" xlink:href="#TrebuchetMS-109"/>
     </g>
    </g>
    <g id="PathCollection_8">
     <g>
      <use style="stroke:#000000;" x="27.895" xlink:href="#m33c2fdfe0b" y="28.499219"/>
     </g>
    </g>
    <g id="text_7">
     <!-- 1mm -->
     <g transform="translate(36.895 29.811719)scale(0.05 -0.05)">
      <defs>
       <path d="M 24.3125 0 
L 24.3125 54.828125 
L 9.765625 45.75 
L 9.765625 54.890625 
Q 15.28125 57.671875 21.5 62.546875 
Q 27.734375 67.4375 31.15625 71.828125 
L 34.078125 71.828125 
L 34.078125 0 
z
" id="TrebuchetMS-49"/>
      </defs>
      <use xlink:href="#TrebuchetMS-49"/>
      <use x="52.441406" xlink:href="#TrebuchetMS-109"/>
      <use x="135.449219" xlink:href="#TrebuchetMS-109"/>
     </g>
    </g>
    <g id="PathCollection_9">
     <g>
      <use style="stroke:#000000;" x="27.895" xlink:href="#mdaf46b82a6" y="35.711719"/>
     </g>
    </g>
    <g id="text_8">
     <!-- half OB -->
     <g transform="translate(36.895 37.024219)scale(0.05 -0.05)">
      <defs>
       <path d="M 38.8125 0 
L 38.8125 32.859375 
Q 38.8125 38.71875 35.9375 42.078125 
Q 33.0625 45.453125 27.828125 45.453125 
Q 24.46875 45.453125 21.0625 43.46875 
Q 17.671875 41.5 15.875 38.875 
L 15.875 0 
L 6.59375 0 
L 6.59375 73.734375 
L 15.875 73.734375 
L 15.875 46.53125 
Q 17.71875 49.421875 21.84375 51.34375 
Q 25.984375 53.265625 30.375 53.265625 
Q 38.671875 53.265625 43.375 47.796875 
Q 48.09375 42.328125 48.09375 32.859375 
L 48.09375 0 
z
" id="TrebuchetMS-104"/>
       <path d="M 36.140625 6 
Q 30.5625 -0.984375 19.09375 -0.984375 
Q 12.9375 -0.984375 8.421875 3.484375 
Q 3.90625 7.953125 3.90625 14.59375 
Q 3.90625 22.5625 10.859375 28.046875 
Q 17.828125 33.546875 28.609375 33.546875 
Q 31.546875 33.546875 35.25 32.28125 
Q 35.25 44.96875 23.921875 44.96875 
Q 15.234375 44.96875 10.546875 40.28125 
L 6.640625 48.046875 
Q 9.28125 50.203125 13.9375 51.734375 
Q 18.609375 53.265625 22.859375 53.265625 
Q 34.234375 53.265625 39.375 48.09375 
Q 44.53125 42.921875 44.53125 31.640625 
L 44.53125 12.890625 
Q 44.53125 6 48.640625 3.71875 
L 48.640625 -0.921875 
Q 42.96875 -0.921875 40.15625 0.6875 
Q 37.359375 2.296875 36.140625 6 
z
M 35.25 25.6875 
Q 30.859375 26.65625 29.109375 26.65625 
Q 22.078125 26.65625 17.625 23.046875 
Q 13.1875 19.4375 13.1875 14.5 
Q 13.1875 6.34375 22.796875 6.34375 
Q 29.828125 6.34375 35.25 13.03125 
z
" id="TrebuchetMS-97"/>
       <path d="M 7.328125 14.796875 
L 7.328125 73.734375 
L 16.609375 73.734375 
L 16.609375 16.359375 
Q 16.609375 12.15625 19.015625 9.734375 
Q 21.4375 7.328125 25.34375 7.328125 
L 25.34375 -0.984375 
Q 7.328125 -0.984375 7.328125 14.796875 
z
" id="TrebuchetMS-108"/>
       <path d="M 34.859375 65.4375 
Q 32.03125 66.40625 29.59375 66.40625 
Q 25.34375 66.40625 22.578125 63.1875 
Q 19.828125 59.96875 19.828125 55.03125 
Q 19.828125 53.71875 20.0625 52.296875 
L 30.71875 52.296875 
L 30.71875 44.484375 
L 20.0625 44.484375 
L 20.0625 0 
L 10.796875 0 
L 10.796875 44.484375 
L 3.171875 44.484375 
L 3.171875 52.296875 
L 10.796875 52.296875 
Q 10.796875 62.3125 15.71875 68.015625 
Q 20.65625 73.734375 28.765625 73.734375 
Q 32.8125 73.734375 37.453125 72.265625 
z
" id="TrebuchetMS-102"/>
       <path id="TrebuchetMS-32"/>
       <path d="M 3.90625 36.375 
Q 3.90625 51.90625 11.6875 62.34375 
Q 19.484375 72.796875 32.71875 72.796875 
Q 47.609375 72.796875 55.546875 63.171875 
Q 63.484375 53.5625 63.484375 36.375 
Q 63.484375 18.75 55.515625 8.765625 
Q 47.5625 -1.21875 32.71875 -1.21875 
Q 19.1875 -1.21875 11.546875 9.328125 
Q 3.90625 19.875 3.90625 36.375 
z
M 14.15625 36.375 
Q 14.15625 24.078125 19.015625 15.8125 
Q 23.875 7.5625 32.71875 7.5625 
Q 42.71875 7.5625 47.96875 15.125 
Q 53.21875 22.703125 53.21875 36.375 
Q 53.21875 64.015625 32.71875 64.015625 
Q 23.640625 64.015625 18.890625 56.59375 
Q 14.15625 49.171875 14.15625 36.375 
z
" id="TrebuchetMS-79"/>
       <path d="M 27.734375 0 
L 7.328125 0 
L 7.328125 71.53125 
Q 20.359375 72.171875 26.125 72.171875 
Q 36.71875 72.171875 42.53125 67.59375 
Q 48.34375 63.03125 48.34375 54.546875 
Q 48.34375 49.5625 44.625 45.453125 
Q 40.921875 41.359375 36.421875 40.328125 
Q 44.921875 38.28125 48.796875 33.546875 
Q 52.6875 28.8125 52.6875 20.65625 
Q 52.6875 11.234375 45.78125 5.609375 
Q 38.875 0 27.734375 0 
z
M 17.09375 63.71875 
L 17.09375 43.171875 
Q 20.171875 42.875 24.703125 42.875 
Q 38.578125 42.875 38.578125 54.15625 
Q 38.578125 64.0625 25.828125 64.0625 
Q 20.953125 64.0625 17.09375 63.71875 
z
M 17.09375 35.59375 
L 17.09375 8.296875 
Q 22.125 7.8125 24.8125 7.8125 
Q 33.984375 7.8125 38.203125 11.25 
Q 42.4375 14.703125 42.4375 22.21875 
Q 42.4375 29.203125 38.40625 32.515625 
Q 34.375 35.84375 24.953125 35.84375 
z
" id="TrebuchetMS-66"/>
      </defs>
      <use xlink:href="#TrebuchetMS-104"/>
      <use x="54.638672" xlink:href="#TrebuchetMS-97"/>
      <use x="107.177734" xlink:href="#TrebuchetMS-108"/>
      <use x="136.669922" xlink:href="#TrebuchetMS-102"/>
      <use x="173.632812" xlink:href="#TrebuchetMS-32"/>
      <use x="203.759766" xlink:href="#TrebuchetMS-79"/>
      <use x="271.142578" xlink:href="#TrebuchetMS-66"/>
     </g>
    </g>
    <g id="PathCollection_10">
     <g>
      <use style="stroke:#000000;" x="27.895" xlink:href="#mcd9abd9c18" y="42.924219"/>
     </g>
    </g>
    <g id="text_9">
     <!-- whole OB -->
     <g transform="translate(36.895 44.236719)scale(0.05 -0.05)">
      <defs>
       <path d="M 54.9375 -0.984375 
L 52.484375 -0.984375 
L 37.15625 34.625 
L 21.875 -0.984375 
L 19.4375 -0.984375 
L 0.734375 52.4375 
L 10.640625 52.4375 
L 21.828125 18.109375 
L 35.75 52.4375 
L 38.1875 52.4375 
L 52.546875 18.109375 
L 64.546875 52.4375 
L 73.6875 52.4375 
z
" id="TrebuchetMS-119"/>
       <path d="M 3.171875 26.265625 
Q 3.171875 38.375 9.6875 45.8125 
Q 16.21875 53.265625 26.859375 53.265625 
Q 38.09375 53.265625 44.28125 46.109375 
Q 50.484375 38.96875 50.484375 26.265625 
Q 50.484375 13.625 44.140625 6.3125 
Q 37.796875 -0.984375 26.859375 -0.984375 
Q 15.671875 -0.984375 9.421875 6.390625 
Q 3.171875 13.765625 3.171875 26.265625 
z
M 12.9375 26.265625 
Q 12.9375 6.59375 26.859375 6.59375 
Q 33.34375 6.59375 37.03125 11.859375 
Q 40.71875 17.140625 40.71875 26.265625 
Q 40.71875 45.703125 26.859375 45.703125 
Q 20.515625 45.703125 16.71875 40.53125 
Q 12.9375 35.359375 12.9375 26.265625 
z
" id="TrebuchetMS-111"/>
       <path d="M 50.640625 25.25 
L 12.9375 25.25 
Q 12.9375 16.0625 17.96875 11.140625 
Q 22.40625 6.84375 29.390625 6.84375 
Q 37.359375 6.84375 42.671875 11.46875 
L 46.578125 4.78125 
Q 44.4375 2.640625 39.984375 1.078125 
Q 34.421875 -0.984375 27.59375 -0.984375 
Q 17.71875 -0.984375 10.84375 5.71875 
Q 3.171875 13.09375 3.171875 25.53125 
Q 3.171875 38.484375 11.03125 46.296875 
Q 18.0625 53.265625 27.6875 53.265625 
Q 38.875 53.265625 45.21875 46.96875 
Q 51.375 40.921875 51.375 30.90625 
Q 51.375 27.828125 50.640625 25.25 
z
M 28.125 45.453125 
Q 21.921875 45.453125 17.71875 41.453125 
Q 13.71875 37.640625 13.1875 31.984375 
L 42.140625 31.984375 
Q 42.140625 37.59375 38.625 41.359375 
Q 34.765625 45.453125 28.125 45.453125 
z
" id="TrebuchetMS-101"/>
      </defs>
      <use xlink:href="#TrebuchetMS-119"/>
      <use x="74.414062" xlink:href="#TrebuchetMS-104"/>
      <use x="129.052734" xlink:href="#TrebuchetMS-111"/>
      <use x="182.714844" xlink:href="#TrebuchetMS-108"/>
      <use x="212.207031" xlink:href="#TrebuchetMS-101"/>
      <use x="266.748047" xlink:href="#TrebuchetMS-32"/>
      <use x="296.875" xlink:href="#TrebuchetMS-79"/>
      <use x="364.257812" xlink:href="#TrebuchetMS-66"/>
     </g>
    </g>
   </g>
  </g>
 </g>
 <defs>
  <clipPath id="pb00e22462f">
   <rect height="86.4" width="86.4" x="18.395" y="7.2"/>
  </clipPath>
 </defs>
</svg>
