<?xml version="1.0" encoding="utf-8" standalone="no"?>
<!DOCTYPE svg PUBLIC "-//W3C//DTD SVG 1.1//EN"
  "http://www.w3.org/Graphics/SVG/1.1/DTD/svg11.dtd">
<!-- Created with matplotlib (https://matplotlib.org/) -->
<svg height="126.88pt" version="1.1" viewBox="0 0 126.88 126.88" width="126.88pt" xmlns="http://www.w3.org/2000/svg" xmlns:xlink="http://www.w3.org/1999/xlink">
 <metadata>
  <rdf:RDF xmlns:cc="http://creativecommons.org/ns#" xmlns:dc="http://purl.org/dc/elements/1.1/" xmlns:rdf="http://www.w3.org/1999/02/22-rdf-syntax-ns#">
   <cc:Work>
    <dc:type rdf:resource="http://purl.org/dc/dcmitype/StillImage"/>
    <dc:date>2022-02-09T11:08:11.037566</dc:date>
    <dc:format>image/svg+xml</dc:format>
    <dc:creator>
     <cc:Agent>
      <dc:title>Matplotlib v3.3.2, https://matplotlib.org/</dc:title>
     </cc:Agent>
    </dc:creator>
   </cc:Work>
  </rdf:RDF>
 </metadata>
 <defs>
  <style type="text/css">*{stroke-linecap:butt;stroke-linejoin:round;}</style>
 </defs>
 <g id="figure_1">
  <g id="patch_1">
   <path d="M 0 126.88 
L 126.88 126.88 
L 126.88 0 
L 0 0 
z
" style="fill:none;"/>
  </g>
  <g id="axes_1">
   <g id="patch_2">
    <path d="M 33.28 93.6 
L 119.68 93.6 
L 119.68 7.2 
L 33.28 7.2 
z
" style="fill:#ffffff;"/>
   </g>
   <g id="QuadMesh_1">
    <path clip-path="url(#pc60ae93ddc)" d="M 33.28 7.2 
L 54.88 7.2 
L 54.88 28.8 
L 33.28 28.8 
L 33.28 7.2 
" style="fill:#94c4df;stroke:#000000;stroke-width:0.5;"/>
    <path clip-path="url(#pc60ae93ddc)" d="M 54.88 7.2 
L 76.48 7.2 
L 76.48 28.8 
L 54.88 28.8 
L 54.88 7.2 
" style="fill:none;stroke:#000000;stroke-width:0.5;"/>
    <path clip-path="url(#pc60ae93ddc)" d="M 76.48 7.2 
L 98.08 7.2 
L 98.08 28.8 
L 76.48 28.8 
L 76.48 7.2 
" style="fill:none;stroke:#000000;stroke-width:0.5;"/>
    <path clip-path="url(#pc60ae93ddc)" d="M 98.08 7.2 
L 119.68 7.2 
L 119.68 28.8 
L 98.08 28.8 
L 98.08 7.2 
" style="fill:none;stroke:#000000;stroke-width:0.5;"/>
    <path clip-path="url(#pc60ae93ddc)" d="M 33.28 28.8 
L 54.88 28.8 
L 54.88 50.4 
L 33.28 50.4 
L 33.28 28.8 
" style="fill:#94c4df;stroke:#000000;stroke-width:0.5;"/>
    <path clip-path="url(#pc60ae93ddc)" d="M 54.88 28.8 
L 76.48 28.8 
L 76.48 50.4 
L 54.88 50.4 
L 54.88 28.8 
" style="fill:none;stroke:#000000;stroke-width:0.5;"/>
    <path clip-path="url(#pc60ae93ddc)" d="M 76.48 28.8 
L 98.08 28.8 
L 98.08 50.4 
L 76.48 50.4 
L 76.48 28.8 
" style="fill:#2474b7;stroke:#000000;stroke-width:0.5;"/>
    <path clip-path="url(#pc60ae93ddc)" d="M 98.08 28.8 
L 119.68 28.8 
L 119.68 50.4 
L 98.08 50.4 
L 98.08 28.8 
" style="fill:none;stroke:#000000;stroke-width:0.5;"/>
    <path clip-path="url(#pc60ae93ddc)" d="M 33.28 50.4 
L 54.88 50.4 
L 54.88 72 
L 33.28 72 
L 33.28 50.4 
" style="fill:#08306b;stroke:#000000;stroke-width:0.5;"/>
    <path clip-path="url(#pc60ae93ddc)" d="M 54.88 50.4 
L 76.48 50.4 
L 76.48 72 
L 54.88 72 
L 54.88 50.4 
" style="fill:none;stroke:#000000;stroke-width:0.5;"/>
    <path clip-path="url(#pc60ae93ddc)" d="M 76.48 50.4 
L 98.08 50.4 
L 98.08 72 
L 76.48 72 
L 76.48 50.4 
" style="fill:none;stroke:#000000;stroke-width:0.5;"/>
    <path clip-path="url(#pc60ae93ddc)" d="M 98.08 50.4 
L 119.68 50.4 
L 119.68 72 
L 98.08 72 
L 98.08 50.4 
" style="fill:none;stroke:#000000;stroke-width:0.5;"/>
    <path clip-path="url(#pc60ae93ddc)" d="M 33.28 72 
L 54.88 72 
L 54.88 93.6 
L 33.28 93.6 
L 33.28 72 
" style="fill:none;stroke:#000000;stroke-width:0.5;"/>
    <path clip-path="url(#pc60ae93ddc)" d="M 54.88 72 
L 76.48 72 
L 76.48 93.6 
L 54.88 93.6 
L 54.88 72 
" style="fill:#08306b;stroke:#000000;stroke-width:0.5;"/>
    <path clip-path="url(#pc60ae93ddc)" d="M 76.48 72 
L 98.08 72 
L 98.08 93.6 
L 76.48 93.6 
L 76.48 72 
" style="fill:#08306b;stroke:#000000;stroke-width:0.5;"/>
    <path clip-path="url(#pc60ae93ddc)" d="M 98.08 72 
L 119.68 72 
L 119.68 93.6 
L 98.08 93.6 
L 98.08 72 
" style="fill:#08306b;stroke:#000000;stroke-width:0.5;"/>
   </g>
   <g id="matplotlib.axis_1">
    <g id="xtick_1">
     <g id="line2d_1">
      <defs>
       <path d="M 0 0 
L 0 3.5 
" id="mef26d22dd3" style="stroke:#000000;stroke-width:0.8;"/>
      </defs>
      <g>
       <use style="stroke:#000000;stroke-width:0.8;" x="44.08" xlink:href="#mef26d22dd3" y="93.6"/>
      </g>
     </g>
     <g id="text_1">
      <!-- 0 -->
      <g transform="translate(41.9825 106.49875)scale(0.08 -0.08)">
       <defs>
        <path d="M 3.125 37.9375 
Q 3.125 53.375 9.375 63.078125 
Q 15.625 72.796875 26.953125 72.796875 
Q 38.1875 72.796875 43.828125 64.6875 
Q 49.46875 56.59375 49.46875 36.375 
Q 49.46875 19 43.546875 9 
Q 37.640625 -0.984375 26.265625 -0.984375 
Q 14.890625 -0.984375 9 7.078125 
Q 3.125 15.140625 3.125 37.9375 
z
M 12.890625 37.0625 
Q 12.890625 7.328125 25.59375 7.328125 
Q 32.859375 7.328125 36.28125 13.921875 
Q 39.703125 20.515625 39.703125 37.015625 
Q 39.703125 48.390625 38.375 53.703125 
Q 37.0625 59.03125 34.125 61.765625 
Q 31.203125 64.5 26.703125 64.5 
Q 12.890625 64.5 12.890625 37.0625 
z
" id="TrebuchetMS-48"/>
       </defs>
       <use xlink:href="#TrebuchetMS-48"/>
      </g>
     </g>
    </g>
    <g id="xtick_2">
     <g id="line2d_2">
      <g>
       <use style="stroke:#000000;stroke-width:0.8;" x="65.68" xlink:href="#mef26d22dd3" y="93.6"/>
      </g>
     </g>
     <g id="text_2">
      <!-- 1 -->
      <g transform="translate(63.5825 106.49875)scale(0.08 -0.08)">
       <defs>
        <path d="M 24.3125 0 
L 24.3125 54.828125 
L 9.765625 45.75 
L 9.765625 54.890625 
Q 15.28125 57.671875 21.5 62.546875 
Q 27.734375 67.4375 31.15625 71.828125 
L 34.078125 71.828125 
L 34.078125 0 
z
" id="TrebuchetMS-49"/>
       </defs>
       <use xlink:href="#TrebuchetMS-49"/>
      </g>
     </g>
    </g>
    <g id="xtick_3">
     <g id="line2d_3">
      <g>
       <use style="stroke:#000000;stroke-width:0.8;" x="87.28" xlink:href="#mef26d22dd3" y="93.6"/>
      </g>
     </g>
     <g id="text_3">
      <!-- 2.5 -->
      <g transform="translate(81.61625 106.49875)scale(0.08 -0.08)">
       <defs>
        <path d="M 3.375 0 
L 3.375 1.953125 
L 25.78125 36.28125 
Q 32.8125 47.078125 32.8125 54.59375 
Q 32.8125 64.5 21.625 64.5 
Q 17.671875 64.5 14.203125 62.421875 
Q 10.75 60.359375 9.1875 57.171875 
L 2.875 62.359375 
Q 4.546875 67.140625 9.40625 69.96875 
Q 14.265625 72.796875 21.140625 72.796875 
Q 31.453125 72.796875 37.25 68.03125 
Q 43.0625 63.28125 43.0625 54.59375 
Q 43.0625 46.53125 35.359375 34.28125 
L 19.28125 8.796875 
L 47.3125 8.796875 
L 47.3125 0 
z
" id="TrebuchetMS-50"/>
        <path d="M 17.28125 13.71875 
Q 20.3125 13.71875 22.453125 11.5625 
Q 24.609375 9.421875 24.609375 6.390625 
Q 24.609375 3.375 22.453125 1.1875 
Q 20.3125 -0.984375 17.28125 -0.984375 
Q 14.265625 -0.984375 12.109375 1.1875 
Q 9.96875 3.375 9.96875 6.390625 
Q 9.96875 9.421875 12.109375 11.5625 
Q 14.265625 13.71875 17.28125 13.71875 
z
" id="TrebuchetMS-46"/>
        <path d="M 11.328125 34.90625 
L 8.015625 37.203125 
L 8.015625 71.828125 
L 43.609375 71.828125 
L 43.609375 63.53125 
L 17.28125 63.53125 
L 17.28125 46.140625 
Q 20.90625 48.828125 26.46875 48.828125 
Q 36.421875 48.828125 41.671875 42.875 
Q 46.921875 36.921875 46.921875 25.921875 
Q 46.921875 -0.984375 22.953125 -0.984375 
Q 12.9375 -0.984375 6.34375 4.59375 
L 10.109375 12.75 
Q 16.75 7.328125 22.90625 7.328125 
Q 36.671875 7.328125 36.671875 24.515625 
Q 36.671875 40.53125 23.09375 40.53125 
Q 16.546875 40.53125 11.328125 34.90625 
z
" id="TrebuchetMS-53"/>
       </defs>
       <use xlink:href="#TrebuchetMS-50"/>
       <use x="52.441406" xlink:href="#TrebuchetMS-46"/>
       <use x="89.160156" xlink:href="#TrebuchetMS-53"/>
      </g>
     </g>
    </g>
    <g id="xtick_4">
     <g id="line2d_4">
      <g>
       <use style="stroke:#000000;stroke-width:0.8;" x="108.88" xlink:href="#mef26d22dd3" y="93.6"/>
      </g>
     </g>
     <g id="text_4">
      <!-- 4 -->
      <g transform="translate(106.7825 106.49875)scale(0.08 -0.08)">
       <defs>
        <path d="M 43.0625 19.484375 
L 43.0625 0 
L 33.796875 0 
L 33.796875 19.484375 
L 1.21875 19.484375 
L 1.21875 25.046875 
L 39.65625 71.828125 
L 43.0625 71.828125 
L 43.0625 27 
L 50.296875 27 
L 50.296875 19.484375 
z
M 33.796875 52.34375 
L 12.796875 27 
L 33.796875 27 
z
" id="TrebuchetMS-52"/>
       </defs>
       <use xlink:href="#TrebuchetMS-52"/>
      </g>
     </g>
    </g>
    <g id="text_5">
     <!-- PFA (%) -->
     <g transform="translate(63.8925 118.0075)scale(0.08 -0.08)">
      <defs>
       <path d="M 17.09375 27.546875 
L 17.09375 0 
L 7.328125 0 
L 7.328125 71.53125 
Q 18.40625 72.015625 20.703125 72.015625 
Q 51.859375 72.015625 51.859375 51.171875 
Q 51.859375 27.046875 24.3125 27.046875 
Q 22.65625 27.046875 17.09375 27.546875 
z
M 17.09375 62.75 
L 17.09375 36.328125 
Q 23.296875 35.84375 23.640625 35.84375 
Q 41.796875 35.84375 41.796875 50.140625 
Q 41.796875 63.234375 22.40625 63.234375 
Q 20.453125 63.234375 17.09375 62.75 
z
" id="TrebuchetMS-80"/>
       <path d="M 17.09375 62.75 
L 17.09375 42.875 
L 42.234375 42.875 
L 42.234375 34.578125 
L 17.09375 34.578125 
L 17.09375 0 
L 7.328125 0 
L 7.328125 71.53125 
L 51.515625 71.53125 
L 51.515625 62.75 
z
" id="TrebuchetMS-70"/>
       <path d="M 47.953125 0 
L 43.015625 15.09375 
L 16.40625 15.09375 
L 11.140625 0 
L 0.203125 0 
L 29.25 72.515625 
L 31.84375 72.515625 
L 58.796875 0 
z
M 30.078125 53.765625 
L 19 22.265625 
L 40.234375 22.265625 
z
" id="TrebuchetMS-65"/>
       <path id="TrebuchetMS-32"/>
       <path d="M 30.171875 72.015625 
L 30.171875 67.96875 
Q 20.515625 54 20.515625 27.203125 
Q 20.515625 -4.640625 30.171875 -15.765625 
L 30.171875 -20.90625 
Q 20.3125 -14.015625 14.859375 -1.140625 
Q 9.421875 11.71875 9.421875 27.296875 
Q 9.421875 40.578125 15.625 54.125 
Q 21.828125 67.671875 30.171875 72.015625 
z
" id="TrebuchetMS-40"/>
       <path d="M 10.640625 -0.984375 
L 4.4375 -0.984375 
L 47.5625 72.796875 
L 53.71875 72.796875 
z
M 2.984375 56.734375 
Q 2.984375 63.921875 6.9375 68.359375 
Q 10.890625 72.796875 17 72.796875 
Q 23 72.796875 26.578125 68.40625 
Q 30.171875 64.015625 30.171875 55.8125 
Q 30.171875 48.1875 26.359375 43.71875 
Q 22.5625 39.265625 16.546875 39.265625 
Q 2.984375 39.265625 2.984375 56.734375 
z
M 9.125 56.25 
Q 9.125 50.53125 11.046875 47.375 
Q 12.984375 44.234375 16.109375 44.234375 
Q 24.03125 44.234375 24.03125 56.203125 
Q 24.03125 67.828125 16.84375 67.828125 
Q 13.28125 67.828125 11.203125 64.703125 
Q 9.125 61.578125 9.125 56.25 
z
M 29.34375 16.5 
Q 29.34375 23.6875 33.296875 28.125 
Q 37.25 32.5625 43.359375 32.5625 
Q 49.359375 32.5625 52.953125 28.171875 
Q 56.546875 23.78125 56.546875 15.578125 
Q 56.546875 7.953125 52.734375 3.484375 
Q 48.921875 -0.984375 42.921875 -0.984375 
Q 29.34375 -0.984375 29.34375 16.5 
z
M 35.5 16.015625 
Q 35.5 10.296875 37.421875 7.140625 
Q 39.359375 4 42.484375 4 
Q 50.390625 4 50.390625 15.96875 
Q 50.390625 27.59375 43.21875 27.59375 
Q 39.65625 27.59375 37.578125 24.46875 
Q 35.5 21.34375 35.5 16.015625 
z
" id="TrebuchetMS-37"/>
       <path d="M 9.421875 -20.90625 
L 9.421875 -15.765625 
Q 19.09375 -4.640625 19.09375 27.203125 
Q 19.09375 54 9.421875 67.96875 
L 9.421875 72.015625 
Q 17.78125 67.671875 23.96875 54.125 
Q 30.171875 40.578125 30.171875 27.296875 
Q 30.171875 11.71875 24.71875 -1.140625 
Q 19.28125 -14.015625 9.421875 -20.90625 
z
" id="TrebuchetMS-41"/>
      </defs>
      <use xlink:href="#TrebuchetMS-80"/>
      <use x="55.761719" xlink:href="#TrebuchetMS-70"/>
      <use x="97.626953" xlink:href="#TrebuchetMS-65"/>
      <use x="151.111328" xlink:href="#TrebuchetMS-32"/>
      <use x="181.238281" xlink:href="#TrebuchetMS-40"/>
      <use x="217.957031" xlink:href="#TrebuchetMS-37"/>
      <use x="277.966797" xlink:href="#TrebuchetMS-41"/>
     </g>
    </g>
   </g>
   <g id="matplotlib.axis_2">
    <g id="ytick_1">
     <g id="line2d_5">
      <defs>
       <path d="M 0 0 
L -3.5 0 
" id="m815f744c0a" style="stroke:#000000;stroke-width:0.8;"/>
      </defs>
      <g>
       <use style="stroke:#000000;stroke-width:0.8;" x="33.28" xlink:href="#m815f744c0a" y="18"/>
      </g>
     </g>
     <g id="text_6">
      <!-- 2 -->
      <g transform="translate(24.63875 19.245625)rotate(-90)scale(0.08 -0.08)">
       <use xlink:href="#TrebuchetMS-50"/>
      </g>
     </g>
    </g>
    <g id="ytick_2">
     <g id="line2d_6">
      <g>
       <use style="stroke:#000000;stroke-width:0.8;" x="33.28" xlink:href="#m815f744c0a" y="39.6"/>
      </g>
     </g>
     <g id="text_7">
      <!-- 1.25 -->
      <g transform="translate(24.63875 52.173125)rotate(-90)scale(0.08 -0.08)">
       <use xlink:href="#TrebuchetMS-49"/>
       <use x="52.441406" xlink:href="#TrebuchetMS-46"/>
       <use x="89.160156" xlink:href="#TrebuchetMS-50"/>
       <use x="141.601562" xlink:href="#TrebuchetMS-53"/>
      </g>
     </g>
    </g>
    <g id="ytick_3">
     <g id="line2d_7">
      <g>
       <use style="stroke:#000000;stroke-width:0.8;" x="33.28" xlink:href="#m815f744c0a" y="61.2"/>
      </g>
     </g>
     <g id="text_8">
      <!-- 0.5 -->
      <g transform="translate(24.63875 69.578125)rotate(-90)scale(0.08 -0.08)">
       <use xlink:href="#TrebuchetMS-48"/>
       <use x="52.441406" xlink:href="#TrebuchetMS-46"/>
       <use x="89.160156" xlink:href="#TrebuchetMS-53"/>
      </g>
     </g>
    </g>
    <g id="ytick_4">
     <g id="line2d_8">
      <g>
       <use style="stroke:#000000;stroke-width:0.8;" x="33.28" xlink:href="#m815f744c0a" y="82.8"/>
      </g>
     </g>
     <g id="text_9">
      <!-- 0 -->
      <g transform="translate(24.63875 84.045625)rotate(-90)scale(0.08 -0.08)">
       <use xlink:href="#TrebuchetMS-48"/>
      </g>
     </g>
    </g>
    <g id="text_10">
     <!-- GA (%) -->
     <g transform="translate(13.0675 61.7875)rotate(-90)scale(0.08 -0.08)">
      <defs>
       <path d="M 56.890625 66.546875 
L 52.828125 58.5 
Q 45.453125 63.96875 38.375 63.96875 
Q 27.15625 63.96875 20.65625 56.046875 
Q 14.15625 48.140625 14.15625 35.109375 
Q 14.15625 22.703125 20.53125 15.125 
Q 26.90625 7.5625 37.890625 7.5625 
Q 45.703125 7.5625 50.53125 12.25 
L 50.53125 29 
L 40.625 29 
L 40.625 37.3125 
L 60.296875 37.3125 
L 60.296875 6.15625 
Q 56.390625 2.828125 49.40625 0.796875 
Q 42.4375 -1.21875 35.84375 -1.21875 
Q 21.046875 -1.21875 12.46875 8.8125 
Q 3.90625 18.84375 3.90625 35.5 
Q 3.90625 52.09375 13.296875 62.421875 
Q 22.703125 72.75 38.671875 72.75 
Q 49.859375 72.75 56.890625 66.546875 
z
" id="TrebuchetMS-71"/>
      </defs>
      <use xlink:href="#TrebuchetMS-71"/>
      <use x="67.626953" xlink:href="#TrebuchetMS-65"/>
      <use x="121.111328" xlink:href="#TrebuchetMS-32"/>
      <use x="151.238281" xlink:href="#TrebuchetMS-40"/>
      <use x="187.957031" xlink:href="#TrebuchetMS-37"/>
      <use x="247.966797" xlink:href="#TrebuchetMS-41"/>
     </g>
    </g>
   </g>
   <g id="patch_3">
    <path d="M 33.28 93.6 
L 33.28 7.2 
" style="fill:none;stroke:#000000;stroke-linecap:square;stroke-linejoin:miter;"/>
   </g>
   <g id="patch_4">
    <path d="M 119.68 93.6 
L 119.68 7.2 
" style="fill:none;stroke:#000000;stroke-linecap:square;stroke-linejoin:miter;"/>
   </g>
   <g id="patch_5">
    <path d="M 33.28 93.6 
L 119.68 93.6 
" style="fill:none;stroke:#000000;stroke-linecap:square;stroke-linejoin:miter;"/>
   </g>
   <g id="patch_6">
    <path d="M 33.28 7.2 
L 119.68 7.2 
" style="fill:none;stroke:#000000;stroke-linecap:square;stroke-linejoin:miter;"/>
   </g>
   <g id="text_11">
    <!-- 40 -->
    <g style="fill:#ffffff;" transform="translate(39.885 20.12875)scale(0.08 -0.08)">
     <use xlink:href="#TrebuchetMS-52"/>
     <use x="52.441406" xlink:href="#TrebuchetMS-48"/>
    </g>
   </g>
   <g id="text_12">
    <!-- 40 -->
    <g style="fill:#ffffff;" transform="translate(39.885 41.72875)scale(0.08 -0.08)">
     <use xlink:href="#TrebuchetMS-52"/>
     <use x="52.441406" xlink:href="#TrebuchetMS-48"/>
    </g>
   </g>
   <g id="text_13">
    <!-- 74 -->
    <g style="fill:#ffffff;" transform="translate(83.085 41.72875)scale(0.08 -0.08)">
     <defs>
      <path d="M 20.90625 0 
L 10.0625 0 
Q 13.671875 11.46875 22.21875 30.34375 
Q 30.765625 49.21875 37.84375 62.546875 
L 4.109375 62.546875 
L 4.109375 71.828125 
L 50.484375 71.828125 
L 50.484375 68.015625 
L 44.1875 55.609375 
Q 41.015625 49.3125 37.546875 41.796875 
Q 34.078125 34.28125 30.75 26.46875 
Q 27.4375 18.65625 24.953125 11.96875 
Q 22.46875 5.28125 20.90625 0 
z
" id="TrebuchetMS-55"/>
     </defs>
     <use xlink:href="#TrebuchetMS-55"/>
     <use x="52.441406" xlink:href="#TrebuchetMS-52"/>
    </g>
   </g>
   <g id="text_14">
    <!-- 100 -->
    <g style="fill:#ffffff;" transform="translate(37.7875 63.32875)scale(0.08 -0.08)">
     <use xlink:href="#TrebuchetMS-49"/>
     <use x="52.441406" xlink:href="#TrebuchetMS-48"/>
     <use x="104.882812" xlink:href="#TrebuchetMS-48"/>
    </g>
   </g>
   <g id="text_15">
    <!-- 100 -->
    <g style="fill:#ffffff;" transform="translate(59.3875 84.92875)scale(0.08 -0.08)">
     <use xlink:href="#TrebuchetMS-49"/>
     <use x="52.441406" xlink:href="#TrebuchetMS-48"/>
     <use x="104.882812" xlink:href="#TrebuchetMS-48"/>
    </g>
   </g>
   <g id="text_16">
    <!-- 100 -->
    <g style="fill:#ffffff;" transform="translate(80.9875 84.92875)scale(0.08 -0.08)">
     <use xlink:href="#TrebuchetMS-49"/>
     <use x="52.441406" xlink:href="#TrebuchetMS-48"/>
     <use x="104.882812" xlink:href="#TrebuchetMS-48"/>
    </g>
   </g>
   <g id="text_17">
    <!-- 100 -->
    <g style="fill:#ffffff;" transform="translate(102.5875 84.92875)scale(0.08 -0.08)">
     <use xlink:href="#TrebuchetMS-49"/>
     <use x="52.441406" xlink:href="#TrebuchetMS-48"/>
     <use x="104.882812" xlink:href="#TrebuchetMS-48"/>
    </g>
   </g>
  </g>
 </g>
 <defs>
  <clipPath id="pc60ae93ddc">
   <rect height="86.4" width="86.4" x="33.28" y="7.2"/>
  </clipPath>
 </defs>
</svg>
