<?xml version="1.0" encoding="utf-8" standalone="no"?>
<!DOCTYPE svg PUBLIC "-//W3C//DTD SVG 1.1//EN"
  "http://www.w3.org/Graphics/SVG/1.1/DTD/svg11.dtd">
<!-- Created with matplotlib (https://matplotlib.org/) -->
<svg height="115.34pt" version="1.1" viewBox="0 0 135.546477 115.34" width="135.546477pt" xmlns="http://www.w3.org/2000/svg" xmlns:xlink="http://www.w3.org/1999/xlink">
 <metadata>
  <rdf:RDF xmlns:cc="http://creativecommons.org/ns#" xmlns:dc="http://purl.org/dc/elements/1.1/" xmlns:rdf="http://www.w3.org/1999/02/22-rdf-syntax-ns#">
   <cc:Work>
    <dc:type rdf:resource="http://purl.org/dc/dcmitype/StillImage"/>
    <dc:date>2022-02-09T11:11:41.223091</dc:date>
    <dc:format>image/svg+xml</dc:format>
    <dc:creator>
     <cc:Agent>
      <dc:title>Matplotlib v3.3.2, https://matplotlib.org/</dc:title>
     </cc:Agent>
    </dc:creator>
   </cc:Work>
  </rdf:RDF>
 </metadata>
 <defs>
  <style type="text/css">*{stroke-linecap:butt;stroke-linejoin:round;}</style>
 </defs>
 <g id="figure_1">
  <g id="patch_1">
   <path d="M 0 115.34 
L 135.546477 115.34 
L 135.546477 0 
L 0 0 
z
" style="fill:none;"/>
  </g>
  <g id="axes_1">
   <g id="patch_2">
    <path d="M 38.1125 93.6 
L 124.5125 93.6 
L 124.5125 7.2 
L 38.1125 7.2 
z
" style="fill:#ffffff;"/>
   </g>
   <g id="matplotlib.axis_1">
    <g id="xtick_1">
     <g id="line2d_1">
      <defs>
       <path d="M 0 0 
L 0 3.5 
" id="m0c584372a9" style="stroke:#000000;stroke-width:0.8;"/>
      </defs>
      <g>
       <use style="stroke:#000000;stroke-width:0.8;" x="42.039773" xlink:href="#m0c584372a9" y="93.6"/>
      </g>
     </g>
     <g id="text_1">
      <!-- −0.05 -->
      <g transform="translate(32.181023 106.49875)scale(0.08 -0.08)">
       <defs>
        <path d="M 46.875 34.46875 
L 46.875 27.59375 
L 5.953125 27.59375 
L 5.953125 34.46875 
z
" id="TrebuchetMS-8722"/>
        <path d="M 3.125 37.9375 
Q 3.125 53.375 9.375 63.078125 
Q 15.625 72.796875 26.953125 72.796875 
Q 38.1875 72.796875 43.828125 64.6875 
Q 49.46875 56.59375 49.46875 36.375 
Q 49.46875 19 43.546875 9 
Q 37.640625 -0.984375 26.265625 -0.984375 
Q 14.890625 -0.984375 9 7.078125 
Q 3.125 15.140625 3.125 37.9375 
z
M 12.890625 37.0625 
Q 12.890625 7.328125 25.59375 7.328125 
Q 32.859375 7.328125 36.28125 13.921875 
Q 39.703125 20.515625 39.703125 37.015625 
Q 39.703125 48.390625 38.375 53.703125 
Q 37.0625 59.03125 34.125 61.765625 
Q 31.203125 64.5 26.703125 64.5 
Q 12.890625 64.5 12.890625 37.0625 
z
" id="TrebuchetMS-48"/>
        <path d="M 17.28125 13.71875 
Q 20.3125 13.71875 22.453125 11.5625 
Q 24.609375 9.421875 24.609375 6.390625 
Q 24.609375 3.375 22.453125 1.1875 
Q 20.3125 -0.984375 17.28125 -0.984375 
Q 14.265625 -0.984375 12.109375 1.1875 
Q 9.96875 3.375 9.96875 6.390625 
Q 9.96875 9.421875 12.109375 11.5625 
Q 14.265625 13.71875 17.28125 13.71875 
z
" id="TrebuchetMS-46"/>
        <path d="M 11.328125 34.90625 
L 8.015625 37.203125 
L 8.015625 71.828125 
L 43.609375 71.828125 
L 43.609375 63.53125 
L 17.28125 63.53125 
L 17.28125 46.140625 
Q 20.90625 48.828125 26.46875 48.828125 
Q 36.421875 48.828125 41.671875 42.875 
Q 46.921875 36.921875 46.921875 25.921875 
Q 46.921875 -0.984375 22.953125 -0.984375 
Q 12.9375 -0.984375 6.34375 4.59375 
L 10.109375 12.75 
Q 16.75 7.328125 22.90625 7.328125 
Q 36.671875 7.328125 36.671875 24.515625 
Q 36.671875 40.53125 23.09375 40.53125 
Q 16.546875 40.53125 11.328125 34.90625 
z
" id="TrebuchetMS-53"/>
       </defs>
       <use xlink:href="#TrebuchetMS-8722"/>
       <use x="52.441406" xlink:href="#TrebuchetMS-48"/>
       <use x="104.882812" xlink:href="#TrebuchetMS-46"/>
       <use x="141.601562" xlink:href="#TrebuchetMS-48"/>
       <use x="194.042969" xlink:href="#TrebuchetMS-53"/>
      </g>
     </g>
    </g>
    <g id="xtick_2">
     <g id="line2d_2">
      <g>
       <use style="stroke:#000000;stroke-width:0.8;" x="81.3125" xlink:href="#m0c584372a9" y="93.6"/>
      </g>
     </g>
     <g id="text_2">
      <!-- 0.00 -->
      <g transform="translate(73.55125 106.49875)scale(0.08 -0.08)">
       <use xlink:href="#TrebuchetMS-48"/>
       <use x="52.441406" xlink:href="#TrebuchetMS-46"/>
       <use x="89.160156" xlink:href="#TrebuchetMS-48"/>
       <use x="141.601562" xlink:href="#TrebuchetMS-48"/>
      </g>
     </g>
    </g>
    <g id="xtick_3">
     <g id="line2d_3">
      <g>
       <use style="stroke:#000000;stroke-width:0.8;" x="120.585227" xlink:href="#m0c584372a9" y="93.6"/>
      </g>
     </g>
     <g id="text_3">
      <!-- 0.05 -->
      <g transform="translate(112.823977 106.49875)scale(0.08 -0.08)">
       <use xlink:href="#TrebuchetMS-48"/>
       <use x="52.441406" xlink:href="#TrebuchetMS-46"/>
       <use x="89.160156" xlink:href="#TrebuchetMS-48"/>
       <use x="141.601562" xlink:href="#TrebuchetMS-53"/>
      </g>
     </g>
    </g>
   </g>
   <g id="matplotlib.axis_2">
    <g id="ytick_1">
     <g id="line2d_4">
      <defs>
       <path d="M 0 0 
L -3.5 0 
" id="mda738498be" style="stroke:#000000;stroke-width:0.8;"/>
      </defs>
      <g>
       <use style="stroke:#000000;stroke-width:0.8;" x="38.1125" xlink:href="#mda738498be" y="89.672727"/>
      </g>
     </g>
     <g id="text_4">
      <!-- −0.050 -->
      <g transform="translate(7.2 92.622102)scale(0.08 -0.08)">
       <use xlink:href="#TrebuchetMS-8722"/>
       <use x="52.441406" xlink:href="#TrebuchetMS-48"/>
       <use x="104.882812" xlink:href="#TrebuchetMS-46"/>
       <use x="141.601562" xlink:href="#TrebuchetMS-48"/>
       <use x="194.042969" xlink:href="#TrebuchetMS-53"/>
       <use x="246.484375" xlink:href="#TrebuchetMS-48"/>
      </g>
     </g>
    </g>
    <g id="ytick_2">
     <g id="line2d_5">
      <g>
       <use style="stroke:#000000;stroke-width:0.8;" x="38.1125" xlink:href="#mda738498be" y="70.036364"/>
      </g>
     </g>
     <g id="text_5">
      <!-- −0.025 -->
      <g transform="translate(7.2 72.985739)scale(0.08 -0.08)">
       <defs>
        <path d="M 3.375 0 
L 3.375 1.953125 
L 25.78125 36.28125 
Q 32.8125 47.078125 32.8125 54.59375 
Q 32.8125 64.5 21.625 64.5 
Q 17.671875 64.5 14.203125 62.421875 
Q 10.75 60.359375 9.1875 57.171875 
L 2.875 62.359375 
Q 4.546875 67.140625 9.40625 69.96875 
Q 14.265625 72.796875 21.140625 72.796875 
Q 31.453125 72.796875 37.25 68.03125 
Q 43.0625 63.28125 43.0625 54.59375 
Q 43.0625 46.53125 35.359375 34.28125 
L 19.28125 8.796875 
L 47.3125 8.796875 
L 47.3125 0 
z
" id="TrebuchetMS-50"/>
       </defs>
       <use xlink:href="#TrebuchetMS-8722"/>
       <use x="52.441406" xlink:href="#TrebuchetMS-48"/>
       <use x="104.882812" xlink:href="#TrebuchetMS-46"/>
       <use x="141.601562" xlink:href="#TrebuchetMS-48"/>
       <use x="194.042969" xlink:href="#TrebuchetMS-50"/>
       <use x="246.484375" xlink:href="#TrebuchetMS-53"/>
      </g>
     </g>
    </g>
    <g id="ytick_3">
     <g id="line2d_6">
      <g>
       <use style="stroke:#000000;stroke-width:0.8;" x="38.1125" xlink:href="#mda738498be" y="50.4"/>
      </g>
     </g>
     <g id="text_6">
      <!-- 0.000 -->
      <g transform="translate(11.395 53.349375)scale(0.08 -0.08)">
       <use xlink:href="#TrebuchetMS-48"/>
       <use x="52.441406" xlink:href="#TrebuchetMS-46"/>
       <use x="89.160156" xlink:href="#TrebuchetMS-48"/>
       <use x="141.601562" xlink:href="#TrebuchetMS-48"/>
       <use x="194.042969" xlink:href="#TrebuchetMS-48"/>
      </g>
     </g>
    </g>
    <g id="ytick_4">
     <g id="line2d_7">
      <g>
       <use style="stroke:#000000;stroke-width:0.8;" x="38.1125" xlink:href="#mda738498be" y="30.763636"/>
      </g>
     </g>
     <g id="text_7">
      <!-- 0.025 -->
      <g transform="translate(11.395 33.713011)scale(0.08 -0.08)">
       <use xlink:href="#TrebuchetMS-48"/>
       <use x="52.441406" xlink:href="#TrebuchetMS-46"/>
       <use x="89.160156" xlink:href="#TrebuchetMS-48"/>
       <use x="141.601562" xlink:href="#TrebuchetMS-50"/>
       <use x="194.042969" xlink:href="#TrebuchetMS-53"/>
      </g>
     </g>
    </g>
    <g id="ytick_5">
     <g id="line2d_8">
      <g>
       <use style="stroke:#000000;stroke-width:0.8;" x="38.1125" xlink:href="#mda738498be" y="11.127273"/>
      </g>
     </g>
     <g id="text_8">
      <!-- 0.050 -->
      <g transform="translate(11.395 14.076648)scale(0.08 -0.08)">
       <use xlink:href="#TrebuchetMS-48"/>
       <use x="52.441406" xlink:href="#TrebuchetMS-46"/>
       <use x="89.160156" xlink:href="#TrebuchetMS-48"/>
       <use x="141.601562" xlink:href="#TrebuchetMS-53"/>
       <use x="194.042969" xlink:href="#TrebuchetMS-48"/>
      </g>
     </g>
    </g>
   </g>
   <g id="line2d_9">
    <path clip-path="url(#p7588a9d2fc)" d="M 81.3125 50.4 
" style="fill:none;stroke:#ff8c00;stroke-linecap:square;stroke-width:1.5;"/>
    <defs>
     <path d="M 0 1.5 
C 0.397805 1.5 0.77937 1.341951 1.06066 1.06066 
C 1.341951 0.77937 1.5 0.397805 1.5 0 
C 1.5 -0.397805 1.341951 -0.77937 1.06066 -1.06066 
C 0.77937 -1.341951 0.397805 -1.5 0 -1.5 
C -0.397805 -1.5 -0.77937 -1.341951 -1.06066 -1.06066 
C -1.341951 -0.77937 -1.5 -0.397805 -1.5 0 
C -1.5 0.397805 -1.341951 0.77937 -1.06066 1.06066 
C -0.77937 1.341951 -0.397805 1.5 0 1.5 
z
" id="m096e892c8e" style="stroke:#ff8c00;"/>
    </defs>
    <g clip-path="url(#p7588a9d2fc)">
     <use style="fill:#ff8c00;stroke:#ff8c00;" x="81.3125" xlink:href="#m096e892c8e" y="50.4"/>
    </g>
   </g>
   <g id="line2d_10">
    <path clip-path="url(#p7588a9d2fc)" d="M 81.3125 50.4 
" style="fill:none;stroke:#08306b;stroke-linecap:square;stroke-width:1.5;"/>
    <defs>
     <path d="M 0 1.5 
C 0.397805 1.5 0.77937 1.341951 1.06066 1.06066 
C 1.341951 0.77937 1.5 0.397805 1.5 0 
C 1.5 -0.397805 1.341951 -0.77937 1.06066 -1.06066 
C 0.77937 -1.341951 0.397805 -1.5 0 -1.5 
C -0.397805 -1.5 -0.77937 -1.341951 -1.06066 -1.06066 
C -1.341951 -0.77937 -1.5 -0.397805 -1.5 0 
C -1.5 0.397805 -1.341951 0.77937 -1.06066 1.06066 
C -0.77937 1.341951 -0.397805 1.5 0 1.5 
z
" id="m02cc52f7dc" style="stroke:#08306b;"/>
    </defs>
    <g clip-path="url(#p7588a9d2fc)">
     <use style="fill:#08306b;stroke:#08306b;" x="81.3125" xlink:href="#m02cc52f7dc" y="50.4"/>
    </g>
   </g>
   <g id="line2d_11">
    <path clip-path="url(#p7588a9d2fc)" d="M 81.3125 50.4 
" style="fill:none;stroke:#696969;stroke-linecap:square;stroke-width:1.5;"/>
    <defs>
     <path d="M 0 1.5 
C 0.397805 1.5 0.77937 1.341951 1.06066 1.06066 
C 1.341951 0.77937 1.5 0.397805 1.5 0 
C 1.5 -0.397805 1.341951 -0.77937 1.06066 -1.06066 
C 0.77937 -1.341951 0.397805 -1.5 0 -1.5 
C -0.397805 -1.5 -0.77937 -1.341951 -1.06066 -1.06066 
C -1.341951 -0.77937 -1.5 -0.397805 -1.5 0 
C -1.5 0.397805 -1.341951 0.77937 -1.06066 1.06066 
C -0.77937 1.341951 -0.397805 1.5 0 1.5 
z
" id="med053a1ded" style="stroke:#696969;"/>
    </defs>
    <g clip-path="url(#p7588a9d2fc)">
     <use style="fill:#696969;stroke:#696969;" x="81.3125" xlink:href="#med053a1ded" y="50.4"/>
    </g>
   </g>
   <g id="line2d_12">
    <path clip-path="url(#p7588a9d2fc)" d="M 81.3125 50.4 
" style="fill:none;stroke:#8b4513;stroke-linecap:square;stroke-width:1.5;"/>
    <defs>
     <path d="M 0 1.5 
C 0.397805 1.5 0.77937 1.341951 1.06066 1.06066 
C 1.341951 0.77937 1.5 0.397805 1.5 0 
C 1.5 -0.397805 1.341951 -0.77937 1.06066 -1.06066 
C 0.77937 -1.341951 0.397805 -1.5 0 -1.5 
C -0.397805 -1.5 -0.77937 -1.341951 -1.06066 -1.06066 
C -1.341951 -0.77937 -1.5 -0.397805 -1.5 0 
C -1.5 0.397805 -1.341951 0.77937 -1.06066 1.06066 
C -0.77937 1.341951 -0.397805 1.5 0 1.5 
z
" id="mee01517773" style="stroke:#8b4513;"/>
    </defs>
    <g clip-path="url(#p7588a9d2fc)">
     <use style="fill:#8b4513;stroke:#8b4513;" x="81.3125" xlink:href="#mee01517773" y="50.4"/>
    </g>
   </g>
   <g id="line2d_13">
    <path clip-path="url(#p7588a9d2fc)" d="M 81.3125 50.4 
" style="fill:none;stroke:#cd853f;stroke-linecap:square;stroke-width:1.5;"/>
    <defs>
     <path d="M 0 1.5 
C 0.397805 1.5 0.77937 1.341951 1.06066 1.06066 
C 1.341951 0.77937 1.5 0.397805 1.5 0 
C 1.5 -0.397805 1.341951 -0.77937 1.06066 -1.06066 
C 0.77937 -1.341951 0.397805 -1.5 0 -1.5 
C -0.397805 -1.5 -0.77937 -1.341951 -1.06066 -1.06066 
C -1.341951 -0.77937 -1.5 -0.397805 -1.5 0 
C -1.5 0.397805 -1.341951 0.77937 -1.06066 1.06066 
C -0.77937 1.341951 -0.397805 1.5 0 1.5 
z
" id="m50caa0a22f" style="stroke:#cd853f;"/>
    </defs>
    <g clip-path="url(#p7588a9d2fc)">
     <use style="fill:#cd853f;stroke:#cd853f;" x="81.3125" xlink:href="#m50caa0a22f" y="50.4"/>
    </g>
   </g>
   <g id="line2d_14">
    <path clip-path="url(#p7588a9d2fc)" d="M 81.3125 50.4 
" style="fill:none;stroke:#708090;stroke-linecap:square;stroke-width:1.5;"/>
    <defs>
     <path d="M 0 1.5 
C 0.397805 1.5 0.77937 1.341951 1.06066 1.06066 
C 1.341951 0.77937 1.5 0.397805 1.5 0 
C 1.5 -0.397805 1.341951 -0.77937 1.06066 -1.06066 
C 0.77937 -1.341951 0.397805 -1.5 0 -1.5 
C -0.397805 -1.5 -0.77937 -1.341951 -1.06066 -1.06066 
C -1.341951 -0.77937 -1.5 -0.397805 -1.5 0 
C -1.5 0.397805 -1.341951 0.77937 -1.06066 1.06066 
C -0.77937 1.341951 -0.397805 1.5 0 1.5 
z
" id="m7a8fdfe970" style="stroke:#708090;"/>
    </defs>
    <g clip-path="url(#p7588a9d2fc)">
     <use style="fill:#708090;stroke:#708090;" x="81.3125" xlink:href="#m7a8fdfe970" y="50.4"/>
    </g>
   </g>
   <g id="line2d_15">
    <path clip-path="url(#p7588a9d2fc)" d="M 81.3125 50.4 
" style="fill:none;stroke:#708090;stroke-linecap:square;stroke-width:1.5;"/>
    <g clip-path="url(#p7588a9d2fc)">
     <use style="fill:#708090;stroke:#708090;" x="81.3125" xlink:href="#m7a8fdfe970" y="50.4"/>
    </g>
   </g>
   <g id="line2d_16">
    <path clip-path="url(#p7588a9d2fc)" d="M 81.3125 50.4 
" style="fill:none;stroke:#708090;stroke-linecap:square;stroke-width:1.5;"/>
    <g clip-path="url(#p7588a9d2fc)">
     <use style="fill:#708090;stroke:#708090;" x="81.3125" xlink:href="#m7a8fdfe970" y="50.4"/>
    </g>
   </g>
   <g id="line2d_17">
    <path clip-path="url(#p7588a9d2fc)" d="M 81.3125 50.4 
" style="fill:none;stroke:#708090;stroke-linecap:square;stroke-width:1.5;"/>
    <g clip-path="url(#p7588a9d2fc)">
     <use style="fill:#708090;stroke:#708090;" x="81.3125" xlink:href="#m7a8fdfe970" y="50.4"/>
    </g>
   </g>
   <g id="line2d_18">
    <path clip-path="url(#p7588a9d2fc)" d="M 81.3125 50.4 
" style="fill:none;stroke:#708090;stroke-linecap:square;stroke-width:1.5;"/>
    <g clip-path="url(#p7588a9d2fc)">
     <use style="fill:#708090;stroke:#708090;" x="81.3125" xlink:href="#m7a8fdfe970" y="50.4"/>
    </g>
   </g>
   <g id="line2d_19">
    <path clip-path="url(#p7588a9d2fc)" d="M 81.3125 50.4 
" style="fill:none;stroke:#708090;stroke-linecap:square;stroke-width:1.5;"/>
    <g clip-path="url(#p7588a9d2fc)">
     <use style="fill:#708090;stroke:#708090;" x="81.3125" xlink:href="#m7a8fdfe970" y="50.4"/>
    </g>
   </g>
   <g id="line2d_20">
    <path clip-path="url(#p7588a9d2fc)" d="M 81.3125 50.4 
" style="fill:none;stroke:#708090;stroke-linecap:square;stroke-width:1.5;"/>
    <g clip-path="url(#p7588a9d2fc)">
     <use style="fill:#708090;stroke:#708090;" x="81.3125" xlink:href="#m7a8fdfe970" y="50.4"/>
    </g>
   </g>
   <g id="line2d_21">
    <path clip-path="url(#p7588a9d2fc)" d="M 81.3125 50.4 
" style="fill:none;stroke:#000000;stroke-linecap:square;stroke-width:1.5;"/>
    <defs>
     <path d="M 0 1.5 
C 0.397805 1.5 0.77937 1.341951 1.06066 1.06066 
C 1.341951 0.77937 1.5 0.397805 1.5 0 
C 1.5 -0.397805 1.341951 -0.77937 1.06066 -1.06066 
C 0.77937 -1.341951 0.397805 -1.5 0 -1.5 
C -0.397805 -1.5 -0.77937 -1.341951 -1.06066 -1.06066 
C -1.341951 -0.77937 -1.5 -0.397805 -1.5 0 
C -1.5 0.397805 -1.341951 0.77937 -1.06066 1.06066 
C -0.77937 1.341951 -0.397805 1.5 0 1.5 
z
" id="me04ea51ba2" style="stroke:#000000;"/>
    </defs>
    <g clip-path="url(#p7588a9d2fc)">
     <use style="stroke:#000000;" x="81.3125" xlink:href="#me04ea51ba2" y="50.4"/>
    </g>
   </g>
   <g id="patch_3">
    <path d="M 38.1125 93.6 
L 38.1125 7.2 
" style="fill:none;stroke:#000000;stroke-linecap:square;stroke-linejoin:miter;stroke-width:0.8;"/>
   </g>
   <g id="patch_4">
    <path d="M 124.5125 93.6 
L 124.5125 7.2 
" style="fill:none;stroke:#000000;stroke-linecap:square;stroke-linejoin:miter;stroke-width:0.8;"/>
   </g>
   <g id="patch_5">
    <path d="M 38.1125 93.6 
L 124.5125 93.6 
" style="fill:none;stroke:#000000;stroke-linecap:square;stroke-linejoin:miter;stroke-width:0.8;"/>
   </g>
   <g id="patch_6">
    <path d="M 38.1125 7.2 
L 124.5125 7.2 
" style="fill:none;stroke:#000000;stroke-linecap:square;stroke-linejoin:miter;stroke-width:0.8;"/>
   </g>
   <g id="legend_1">
    <g id="line2d_22">
     <path d="M 91.715 12.349375 
L 99.715 12.349375 
" style="fill:none;stroke:#ff8c00;stroke-linecap:square;stroke-width:1.5;"/>
    </g>
    <g id="line2d_23">
     <g>
      <use style="fill:#ff8c00;stroke:#ff8c00;" x="95.715" xlink:href="#m096e892c8e" y="12.349375"/>
     </g>
    </g>
    <g id="text_9">
     <!-- sideways -->
     <g transform="translate(102.915 13.749375)scale(0.04 -0.04)">
      <defs>
       <path d="M 3.171875 3.125 
L 6.453125 11.921875 
Q 14.203125 6.84375 18.953125 6.84375 
Q 27.546875 6.84375 27.546875 14.0625 
Q 27.546875 19.234375 19.234375 22.953125 
Q 12.84375 25.875 10.625 27.390625 
Q 8.40625 28.90625 6.765625 30.828125 
Q 5.125 32.765625 4.3125 34.9375 
Q 3.515625 37.109375 3.515625 39.59375 
Q 3.515625 46.046875 8.203125 49.65625 
Q 12.890625 53.265625 20.453125 53.265625 
Q 26.171875 53.265625 34.859375 49.65625 
L 32.234375 41.0625 
Q 26.703125 45.453125 21.140625 45.453125 
Q 17.828125 45.453125 15.546875 43.890625 
Q 13.28125 42.328125 13.28125 39.9375 
Q 13.28125 34.90625 19 32.328125 
L 25.640625 29.296875 
Q 31.734375 26.515625 34.515625 22.953125 
Q 37.3125 19.390625 37.3125 14.015625 
Q 37.3125 6.984375 32.375 3 
Q 27.4375 -0.984375 18.703125 -0.984375 
Q 10.453125 -0.984375 3.171875 3.125 
z
" id="TrebuchetMS-115"/>
       <path d="M 16.15625 72.078125 
Q 18.5625 72.078125 20.234375 70.390625 
Q 21.921875 68.703125 21.921875 66.359375 
Q 21.921875 63.96875 20.234375 62.28125 
Q 18.5625 60.59375 16.15625 60.59375 
Q 13.8125 60.59375 12.125 62.28125 
Q 10.453125 63.96875 10.453125 66.359375 
Q 10.453125 68.75 12.109375 70.40625 
Q 13.765625 72.078125 16.15625 72.078125 
z
M 11.078125 0 
L 11.078125 44.484375 
L 3.90625 44.484375 
L 3.90625 52.296875 
L 20.359375 52.296875 
L 20.359375 0 
z
" id="TrebuchetMS-105"/>
       <path d="M 39.75 0.046875 
L 39.75 3.90625 
Q 34.90625 -0.921875 25.6875 -0.921875 
Q 15.875 -0.921875 9.765625 6.109375 
Q 3.65625 13.140625 3.65625 24.859375 
Q 3.65625 36.625 10.6875 44.9375 
Q 17.71875 53.265625 27.4375 53.265625 
Q 35.546875 53.265625 39.75 49.46875 
L 39.75 73.734375 
L 49.03125 73.734375 
L 49.03125 0.046875 
z
M 39.75 40.1875 
Q 36.234375 45.453125 30.125 45.453125 
Q 22.65625 45.453125 18.03125 39.890625 
Q 13.421875 34.328125 13.421875 25.734375 
Q 13.421875 6.84375 30.609375 6.84375 
Q 32.8125 6.84375 35.890625 8.234375 
Q 38.96875 9.625 39.75 11.1875 
z
" id="TrebuchetMS-100"/>
       <path d="M 50.640625 25.25 
L 12.9375 25.25 
Q 12.9375 16.0625 17.96875 11.140625 
Q 22.40625 6.84375 29.390625 6.84375 
Q 37.359375 6.84375 42.671875 11.46875 
L 46.578125 4.78125 
Q 44.4375 2.640625 39.984375 1.078125 
Q 34.421875 -0.984375 27.59375 -0.984375 
Q 17.71875 -0.984375 10.84375 5.71875 
Q 3.171875 13.09375 3.171875 25.53125 
Q 3.171875 38.484375 11.03125 46.296875 
Q 18.0625 53.265625 27.6875 53.265625 
Q 38.875 53.265625 45.21875 46.96875 
Q 51.375 40.921875 51.375 30.90625 
Q 51.375 27.828125 50.640625 25.25 
z
M 28.125 45.453125 
Q 21.921875 45.453125 17.71875 41.453125 
Q 13.71875 37.640625 13.1875 31.984375 
L 42.140625 31.984375 
Q 42.140625 37.59375 38.625 41.359375 
Q 34.765625 45.453125 28.125 45.453125 
z
" id="TrebuchetMS-101"/>
       <path d="M 54.9375 -0.984375 
L 52.484375 -0.984375 
L 37.15625 34.625 
L 21.875 -0.984375 
L 19.4375 -0.984375 
L 0.734375 52.4375 
L 10.640625 52.4375 
L 21.828125 18.109375 
L 35.75 52.4375 
L 38.1875 52.4375 
L 52.546875 18.109375 
L 64.546875 52.4375 
L 73.6875 52.4375 
z
" id="TrebuchetMS-119"/>
       <path d="M 36.140625 6 
Q 30.5625 -0.984375 19.09375 -0.984375 
Q 12.9375 -0.984375 8.421875 3.484375 
Q 3.90625 7.953125 3.90625 14.59375 
Q 3.90625 22.5625 10.859375 28.046875 
Q 17.828125 33.546875 28.609375 33.546875 
Q 31.546875 33.546875 35.25 32.28125 
Q 35.25 44.96875 23.921875 44.96875 
Q 15.234375 44.96875 10.546875 40.28125 
L 6.640625 48.046875 
Q 9.28125 50.203125 13.9375 51.734375 
Q 18.609375 53.265625 22.859375 53.265625 
Q 34.234375 53.265625 39.375 48.09375 
Q 44.53125 42.921875 44.53125 31.640625 
L 44.53125 12.890625 
Q 44.53125 6 48.640625 3.71875 
L 48.640625 -0.921875 
Q 42.96875 -0.921875 40.15625 0.6875 
Q 37.359375 2.296875 36.140625 6 
z
M 35.25 25.6875 
Q 30.859375 26.65625 29.109375 26.65625 
Q 22.078125 26.65625 17.625 23.046875 
Q 13.1875 19.4375 13.1875 14.5 
Q 13.1875 6.34375 22.796875 6.34375 
Q 29.828125 6.34375 35.25 13.03125 
z
" id="TrebuchetMS-97"/>
       <path d="M 26.5625 -8.890625 
Q 24.75 -13.875 18.96875 -17.1875 
Q 13.1875 -20.515625 6.0625 -20.515625 
L 6.0625 -12.203125 
Q 11.859375 -12.203125 16.015625 -9.484375 
Q 20.171875 -6.78125 20.171875 -2.875 
Q 20.171875 1.421875 18.65625 5.59375 
Q 17.140625 9.765625 14.75 15.921875 
L 0.59375 52.296875 
L 10.0625 52.296875 
L 25.4375 11.859375 
L 39.265625 52.296875 
L 48.734375 52.296875 
z
" id="TrebuchetMS-121"/>
      </defs>
      <use xlink:href="#TrebuchetMS-115"/>
      <use x="40.478516" xlink:href="#TrebuchetMS-105"/>
      <use x="68.994141" xlink:href="#TrebuchetMS-100"/>
      <use x="124.707031" xlink:href="#TrebuchetMS-101"/>
      <use x="179.248047" xlink:href="#TrebuchetMS-119"/>
      <use x="253.662109" xlink:href="#TrebuchetMS-97"/>
      <use x="306.201172" xlink:href="#TrebuchetMS-121"/>
      <use x="355.517578" xlink:href="#TrebuchetMS-115"/>
     </g>
    </g>
    <g id="line2d_24">
     <path d="M 91.715 18.119375 
L 99.715 18.119375 
" style="fill:none;stroke:#08306b;stroke-linecap:square;stroke-width:1.5;"/>
    </g>
    <g id="line2d_25">
     <g>
      <use style="fill:#08306b;stroke:#08306b;" x="95.715" xlink:href="#m02cc52f7dc" y="18.119375"/>
     </g>
    </g>
    <g id="text_10">
     <!-- crack -->
     <g transform="translate(102.915 19.519375)scale(0.04 -0.04)">
      <defs>
       <path d="M 46.046875 48.046875 
L 41.453125 41.5 
Q 40.046875 42.921875 36.453125 44.1875 
Q 32.859375 45.453125 29.390625 45.453125 
Q 21.828125 45.453125 17.375 40.15625 
Q 12.9375 34.859375 12.9375 25.640625 
Q 12.9375 16.453125 17.46875 11.640625 
Q 22.015625 6.84375 30.078125 6.84375 
Q 36.328125 6.84375 42.671875 11.671875 
L 46.34375 3.859375 
Q 38.875 -0.984375 27.828125 -0.984375 
Q 17.140625 -0.984375 10.15625 6.1875 
Q 3.171875 13.375 3.171875 25.640625 
Q 3.171875 38.140625 10.421875 45.703125 
Q 17.671875 53.265625 30.28125 53.265625 
Q 34.328125 53.265625 39.0625 51.5625 
Q 43.796875 49.859375 46.046875 48.046875 
z
" id="TrebuchetMS-99"/>
       <path d="M 35.015625 43.359375 
Q 31.984375 45.453125 28.90625 45.453125 
Q 23.96875 45.453125 20.28125 40.90625 
Q 16.609375 36.375 16.609375 29.984375 
L 16.609375 0 
L 7.328125 0 
L 7.328125 52.296875 
L 16.609375 52.296875 
L 16.609375 43.953125 
Q 21.6875 53.265625 31.6875 53.265625 
Q 34.1875 53.265625 38.875 52.390625 
z
" id="TrebuchetMS-114"/>
       <path d="M 40.375 0 
L 23.96875 26.171875 
L 15.875 17.828125 
L 15.875 0 
L 6.59375 0 
L 6.59375 73.734375 
L 15.875 73.734375 
L 15.875 27.984375 
L 35.890625 52.296875 
L 46.734375 52.296875 
L 29.984375 32.421875 
L 50.4375 0 
z
" id="TrebuchetMS-107"/>
      </defs>
      <use xlink:href="#TrebuchetMS-99"/>
      <use x="49.511719" xlink:href="#TrebuchetMS-114"/>
      <use x="88.378906" xlink:href="#TrebuchetMS-97"/>
      <use x="140.917969" xlink:href="#TrebuchetMS-99"/>
      <use x="190.429688" xlink:href="#TrebuchetMS-107"/>
     </g>
    </g>
    <g id="line2d_26">
     <path d="M 91.715 23.889375 
L 99.715 23.889375 
" style="fill:none;stroke:#696969;stroke-linecap:square;stroke-width:1.5;"/>
    </g>
    <g id="line2d_27">
     <g>
      <use style="fill:#696969;stroke:#696969;" x="95.715" xlink:href="#med053a1ded" y="23.889375"/>
     </g>
    </g>
    <g id="text_11">
     <!-- undefined -->
     <g transform="translate(102.915 25.289375)scale(0.04 -0.04)">
      <defs>
       <path d="M 15.375 52.296875 
L 15.375 18.953125 
Q 15.375 6.84375 25.875 6.84375 
Q 30.46875 6.84375 34.28125 9.46875 
Q 38.09375 12.109375 39.3125 15.578125 
L 39.3125 52.296875 
L 48.578125 52.296875 
L 48.578125 0 
L 39.3125 0 
L 39.3125 7.234375 
Q 37.75 4.15625 33.03125 1.578125 
Q 28.328125 -0.984375 23.828125 -0.984375 
Q 15.234375 -0.984375 10.671875 3.953125 
Q 6.109375 8.890625 6.109375 17.96875 
L 6.109375 52.296875 
z
" id="TrebuchetMS-117"/>
       <path d="M 38.765625 0 
L 38.765625 30.421875 
Q 38.765625 38.765625 36.25 42.109375 
Q 33.734375 45.453125 27.828125 45.453125 
Q 24.65625 45.453125 21.1875 43.546875 
Q 17.71875 41.65625 15.875 38.875 
L 15.875 0 
L 6.59375 0 
L 6.59375 52.296875 
L 12.9375 52.296875 
L 15.875 45.5625 
Q 20.453125 53.265625 30.859375 53.265625 
Q 48.046875 53.265625 48.046875 32.375 
L 48.046875 0 
z
" id="TrebuchetMS-110"/>
       <path d="M 34.859375 65.4375 
Q 32.03125 66.40625 29.59375 66.40625 
Q 25.34375 66.40625 22.578125 63.1875 
Q 19.828125 59.96875 19.828125 55.03125 
Q 19.828125 53.71875 20.0625 52.296875 
L 30.71875 52.296875 
L 30.71875 44.484375 
L 20.0625 44.484375 
L 20.0625 0 
L 10.796875 0 
L 10.796875 44.484375 
L 3.171875 44.484375 
L 3.171875 52.296875 
L 10.796875 52.296875 
Q 10.796875 62.3125 15.71875 68.015625 
Q 20.65625 73.734375 28.765625 73.734375 
Q 32.8125 73.734375 37.453125 72.265625 
z
" id="TrebuchetMS-102"/>
      </defs>
      <use xlink:href="#TrebuchetMS-117"/>
      <use x="54.638672" xlink:href="#TrebuchetMS-110"/>
      <use x="109.277344" xlink:href="#TrebuchetMS-100"/>
      <use x="164.990234" xlink:href="#TrebuchetMS-101"/>
      <use x="219.53125" xlink:href="#TrebuchetMS-102"/>
      <use x="256.494141" xlink:href="#TrebuchetMS-105"/>
      <use x="285.009766" xlink:href="#TrebuchetMS-110"/>
      <use x="339.648438" xlink:href="#TrebuchetMS-101"/>
      <use x="394.189453" xlink:href="#TrebuchetMS-100"/>
     </g>
    </g>
    <g id="line2d_28">
     <path d="M 91.715 29.659375 
L 99.715 29.659375 
" style="fill:none;stroke:#8b4513;stroke-linecap:square;stroke-width:1.5;"/>
    </g>
    <g id="line2d_29">
     <g>
      <use style="fill:#8b4513;stroke:#8b4513;" x="95.715" xlink:href="#mee01517773" y="29.659375"/>
     </g>
    </g>
    <g id="text_12">
     <!-- patchy -->
     <g transform="translate(102.915 31.059375)scale(0.04 -0.04)">
      <defs>
       <path d="M 15.875 2.875 
L 15.875 -20.515625 
L 6.59375 -20.515625 
L 6.59375 52.296875 
L 15.875 52.296875 
L 15.875 48 
Q 21.140625 53.265625 28.609375 53.265625 
Q 39.75 53.265625 45.953125 46.328125 
Q 52.15625 39.40625 52.15625 26.03125 
Q 52.15625 14.109375 45.90625 6.5625 
Q 39.65625 -0.984375 27.828125 -0.984375 
Q 24.515625 -0.984375 20.71875 0.1875 
Q 16.9375 1.375 15.875 2.875 
z
M 15.875 41.015625 
L 15.875 10.546875 
Q 16.75 9.234375 19.578125 8.03125 
Q 22.40625 6.84375 25.09375 6.84375 
Q 42.390625 6.84375 42.390625 26.375 
Q 42.390625 36.28125 38.28125 40.859375 
Q 34.1875 45.453125 25.140625 45.453125 
Q 23.1875 45.453125 20.359375 44.078125 
Q 17.53125 42.71875 15.875 41.015625 
z
" id="TrebuchetMS-112"/>
       <path d="M 9.90625 44.96875 
L 3.859375 44.96875 
L 3.859375 52.296875 
L 9.90625 52.296875 
L 9.90625 63.234375 
L 19.1875 66.796875 
L 19.1875 52.296875 
L 33.546875 52.296875 
L 33.546875 44.96875 
L 19.1875 44.96875 
L 19.1875 19 
Q 19.1875 12.40625 21.40625 9.625 
Q 23.640625 6.84375 28.5625 6.84375 
Q 32.125 6.84375 35.9375 8.640625 
L 37.3125 0.484375 
Q 31.546875 -0.984375 24.65625 -0.984375 
Q 18.453125 -0.984375 14.171875 3.625 
Q 9.90625 8.25 9.90625 15.28125 
z
" id="TrebuchetMS-116"/>
       <path d="M 38.8125 0 
L 38.8125 32.859375 
Q 38.8125 38.71875 35.9375 42.078125 
Q 33.0625 45.453125 27.828125 45.453125 
Q 24.46875 45.453125 21.0625 43.46875 
Q 17.671875 41.5 15.875 38.875 
L 15.875 0 
L 6.59375 0 
L 6.59375 73.734375 
L 15.875 73.734375 
L 15.875 46.53125 
Q 17.71875 49.421875 21.84375 51.34375 
Q 25.984375 53.265625 30.375 53.265625 
Q 38.671875 53.265625 43.375 47.796875 
Q 48.09375 42.328125 48.09375 32.859375 
L 48.09375 0 
z
" id="TrebuchetMS-104"/>
      </defs>
      <use xlink:href="#TrebuchetMS-112"/>
      <use x="55.712891" xlink:href="#TrebuchetMS-97"/>
      <use x="108.251953" xlink:href="#TrebuchetMS-116"/>
      <use x="147.900391" xlink:href="#TrebuchetMS-99"/>
      <use x="197.412109" xlink:href="#TrebuchetMS-104"/>
      <use x="252.050781" xlink:href="#TrebuchetMS-121"/>
     </g>
    </g>
    <g id="line2d_30">
     <path d="M 91.715 35.429375 
L 99.715 35.429375 
" style="fill:none;stroke:#cd853f;stroke-linecap:square;stroke-width:1.5;"/>
    </g>
    <g id="line2d_31">
     <g>
      <use style="fill:#cd853f;stroke:#cd853f;" x="95.715" xlink:href="#m50caa0a22f" y="35.429375"/>
     </g>
    </g>
    <g id="text_13">
     <!-- smoky -->
     <g transform="translate(102.915 36.829375)scale(0.04 -0.04)">
      <defs>
       <path d="M 67.140625 0 
L 67.140625 33.109375 
Q 67.140625 45.453125 56.453125 45.453125 
Q 53.078125 45.453125 50.140625 43.375 
Q 47.21875 41.3125 46.140625 38.671875 
L 46.140625 0 
L 36.859375 0 
L 36.859375 37.15625 
Q 36.859375 41.015625 33.953125 43.234375 
Q 31.0625 45.453125 26.265625 45.453125 
Q 23.484375 45.453125 20.328125 43.296875 
Q 17.1875 41.15625 15.875 38.578125 
L 15.875 0 
L 6.59375 0 
L 6.59375 52.296875 
L 12.640625 52.296875 
L 15.71875 46.234375 
Q 21.09375 53.265625 29.15625 53.265625 
Q 40.375 53.265625 44.875 46.296875 
Q 46.4375 49.265625 50.6875 51.265625 
Q 54.9375 53.265625 59.421875 53.265625 
Q 67.53125 53.265625 71.96875 48.453125 
Q 76.421875 43.65625 76.421875 34.96875 
L 76.421875 0 
z
" id="TrebuchetMS-109"/>
       <path d="M 3.171875 26.265625 
Q 3.171875 38.375 9.6875 45.8125 
Q 16.21875 53.265625 26.859375 53.265625 
Q 38.09375 53.265625 44.28125 46.109375 
Q 50.484375 38.96875 50.484375 26.265625 
Q 50.484375 13.625 44.140625 6.3125 
Q 37.796875 -0.984375 26.859375 -0.984375 
Q 15.671875 -0.984375 9.421875 6.390625 
Q 3.171875 13.765625 3.171875 26.265625 
z
M 12.9375 26.265625 
Q 12.9375 6.59375 26.859375 6.59375 
Q 33.34375 6.59375 37.03125 11.859375 
Q 40.71875 17.140625 40.71875 26.265625 
Q 40.71875 45.703125 26.859375 45.703125 
Q 20.515625 45.703125 16.71875 40.53125 
Q 12.9375 35.359375 12.9375 26.265625 
z
" id="TrebuchetMS-111"/>
      </defs>
      <use xlink:href="#TrebuchetMS-115"/>
      <use x="40.478516" xlink:href="#TrebuchetMS-109"/>
      <use x="123.486328" xlink:href="#TrebuchetMS-111"/>
      <use x="177.148438" xlink:href="#TrebuchetMS-107"/>
      <use x="227.587891" xlink:href="#TrebuchetMS-121"/>
     </g>
    </g>
    <g id="line2d_32">
     <path d="M 91.715 41.199375 
L 99.715 41.199375 
" style="fill:none;stroke:#708090;stroke-linecap:square;stroke-width:1.5;"/>
    </g>
    <g id="line2d_33">
     <g>
      <use style="fill:#708090;stroke:#708090;" x="95.715" xlink:href="#m7a8fdfe970" y="41.199375"/>
     </g>
    </g>
    <g id="text_14">
     <!-- central -->
     <g transform="translate(102.915 42.599375)scale(0.04 -0.04)">
      <defs>
       <path d="M 7.328125 14.796875 
L 7.328125 73.734375 
L 16.609375 73.734375 
L 16.609375 16.359375 
Q 16.609375 12.15625 19.015625 9.734375 
Q 21.4375 7.328125 25.34375 7.328125 
L 25.34375 -0.984375 
Q 7.328125 -0.984375 7.328125 14.796875 
z
" id="TrebuchetMS-108"/>
      </defs>
      <use xlink:href="#TrebuchetMS-99"/>
      <use x="49.511719" xlink:href="#TrebuchetMS-101"/>
      <use x="104.052734" xlink:href="#TrebuchetMS-110"/>
      <use x="158.691406" xlink:href="#TrebuchetMS-116"/>
      <use x="198.339844" xlink:href="#TrebuchetMS-114"/>
      <use x="237.207031" xlink:href="#TrebuchetMS-97"/>
      <use x="289.746094" xlink:href="#TrebuchetMS-108"/>
     </g>
    </g>
    <g id="line2d_34">
     <path d="M 91.715 46.969375 
L 99.715 46.969375 
" style="fill:none;stroke:#708090;stroke-linecap:square;stroke-width:1.5;"/>
    </g>
    <g id="line2d_35">
     <g>
      <use style="fill:#708090;stroke:#708090;" x="95.715" xlink:href="#m7a8fdfe970" y="46.969375"/>
     </g>
    </g>
    <g id="text_15">
     <!-- overstain -->
     <g transform="translate(102.915 48.369375)scale(0.04 -0.04)">
      <defs>
       <path d="M 25.4375 -0.984375 
L 23 -0.984375 
L 0.59375 52.4375 
L 10.75 52.4375 
L 24.5625 15.828125 
L 38.671875 52.4375 
L 48.390625 52.4375 
z
" id="TrebuchetMS-118"/>
      </defs>
      <use xlink:href="#TrebuchetMS-111"/>
      <use x="53.662109" xlink:href="#TrebuchetMS-118"/>
      <use x="102.636719" xlink:href="#TrebuchetMS-101"/>
      <use x="157.177734" xlink:href="#TrebuchetMS-114"/>
      <use x="196.044922" xlink:href="#TrebuchetMS-115"/>
      <use x="236.523438" xlink:href="#TrebuchetMS-116"/>
      <use x="276.171875" xlink:href="#TrebuchetMS-97"/>
      <use x="328.710938" xlink:href="#TrebuchetMS-105"/>
      <use x="357.226562" xlink:href="#TrebuchetMS-110"/>
     </g>
    </g>
    <g id="line2d_36">
     <path d="M 91.715 52.739375 
L 99.715 52.739375 
" style="fill:none;stroke:#708090;stroke-linecap:square;stroke-width:1.5;"/>
    </g>
    <g id="line2d_37">
     <g>
      <use style="fill:#708090;stroke:#708090;" x="95.715" xlink:href="#m7a8fdfe970" y="52.739375"/>
     </g>
    </g>
    <g id="text_16">
     <!-- murky -->
     <g transform="translate(102.915 54.139375)scale(0.04 -0.04)">
      <use xlink:href="#TrebuchetMS-109"/>
      <use x="83.007812" xlink:href="#TrebuchetMS-117"/>
      <use x="137.646484" xlink:href="#TrebuchetMS-114"/>
      <use x="176.513672" xlink:href="#TrebuchetMS-107"/>
      <use x="226.953125" xlink:href="#TrebuchetMS-121"/>
     </g>
    </g>
    <g id="line2d_38">
     <path d="M 91.715 58.509375 
L 99.715 58.509375 
" style="fill:none;stroke:#708090;stroke-linecap:square;stroke-width:1.5;"/>
    </g>
    <g id="line2d_39">
     <g>
      <use style="fill:#708090;stroke:#708090;" x="95.715" xlink:href="#m7a8fdfe970" y="58.509375"/>
     </g>
    </g>
    <g id="text_17">
     <!-- spotty -->
     <g transform="translate(102.915 59.909375)scale(0.04 -0.04)">
      <use xlink:href="#TrebuchetMS-115"/>
      <use x="40.478516" xlink:href="#TrebuchetMS-112"/>
      <use x="96.191406" xlink:href="#TrebuchetMS-111"/>
      <use x="149.853516" xlink:href="#TrebuchetMS-116"/>
      <use x="189.501953" xlink:href="#TrebuchetMS-116"/>
      <use x="229.150391" xlink:href="#TrebuchetMS-121"/>
     </g>
    </g>
    <g id="line2d_40">
     <path d="M 91.715 64.279375 
L 99.715 64.279375 
" style="fill:none;stroke:#708090;stroke-linecap:square;stroke-width:1.5;"/>
    </g>
    <g id="line2d_41">
     <g>
      <use style="fill:#708090;stroke:#708090;" x="95.715" xlink:href="#m7a8fdfe970" y="64.279375"/>
     </g>
    </g>
    <g id="text_18">
     <!-- sandy -->
     <g transform="translate(102.915 65.679375)scale(0.04 -0.04)">
      <use xlink:href="#TrebuchetMS-115"/>
      <use x="40.478516" xlink:href="#TrebuchetMS-97"/>
      <use x="93.017578" xlink:href="#TrebuchetMS-110"/>
      <use x="147.65625" xlink:href="#TrebuchetMS-100"/>
      <use x="203.369141" xlink:href="#TrebuchetMS-121"/>
     </g>
    </g>
    <g id="line2d_42">
     <path d="M 91.715 70.049375 
L 99.715 70.049375 
" style="fill:none;stroke:#708090;stroke-linecap:square;stroke-width:1.5;"/>
    </g>
    <g id="line2d_43">
     <g>
      <use style="fill:#708090;stroke:#708090;" x="95.715" xlink:href="#m7a8fdfe970" y="70.049375"/>
     </g>
    </g>
    <g id="text_19">
     <!-- necrotic -->
     <g transform="translate(102.915 71.449375)scale(0.04 -0.04)">
      <use xlink:href="#TrebuchetMS-110"/>
      <use x="54.638672" xlink:href="#TrebuchetMS-101"/>
      <use x="109.179688" xlink:href="#TrebuchetMS-99"/>
      <use x="158.691406" xlink:href="#TrebuchetMS-114"/>
      <use x="197.558594" xlink:href="#TrebuchetMS-111"/>
      <use x="251.220703" xlink:href="#TrebuchetMS-116"/>
      <use x="290.869141" xlink:href="#TrebuchetMS-105"/>
      <use x="319.384766" xlink:href="#TrebuchetMS-99"/>
     </g>
    </g>
    <g id="line2d_44">
     <path d="M 91.715 75.819375 
L 99.715 75.819375 
" style="fill:none;stroke:#708090;stroke-linecap:square;stroke-width:1.5;"/>
    </g>
    <g id="line2d_45">
     <g>
      <use style="fill:#708090;stroke:#708090;" x="95.715" xlink:href="#m7a8fdfe970" y="75.819375"/>
     </g>
    </g>
    <g id="text_20">
     <!-- bubble -->
     <g transform="translate(102.915 77.219375)scale(0.04 -0.04)">
      <defs>
       <path d="M 14.5 3.765625 
L 11.234375 -0.984375 
L 6.59375 -0.984375 
L 6.59375 73.734375 
L 15.875 73.734375 
L 15.875 48.4375 
Q 17.1875 50.25 20.828125 51.75 
Q 24.46875 53.265625 27.984375 53.265625 
Q 38.71875 53.265625 45.375 45.84375 
Q 52.046875 38.421875 52.046875 27.09375 
Q 52.046875 14.015625 45.359375 6.515625 
Q 38.671875 -0.984375 27.25 -0.984375 
Q 23.53125 -0.984375 19.9375 0.40625 
Q 16.359375 1.8125 14.5 3.765625 
z
M 15.875 41.359375 
L 15.875 11.1875 
Q 15.875 10.40625 19.328125 8.625 
Q 22.796875 6.84375 24.609375 6.84375 
Q 34.078125 6.84375 38.171875 11.375 
Q 42.28125 15.921875 42.28125 26.609375 
Q 42.28125 35.5 37.5 40.46875 
Q 32.71875 45.453125 24.609375 45.453125 
Q 22.90625 45.453125 19.84375 43.984375 
Q 16.796875 42.53125 15.875 41.359375 
z
" id="TrebuchetMS-98"/>
      </defs>
      <use xlink:href="#TrebuchetMS-98"/>
      <use x="55.712891" xlink:href="#TrebuchetMS-117"/>
      <use x="110.351562" xlink:href="#TrebuchetMS-98"/>
      <use x="166.064453" xlink:href="#TrebuchetMS-98"/>
      <use x="221.777344" xlink:href="#TrebuchetMS-108"/>
      <use x="251.269531" xlink:href="#TrebuchetMS-101"/>
     </g>
    </g>
    <g id="line2d_46">
     <path d="M 91.715 81.589375 
L 99.715 81.589375 
" style="fill:none;stroke:#000000;stroke-linecap:square;stroke-width:1.5;"/>
    </g>
    <g id="line2d_47">
     <g>
      <use style="stroke:#000000;" x="95.715" xlink:href="#me04ea51ba2" y="81.589375"/>
     </g>
    </g>
    <g id="text_21">
     <!-- perfect -->
     <g transform="translate(102.915 82.989375)scale(0.04 -0.04)">
      <use xlink:href="#TrebuchetMS-112"/>
      <use x="55.712891" xlink:href="#TrebuchetMS-101"/>
      <use x="110.253906" xlink:href="#TrebuchetMS-114"/>
      <use x="149.121094" xlink:href="#TrebuchetMS-102"/>
      <use x="186.083984" xlink:href="#TrebuchetMS-101"/>
      <use x="240.625" xlink:href="#TrebuchetMS-99"/>
      <use x="290.136719" xlink:href="#TrebuchetMS-116"/>
     </g>
    </g>
   </g>
  </g>
 </g>
 <defs>
  <clipPath id="p7588a9d2fc">
   <rect height="86.4" width="86.4" x="38.1125" y="7.2"/>
  </clipPath>
 </defs>
</svg>
