<?xml version="1.0" encoding="utf-8" standalone="no"?>
<!DOCTYPE svg PUBLIC "-//W3C//DTD SVG 1.1//EN"
  "http://www.w3.org/Graphics/SVG/1.1/DTD/svg11.dtd">
<!-- Created with matplotlib (https://matplotlib.org/) -->
<svg height="118.289375pt" version="1.1" viewBox="0 0 117.525 118.289375" width="117.525pt" xmlns="http://www.w3.org/2000/svg" xmlns:xlink="http://www.w3.org/1999/xlink">
 <metadata>
  <rdf:RDF xmlns:cc="http://creativecommons.org/ns#" xmlns:dc="http://purl.org/dc/elements/1.1/" xmlns:rdf="http://www.w3.org/1999/02/22-rdf-syntax-ns#">
   <cc:Work>
    <dc:type rdf:resource="http://purl.org/dc/dcmitype/StillImage"/>
    <dc:date>2022-02-09T11:11:40.668440</dc:date>
    <dc:format>image/svg+xml</dc:format>
    <dc:creator>
     <cc:Agent>
      <dc:title>Matplotlib v3.3.2, https://matplotlib.org/</dc:title>
     </cc:Agent>
    </dc:creator>
   </cc:Work>
  </rdf:RDF>
 </metadata>
 <defs>
  <style type="text/css">*{stroke-linecap:butt;stroke-linejoin:round;}</style>
 </defs>
 <g id="figure_1">
  <g id="patch_1">
   <path d="M 0 118.289375 
L 117.525 118.289375 
L 117.525 0 
L 0 0 
z
" style="fill:none;"/>
  </g>
  <g id="axes_1">
   <g id="patch_2">
    <path d="M 38.325 96.549375 
L 110.325 96.549375 
L 110.325 10.149375 
L 38.325 10.149375 
z
" style="fill:#ffffff;"/>
   </g>
   <g id="matplotlib.axis_1">
    <g id="xtick_1">
     <g id="line2d_1">
      <defs>
       <path d="M 0 0 
L 0 3.5 
" id="m80c498dc49" style="stroke:#000000;stroke-width:0.8;"/>
      </defs>
      <g>
       <use style="stroke:#000000;stroke-width:0.8;" x="51.825" xlink:href="#m80c498dc49" y="96.549375"/>
      </g>
     </g>
     <g id="text_1">
      <!-- no dex -->
      <g transform="translate(39.87375 109.448125)scale(0.08 -0.08)">
       <defs>
        <path d="M 38.765625 0 
L 38.765625 30.421875 
Q 38.765625 38.765625 36.25 42.109375 
Q 33.734375 45.453125 27.828125 45.453125 
Q 24.65625 45.453125 21.1875 43.546875 
Q 17.71875 41.65625 15.875 38.875 
L 15.875 0 
L 6.59375 0 
L 6.59375 52.296875 
L 12.9375 52.296875 
L 15.875 45.5625 
Q 20.453125 53.265625 30.859375 53.265625 
Q 48.046875 53.265625 48.046875 32.375 
L 48.046875 0 
z
" id="TrebuchetMS-110"/>
        <path d="M 3.171875 26.265625 
Q 3.171875 38.375 9.6875 45.8125 
Q 16.21875 53.265625 26.859375 53.265625 
Q 38.09375 53.265625 44.28125 46.109375 
Q 50.484375 38.96875 50.484375 26.265625 
Q 50.484375 13.625 44.140625 6.3125 
Q 37.796875 -0.984375 26.859375 -0.984375 
Q 15.671875 -0.984375 9.421875 6.390625 
Q 3.171875 13.765625 3.171875 26.265625 
z
M 12.9375 26.265625 
Q 12.9375 6.59375 26.859375 6.59375 
Q 33.34375 6.59375 37.03125 11.859375 
Q 40.71875 17.140625 40.71875 26.265625 
Q 40.71875 45.703125 26.859375 45.703125 
Q 20.515625 45.703125 16.71875 40.53125 
Q 12.9375 35.359375 12.9375 26.265625 
z
" id="TrebuchetMS-111"/>
        <path id="TrebuchetMS-32"/>
        <path d="M 39.75 0.046875 
L 39.75 3.90625 
Q 34.90625 -0.921875 25.6875 -0.921875 
Q 15.875 -0.921875 9.765625 6.109375 
Q 3.65625 13.140625 3.65625 24.859375 
Q 3.65625 36.625 10.6875 44.9375 
Q 17.71875 53.265625 27.4375 53.265625 
Q 35.546875 53.265625 39.75 49.46875 
L 39.75 73.734375 
L 49.03125 73.734375 
L 49.03125 0.046875 
z
M 39.75 40.1875 
Q 36.234375 45.453125 30.125 45.453125 
Q 22.65625 45.453125 18.03125 39.890625 
Q 13.421875 34.328125 13.421875 25.734375 
Q 13.421875 6.84375 30.609375 6.84375 
Q 32.8125 6.84375 35.890625 8.234375 
Q 38.96875 9.625 39.75 11.1875 
z
" id="TrebuchetMS-100"/>
        <path d="M 50.640625 25.25 
L 12.9375 25.25 
Q 12.9375 16.0625 17.96875 11.140625 
Q 22.40625 6.84375 29.390625 6.84375 
Q 37.359375 6.84375 42.671875 11.46875 
L 46.578125 4.78125 
Q 44.4375 2.640625 39.984375 1.078125 
Q 34.421875 -0.984375 27.59375 -0.984375 
Q 17.71875 -0.984375 10.84375 5.71875 
Q 3.171875 13.09375 3.171875 25.53125 
Q 3.171875 38.484375 11.03125 46.296875 
Q 18.0625 53.265625 27.6875 53.265625 
Q 38.875 53.265625 45.21875 46.96875 
Q 51.375 40.921875 51.375 30.90625 
Q 51.375 27.828125 50.640625 25.25 
z
M 28.125 45.453125 
Q 21.921875 45.453125 17.71875 41.453125 
Q 13.71875 37.640625 13.1875 31.984375 
L 42.140625 31.984375 
Q 42.140625 37.59375 38.625 41.359375 
Q 34.765625 45.453125 28.125 45.453125 
z
" id="TrebuchetMS-101"/>
        <path d="M 38.421875 0 
L 24.171875 19.046875 
L 11.421875 0 
L 0.59375 0 
L 19.578125 26.765625 
L 2.15625 52.296875 
L 12.59375 52.296875 
L 24.3125 34.328125 
L 37.453125 52.296875 
L 47.703125 52.296875 
L 28.71875 26.765625 
L 49.515625 0 
z
" id="TrebuchetMS-120"/>
       </defs>
       <use xlink:href="#TrebuchetMS-110"/>
       <use x="54.638672" xlink:href="#TrebuchetMS-111"/>
       <use x="108.300781" xlink:href="#TrebuchetMS-32"/>
       <use x="138.427734" xlink:href="#TrebuchetMS-100"/>
       <use x="194.140625" xlink:href="#TrebuchetMS-101"/>
       <use x="248.681641" xlink:href="#TrebuchetMS-120"/>
      </g>
     </g>
    </g>
    <g id="xtick_2">
     <g id="line2d_2">
      <g>
       <use style="stroke:#000000;stroke-width:0.8;" x="96.825" xlink:href="#m80c498dc49" y="96.549375"/>
      </g>
     </g>
     <g id="text_2">
      <!-- dex -->
      <g transform="translate(90.410625 109.448125)scale(0.08 -0.08)">
       <use xlink:href="#TrebuchetMS-100"/>
       <use x="55.712891" xlink:href="#TrebuchetMS-101"/>
       <use x="110.253906" xlink:href="#TrebuchetMS-120"/>
      </g>
     </g>
    </g>
   </g>
   <g id="matplotlib.axis_2">
    <g id="ytick_1">
     <g id="line2d_3">
      <defs>
       <path d="M 0 0 
L -3.5 0 
" id="m8f989b7d1d" style="stroke:#000000;stroke-width:0.8;"/>
      </defs>
      <g>
       <use style="stroke:#000000;stroke-width:0.8;" x="38.325" xlink:href="#m8f989b7d1d" y="96.549375"/>
      </g>
     </g>
     <g id="text_3">
      <!-- 0 -->
      <g transform="translate(27.13 99.49875)scale(0.08 -0.08)">
       <defs>
        <path d="M 3.125 37.9375 
Q 3.125 53.375 9.375 63.078125 
Q 15.625 72.796875 26.953125 72.796875 
Q 38.1875 72.796875 43.828125 64.6875 
Q 49.46875 56.59375 49.46875 36.375 
Q 49.46875 19 43.546875 9 
Q 37.640625 -0.984375 26.265625 -0.984375 
Q 14.890625 -0.984375 9 7.078125 
Q 3.125 15.140625 3.125 37.9375 
z
M 12.890625 37.0625 
Q 12.890625 7.328125 25.59375 7.328125 
Q 32.859375 7.328125 36.28125 13.921875 
Q 39.703125 20.515625 39.703125 37.015625 
Q 39.703125 48.390625 38.375 53.703125 
Q 37.0625 59.03125 34.125 61.765625 
Q 31.203125 64.5 26.703125 64.5 
Q 12.890625 64.5 12.890625 37.0625 
z
" id="TrebuchetMS-48"/>
       </defs>
       <use xlink:href="#TrebuchetMS-48"/>
      </g>
     </g>
    </g>
    <g id="ytick_2">
     <g id="line2d_4">
      <g>
       <use style="stroke:#000000;stroke-width:0.8;" x="38.325" xlink:href="#m8f989b7d1d" y="74.949375"/>
      </g>
     </g>
     <g id="text_4">
      <!-- 25 -->
      <g transform="translate(22.935 77.89875)scale(0.08 -0.08)">
       <defs>
        <path d="M 3.375 0 
L 3.375 1.953125 
L 25.78125 36.28125 
Q 32.8125 47.078125 32.8125 54.59375 
Q 32.8125 64.5 21.625 64.5 
Q 17.671875 64.5 14.203125 62.421875 
Q 10.75 60.359375 9.1875 57.171875 
L 2.875 62.359375 
Q 4.546875 67.140625 9.40625 69.96875 
Q 14.265625 72.796875 21.140625 72.796875 
Q 31.453125 72.796875 37.25 68.03125 
Q 43.0625 63.28125 43.0625 54.59375 
Q 43.0625 46.53125 35.359375 34.28125 
L 19.28125 8.796875 
L 47.3125 8.796875 
L 47.3125 0 
z
" id="TrebuchetMS-50"/>
        <path d="M 11.328125 34.90625 
L 8.015625 37.203125 
L 8.015625 71.828125 
L 43.609375 71.828125 
L 43.609375 63.53125 
L 17.28125 63.53125 
L 17.28125 46.140625 
Q 20.90625 48.828125 26.46875 48.828125 
Q 36.421875 48.828125 41.671875 42.875 
Q 46.921875 36.921875 46.921875 25.921875 
Q 46.921875 -0.984375 22.953125 -0.984375 
Q 12.9375 -0.984375 6.34375 4.59375 
L 10.109375 12.75 
Q 16.75 7.328125 22.90625 7.328125 
Q 36.671875 7.328125 36.671875 24.515625 
Q 36.671875 40.53125 23.09375 40.53125 
Q 16.546875 40.53125 11.328125 34.90625 
z
" id="TrebuchetMS-53"/>
       </defs>
       <use xlink:href="#TrebuchetMS-50"/>
       <use x="52.441406" xlink:href="#TrebuchetMS-53"/>
      </g>
     </g>
    </g>
    <g id="ytick_3">
     <g id="line2d_5">
      <g>
       <use style="stroke:#000000;stroke-width:0.8;" x="38.325" xlink:href="#m8f989b7d1d" y="53.349375"/>
      </g>
     </g>
     <g id="text_5">
      <!-- 50 -->
      <g transform="translate(22.935 56.29875)scale(0.08 -0.08)">
       <use xlink:href="#TrebuchetMS-53"/>
       <use x="52.441406" xlink:href="#TrebuchetMS-48"/>
      </g>
     </g>
    </g>
    <g id="ytick_4">
     <g id="line2d_6">
      <g>
       <use style="stroke:#000000;stroke-width:0.8;" x="38.325" xlink:href="#m8f989b7d1d" y="31.749375"/>
      </g>
     </g>
     <g id="text_6">
      <!-- 75 -->
      <g transform="translate(22.935 34.69875)scale(0.08 -0.08)">
       <defs>
        <path d="M 20.90625 0 
L 10.0625 0 
Q 13.671875 11.46875 22.21875 30.34375 
Q 30.765625 49.21875 37.84375 62.546875 
L 4.109375 62.546875 
L 4.109375 71.828125 
L 50.484375 71.828125 
L 50.484375 68.015625 
L 44.1875 55.609375 
Q 41.015625 49.3125 37.546875 41.796875 
Q 34.078125 34.28125 30.75 26.46875 
Q 27.4375 18.65625 24.953125 11.96875 
Q 22.46875 5.28125 20.90625 0 
z
" id="TrebuchetMS-55"/>
       </defs>
       <use xlink:href="#TrebuchetMS-55"/>
       <use x="52.441406" xlink:href="#TrebuchetMS-53"/>
      </g>
     </g>
    </g>
    <g id="ytick_5">
     <g id="line2d_7">
      <g>
       <use style="stroke:#000000;stroke-width:0.8;" x="38.325" xlink:href="#m8f989b7d1d" y="10.149375"/>
      </g>
     </g>
     <g id="text_7">
      <!-- 100 -->
      <g transform="translate(18.74 13.09875)scale(0.08 -0.08)">
       <defs>
        <path d="M 24.3125 0 
L 24.3125 54.828125 
L 9.765625 45.75 
L 9.765625 54.890625 
Q 15.28125 57.671875 21.5 62.546875 
Q 27.734375 67.4375 31.15625 71.828125 
L 34.078125 71.828125 
L 34.078125 0 
z
" id="TrebuchetMS-49"/>
       </defs>
       <use xlink:href="#TrebuchetMS-49"/>
       <use x="52.441406" xlink:href="#TrebuchetMS-48"/>
       <use x="104.882812" xlink:href="#TrebuchetMS-48"/>
      </g>
     </g>
    </g>
    <g id="text_8">
     <!-- % of samples -->
     <g transform="translate(13.09875 76.036875)rotate(-90)scale(0.08 -0.08)">
      <defs>
       <path d="M 10.640625 -0.984375 
L 4.4375 -0.984375 
L 47.5625 72.796875 
L 53.71875 72.796875 
z
M 2.984375 56.734375 
Q 2.984375 63.921875 6.9375 68.359375 
Q 10.890625 72.796875 17 72.796875 
Q 23 72.796875 26.578125 68.40625 
Q 30.171875 64.015625 30.171875 55.8125 
Q 30.171875 48.1875 26.359375 43.71875 
Q 22.5625 39.265625 16.546875 39.265625 
Q 2.984375 39.265625 2.984375 56.734375 
z
M 9.125 56.25 
Q 9.125 50.53125 11.046875 47.375 
Q 12.984375 44.234375 16.109375 44.234375 
Q 24.03125 44.234375 24.03125 56.203125 
Q 24.03125 67.828125 16.84375 67.828125 
Q 13.28125 67.828125 11.203125 64.703125 
Q 9.125 61.578125 9.125 56.25 
z
M 29.34375 16.5 
Q 29.34375 23.6875 33.296875 28.125 
Q 37.25 32.5625 43.359375 32.5625 
Q 49.359375 32.5625 52.953125 28.171875 
Q 56.546875 23.78125 56.546875 15.578125 
Q 56.546875 7.953125 52.734375 3.484375 
Q 48.921875 -0.984375 42.921875 -0.984375 
Q 29.34375 -0.984375 29.34375 16.5 
z
M 35.5 16.015625 
Q 35.5 10.296875 37.421875 7.140625 
Q 39.359375 4 42.484375 4 
Q 50.390625 4 50.390625 15.96875 
Q 50.390625 27.59375 43.21875 27.59375 
Q 39.65625 27.59375 37.578125 24.46875 
Q 35.5 21.34375 35.5 16.015625 
z
" id="TrebuchetMS-37"/>
       <path d="M 34.859375 65.4375 
Q 32.03125 66.40625 29.59375 66.40625 
Q 25.34375 66.40625 22.578125 63.1875 
Q 19.828125 59.96875 19.828125 55.03125 
Q 19.828125 53.71875 20.0625 52.296875 
L 30.71875 52.296875 
L 30.71875 44.484375 
L 20.0625 44.484375 
L 20.0625 0 
L 10.796875 0 
L 10.796875 44.484375 
L 3.171875 44.484375 
L 3.171875 52.296875 
L 10.796875 52.296875 
Q 10.796875 62.3125 15.71875 68.015625 
Q 20.65625 73.734375 28.765625 73.734375 
Q 32.8125 73.734375 37.453125 72.265625 
z
" id="TrebuchetMS-102"/>
       <path d="M 3.171875 3.125 
L 6.453125 11.921875 
Q 14.203125 6.84375 18.953125 6.84375 
Q 27.546875 6.84375 27.546875 14.0625 
Q 27.546875 19.234375 19.234375 22.953125 
Q 12.84375 25.875 10.625 27.390625 
Q 8.40625 28.90625 6.765625 30.828125 
Q 5.125 32.765625 4.3125 34.9375 
Q 3.515625 37.109375 3.515625 39.59375 
Q 3.515625 46.046875 8.203125 49.65625 
Q 12.890625 53.265625 20.453125 53.265625 
Q 26.171875 53.265625 34.859375 49.65625 
L 32.234375 41.0625 
Q 26.703125 45.453125 21.140625 45.453125 
Q 17.828125 45.453125 15.546875 43.890625 
Q 13.28125 42.328125 13.28125 39.9375 
Q 13.28125 34.90625 19 32.328125 
L 25.640625 29.296875 
Q 31.734375 26.515625 34.515625 22.953125 
Q 37.3125 19.390625 37.3125 14.015625 
Q 37.3125 6.984375 32.375 3 
Q 27.4375 -0.984375 18.703125 -0.984375 
Q 10.453125 -0.984375 3.171875 3.125 
z
" id="TrebuchetMS-115"/>
       <path d="M 36.140625 6 
Q 30.5625 -0.984375 19.09375 -0.984375 
Q 12.9375 -0.984375 8.421875 3.484375 
Q 3.90625 7.953125 3.90625 14.59375 
Q 3.90625 22.5625 10.859375 28.046875 
Q 17.828125 33.546875 28.609375 33.546875 
Q 31.546875 33.546875 35.25 32.28125 
Q 35.25 44.96875 23.921875 44.96875 
Q 15.234375 44.96875 10.546875 40.28125 
L 6.640625 48.046875 
Q 9.28125 50.203125 13.9375 51.734375 
Q 18.609375 53.265625 22.859375 53.265625 
Q 34.234375 53.265625 39.375 48.09375 
Q 44.53125 42.921875 44.53125 31.640625 
L 44.53125 12.890625 
Q 44.53125 6 48.640625 3.71875 
L 48.640625 -0.921875 
Q 42.96875 -0.921875 40.15625 0.6875 
Q 37.359375 2.296875 36.140625 6 
z
M 35.25 25.6875 
Q 30.859375 26.65625 29.109375 26.65625 
Q 22.078125 26.65625 17.625 23.046875 
Q 13.1875 19.4375 13.1875 14.5 
Q 13.1875 6.34375 22.796875 6.34375 
Q 29.828125 6.34375 35.25 13.03125 
z
" id="TrebuchetMS-97"/>
       <path d="M 67.140625 0 
L 67.140625 33.109375 
Q 67.140625 45.453125 56.453125 45.453125 
Q 53.078125 45.453125 50.140625 43.375 
Q 47.21875 41.3125 46.140625 38.671875 
L 46.140625 0 
L 36.859375 0 
L 36.859375 37.15625 
Q 36.859375 41.015625 33.953125 43.234375 
Q 31.0625 45.453125 26.265625 45.453125 
Q 23.484375 45.453125 20.328125 43.296875 
Q 17.1875 41.15625 15.875 38.578125 
L 15.875 0 
L 6.59375 0 
L 6.59375 52.296875 
L 12.640625 52.296875 
L 15.71875 46.234375 
Q 21.09375 53.265625 29.15625 53.265625 
Q 40.375 53.265625 44.875 46.296875 
Q 46.4375 49.265625 50.6875 51.265625 
Q 54.9375 53.265625 59.421875 53.265625 
Q 67.53125 53.265625 71.96875 48.453125 
Q 76.421875 43.65625 76.421875 34.96875 
L 76.421875 0 
z
" id="TrebuchetMS-109"/>
       <path d="M 15.875 2.875 
L 15.875 -20.515625 
L 6.59375 -20.515625 
L 6.59375 52.296875 
L 15.875 52.296875 
L 15.875 48 
Q 21.140625 53.265625 28.609375 53.265625 
Q 39.75 53.265625 45.953125 46.328125 
Q 52.15625 39.40625 52.15625 26.03125 
Q 52.15625 14.109375 45.90625 6.5625 
Q 39.65625 -0.984375 27.828125 -0.984375 
Q 24.515625 -0.984375 20.71875 0.1875 
Q 16.9375 1.375 15.875 2.875 
z
M 15.875 41.015625 
L 15.875 10.546875 
Q 16.75 9.234375 19.578125 8.03125 
Q 22.40625 6.84375 25.09375 6.84375 
Q 42.390625 6.84375 42.390625 26.375 
Q 42.390625 36.28125 38.28125 40.859375 
Q 34.1875 45.453125 25.140625 45.453125 
Q 23.1875 45.453125 20.359375 44.078125 
Q 17.53125 42.71875 15.875 41.015625 
z
" id="TrebuchetMS-112"/>
       <path d="M 7.328125 14.796875 
L 7.328125 73.734375 
L 16.609375 73.734375 
L 16.609375 16.359375 
Q 16.609375 12.15625 19.015625 9.734375 
Q 21.4375 7.328125 25.34375 7.328125 
L 25.34375 -0.984375 
Q 7.328125 -0.984375 7.328125 14.796875 
z
" id="TrebuchetMS-108"/>
      </defs>
      <use xlink:href="#TrebuchetMS-37"/>
      <use x="60.009766" xlink:href="#TrebuchetMS-32"/>
      <use x="90.136719" xlink:href="#TrebuchetMS-111"/>
      <use x="143.798828" xlink:href="#TrebuchetMS-102"/>
      <use x="180.761719" xlink:href="#TrebuchetMS-32"/>
      <use x="210.888672" xlink:href="#TrebuchetMS-115"/>
      <use x="251.367188" xlink:href="#TrebuchetMS-97"/>
      <use x="303.90625" xlink:href="#TrebuchetMS-109"/>
      <use x="386.914062" xlink:href="#TrebuchetMS-112"/>
      <use x="442.626953" xlink:href="#TrebuchetMS-108"/>
      <use x="472.119141" xlink:href="#TrebuchetMS-101"/>
      <use x="526.660156" xlink:href="#TrebuchetMS-115"/>
     </g>
    </g>
   </g>
   <g id="line2d_8">
    <path clip-path="url(#p4127b8c0fc)" d="M 51.825 40.994175 
L 96.825 28.638975 
" style="fill:none;stroke:#ff8c00;stroke-linecap:square;stroke-width:1.5;"/>
    <defs>
     <path d="M 0 1.5 
C 0.397805 1.5 0.77937 1.341951 1.06066 1.06066 
C 1.341951 0.77937 1.5 0.397805 1.5 0 
C 1.5 -0.397805 1.341951 -0.77937 1.06066 -1.06066 
C 0.77937 -1.341951 0.397805 -1.5 0 -1.5 
C -0.397805 -1.5 -0.77937 -1.341951 -1.06066 -1.06066 
C -1.341951 -0.77937 -1.5 -0.397805 -1.5 0 
C -1.5 0.397805 -1.341951 0.77937 -1.06066 1.06066 
C -0.77937 1.341951 -0.397805 1.5 0 1.5 
z
" id="m7fbd23eb05" style="stroke:#ff8c00;"/>
    </defs>
    <g clip-path="url(#p4127b8c0fc)">
     <use style="fill:#ff8c00;stroke:#ff8c00;" x="51.825" xlink:href="#m7fbd23eb05" y="40.994175"/>
     <use style="fill:#ff8c00;stroke:#ff8c00;" x="96.825" xlink:href="#m7fbd23eb05" y="28.638975"/>
    </g>
   </g>
   <g id="line2d_9">
    <path clip-path="url(#p4127b8c0fc)" d="M 51.825 96.549375 
L 96.825 96.549375 
" style="fill:none;stroke:#708090;stroke-linecap:square;stroke-width:1.5;"/>
    <defs>
     <path d="M 0 1.5 
C 0.397805 1.5 0.77937 1.341951 1.06066 1.06066 
C 1.341951 0.77937 1.5 0.397805 1.5 0 
C 1.5 -0.397805 1.341951 -0.77937 1.06066 -1.06066 
C 0.77937 -1.341951 0.397805 -1.5 0 -1.5 
C -0.397805 -1.5 -0.77937 -1.341951 -1.06066 -1.06066 
C -1.341951 -0.77937 -1.5 -0.397805 -1.5 0 
C -1.5 0.397805 -1.341951 0.77937 -1.06066 1.06066 
C -0.77937 1.341951 -0.397805 1.5 0 1.5 
z
" id="mc52867fb6b" style="stroke:#708090;"/>
    </defs>
    <g clip-path="url(#p4127b8c0fc)">
     <use style="fill:#708090;stroke:#708090;" x="51.825" xlink:href="#mc52867fb6b" y="96.549375"/>
     <use style="fill:#708090;stroke:#708090;" x="96.825" xlink:href="#mc52867fb6b" y="96.549375"/>
    </g>
   </g>
   <g id="line2d_10">
    <path clip-path="url(#p4127b8c0fc)" d="M 51.825 84.194175 
L 96.825 96.549375 
" style="fill:none;stroke:#8b4513;stroke-linecap:square;stroke-width:1.5;"/>
    <defs>
     <path d="M 0 1.5 
C 0.397805 1.5 0.77937 1.341951 1.06066 1.06066 
C 1.341951 0.77937 1.5 0.397805 1.5 0 
C 1.5 -0.397805 1.341951 -0.77937 1.06066 -1.06066 
C 0.77937 -1.341951 0.397805 -1.5 0 -1.5 
C -0.397805 -1.5 -0.77937 -1.341951 -1.06066 -1.06066 
C -1.341951 -0.77937 -1.5 -0.397805 -1.5 0 
C -1.5 0.397805 -1.341951 0.77937 -1.06066 1.06066 
C -0.77937 1.341951 -0.397805 1.5 0 1.5 
z
" id="md940d4da92" style="stroke:#8b4513;"/>
    </defs>
    <g clip-path="url(#p4127b8c0fc)">
     <use style="fill:#8b4513;stroke:#8b4513;" x="51.825" xlink:href="#md940d4da92" y="84.194175"/>
     <use style="fill:#8b4513;stroke:#8b4513;" x="96.825" xlink:href="#md940d4da92" y="96.549375"/>
    </g>
   </g>
   <g id="line2d_11">
    <path clip-path="url(#p4127b8c0fc)" d="M 51.825 78.059775 
L 96.825 96.549375 
" style="fill:none;stroke:#cd853f;stroke-linecap:square;stroke-width:1.5;"/>
    <defs>
     <path d="M 0 1.5 
C 0.397805 1.5 0.77937 1.341951 1.06066 1.06066 
C 1.341951 0.77937 1.5 0.397805 1.5 0 
C 1.5 -0.397805 1.341951 -0.77937 1.06066 -1.06066 
C 0.77937 -1.341951 0.397805 -1.5 0 -1.5 
C -0.397805 -1.5 -0.77937 -1.341951 -1.06066 -1.06066 
C -1.341951 -0.77937 -1.5 -0.397805 -1.5 0 
C -1.5 0.397805 -1.341951 0.77937 -1.06066 1.06066 
C -0.77937 1.341951 -0.397805 1.5 0 1.5 
z
" id="mbbce909df0" style="stroke:#cd853f;"/>
    </defs>
    <g clip-path="url(#p4127b8c0fc)">
     <use style="fill:#cd853f;stroke:#cd853f;" x="51.825" xlink:href="#mbbce909df0" y="78.059775"/>
     <use style="fill:#cd853f;stroke:#cd853f;" x="96.825" xlink:href="#mbbce909df0" y="96.549375"/>
    </g>
   </g>
   <g id="line2d_12">
    <path clip-path="url(#p4127b8c0fc)" d="M 51.825 96.549375 
L 96.825 96.549375 
" style="fill:none;stroke:#708090;stroke-linecap:square;stroke-width:1.5;"/>
    <g clip-path="url(#p4127b8c0fc)">
     <use style="fill:#708090;stroke:#708090;" x="51.825" xlink:href="#mc52867fb6b" y="96.549375"/>
     <use style="fill:#708090;stroke:#708090;" x="96.825" xlink:href="#mc52867fb6b" y="96.549375"/>
    </g>
   </g>
   <g id="line2d_13">
    <path clip-path="url(#p4127b8c0fc)" d="M 51.825 96.549375 
L 96.825 96.549375 
" style="fill:none;stroke:#708090;stroke-linecap:square;stroke-width:1.5;"/>
    <g clip-path="url(#p4127b8c0fc)">
     <use style="fill:#708090;stroke:#708090;" x="51.825" xlink:href="#mc52867fb6b" y="96.549375"/>
     <use style="fill:#708090;stroke:#708090;" x="96.825" xlink:href="#mc52867fb6b" y="96.549375"/>
    </g>
   </g>
   <g id="line2d_14">
    <path clip-path="url(#p4127b8c0fc)" d="M 51.825 96.549375 
L 96.825 96.549375 
" style="fill:none;stroke:#708090;stroke-linecap:square;stroke-width:1.5;"/>
    <g clip-path="url(#p4127b8c0fc)">
     <use style="fill:#708090;stroke:#708090;" x="51.825" xlink:href="#mc52867fb6b" y="96.549375"/>
     <use style="fill:#708090;stroke:#708090;" x="96.825" xlink:href="#mc52867fb6b" y="96.549375"/>
    </g>
   </g>
   <g id="line2d_15">
    <path clip-path="url(#p4127b8c0fc)" d="M 51.825 96.549375 
L 96.825 96.549375 
" style="fill:none;stroke:#708090;stroke-linecap:square;stroke-width:1.5;"/>
    <g clip-path="url(#p4127b8c0fc)">
     <use style="fill:#708090;stroke:#708090;" x="51.825" xlink:href="#mc52867fb6b" y="96.549375"/>
     <use style="fill:#708090;stroke:#708090;" x="96.825" xlink:href="#mc52867fb6b" y="96.549375"/>
    </g>
   </g>
   <g id="line2d_16">
    <path clip-path="url(#p4127b8c0fc)" d="M 51.825 96.549375 
L 96.825 96.549375 
" style="fill:none;stroke:#708090;stroke-linecap:square;stroke-width:1.5;"/>
    <g clip-path="url(#p4127b8c0fc)">
     <use style="fill:#708090;stroke:#708090;" x="51.825" xlink:href="#mc52867fb6b" y="96.549375"/>
     <use style="fill:#708090;stroke:#708090;" x="96.825" xlink:href="#mc52867fb6b" y="96.549375"/>
    </g>
   </g>
   <g id="line2d_17">
    <path clip-path="url(#p4127b8c0fc)" d="M 51.825 96.549375 
L 96.825 96.549375 
" style="fill:none;stroke:#708090;stroke-linecap:square;stroke-width:1.5;"/>
    <g clip-path="url(#p4127b8c0fc)">
     <use style="fill:#708090;stroke:#708090;" x="51.825" xlink:href="#mc52867fb6b" y="96.549375"/>
     <use style="fill:#708090;stroke:#708090;" x="96.825" xlink:href="#mc52867fb6b" y="96.549375"/>
    </g>
   </g>
   <g id="line2d_18">
    <path clip-path="url(#p4127b8c0fc)" d="M 51.825 78.059775 
L 96.825 84.194175 
" style="fill:none;stroke:#696969;stroke-linecap:square;stroke-width:1.5;"/>
    <defs>
     <path d="M 0 1.5 
C 0.397805 1.5 0.77937 1.341951 1.06066 1.06066 
C 1.341951 0.77937 1.5 0.397805 1.5 0 
C 1.5 -0.397805 1.341951 -0.77937 1.06066 -1.06066 
C 0.77937 -1.341951 0.397805 -1.5 0 -1.5 
C -0.397805 -1.5 -0.77937 -1.341951 -1.06066 -1.06066 
C -1.341951 -0.77937 -1.5 -0.397805 -1.5 0 
C -1.5 0.397805 -1.341951 0.77937 -1.06066 1.06066 
C -0.77937 1.341951 -0.397805 1.5 0 1.5 
z
" id="mc1d6494826" style="stroke:#696969;"/>
    </defs>
    <g clip-path="url(#p4127b8c0fc)">
     <use style="fill:#696969;stroke:#696969;" x="51.825" xlink:href="#mc1d6494826" y="78.059775"/>
     <use style="fill:#696969;stroke:#696969;" x="96.825" xlink:href="#mc1d6494826" y="84.194175"/>
    </g>
   </g>
   <g id="line2d_19">
    <path clip-path="url(#p4127b8c0fc)" d="M 51.825 34.859775 
L 96.825 28.638975 
" style="fill:none;stroke:#08306b;stroke-linecap:square;stroke-width:1.5;"/>
    <defs>
     <path d="M 0 1.5 
C 0.397805 1.5 0.77937 1.341951 1.06066 1.06066 
C 1.341951 0.77937 1.5 0.397805 1.5 0 
C 1.5 -0.397805 1.341951 -0.77937 1.06066 -1.06066 
C 0.77937 -1.341951 0.397805 -1.5 0 -1.5 
C -0.397805 -1.5 -0.77937 -1.341951 -1.06066 -1.06066 
C -1.341951 -0.77937 -1.5 -0.397805 -1.5 0 
C -1.5 0.397805 -1.341951 0.77937 -1.06066 1.06066 
C -0.77937 1.341951 -0.397805 1.5 0 1.5 
z
" id="medc2ff528c" style="stroke:#08306b;"/>
    </defs>
    <g clip-path="url(#p4127b8c0fc)">
     <use style="fill:#08306b;stroke:#08306b;" x="51.825" xlink:href="#medc2ff528c" y="34.859775"/>
     <use style="fill:#08306b;stroke:#08306b;" x="96.825" xlink:href="#medc2ff528c" y="28.638975"/>
    </g>
   </g>
   <g id="line2d_20">
    <path clip-path="url(#p4127b8c0fc)" d="M 51.825 90.377946 
L 96.825 90.377946 
" style="fill:none;stroke:#000000;stroke-linecap:square;stroke-width:1.5;"/>
    <defs>
     <path d="M 0 1.5 
C 0.397805 1.5 0.77937 1.341951 1.06066 1.06066 
C 1.341951 0.77937 1.5 0.397805 1.5 0 
C 1.5 -0.397805 1.341951 -0.77937 1.06066 -1.06066 
C 0.77937 -1.341951 0.397805 -1.5 0 -1.5 
C -0.397805 -1.5 -0.77937 -1.341951 -1.06066 -1.06066 
C -1.341951 -0.77937 -1.5 -0.397805 -1.5 0 
C -1.5 0.397805 -1.341951 0.77937 -1.06066 1.06066 
C -0.77937 1.341951 -0.397805 1.5 0 1.5 
z
" id="md5432fd02e" style="stroke:#000000;"/>
    </defs>
    <g clip-path="url(#p4127b8c0fc)">
     <use style="stroke:#000000;" x="51.825" xlink:href="#md5432fd02e" y="90.377946"/>
     <use style="stroke:#000000;" x="96.825" xlink:href="#md5432fd02e" y="90.377946"/>
    </g>
   </g>
   <g id="patch_3">
    <path d="M 38.325 96.549375 
L 38.325 10.149375 
" style="fill:none;stroke:#000000;stroke-linecap:square;stroke-linejoin:miter;stroke-width:0.8;"/>
   </g>
   <g id="patch_4">
    <path d="M 38.325 96.549375 
L 110.325 96.549375 
" style="fill:none;stroke:#000000;stroke-linecap:square;stroke-linejoin:miter;stroke-width:0.8;"/>
   </g>
  </g>
 </g>
 <defs>
  <clipPath id="p4127b8c0fc">
   <rect height="86.4" width="72" x="38.325" y="10.149375"/>
  </clipPath>
 </defs>
</svg>
