<?xml version="1.0" encoding="utf-8" standalone="no"?>
<!DOCTYPE svg PUBLIC "-//W3C//DTD SVG 1.1//EN"
  "http://www.w3.org/Graphics/SVG/1.1/DTD/svg11.dtd">
<!-- Created with matplotlib (https://matplotlib.org/) -->
<svg height="140.167108pt" version="1.1" viewBox="0 0 139.873025 140.167108" width="139.873025pt" xmlns="http://www.w3.org/2000/svg" xmlns:xlink="http://www.w3.org/1999/xlink">
 <metadata>
  <rdf:RDF xmlns:cc="http://creativecommons.org/ns#" xmlns:dc="http://purl.org/dc/elements/1.1/" xmlns:rdf="http://www.w3.org/1999/02/22-rdf-syntax-ns#">
   <cc:Work>
    <dc:type rdf:resource="http://purl.org/dc/dcmitype/StillImage"/>
    <dc:date>2022-02-09T11:05:09.104542</dc:date>
    <dc:format>image/svg+xml</dc:format>
    <dc:creator>
     <cc:Agent>
      <dc:title>Matplotlib v3.3.2, https://matplotlib.org/</dc:title>
     </cc:Agent>
    </dc:creator>
   </cc:Work>
  </rdf:RDF>
 </metadata>
 <defs>
  <style type="text/css">*{stroke-linecap:butt;stroke-linejoin:round;}</style>
 </defs>
 <g id="figure_1">
  <g id="patch_1">
   <path d="M 0 140.167108 
L 139.873025 140.167108 
L 139.873025 0 
L 0 0 
z
" style="fill:none;"/>
  </g>
  <g id="axes_1">
   <g id="patch_2">
    <path d="M 31.355 101.788998 
L 125.943998 101.788998 
L 125.943998 7.2 
L 31.355 7.2 
z
" style="fill:#ffffff;"/>
   </g>
   <g id="PathCollection_1">
    <defs>
     <path d="M 0 -1.414214 
L -1.414214 1.414214 
L 1.414214 1.414214 
z
" id="me9295c0bab" style="stroke:#edb120;stroke-opacity:0.3;stroke-width:0.2;"/>
    </defs>
    <g clip-path="url(#p1c0edb883d)">
     <use style="fill:#edb120;fill-opacity:0.3;stroke:#edb120;stroke-opacity:0.3;stroke-width:0.2;" x="35.6545" xlink:href="#me9295c0bab" y="77.58856"/>
    </g>
   </g>
   <g id="PathCollection_2">
    <defs>
     <path d="M 0 -1.414214 
L -1.414214 1.414214 
L 1.414214 1.414214 
z
" id="m52213b1a89" style="stroke:#edb120;stroke-width:0.2;"/>
    </defs>
    <g clip-path="url(#p1c0edb883d)">
     <use style="fill:#edb120;stroke:#edb120;stroke-width:0.2;" x="35.6545" xlink:href="#m52213b1a89" y="77.58856"/>
    </g>
   </g>
   <g id="PathCollection_3">
    <defs>
     <path d="M 0 1.414214 
C 0.375054 1.414214 0.734797 1.265203 1 1 
C 1.265203 0.734797 1.414214 0.375054 1.414214 0 
C 1.414214 -0.375054 1.265203 -0.734797 1 -1 
C 0.734797 -1.265203 0.375054 -1.414214 0 -1.414214 
C -0.375054 -1.414214 -0.734797 -1.265203 -1 -1 
C -1.265203 -0.734797 -1.414214 -0.375054 -1.414214 0 
C -1.414214 0.375054 -1.265203 0.734797 -1 1 
C -0.734797 1.265203 -0.375054 1.414214 0 1.414214 
z
" id="m870377ffd1" style="stroke:#edb120;stroke-opacity:0.3;stroke-width:0.2;"/>
    </defs>
    <g clip-path="url(#p1c0edb883d)">
     <use style="fill:#edb120;fill-opacity:0.3;stroke:#edb120;stroke-opacity:0.3;stroke-width:0.2;" x="49.986166" xlink:href="#m870377ffd1" y="83.349404"/>
     <use style="fill:#edb120;fill-opacity:0.3;stroke:#edb120;stroke-opacity:0.3;stroke-width:0.2;" x="49.986166" xlink:href="#m870377ffd1" y="73.855251"/>
     <use style="fill:#edb120;fill-opacity:0.3;stroke:#edb120;stroke-opacity:0.3;stroke-width:0.2;" x="49.986166" xlink:href="#m870377ffd1" y="79.368414"/>
     <use style="fill:#edb120;fill-opacity:0.3;stroke:#edb120;stroke-opacity:0.3;stroke-width:0.2;" x="49.986166" xlink:href="#m870377ffd1" y="79.013738"/>
    </g>
   </g>
   <g id="PathCollection_4">
    <defs>
     <path d="M 0 1.414214 
C 0.375054 1.414214 0.734797 1.265203 1 1 
C 1.265203 0.734797 1.414214 0.375054 1.414214 0 
C 1.414214 -0.375054 1.265203 -0.734797 1 -1 
C 0.734797 -1.265203 0.375054 -1.414214 0 -1.414214 
C -0.375054 -1.414214 -0.734797 -1.265203 -1 -1 
C -1.265203 -0.734797 -1.414214 -0.375054 -1.414214 0 
C -1.414214 0.375054 -1.265203 0.734797 -1 1 
C -0.734797 1.265203 -0.375054 1.414214 0 1.414214 
z
" id="ma3a8df368b" style="stroke:#edb120;stroke-width:0.2;"/>
    </defs>
    <g clip-path="url(#p1c0edb883d)">
     <use style="fill:#edb120;stroke:#edb120;stroke-width:0.2;" x="49.986166" xlink:href="#ma3a8df368b" y="78.896702"/>
    </g>
   </g>
   <g id="PathCollection_5">
    <g clip-path="url(#p1c0edb883d)">
     <use style="fill:#edb120;fill-opacity:0.3;stroke:#edb120;stroke-opacity:0.3;stroke-width:0.2;" x="64.317833" xlink:href="#m870377ffd1" y="74.94211"/>
     <use style="fill:#edb120;fill-opacity:0.3;stroke:#edb120;stroke-opacity:0.3;stroke-width:0.2;" x="64.317833" xlink:href="#m870377ffd1" y="77.890119"/>
     <use style="fill:#edb120;fill-opacity:0.3;stroke:#edb120;stroke-opacity:0.3;stroke-width:0.2;" x="64.317833" xlink:href="#m870377ffd1" y="77.374616"/>
     <use style="fill:#edb120;fill-opacity:0.3;stroke:#edb120;stroke-opacity:0.3;stroke-width:0.2;" x="64.317833" xlink:href="#m870377ffd1" y="77.591545"/>
    </g>
   </g>
   <g id="PathCollection_6">
    <g clip-path="url(#p1c0edb883d)">
     <use style="fill:#edb120;stroke:#edb120;stroke-width:0.2;" x="64.317833" xlink:href="#ma3a8df368b" y="76.949597"/>
    </g>
   </g>
   <g id="PathCollection_7">
    <g clip-path="url(#p1c0edb883d)">
     <use style="fill:#edb120;fill-opacity:0.3;stroke:#edb120;stroke-opacity:0.3;stroke-width:0.2;" x="78.649499" xlink:href="#m870377ffd1" y="58.676449"/>
     <use style="fill:#edb120;fill-opacity:0.3;stroke:#edb120;stroke-opacity:0.3;stroke-width:0.2;" x="78.649499" xlink:href="#m870377ffd1" y="61.385864"/>
     <use style="fill:#edb120;fill-opacity:0.3;stroke:#edb120;stroke-opacity:0.3;stroke-width:0.2;" x="78.649499" xlink:href="#m870377ffd1" y="59.423416"/>
     <use style="fill:#edb120;fill-opacity:0.3;stroke:#edb120;stroke-opacity:0.3;stroke-width:0.2;" x="78.649499" xlink:href="#m870377ffd1" y="68.813166"/>
    </g>
   </g>
   <g id="PathCollection_8">
    <g clip-path="url(#p1c0edb883d)">
     <use style="fill:#edb120;stroke:#edb120;stroke-width:0.2;" x="78.649499" xlink:href="#ma3a8df368b" y="62.074724"/>
    </g>
   </g>
   <g id="PathCollection_9">
    <g clip-path="url(#p1c0edb883d)">
     <use style="fill:#edb120;fill-opacity:0.3;stroke:#edb120;stroke-opacity:0.3;stroke-width:0.2;" x="92.981166" xlink:href="#m870377ffd1" y="21.390674"/>
     <use style="fill:#edb120;fill-opacity:0.3;stroke:#edb120;stroke-opacity:0.3;stroke-width:0.2;" x="92.981166" xlink:href="#m870377ffd1" y="46.476881"/>
     <use style="fill:#edb120;fill-opacity:0.3;stroke:#edb120;stroke-opacity:0.3;stroke-width:0.2;" x="92.981166" xlink:href="#m870377ffd1" y="50.277615"/>
     <use style="fill:#edb120;fill-opacity:0.3;stroke:#edb120;stroke-opacity:0.3;stroke-width:0.2;" x="92.981166" xlink:href="#m870377ffd1" y="21.288452"/>
    </g>
   </g>
   <g id="PathCollection_10">
    <g clip-path="url(#p1c0edb883d)">
     <use style="fill:#edb120;stroke:#edb120;stroke-width:0.2;" x="92.981166" xlink:href="#ma3a8df368b" y="34.858405"/>
    </g>
   </g>
   <g id="PathCollection_11">
    <g clip-path="url(#p1c0edb883d)">
     <use style="fill:#edb120;fill-opacity:0.3;stroke:#edb120;stroke-opacity:0.3;stroke-width:0.2;" x="107.312832" xlink:href="#m870377ffd1" y="31.436334"/>
     <use style="fill:#edb120;fill-opacity:0.3;stroke:#edb120;stroke-opacity:0.3;stroke-width:0.2;" x="107.312832" xlink:href="#m870377ffd1" y="32.805277"/>
     <use style="fill:#edb120;fill-opacity:0.3;stroke:#edb120;stroke-opacity:0.3;stroke-width:0.2;" x="107.312832" xlink:href="#m870377ffd1" y="35.888836"/>
     <use style="fill:#edb120;fill-opacity:0.3;stroke:#edb120;stroke-opacity:0.3;stroke-width:0.2;" x="107.312832" xlink:href="#m870377ffd1" y="46.934627"/>
    </g>
   </g>
   <g id="PathCollection_12">
    <g clip-path="url(#p1c0edb883d)">
     <use style="fill:#edb120;stroke:#edb120;stroke-width:0.2;" x="107.312832" xlink:href="#ma3a8df368b" y="36.766268"/>
    </g>
   </g>
   <g id="PathCollection_13">
    <g clip-path="url(#p1c0edb883d)">
     <use style="fill:#edb120;fill-opacity:0.3;stroke:#edb120;stroke-opacity:0.3;stroke-width:0.2;" x="121.644498" xlink:href="#m870377ffd1" y="51.110953"/>
     <use style="fill:#edb120;fill-opacity:0.3;stroke:#edb120;stroke-opacity:0.3;stroke-width:0.2;" x="121.644498" xlink:href="#m870377ffd1" y="46.191542"/>
     <use style="fill:#edb120;fill-opacity:0.3;stroke:#edb120;stroke-opacity:0.3;stroke-width:0.2;" x="121.644498" xlink:href="#m870377ffd1" y="26.29924"/>
     <use style="fill:#edb120;fill-opacity:0.3;stroke:#edb120;stroke-opacity:0.3;stroke-width:0.2;" x="121.644498" xlink:href="#m870377ffd1" y="48.489386"/>
    </g>
   </g>
   <g id="PathCollection_14">
    <g clip-path="url(#p1c0edb883d)">
     <use style="fill:#edb120;stroke:#edb120;stroke-width:0.2;" x="121.644498" xlink:href="#ma3a8df368b" y="43.022781"/>
    </g>
   </g>
   <g id="matplotlib.axis_1">
    <g id="xtick_1">
     <g id="line2d_1">
      <defs>
       <path d="M 0 0 
L 0 3.5 
" id="mcde5a4c6e5" style="stroke:#000000;stroke-width:0.8;"/>
      </defs>
      <g>
       <use style="stroke:#000000;stroke-width:0.8;" x="35.6545" xlink:href="#mcde5a4c6e5" y="101.788998"/>
      </g>
     </g>
     <g id="text_1">
      <!-- fresh -->
      <g transform="translate(29.843095 117.57411)rotate(-20)scale(0.06 -0.06)">
       <defs>
        <path d="M 34.859375 65.4375 
Q 32.03125 66.40625 29.59375 66.40625 
Q 25.34375 66.40625 22.578125 63.1875 
Q 19.828125 59.96875 19.828125 55.03125 
Q 19.828125 53.71875 20.0625 52.296875 
L 30.71875 52.296875 
L 30.71875 44.484375 
L 20.0625 44.484375 
L 20.0625 0 
L 10.796875 0 
L 10.796875 44.484375 
L 3.171875 44.484375 
L 3.171875 52.296875 
L 10.796875 52.296875 
Q 10.796875 62.3125 15.71875 68.015625 
Q 20.65625 73.734375 28.765625 73.734375 
Q 32.8125 73.734375 37.453125 72.265625 
z
" id="TrebuchetMS-102"/>
        <path d="M 35.015625 43.359375 
Q 31.984375 45.453125 28.90625 45.453125 
Q 23.96875 45.453125 20.28125 40.90625 
Q 16.609375 36.375 16.609375 29.984375 
L 16.609375 0 
L 7.328125 0 
L 7.328125 52.296875 
L 16.609375 52.296875 
L 16.609375 43.953125 
Q 21.6875 53.265625 31.6875 53.265625 
Q 34.1875 53.265625 38.875 52.390625 
z
" id="TrebuchetMS-114"/>
        <path d="M 50.640625 25.25 
L 12.9375 25.25 
Q 12.9375 16.0625 17.96875 11.140625 
Q 22.40625 6.84375 29.390625 6.84375 
Q 37.359375 6.84375 42.671875 11.46875 
L 46.578125 4.78125 
Q 44.4375 2.640625 39.984375 1.078125 
Q 34.421875 -0.984375 27.59375 -0.984375 
Q 17.71875 -0.984375 10.84375 5.71875 
Q 3.171875 13.09375 3.171875 25.53125 
Q 3.171875 38.484375 11.03125 46.296875 
Q 18.0625 53.265625 27.6875 53.265625 
Q 38.875 53.265625 45.21875 46.96875 
Q 51.375 40.921875 51.375 30.90625 
Q 51.375 27.828125 50.640625 25.25 
z
M 28.125 45.453125 
Q 21.921875 45.453125 17.71875 41.453125 
Q 13.71875 37.640625 13.1875 31.984375 
L 42.140625 31.984375 
Q 42.140625 37.59375 38.625 41.359375 
Q 34.765625 45.453125 28.125 45.453125 
z
" id="TrebuchetMS-101"/>
        <path d="M 3.171875 3.125 
L 6.453125 11.921875 
Q 14.203125 6.84375 18.953125 6.84375 
Q 27.546875 6.84375 27.546875 14.0625 
Q 27.546875 19.234375 19.234375 22.953125 
Q 12.84375 25.875 10.625 27.390625 
Q 8.40625 28.90625 6.765625 30.828125 
Q 5.125 32.765625 4.3125 34.9375 
Q 3.515625 37.109375 3.515625 39.59375 
Q 3.515625 46.046875 8.203125 49.65625 
Q 12.890625 53.265625 20.453125 53.265625 
Q 26.171875 53.265625 34.859375 49.65625 
L 32.234375 41.0625 
Q 26.703125 45.453125 21.140625 45.453125 
Q 17.828125 45.453125 15.546875 43.890625 
Q 13.28125 42.328125 13.28125 39.9375 
Q 13.28125 34.90625 19 32.328125 
L 25.640625 29.296875 
Q 31.734375 26.515625 34.515625 22.953125 
Q 37.3125 19.390625 37.3125 14.015625 
Q 37.3125 6.984375 32.375 3 
Q 27.4375 -0.984375 18.703125 -0.984375 
Q 10.453125 -0.984375 3.171875 3.125 
z
" id="TrebuchetMS-115"/>
        <path d="M 38.8125 0 
L 38.8125 32.859375 
Q 38.8125 38.71875 35.9375 42.078125 
Q 33.0625 45.453125 27.828125 45.453125 
Q 24.46875 45.453125 21.0625 43.46875 
Q 17.671875 41.5 15.875 38.875 
L 15.875 0 
L 6.59375 0 
L 6.59375 73.734375 
L 15.875 73.734375 
L 15.875 46.53125 
Q 17.71875 49.421875 21.84375 51.34375 
Q 25.984375 53.265625 30.375 53.265625 
Q 38.671875 53.265625 43.375 47.796875 
Q 48.09375 42.328125 48.09375 32.859375 
L 48.09375 0 
z
" id="TrebuchetMS-104"/>
       </defs>
       <use xlink:href="#TrebuchetMS-102"/>
       <use x="36.962891" xlink:href="#TrebuchetMS-114"/>
       <use x="75.830078" xlink:href="#TrebuchetMS-101"/>
       <use x="130.371094" xlink:href="#TrebuchetMS-115"/>
       <use x="170.849609" xlink:href="#TrebuchetMS-104"/>
      </g>
     </g>
    </g>
    <g id="xtick_2">
     <g id="line2d_2">
      <g>
       <use style="stroke:#000000;stroke-width:0.8;" x="49.986166" xlink:href="#mcde5a4c6e5" y="101.788998"/>
      </g>
     </g>
     <g id="text_2">
      <!-- O -->
      <g transform="translate(48.632429 114.329194)rotate(-20)scale(0.06 -0.06)">
       <defs>
        <path d="M 3.90625 36.375 
Q 3.90625 51.90625 11.6875 62.34375 
Q 19.484375 72.796875 32.71875 72.796875 
Q 47.609375 72.796875 55.546875 63.171875 
Q 63.484375 53.5625 63.484375 36.375 
Q 63.484375 18.75 55.515625 8.765625 
Q 47.5625 -1.21875 32.71875 -1.21875 
Q 19.1875 -1.21875 11.546875 9.328125 
Q 3.90625 19.875 3.90625 36.375 
z
M 14.15625 36.375 
Q 14.15625 24.078125 19.015625 15.8125 
Q 23.875 7.5625 32.71875 7.5625 
Q 42.71875 7.5625 47.96875 15.125 
Q 53.21875 22.703125 53.21875 36.375 
Q 53.21875 64.015625 32.71875 64.015625 
Q 23.640625 64.015625 18.890625 56.59375 
Q 14.15625 49.171875 14.15625 36.375 
z
" id="TrebuchetMS-79"/>
       </defs>
       <use xlink:href="#TrebuchetMS-79"/>
      </g>
     </g>
    </g>
    <g id="xtick_3">
     <g id="line2d_3">
      <g>
       <use style="stroke:#000000;stroke-width:0.8;" x="64.317833" xlink:href="#mcde5a4c6e5" y="101.788998"/>
      </g>
     </g>
     <g id="text_3">
      <!-- OR -->
      <g transform="translate(61.323304 115.523593)rotate(-20)scale(0.06 -0.06)">
       <defs>
        <path d="M 47.015625 0 
L 27.9375 30.71875 
Q 24.65625 30.71875 17.578125 31.203125 
L 17.578125 0 
L 7.8125 0 
L 7.8125 71.53125 
Q 8.34375 71.53125 15.40625 71.890625 
Q 22.46875 72.265625 25.6875 72.265625 
Q 51.46875 72.265625 51.46875 51.765625 
Q 51.46875 45.015625 47.3125 39.625 
Q 43.171875 34.234375 37.453125 32.90625 
L 58.203125 0 
z
M 17.578125 62.75 
L 17.578125 39.5 
Q 21.09375 39.015625 24.421875 39.015625 
Q 33.203125 39.015625 37.203125 41.84375 
Q 41.21875 44.671875 41.21875 51.953125 
Q 41.21875 57.953125 36.921875 60.59375 
Q 32.625 63.234375 23.34375 63.234375 
Q 21.875 63.234375 17.578125 62.75 
z
" id="TrebuchetMS-82"/>
       </defs>
       <use xlink:href="#TrebuchetMS-79"/>
       <use x="67.382812" xlink:href="#TrebuchetMS-82"/>
      </g>
     </g>
    </g>
    <g id="xtick_4">
     <g id="line2d_4">
      <g>
       <use style="stroke:#000000;stroke-width:0.8;" x="78.649499" xlink:href="#mcde5a4c6e5" y="101.788998"/>
      </g>
     </g>
     <g id="text_4">
      <!-- ORT -->
      <g transform="translate(74.13443 116.630456)rotate(-20)scale(0.06 -0.06)">
       <defs>
        <path d="M 33.40625 62.75 
L 33.40625 0 
L 23.640625 0 
L 23.640625 62.75 
L 0.875 62.75 
L 0.875 71.53125 
L 57.171875 71.53125 
L 57.171875 62.75 
z
" id="TrebuchetMS-84"/>
       </defs>
       <use xlink:href="#TrebuchetMS-79"/>
       <use x="67.382812" xlink:href="#TrebuchetMS-82"/>
       <use x="121.460938" xlink:href="#TrebuchetMS-84"/>
      </g>
     </g>
    </g>
    <g id="xtick_5">
     <g id="line2d_5">
      <g>
       <use style="stroke:#000000;stroke-width:0.8;" x="92.981166" xlink:href="#mcde5a4c6e5" y="101.788998"/>
      </g>
     </g>
     <g id="text_5">
      <!-- ORTO -->
      <g transform="translate(86.721352 117.900526)rotate(-20)scale(0.06 -0.06)">
       <use xlink:href="#TrebuchetMS-79"/>
       <use x="67.382812" xlink:href="#TrebuchetMS-82"/>
       <use x="121.460938" xlink:href="#TrebuchetMS-84"/>
       <use x="174.017578" xlink:href="#TrebuchetMS-79"/>
      </g>
     </g>
    </g>
    <g id="xtick_6">
     <g id="line2d_6">
      <g>
       <use style="stroke:#000000;stroke-width:0.8;" x="107.312832" xlink:href="#mcde5a4c6e5" y="101.788998"/>
      </g>
     </g>
     <g id="text_6">
      <!-- ORTOU -->
      <g transform="translate(99.225022 119.231198)rotate(-20)scale(0.06 -0.06)">
       <defs>
        <path d="M 7.328125 71.53125 
L 17.09375 71.53125 
L 17.09375 22.5625 
Q 17.09375 16.015625 21.234375 11.78125 
Q 25.390625 7.5625 32.234375 7.5625 
Q 39.453125 7.5625 43.59375 11.65625 
Q 47.75 15.765625 47.75 22.796875 
L 47.75 71.53125 
L 57.515625 71.53125 
L 57.515625 21.78125 
Q 57.515625 10.9375 50.75 4.859375 
Q 44 -1.21875 32.328125 -1.21875 
Q 20.3125 -1.21875 13.8125 4.734375 
Q 7.328125 10.6875 7.328125 21.828125 
z
" id="TrebuchetMS-85"/>
       </defs>
       <use xlink:href="#TrebuchetMS-79"/>
       <use x="67.382812" xlink:href="#TrebuchetMS-82"/>
       <use x="121.460938" xlink:href="#TrebuchetMS-84"/>
       <use x="174.017578" xlink:href="#TrebuchetMS-79"/>
       <use x="241.400391" xlink:href="#TrebuchetMS-85"/>
      </g>
     </g>
    </g>
    <g id="xtick_7">
     <g id="line2d_7">
      <g>
       <use style="stroke:#000000;stroke-width:0.8;" x="121.644498" xlink:href="#mcde5a4c6e5" y="101.788998"/>
      </g>
     </g>
     <g id="text_7">
      <!-- ORTOUL -->
      <g transform="translate(112.12909 120.270405)rotate(-20)scale(0.06 -0.06)">
       <defs>
        <path d="M 7.328125 0 
L 7.328125 71.53125 
L 17.09375 71.53125 
L 17.09375 8.796875 
L 49.421875 8.796875 
L 49.421875 0 
z
" id="TrebuchetMS-76"/>
       </defs>
       <use xlink:href="#TrebuchetMS-79"/>
       <use x="67.382812" xlink:href="#TrebuchetMS-82"/>
       <use x="121.460938" xlink:href="#TrebuchetMS-84"/>
       <use x="174.017578" xlink:href="#TrebuchetMS-79"/>
       <use x="241.400391" xlink:href="#TrebuchetMS-85"/>
       <use x="306.244141" xlink:href="#TrebuchetMS-76"/>
      </g>
     </g>
    </g>
    <g id="text_8">
     <!-- staining steps -->
     <g transform="translate(54.240749 131.325858)scale(0.08 -0.08)">
      <defs>
       <path d="M 9.90625 44.96875 
L 3.859375 44.96875 
L 3.859375 52.296875 
L 9.90625 52.296875 
L 9.90625 63.234375 
L 19.1875 66.796875 
L 19.1875 52.296875 
L 33.546875 52.296875 
L 33.546875 44.96875 
L 19.1875 44.96875 
L 19.1875 19 
Q 19.1875 12.40625 21.40625 9.625 
Q 23.640625 6.84375 28.5625 6.84375 
Q 32.125 6.84375 35.9375 8.640625 
L 37.3125 0.484375 
Q 31.546875 -0.984375 24.65625 -0.984375 
Q 18.453125 -0.984375 14.171875 3.625 
Q 9.90625 8.25 9.90625 15.28125 
z
" id="TrebuchetMS-116"/>
       <path d="M 36.140625 6 
Q 30.5625 -0.984375 19.09375 -0.984375 
Q 12.9375 -0.984375 8.421875 3.484375 
Q 3.90625 7.953125 3.90625 14.59375 
Q 3.90625 22.5625 10.859375 28.046875 
Q 17.828125 33.546875 28.609375 33.546875 
Q 31.546875 33.546875 35.25 32.28125 
Q 35.25 44.96875 23.921875 44.96875 
Q 15.234375 44.96875 10.546875 40.28125 
L 6.640625 48.046875 
Q 9.28125 50.203125 13.9375 51.734375 
Q 18.609375 53.265625 22.859375 53.265625 
Q 34.234375 53.265625 39.375 48.09375 
Q 44.53125 42.921875 44.53125 31.640625 
L 44.53125 12.890625 
Q 44.53125 6 48.640625 3.71875 
L 48.640625 -0.921875 
Q 42.96875 -0.921875 40.15625 0.6875 
Q 37.359375 2.296875 36.140625 6 
z
M 35.25 25.6875 
Q 30.859375 26.65625 29.109375 26.65625 
Q 22.078125 26.65625 17.625 23.046875 
Q 13.1875 19.4375 13.1875 14.5 
Q 13.1875 6.34375 22.796875 6.34375 
Q 29.828125 6.34375 35.25 13.03125 
z
" id="TrebuchetMS-97"/>
       <path d="M 16.15625 72.078125 
Q 18.5625 72.078125 20.234375 70.390625 
Q 21.921875 68.703125 21.921875 66.359375 
Q 21.921875 63.96875 20.234375 62.28125 
Q 18.5625 60.59375 16.15625 60.59375 
Q 13.8125 60.59375 12.125 62.28125 
Q 10.453125 63.96875 10.453125 66.359375 
Q 10.453125 68.75 12.109375 70.40625 
Q 13.765625 72.078125 16.15625 72.078125 
z
M 11.078125 0 
L 11.078125 44.484375 
L 3.90625 44.484375 
L 3.90625 52.296875 
L 20.359375 52.296875 
L 20.359375 0 
z
" id="TrebuchetMS-105"/>
       <path d="M 38.765625 0 
L 38.765625 30.421875 
Q 38.765625 38.765625 36.25 42.109375 
Q 33.734375 45.453125 27.828125 45.453125 
Q 24.65625 45.453125 21.1875 43.546875 
Q 17.71875 41.65625 15.875 38.875 
L 15.875 0 
L 6.59375 0 
L 6.59375 52.296875 
L 12.9375 52.296875 
L 15.875 45.5625 
Q 20.453125 53.265625 30.859375 53.265625 
Q 48.046875 53.265625 48.046875 32.375 
L 48.046875 0 
z
" id="TrebuchetMS-110"/>
       <path d="M 4.6875 -14.3125 
L 9.71875 -6.890625 
Q 17.828125 -12.3125 24.65625 -12.3125 
Q 30.953125 -12.3125 34.59375 -10.125 
Q 38.234375 -7.953125 38.234375 -4.734375 
Q 38.234375 1.609375 29.046875 1.609375 
Q 27.484375 1.609375 23.375 0.828125 
Q 19.28125 0.046875 17 0.046875 
Q 5.859375 0.046875 5.859375 8.453125 
Q 5.859375 11.03125 8.46875 13.125 
Q 11.078125 15.234375 14.9375 16.15625 
Q 3.90625 21.34375 3.90625 34.125 
Q 3.90625 42.328125 9.609375 47.796875 
Q 15.328125 53.265625 23.734375 53.265625 
Q 31.453125 53.265625 35.796875 50.09375 
L 40.4375 55.671875 
L 46.484375 49.953125 
L 40.921875 45.75 
Q 44.484375 41.109375 44.484375 33.640625 
Q 44.484375 25.734375 39.546875 20.359375 
Q 34.625 14.984375 26.609375 14.203125 
L 18.953125 13.421875 
Q 17.578125 13.28125 15.28125 12.375 
Q 12.984375 11.46875 12.984375 10.015625 
Q 12.984375 8.015625 17.78125 8.015625 
Q 19.875 8.015625 24.3125 8.765625 
Q 28.765625 9.515625 30.90625 9.515625 
Q 38.625 9.515625 42.9375 5.828125 
Q 47.265625 2.15625 47.265625 -4.390625 
Q 47.265625 -11.625 40.796875 -16.0625 
Q 34.328125 -20.515625 24.421875 -20.515625 
Q 19.34375 -20.515625 13.71875 -18.703125 
Q 8.109375 -16.890625 4.6875 -14.3125 
z
M 24.359375 45.796875 
Q 19.53125 45.796875 16.46875 42.375 
Q 13.421875 38.96875 13.421875 34.078125 
Q 13.421875 28.609375 16.375 25.015625 
Q 19.34375 21.4375 24.359375 21.4375 
Q 29.296875 21.4375 32.078125 24.921875 
Q 34.859375 28.421875 34.859375 34.078125 
Q 34.859375 38.96875 31.859375 42.375 
Q 28.859375 45.796875 24.359375 45.796875 
z
" id="TrebuchetMS-103"/>
       <path id="TrebuchetMS-32"/>
       <path d="M 15.875 2.875 
L 15.875 -20.515625 
L 6.59375 -20.515625 
L 6.59375 52.296875 
L 15.875 52.296875 
L 15.875 48 
Q 21.140625 53.265625 28.609375 53.265625 
Q 39.75 53.265625 45.953125 46.328125 
Q 52.15625 39.40625 52.15625 26.03125 
Q 52.15625 14.109375 45.90625 6.5625 
Q 39.65625 -0.984375 27.828125 -0.984375 
Q 24.515625 -0.984375 20.71875 0.1875 
Q 16.9375 1.375 15.875 2.875 
z
M 15.875 41.015625 
L 15.875 10.546875 
Q 16.75 9.234375 19.578125 8.03125 
Q 22.40625 6.84375 25.09375 6.84375 
Q 42.390625 6.84375 42.390625 26.375 
Q 42.390625 36.28125 38.28125 40.859375 
Q 34.1875 45.453125 25.140625 45.453125 
Q 23.1875 45.453125 20.359375 44.078125 
Q 17.53125 42.71875 15.875 41.015625 
z
" id="TrebuchetMS-112"/>
      </defs>
      <use xlink:href="#TrebuchetMS-115"/>
      <use x="40.478516" xlink:href="#TrebuchetMS-116"/>
      <use x="80.126953" xlink:href="#TrebuchetMS-97"/>
      <use x="132.666016" xlink:href="#TrebuchetMS-105"/>
      <use x="161.181641" xlink:href="#TrebuchetMS-110"/>
      <use x="215.820312" xlink:href="#TrebuchetMS-105"/>
      <use x="244.335938" xlink:href="#TrebuchetMS-110"/>
      <use x="298.974609" xlink:href="#TrebuchetMS-103"/>
      <use x="349.169922" xlink:href="#TrebuchetMS-32"/>
      <use x="379.296875" xlink:href="#TrebuchetMS-115"/>
      <use x="419.775391" xlink:href="#TrebuchetMS-116"/>
      <use x="459.423828" xlink:href="#TrebuchetMS-101"/>
      <use x="513.964844" xlink:href="#TrebuchetMS-112"/>
      <use x="569.677734" xlink:href="#TrebuchetMS-115"/>
     </g>
    </g>
   </g>
   <g id="matplotlib.axis_2">
    <g id="ytick_1">
     <g id="line2d_8">
      <defs>
       <path d="M 0 0 
L -3.5 0 
" id="mc93b6225e0" style="stroke:#000000;stroke-width:0.8;"/>
      </defs>
      <g>
       <use style="stroke:#000000;stroke-width:0.8;" x="31.355" xlink:href="#mc93b6225e0" y="101.788998"/>
      </g>
     </g>
     <g id="text_9">
      <!-- 0 -->
      <g transform="translate(20.16 104.738373)scale(0.08 -0.08)">
       <defs>
        <path d="M 3.125 37.9375 
Q 3.125 53.375 9.375 63.078125 
Q 15.625 72.796875 26.953125 72.796875 
Q 38.1875 72.796875 43.828125 64.6875 
Q 49.46875 56.59375 49.46875 36.375 
Q 49.46875 19 43.546875 9 
Q 37.640625 -0.984375 26.265625 -0.984375 
Q 14.890625 -0.984375 9 7.078125 
Q 3.125 15.140625 3.125 37.9375 
z
M 12.890625 37.0625 
Q 12.890625 7.328125 25.59375 7.328125 
Q 32.859375 7.328125 36.28125 13.921875 
Q 39.703125 20.515625 39.703125 37.015625 
Q 39.703125 48.390625 38.375 53.703125 
Q 37.0625 59.03125 34.125 61.765625 
Q 31.203125 64.5 26.703125 64.5 
Q 12.890625 64.5 12.890625 37.0625 
z
" id="TrebuchetMS-48"/>
       </defs>
       <use xlink:href="#TrebuchetMS-48"/>
      </g>
     </g>
    </g>
    <g id="ytick_2">
     <g id="line2d_9">
      <g>
       <use style="stroke:#000000;stroke-width:0.8;" x="31.355" xlink:href="#mc93b6225e0" y="72.875381"/>
      </g>
     </g>
     <g id="text_10">
      <!-- 2 -->
      <g transform="translate(20.16 75.824756)scale(0.08 -0.08)">
       <defs>
        <path d="M 3.375 0 
L 3.375 1.953125 
L 25.78125 36.28125 
Q 32.8125 47.078125 32.8125 54.59375 
Q 32.8125 64.5 21.625 64.5 
Q 17.671875 64.5 14.203125 62.421875 
Q 10.75 60.359375 9.1875 57.171875 
L 2.875 62.359375 
Q 4.546875 67.140625 9.40625 69.96875 
Q 14.265625 72.796875 21.140625 72.796875 
Q 31.453125 72.796875 37.25 68.03125 
Q 43.0625 63.28125 43.0625 54.59375 
Q 43.0625 46.53125 35.359375 34.28125 
L 19.28125 8.796875 
L 47.3125 8.796875 
L 47.3125 0 
z
" id="TrebuchetMS-50"/>
       </defs>
       <use xlink:href="#TrebuchetMS-50"/>
      </g>
     </g>
    </g>
    <g id="ytick_3">
     <g id="line2d_10">
      <g>
       <use style="stroke:#000000;stroke-width:0.8;" x="31.355" xlink:href="#mc93b6225e0" y="43.961763"/>
      </g>
     </g>
     <g id="text_11">
      <!-- 4 -->
      <g transform="translate(20.16 46.911138)scale(0.08 -0.08)">
       <defs>
        <path d="M 43.0625 19.484375 
L 43.0625 0 
L 33.796875 0 
L 33.796875 19.484375 
L 1.21875 19.484375 
L 1.21875 25.046875 
L 39.65625 71.828125 
L 43.0625 71.828125 
L 43.0625 27 
L 50.296875 27 
L 50.296875 19.484375 
z
M 33.796875 52.34375 
L 12.796875 27 
L 33.796875 27 
z
" id="TrebuchetMS-52"/>
       </defs>
       <use xlink:href="#TrebuchetMS-52"/>
      </g>
     </g>
    </g>
    <g id="ytick_4">
     <g id="line2d_11">
      <g>
       <use style="stroke:#000000;stroke-width:0.8;" x="31.355" xlink:href="#mc93b6225e0" y="15.048146"/>
      </g>
     </g>
     <g id="text_12">
      <!-- 6 -->
      <g transform="translate(20.16 17.997521)scale(0.08 -0.08)">
       <defs>
        <path d="M 32.8125 72.796875 
L 37.546875 67.578125 
Q 33.25 65.875 25.125 56.03125 
Q 17 46.1875 16.109375 40.875 
Q 20.171875 44.78125 27.390625 44.78125 
Q 36.859375 44.78125 42.578125 38.71875 
Q 48.296875 32.671875 48.296875 22.078125 
Q 48.296875 11.578125 42.40625 5.171875 
Q 36.53125 -1.21875 27.640625 -1.21875 
Q 4.109375 -1.21875 4.109375 29.984375 
Q 4.109375 42.96875 13.3125 56.5625 
Q 22.515625 70.171875 32.8125 72.796875 
z
M 14.359375 22.359375 
Q 14.359375 7.078125 26.90625 7.078125 
Q 32.171875 7.078125 35.21875 11.0625 
Q 38.28125 15.046875 38.28125 21.578125 
Q 38.28125 28.375 35.0625 32.421875 
Q 31.84375 36.46875 26.765625 36.46875 
Q 14.359375 36.46875 14.359375 22.359375 
z
" id="TrebuchetMS-54"/>
       </defs>
       <use xlink:href="#TrebuchetMS-54"/>
      </g>
     </g>
    </g>
    <g id="text_13">
     <!-- sample volume ($mm^3$) -->
     <g transform="translate(14.48 95.334499)rotate(-90)scale(0.08 -0.08)">
      <defs>
       <path d="M 67.140625 0 
L 67.140625 33.109375 
Q 67.140625 45.453125 56.453125 45.453125 
Q 53.078125 45.453125 50.140625 43.375 
Q 47.21875 41.3125 46.140625 38.671875 
L 46.140625 0 
L 36.859375 0 
L 36.859375 37.15625 
Q 36.859375 41.015625 33.953125 43.234375 
Q 31.0625 45.453125 26.265625 45.453125 
Q 23.484375 45.453125 20.328125 43.296875 
Q 17.1875 41.15625 15.875 38.578125 
L 15.875 0 
L 6.59375 0 
L 6.59375 52.296875 
L 12.640625 52.296875 
L 15.71875 46.234375 
Q 21.09375 53.265625 29.15625 53.265625 
Q 40.375 53.265625 44.875 46.296875 
Q 46.4375 49.265625 50.6875 51.265625 
Q 54.9375 53.265625 59.421875 53.265625 
Q 67.53125 53.265625 71.96875 48.453125 
Q 76.421875 43.65625 76.421875 34.96875 
L 76.421875 0 
z
" id="TrebuchetMS-109"/>
       <path d="M 7.328125 14.796875 
L 7.328125 73.734375 
L 16.609375 73.734375 
L 16.609375 16.359375 
Q 16.609375 12.15625 19.015625 9.734375 
Q 21.4375 7.328125 25.34375 7.328125 
L 25.34375 -0.984375 
Q 7.328125 -0.984375 7.328125 14.796875 
z
" id="TrebuchetMS-108"/>
       <path d="M 25.4375 -0.984375 
L 23 -0.984375 
L 0.59375 52.4375 
L 10.75 52.4375 
L 24.5625 15.828125 
L 38.671875 52.4375 
L 48.390625 52.4375 
z
" id="TrebuchetMS-118"/>
       <path d="M 3.171875 26.265625 
Q 3.171875 38.375 9.6875 45.8125 
Q 16.21875 53.265625 26.859375 53.265625 
Q 38.09375 53.265625 44.28125 46.109375 
Q 50.484375 38.96875 50.484375 26.265625 
Q 50.484375 13.625 44.140625 6.3125 
Q 37.796875 -0.984375 26.859375 -0.984375 
Q 15.671875 -0.984375 9.421875 6.390625 
Q 3.171875 13.765625 3.171875 26.265625 
z
M 12.9375 26.265625 
Q 12.9375 6.59375 26.859375 6.59375 
Q 33.34375 6.59375 37.03125 11.859375 
Q 40.71875 17.140625 40.71875 26.265625 
Q 40.71875 45.703125 26.859375 45.703125 
Q 20.515625 45.703125 16.71875 40.53125 
Q 12.9375 35.359375 12.9375 26.265625 
z
" id="TrebuchetMS-111"/>
       <path d="M 15.375 52.296875 
L 15.375 18.953125 
Q 15.375 6.84375 25.875 6.84375 
Q 30.46875 6.84375 34.28125 9.46875 
Q 38.09375 12.109375 39.3125 15.578125 
L 39.3125 52.296875 
L 48.578125 52.296875 
L 48.578125 0 
L 39.3125 0 
L 39.3125 7.234375 
Q 37.75 4.15625 33.03125 1.578125 
Q 28.328125 -0.984375 23.828125 -0.984375 
Q 15.234375 -0.984375 10.671875 3.953125 
Q 6.109375 8.890625 6.109375 17.96875 
L 6.109375 52.296875 
z
" id="TrebuchetMS-117"/>
       <path d="M 30.171875 72.015625 
L 30.171875 67.96875 
Q 20.515625 54 20.515625 27.203125 
Q 20.515625 -4.640625 30.171875 -15.765625 
L 30.171875 -20.90625 
Q 20.3125 -14.015625 14.859375 -1.140625 
Q 9.421875 11.71875 9.421875 27.296875 
Q 9.421875 40.578125 15.625 54.125 
Q 21.828125 67.671875 30.171875 72.015625 
z
" id="TrebuchetMS-40"/>
       <path d="M 89.796875 33.015625 
L 83.40625 0 
L 74.421875 0 
L 80.71875 32.71875 
Q 81.109375 34.8125 81.296875 36.328125 
Q 81.5 37.84375 81.5 38.921875 
Q 81.5 43.3125 79.046875 45.75 
Q 76.609375 48.1875 72.21875 48.1875 
Q 65.671875 48.1875 60.546875 43.28125 
Q 55.421875 38.375 53.90625 30.515625 
L 47.90625 0 
L 38.921875 0 
L 45.3125 32.71875 
Q 45.703125 34.515625 45.890625 36.046875 
Q 46.09375 37.59375 46.09375 38.8125 
Q 46.09375 43.265625 43.65625 45.71875 
Q 41.21875 48.1875 36.921875 48.1875 
Q 30.28125 48.1875 25.140625 43.28125 
Q 20.015625 38.375 18.5 30.515625 
L 12.5 0 
L 3.515625 0 
L 14.203125 54.6875 
L 23.1875 54.6875 
L 21.484375 46.1875 
Q 25.140625 50.984375 30.046875 53.484375 
Q 34.96875 56 40.578125 56 
Q 46.53125 56 50.359375 52.875 
Q 54.203125 49.75 54.984375 44.1875 
Q 59.078125 49.953125 64.46875 52.96875 
Q 69.875 56 75.875 56 
Q 82.90625 56 86.734375 51.953125 
Q 90.578125 47.90625 90.578125 40.484375 
Q 90.578125 38.875 90.375 36.9375 
Q 90.1875 35.015625 89.796875 33.015625 
z
" id="DejaVuSans-Oblique-109"/>
       <path d="M 40.578125 39.3125 
Q 47.65625 37.796875 51.625 33 
Q 55.609375 28.21875 55.609375 21.1875 
Q 55.609375 10.40625 48.1875 4.484375 
Q 40.765625 -1.421875 27.09375 -1.421875 
Q 22.515625 -1.421875 17.65625 -0.515625 
Q 12.796875 0.390625 7.625 2.203125 
L 7.625 11.71875 
Q 11.71875 9.328125 16.59375 8.109375 
Q 21.484375 6.890625 26.8125 6.890625 
Q 36.078125 6.890625 40.9375 10.546875 
Q 45.796875 14.203125 45.796875 21.1875 
Q 45.796875 27.640625 41.28125 31.265625 
Q 36.765625 34.90625 28.71875 34.90625 
L 20.21875 34.90625 
L 20.21875 43.015625 
L 29.109375 43.015625 
Q 36.375 43.015625 40.234375 45.921875 
Q 44.09375 48.828125 44.09375 54.296875 
Q 44.09375 59.90625 40.109375 62.90625 
Q 36.140625 65.921875 28.71875 65.921875 
Q 24.65625 65.921875 20.015625 65.03125 
Q 15.375 64.15625 9.8125 62.3125 
L 9.8125 71.09375 
Q 15.4375 72.65625 20.34375 73.4375 
Q 25.25 74.21875 29.59375 74.21875 
Q 40.828125 74.21875 47.359375 69.109375 
Q 53.90625 64.015625 53.90625 55.328125 
Q 53.90625 49.265625 50.4375 45.09375 
Q 46.96875 40.921875 40.578125 39.3125 
z
" id="DejaVuSans-51"/>
       <path d="M 9.421875 -20.90625 
L 9.421875 -15.765625 
Q 19.09375 -4.640625 19.09375 27.203125 
Q 19.09375 54 9.421875 67.96875 
L 9.421875 72.015625 
Q 17.78125 67.671875 23.96875 54.125 
Q 30.171875 40.578125 30.171875 27.296875 
Q 30.171875 11.71875 24.71875 -1.140625 
Q 19.28125 -14.015625 9.421875 -20.90625 
z
" id="TrebuchetMS-41"/>
      </defs>
      <use transform="translate(0 0.765625)" xlink:href="#TrebuchetMS-115"/>
      <use transform="translate(40.478516 0.765625)" xlink:href="#TrebuchetMS-97"/>
      <use transform="translate(93.017578 0.765625)" xlink:href="#TrebuchetMS-109"/>
      <use transform="translate(176.025391 0.765625)" xlink:href="#TrebuchetMS-112"/>
      <use transform="translate(231.738281 0.765625)" xlink:href="#TrebuchetMS-108"/>
      <use transform="translate(261.230469 0.765625)" xlink:href="#TrebuchetMS-101"/>
      <use transform="translate(315.771484 0.765625)" xlink:href="#TrebuchetMS-32"/>
      <use transform="translate(345.898438 0.765625)" xlink:href="#TrebuchetMS-118"/>
      <use transform="translate(394.873047 0.765625)" xlink:href="#TrebuchetMS-111"/>
      <use transform="translate(448.535156 0.765625)" xlink:href="#TrebuchetMS-108"/>
      <use transform="translate(478.027344 0.765625)" xlink:href="#TrebuchetMS-117"/>
      <use transform="translate(532.666016 0.765625)" xlink:href="#TrebuchetMS-109"/>
      <use transform="translate(615.673828 0.765625)" xlink:href="#TrebuchetMS-101"/>
      <use transform="translate(670.214844 0.765625)" xlink:href="#TrebuchetMS-32"/>
      <use transform="translate(700.341797 0.765625)" xlink:href="#TrebuchetMS-40"/>
      <use transform="translate(737.060547 0.765625)" xlink:href="#DejaVuSans-Oblique-109"/>
      <use transform="translate(834.472656 0.765625)" xlink:href="#DejaVuSans-Oblique-109"/>
      <use transform="translate(936.534661 39.046875)scale(0.7)" xlink:href="#DejaVuSans-51"/>
      <use transform="translate(983.805169 0.765625)" xlink:href="#TrebuchetMS-41"/>
     </g>
    </g>
   </g>
   <g id="line2d_12">
    <path clip-path="url(#p1c0edb883d)" d="M 49.986166 78.896702 
L 64.317833 76.949597 
L 78.649499 62.074724 
L 92.981166 34.858405 
L 107.312832 36.766268 
L 121.644498 43.022781 
" style="fill:none;stroke:#edb120;stroke-linecap:square;"/>
   </g>
   <g id="line2d_13">
    <path clip-path="url(#p1c0edb883d)" d="M 35.6545 77.58856 
L 49.986166 78.896702 
" style="fill:none;stroke:#edb120;stroke-dasharray:3.7,1.6;stroke-dashoffset:0;"/>
   </g>
   <g id="patch_3">
    <path d="M 31.355 101.788998 
L 31.355 7.2 
" style="fill:none;stroke:#000000;stroke-linecap:square;stroke-linejoin:miter;stroke-width:0.8;"/>
   </g>
   <g id="patch_4">
    <path d="M 31.355 101.788998 
L 125.943998 101.788998 
" style="fill:none;stroke:#000000;stroke-linecap:square;stroke-linejoin:miter;stroke-width:0.8;"/>
   </g>
  </g>
 </g>
 <defs>
  <clipPath id="p1c0edb883d">
   <rect height="94.588998" width="94.588998" x="31.355" y="7.2"/>
  </clipPath>
 </defs>
</svg>
