<?xml version="1.0" encoding="utf-8" standalone="no"?>
<!DOCTYPE svg PUBLIC "-//W3C//DTD SVG 1.1//EN"
  "http://www.w3.org/Graphics/SVG/1.1/DTD/svg11.dtd">
<!-- Created with matplotlib (https://matplotlib.org/) -->
<svg height="126.544452pt" version="1.1" viewBox="0 0 556.955 126.544452" width="556.955pt" xmlns="http://www.w3.org/2000/svg" xmlns:xlink="http://www.w3.org/1999/xlink">
 <metadata>
  <rdf:RDF xmlns:cc="http://creativecommons.org/ns#" xmlns:dc="http://purl.org/dc/elements/1.1/" xmlns:rdf="http://www.w3.org/1999/02/22-rdf-syntax-ns#">
   <cc:Work>
    <dc:type rdf:resource="http://purl.org/dc/dcmitype/StillImage"/>
    <dc:date>2022-02-09T11:04:45.479869</dc:date>
    <dc:format>image/svg+xml</dc:format>
    <dc:creator>
     <cc:Agent>
      <dc:title>Matplotlib v3.3.2, https://matplotlib.org/</dc:title>
     </cc:Agent>
    </dc:creator>
   </cc:Work>
  </rdf:RDF>
 </metadata>
 <defs>
  <style type="text/css">*{stroke-linecap:butt;stroke-linejoin:round;}</style>
 </defs>
 <g id="figure_1">
  <g id="patch_1">
   <path d="M 0 126.544452 
L 556.955 126.544452 
L 556.955 0 
L 0 0 
z
" style="fill:none;"/>
  </g>
  <g id="axes_1">
   <g id="patch_2">
    <path d="M 31.355 93.6 
L 549.755 93.6 
L 549.755 7.2 
L 31.355 7.2 
z
" style="fill:#ffffff;"/>
   </g>
   <g id="matplotlib.axis_1">
    <g id="xtick_1">
     <g id="line2d_1">
      <defs>
       <path d="M 0 0 
L 0 3.5 
" id="m132cd3266e" style="stroke:#000000;stroke-width:0.8;"/>
      </defs>
      <g>
       <use style="stroke:#000000;stroke-width:0.8;" x="54.918636" xlink:href="#m132cd3266e" y="93.6"/>
      </g>
     </g>
     <g id="text_1">
      <!-- CLEM171127 -->
      <g transform="translate(39.971217 116.035587)rotate(-20)scale(0.06 -0.06)">
       <defs>
        <path d="M 52.984375 68.890625 
L 49.703125 60.546875 
Q 45.015625 63.96875 34.96875 63.96875 
Q 25.53125 63.96875 19.84375 55.859375 
Q 14.15625 47.75 14.15625 34.96875 
Q 14.15625 22.75 19.984375 15.15625 
Q 25.828125 7.5625 35.0625 7.5625 
Q 45.125 7.5625 50.53125 14.703125 
L 55.90625 7.234375 
Q 47.40625 -1.21875 34.03125 -1.21875 
Q 20.015625 -1.21875 11.953125 8.890625 
Q 3.90625 19 3.90625 35.546875 
Q 3.90625 51.5625 12.5 62.15625 
Q 21.09375 72.75 34.71875 72.75 
Q 46.390625 72.75 52.984375 68.890625 
z
" id="TrebuchetMS-67"/>
        <path d="M 7.328125 0 
L 7.328125 71.53125 
L 17.09375 71.53125 
L 17.09375 8.796875 
L 49.421875 8.796875 
L 49.421875 0 
z
" id="TrebuchetMS-76"/>
        <path d="M 17.09375 62.75 
L 17.09375 42.875 
L 40.71875 42.875 
L 40.71875 34.578125 
L 17.09375 34.578125 
L 17.09375 8.796875 
L 49.515625 8.796875 
L 49.515625 0 
L 7.328125 0 
L 7.328125 71.53125 
L 50.046875 71.53125 
L 50.046875 62.75 
z
" id="TrebuchetMS-69"/>
        <path d="M 61.1875 0 
L 52.6875 45.953125 
L 37.0625 -0.984375 
L 34.625 -0.984375 
L 18.5625 45.953125 
L 10.25 0 
L 0.984375 0 
L 14.359375 71.53125 
L 18.796875 71.53125 
L 35.84375 19.34375 
L 51.5625 71.53125 
L 55.953125 71.53125 
L 70.453125 0 
z
" id="TrebuchetMS-77"/>
        <path d="M 24.3125 0 
L 24.3125 54.828125 
L 9.765625 45.75 
L 9.765625 54.890625 
Q 15.28125 57.671875 21.5 62.546875 
Q 27.734375 67.4375 31.15625 71.828125 
L 34.078125 71.828125 
L 34.078125 0 
z
" id="TrebuchetMS-49"/>
        <path d="M 20.90625 0 
L 10.0625 0 
Q 13.671875 11.46875 22.21875 30.34375 
Q 30.765625 49.21875 37.84375 62.546875 
L 4.109375 62.546875 
L 4.109375 71.828125 
L 50.484375 71.828125 
L 50.484375 68.015625 
L 44.1875 55.609375 
Q 41.015625 49.3125 37.546875 41.796875 
Q 34.078125 34.28125 30.75 26.46875 
Q 27.4375 18.65625 24.953125 11.96875 
Q 22.46875 5.28125 20.90625 0 
z
" id="TrebuchetMS-55"/>
        <path d="M 3.375 0 
L 3.375 1.953125 
L 25.78125 36.28125 
Q 32.8125 47.078125 32.8125 54.59375 
Q 32.8125 64.5 21.625 64.5 
Q 17.671875 64.5 14.203125 62.421875 
Q 10.75 60.359375 9.1875 57.171875 
L 2.875 62.359375 
Q 4.546875 67.140625 9.40625 69.96875 
Q 14.265625 72.796875 21.140625 72.796875 
Q 31.453125 72.796875 37.25 68.03125 
Q 43.0625 63.28125 43.0625 54.59375 
Q 43.0625 46.53125 35.359375 34.28125 
L 19.28125 8.796875 
L 47.3125 8.796875 
L 47.3125 0 
z
" id="TrebuchetMS-50"/>
       </defs>
       <use xlink:href="#TrebuchetMS-67"/>
       <use x="59.814453" xlink:href="#TrebuchetMS-76"/>
       <use x="110.449219" xlink:href="#TrebuchetMS-69"/>
       <use x="164.013672" xlink:href="#TrebuchetMS-77"/>
       <use x="234.960938" xlink:href="#TrebuchetMS-49"/>
       <use x="287.402344" xlink:href="#TrebuchetMS-55"/>
       <use x="339.84375" xlink:href="#TrebuchetMS-49"/>
       <use x="392.285156" xlink:href="#TrebuchetMS-49"/>
       <use x="444.726562" xlink:href="#TrebuchetMS-50"/>
       <use x="497.167969" xlink:href="#TrebuchetMS-55"/>
      </g>
     </g>
    </g>
    <g id="xtick_2">
     <g id="line2d_2">
      <g>
       <use style="stroke:#000000;stroke-width:0.8;" x="78.482273" xlink:href="#m132cd3266e" y="93.6"/>
      </g>
     </g>
     <g id="text_2">
      <!-- CLEM180709 -->
      <g transform="translate(63.534854 116.035587)rotate(-20)scale(0.06 -0.06)">
       <defs>
        <path d="M 17.234375 39.796875 
Q 12.703125 42.234375 9.8125 46.578125 
Q 6.9375 50.921875 6.9375 55.5625 
Q 6.9375 63.53125 12.328125 68.15625 
Q 17.71875 72.796875 26.265625 72.796875 
Q 35.5 72.796875 40.578125 68.15625 
Q 45.65625 63.53125 45.65625 55.515625 
Q 45.65625 50.828125 42.578125 45.96875 
Q 39.5 41.109375 35.453125 38.8125 
Q 48.34375 31.59375 48.34375 19.828125 
Q 48.34375 9.90625 42.375 4.453125 
Q 36.421875 -0.984375 26.03125 -0.984375 
Q 4.34375 -0.984375 4.34375 19.828125 
Q 4.34375 25.828125 8.046875 31.640625 
Q 11.765625 37.453125 17.234375 39.796875 
z
M 29.203125 42.828125 
Q 35.84375 49.078125 35.84375 55.765625 
Q 35.84375 59.765625 33.171875 62.125 
Q 30.515625 64.5 26.265625 64.5 
Q 16.703125 64.5 16.703125 55.671875 
Q 16.703125 49.125 29.203125 42.828125 
z
M 24.859375 35.546875 
Q 14.109375 29.734375 14.109375 19.828125 
Q 14.109375 14.5 17.421875 10.90625 
Q 20.75 7.328125 26.03125 7.328125 
Q 31.5 7.328125 35.03125 10.84375 
Q 38.578125 14.359375 38.578125 19.828125 
Q 38.578125 23.78125 36.125 27.265625 
Q 33.6875 30.765625 24.859375 35.546875 
z
" id="TrebuchetMS-56"/>
        <path d="M 3.125 37.9375 
Q 3.125 53.375 9.375 63.078125 
Q 15.625 72.796875 26.953125 72.796875 
Q 38.1875 72.796875 43.828125 64.6875 
Q 49.46875 56.59375 49.46875 36.375 
Q 49.46875 19 43.546875 9 
Q 37.640625 -0.984375 26.265625 -0.984375 
Q 14.890625 -0.984375 9 7.078125 
Q 3.125 15.140625 3.125 37.9375 
z
M 12.890625 37.0625 
Q 12.890625 7.328125 25.59375 7.328125 
Q 32.859375 7.328125 36.28125 13.921875 
Q 39.703125 20.515625 39.703125 37.015625 
Q 39.703125 48.390625 38.375 53.703125 
Q 37.0625 59.03125 34.125 61.765625 
Q 31.203125 64.5 26.703125 64.5 
Q 12.890625 64.5 12.890625 37.0625 
z
" id="TrebuchetMS-48"/>
        <path d="M 19.09375 -1.21875 
L 14.359375 4 
Q 18.609375 5.71875 26.78125 15.53125 
Q 34.96875 25.34375 35.796875 30.671875 
Q 31.78125 26.8125 24.515625 26.8125 
Q 15.046875 26.8125 9.328125 32.859375 
Q 3.609375 38.921875 3.609375 49.515625 
Q 3.609375 60.015625 9.484375 66.40625 
Q 15.375 72.796875 24.265625 72.796875 
Q 47.796875 72.796875 47.796875 41.609375 
Q 47.796875 28.609375 38.59375 15.015625 
Q 29.390625 1.421875 19.09375 -1.21875 
z
M 37.546875 49.21875 
Q 37.546875 64.5 25 64.5 
Q 19.734375 64.5 16.671875 60.515625 
Q 13.625 56.546875 13.625 50 
Q 13.625 43.21875 16.84375 39.15625 
Q 20.0625 35.109375 25.140625 35.109375 
Q 37.546875 35.109375 37.546875 49.21875 
z
" id="TrebuchetMS-57"/>
       </defs>
       <use xlink:href="#TrebuchetMS-67"/>
       <use x="59.814453" xlink:href="#TrebuchetMS-76"/>
       <use x="110.449219" xlink:href="#TrebuchetMS-69"/>
       <use x="164.013672" xlink:href="#TrebuchetMS-77"/>
       <use x="234.960938" xlink:href="#TrebuchetMS-49"/>
       <use x="287.402344" xlink:href="#TrebuchetMS-56"/>
       <use x="339.84375" xlink:href="#TrebuchetMS-48"/>
       <use x="392.285156" xlink:href="#TrebuchetMS-55"/>
       <use x="444.726562" xlink:href="#TrebuchetMS-48"/>
       <use x="497.167969" xlink:href="#TrebuchetMS-57"/>
      </g>
     </g>
    </g>
    <g id="xtick_3">
     <g id="line2d_3">
      <g>
       <use style="stroke:#000000;stroke-width:0.8;" x="102.045909" xlink:href="#m132cd3266e" y="93.6"/>
      </g>
     </g>
     <g id="text_3">
      <!-- CLEM181203 -->
      <g transform="translate(87.09849 116.035587)rotate(-20)scale(0.06 -0.06)">
       <defs>
        <path d="M 5.328125 5.078125 
L 10.015625 12.59375 
Q 14.796875 7.328125 22.125 7.328125 
Q 35.6875 7.328125 35.6875 20.609375 
Q 35.6875 26.65625 31.734375 30.4375 
Q 27.78125 34.234375 21.234375 34.234375 
L 20.453125 34.234375 
L 20.453125 42.140625 
L 20.90625 42.140625 
Q 33.296875 42.140625 33.296875 53.078125 
Q 33.296875 64.5 21.625 64.5 
Q 15.28125 64.5 11.53125 60.25 
L 7.171875 66.890625 
Q 11.71875 72.796875 22.359375 72.796875 
Q 31.734375 72.796875 37.640625 67.796875 
Q 43.5625 62.796875 43.5625 54.984375 
Q 43.5625 49.03125 40.265625 44.4375 
Q 36.96875 39.84375 32.515625 38.28125 
Q 38.671875 36.28125 42.3125 31.46875 
Q 45.953125 26.65625 45.953125 19.828125 
Q 45.953125 9.859375 39.640625 4.4375 
Q 33.34375 -0.984375 21.96875 -0.984375 
Q 17.1875 -0.984375 12.59375 0.796875 
Q 8.015625 2.59375 5.328125 5.078125 
z
" id="TrebuchetMS-51"/>
       </defs>
       <use xlink:href="#TrebuchetMS-67"/>
       <use x="59.814453" xlink:href="#TrebuchetMS-76"/>
       <use x="110.449219" xlink:href="#TrebuchetMS-69"/>
       <use x="164.013672" xlink:href="#TrebuchetMS-77"/>
       <use x="234.960938" xlink:href="#TrebuchetMS-49"/>
       <use x="287.402344" xlink:href="#TrebuchetMS-56"/>
       <use x="339.84375" xlink:href="#TrebuchetMS-49"/>
       <use x="392.285156" xlink:href="#TrebuchetMS-50"/>
       <use x="444.726562" xlink:href="#TrebuchetMS-48"/>
       <use x="497.167969" xlink:href="#TrebuchetMS-51"/>
      </g>
     </g>
    </g>
    <g id="xtick_4">
     <g id="line2d_4">
      <g>
       <use style="stroke:#000000;stroke-width:0.8;" x="125.609545" xlink:href="#m132cd3266e" y="93.6"/>
      </g>
     </g>
     <g id="text_4">
      <!-- PIP200113 -->
      <g transform="translate(113.357429 114.073567)rotate(-20)scale(0.06 -0.06)">
       <defs>
        <path d="M 17.09375 27.546875 
L 17.09375 0 
L 7.328125 0 
L 7.328125 71.53125 
Q 18.40625 72.015625 20.703125 72.015625 
Q 51.859375 72.015625 51.859375 51.171875 
Q 51.859375 27.046875 24.3125 27.046875 
Q 22.65625 27.046875 17.09375 27.546875 
z
M 17.09375 62.75 
L 17.09375 36.328125 
Q 23.296875 35.84375 23.640625 35.84375 
Q 41.796875 35.84375 41.796875 50.140625 
Q 41.796875 63.234375 22.40625 63.234375 
Q 20.453125 63.234375 17.09375 62.75 
z
" id="TrebuchetMS-80"/>
        <path d="M 9.03125 0 
L 9.03125 71.53125 
L 18.796875 71.53125 
L 18.796875 0 
z
" id="TrebuchetMS-73"/>
       </defs>
       <use xlink:href="#TrebuchetMS-80"/>
       <use x="55.761719" xlink:href="#TrebuchetMS-73"/>
       <use x="83.59375" xlink:href="#TrebuchetMS-80"/>
       <use x="139.355469" xlink:href="#TrebuchetMS-50"/>
       <use x="191.796875" xlink:href="#TrebuchetMS-48"/>
       <use x="244.238281" xlink:href="#TrebuchetMS-48"/>
       <use x="296.679688" xlink:href="#TrebuchetMS-49"/>
       <use x="349.121094" xlink:href="#TrebuchetMS-49"/>
       <use x="401.5625" xlink:href="#TrebuchetMS-51"/>
      </g>
     </g>
    </g>
    <g id="xtick_5">
     <g id="line2d_5">
      <g>
       <use style="stroke:#000000;stroke-width:0.8;" x="149.173182" xlink:href="#m132cd3266e" y="93.6"/>
      </g>
     </g>
     <g id="text_5">
      <!-- PIP200909 -->
      <g transform="translate(136.921065 114.073567)rotate(-20)scale(0.06 -0.06)">
       <use xlink:href="#TrebuchetMS-80"/>
       <use x="55.761719" xlink:href="#TrebuchetMS-73"/>
       <use x="83.59375" xlink:href="#TrebuchetMS-80"/>
       <use x="139.355469" xlink:href="#TrebuchetMS-50"/>
       <use x="191.796875" xlink:href="#TrebuchetMS-48"/>
       <use x="244.238281" xlink:href="#TrebuchetMS-48"/>
       <use x="296.679688" xlink:href="#TrebuchetMS-57"/>
       <use x="349.121094" xlink:href="#TrebuchetMS-48"/>
       <use x="401.5625" xlink:href="#TrebuchetMS-57"/>
      </g>
     </g>
    </g>
    <g id="xtick_6">
     <g id="line2d_6">
      <g>
       <use style="stroke:#000000;stroke-width:0.8;" x="172.736818" xlink:href="#m132cd3266e" y="93.6"/>
      </g>
     </g>
     <g id="text_6">
      <!-- PIP200921_1 -->
      <g transform="translate(157.528194 116.225729)rotate(-20)scale(0.06 -0.06)">
       <defs>
        <path d="M -0.390625 -12.40625 
L -0.390625 -6.109375 
L 52.59375 -6.109375 
L 52.59375 -12.40625 
z
" id="TrebuchetMS-95"/>
       </defs>
       <use xlink:href="#TrebuchetMS-80"/>
       <use x="55.761719" xlink:href="#TrebuchetMS-73"/>
       <use x="83.59375" xlink:href="#TrebuchetMS-80"/>
       <use x="139.355469" xlink:href="#TrebuchetMS-50"/>
       <use x="191.796875" xlink:href="#TrebuchetMS-48"/>
       <use x="244.238281" xlink:href="#TrebuchetMS-48"/>
       <use x="296.679688" xlink:href="#TrebuchetMS-57"/>
       <use x="349.121094" xlink:href="#TrebuchetMS-50"/>
       <use x="401.5625" xlink:href="#TrebuchetMS-49"/>
       <use x="454.003906" xlink:href="#TrebuchetMS-95"/>
       <use x="506.445312" xlink:href="#TrebuchetMS-49"/>
      </g>
     </g>
    </g>
    <g id="xtick_7">
     <g id="line2d_7">
      <g>
       <use style="stroke:#000000;stroke-width:0.8;" x="196.300455" xlink:href="#m132cd3266e" y="93.6"/>
      </g>
     </g>
     <g id="text_7">
      <!-- PIP200921_2 -->
      <g transform="translate(181.09183 116.225729)rotate(-20)scale(0.06 -0.06)">
       <use xlink:href="#TrebuchetMS-80"/>
       <use x="55.761719" xlink:href="#TrebuchetMS-73"/>
       <use x="83.59375" xlink:href="#TrebuchetMS-80"/>
       <use x="139.355469" xlink:href="#TrebuchetMS-50"/>
       <use x="191.796875" xlink:href="#TrebuchetMS-48"/>
       <use x="244.238281" xlink:href="#TrebuchetMS-48"/>
       <use x="296.679688" xlink:href="#TrebuchetMS-57"/>
       <use x="349.121094" xlink:href="#TrebuchetMS-50"/>
       <use x="401.5625" xlink:href="#TrebuchetMS-49"/>
       <use x="454.003906" xlink:href="#TrebuchetMS-95"/>
       <use x="506.445312" xlink:href="#TrebuchetMS-50"/>
      </g>
     </g>
    </g>
    <g id="xtick_8">
     <g id="line2d_8">
      <g>
       <use style="stroke:#000000;stroke-width:0.8;" x="219.864091" xlink:href="#m132cd3266e" y="93.6"/>
      </g>
     </g>
     <g id="text_8">
      <!-- PIP201014 -->
      <g transform="translate(207.611974 114.073567)rotate(-20)scale(0.06 -0.06)">
       <defs>
        <path d="M 43.0625 19.484375 
L 43.0625 0 
L 33.796875 0 
L 33.796875 19.484375 
L 1.21875 19.484375 
L 1.21875 25.046875 
L 39.65625 71.828125 
L 43.0625 71.828125 
L 43.0625 27 
L 50.296875 27 
L 50.296875 19.484375 
z
M 33.796875 52.34375 
L 12.796875 27 
L 33.796875 27 
z
" id="TrebuchetMS-52"/>
       </defs>
       <use xlink:href="#TrebuchetMS-80"/>
       <use x="55.761719" xlink:href="#TrebuchetMS-73"/>
       <use x="83.59375" xlink:href="#TrebuchetMS-80"/>
       <use x="139.355469" xlink:href="#TrebuchetMS-50"/>
       <use x="191.796875" xlink:href="#TrebuchetMS-48"/>
       <use x="244.238281" xlink:href="#TrebuchetMS-49"/>
       <use x="296.679688" xlink:href="#TrebuchetMS-48"/>
       <use x="349.121094" xlink:href="#TrebuchetMS-49"/>
       <use x="401.5625" xlink:href="#TrebuchetMS-52"/>
      </g>
     </g>
    </g>
    <g id="xtick_9">
     <g id="line2d_9">
      <g>
       <use style="stroke:#000000;stroke-width:0.8;" x="243.427727" xlink:href="#m132cd3266e" y="93.6"/>
      </g>
     </g>
     <g id="text_9">
      <!-- CLEM210308_1 -->
      <g transform="translate(225.5238 118.187749)rotate(-20)scale(0.06 -0.06)">
       <use xlink:href="#TrebuchetMS-67"/>
       <use x="59.814453" xlink:href="#TrebuchetMS-76"/>
       <use x="110.449219" xlink:href="#TrebuchetMS-69"/>
       <use x="164.013672" xlink:href="#TrebuchetMS-77"/>
       <use x="234.960938" xlink:href="#TrebuchetMS-50"/>
       <use x="287.402344" xlink:href="#TrebuchetMS-49"/>
       <use x="339.84375" xlink:href="#TrebuchetMS-48"/>
       <use x="392.285156" xlink:href="#TrebuchetMS-51"/>
       <use x="444.726562" xlink:href="#TrebuchetMS-48"/>
       <use x="497.167969" xlink:href="#TrebuchetMS-56"/>
       <use x="549.609375" xlink:href="#TrebuchetMS-95"/>
       <use x="602.050781" xlink:href="#TrebuchetMS-49"/>
      </g>
     </g>
    </g>
    <g id="xtick_10">
     <g id="line2d_10">
      <g>
       <use style="stroke:#000000;stroke-width:0.8;" x="266.991364" xlink:href="#m132cd3266e" y="93.6"/>
      </g>
     </g>
     <g id="text_10">
      <!-- CLEM210308_2 -->
      <g transform="translate(249.087437 118.187749)rotate(-20)scale(0.06 -0.06)">
       <use xlink:href="#TrebuchetMS-67"/>
       <use x="59.814453" xlink:href="#TrebuchetMS-76"/>
       <use x="110.449219" xlink:href="#TrebuchetMS-69"/>
       <use x="164.013672" xlink:href="#TrebuchetMS-77"/>
       <use x="234.960938" xlink:href="#TrebuchetMS-50"/>
       <use x="287.402344" xlink:href="#TrebuchetMS-49"/>
       <use x="339.84375" xlink:href="#TrebuchetMS-48"/>
       <use x="392.285156" xlink:href="#TrebuchetMS-51"/>
       <use x="444.726562" xlink:href="#TrebuchetMS-48"/>
       <use x="497.167969" xlink:href="#TrebuchetMS-56"/>
       <use x="549.609375" xlink:href="#TrebuchetMS-95"/>
       <use x="602.050781" xlink:href="#TrebuchetMS-50"/>
      </g>
     </g>
    </g>
    <g id="xtick_11">
     <g id="line2d_11">
      <g>
       <use style="stroke:#000000;stroke-width:0.8;" x="290.555" xlink:href="#m132cd3266e" y="93.6"/>
      </g>
     </g>
     <g id="text_11">
      <!-- CLEM210719 -->
      <g transform="translate(275.607581 116.035587)rotate(-20)scale(0.06 -0.06)">
       <use xlink:href="#TrebuchetMS-67"/>
       <use x="59.814453" xlink:href="#TrebuchetMS-76"/>
       <use x="110.449219" xlink:href="#TrebuchetMS-69"/>
       <use x="164.013672" xlink:href="#TrebuchetMS-77"/>
       <use x="234.960938" xlink:href="#TrebuchetMS-50"/>
       <use x="287.402344" xlink:href="#TrebuchetMS-49"/>
       <use x="339.84375" xlink:href="#TrebuchetMS-48"/>
       <use x="392.285156" xlink:href="#TrebuchetMS-55"/>
       <use x="444.726562" xlink:href="#TrebuchetMS-49"/>
       <use x="497.167969" xlink:href="#TrebuchetMS-57"/>
      </g>
     </g>
    </g>
    <g id="xtick_12">
     <g id="line2d_12">
      <g>
       <use style="stroke:#000000;stroke-width:0.8;" x="314.118636" xlink:href="#m132cd3266e" y="93.6"/>
      </g>
     </g>
     <g id="text_12">
      <!-- CLEM210810 -->
      <g transform="translate(299.171217 116.035587)rotate(-20)scale(0.06 -0.06)">
       <use xlink:href="#TrebuchetMS-67"/>
       <use x="59.814453" xlink:href="#TrebuchetMS-76"/>
       <use x="110.449219" xlink:href="#TrebuchetMS-69"/>
       <use x="164.013672" xlink:href="#TrebuchetMS-77"/>
       <use x="234.960938" xlink:href="#TrebuchetMS-50"/>
       <use x="287.402344" xlink:href="#TrebuchetMS-49"/>
       <use x="339.84375" xlink:href="#TrebuchetMS-48"/>
       <use x="392.285156" xlink:href="#TrebuchetMS-56"/>
       <use x="444.726562" xlink:href="#TrebuchetMS-49"/>
       <use x="497.167969" xlink:href="#TrebuchetMS-48"/>
      </g>
     </g>
    </g>
    <g id="xtick_13">
     <g id="line2d_13">
      <g>
       <use style="stroke:#000000;stroke-width:0.8;" x="337.682273" xlink:href="#m132cd3266e" y="93.6"/>
      </g>
     </g>
     <g id="text_13">
      <!-- PIP210824 -->
      <g transform="translate(325.430156 114.073567)rotate(-20)scale(0.06 -0.06)">
       <use xlink:href="#TrebuchetMS-80"/>
       <use x="55.761719" xlink:href="#TrebuchetMS-73"/>
       <use x="83.59375" xlink:href="#TrebuchetMS-80"/>
       <use x="139.355469" xlink:href="#TrebuchetMS-50"/>
       <use x="191.796875" xlink:href="#TrebuchetMS-49"/>
       <use x="244.238281" xlink:href="#TrebuchetMS-48"/>
       <use x="296.679688" xlink:href="#TrebuchetMS-56"/>
       <use x="349.121094" xlink:href="#TrebuchetMS-50"/>
       <use x="401.5625" xlink:href="#TrebuchetMS-52"/>
      </g>
     </g>
    </g>
    <g id="xtick_14">
     <g id="line2d_14">
      <g>
       <use style="stroke:#000000;stroke-width:0.8;" x="361.245909" xlink:href="#m132cd3266e" y="93.6"/>
      </g>
     </g>
     <g id="text_14">
      <!-- PIP210913_1 -->
      <g transform="translate(346.037285 116.225729)rotate(-20)scale(0.06 -0.06)">
       <use xlink:href="#TrebuchetMS-80"/>
       <use x="55.761719" xlink:href="#TrebuchetMS-73"/>
       <use x="83.59375" xlink:href="#TrebuchetMS-80"/>
       <use x="139.355469" xlink:href="#TrebuchetMS-50"/>
       <use x="191.796875" xlink:href="#TrebuchetMS-49"/>
       <use x="244.238281" xlink:href="#TrebuchetMS-48"/>
       <use x="296.679688" xlink:href="#TrebuchetMS-57"/>
       <use x="349.121094" xlink:href="#TrebuchetMS-49"/>
       <use x="401.5625" xlink:href="#TrebuchetMS-51"/>
       <use x="454.003906" xlink:href="#TrebuchetMS-95"/>
       <use x="506.445312" xlink:href="#TrebuchetMS-49"/>
      </g>
     </g>
    </g>
    <g id="xtick_15">
     <g id="line2d_15">
      <g>
       <use style="stroke:#000000;stroke-width:0.8;" x="384.809545" xlink:href="#m132cd3266e" y="93.6"/>
      </g>
     </g>
     <g id="text_15">
      <!-- PIP210913_2 -->
      <g transform="translate(369.600921 116.225729)rotate(-20)scale(0.06 -0.06)">
       <use xlink:href="#TrebuchetMS-80"/>
       <use x="55.761719" xlink:href="#TrebuchetMS-73"/>
       <use x="83.59375" xlink:href="#TrebuchetMS-80"/>
       <use x="139.355469" xlink:href="#TrebuchetMS-50"/>
       <use x="191.796875" xlink:href="#TrebuchetMS-49"/>
       <use x="244.238281" xlink:href="#TrebuchetMS-48"/>
       <use x="296.679688" xlink:href="#TrebuchetMS-57"/>
       <use x="349.121094" xlink:href="#TrebuchetMS-49"/>
       <use x="401.5625" xlink:href="#TrebuchetMS-51"/>
       <use x="454.003906" xlink:href="#TrebuchetMS-95"/>
       <use x="506.445312" xlink:href="#TrebuchetMS-50"/>
      </g>
     </g>
    </g>
    <g id="xtick_16">
     <g id="line2d_16">
      <g>
       <use style="stroke:#000000;stroke-width:0.8;" x="408.373182" xlink:href="#m132cd3266e" y="93.6"/>
      </g>
     </g>
     <g id="text_16">
      <!-- SBS211128_1 -->
      <g transform="translate(392.786184 116.501162)rotate(-20)scale(0.06 -0.06)">
       <defs>
        <path d="M 4.109375 3.265625 
L 7.671875 12.25 
Q 10.40625 10.25 14.484375 8.90625 
Q 18.5625 7.5625 21.78125 7.5625 
Q 27.484375 7.5625 30.953125 10.6875 
Q 34.421875 13.8125 34.421875 18.65625 
Q 34.421875 22.265625 32.484375 25.359375 
Q 30.5625 28.46875 22.796875 32.125 
L 17.046875 34.8125 
Q 9.71875 38.234375 6.8125 42.921875 
Q 3.90625 47.609375 3.90625 54.203125 
Q 3.90625 62.203125 9.5625 67.46875 
Q 15.234375 72.75 24.125 72.75 
Q 35.984375 72.75 40.625 68.890625 
L 37.75 60.40625 
Q 35.796875 61.8125 31.78125 63.125 
Q 27.78125 64.453125 24.359375 64.453125 
Q 19.390625 64.453125 16.53125 61.625 
Q 13.671875 58.796875 13.671875 54.34375 
Q 13.671875 51.609375 14.6875 49.359375 
Q 15.71875 47.125 17.546875 45.609375 
Q 19.390625 44.09375 25.046875 41.359375 
L 30.90625 38.578125 
Q 38.234375 35.109375 41.1875 30.296875 
Q 44.140625 25.484375 44.140625 18.0625 
Q 44.140625 10.015625 37.671875 4.390625 
Q 31.203125 -1.21875 20.359375 -1.21875 
Q 10.84375 -1.21875 4.109375 3.265625 
z
" id="TrebuchetMS-83"/>
        <path d="M 27.734375 0 
L 7.328125 0 
L 7.328125 71.53125 
Q 20.359375 72.171875 26.125 72.171875 
Q 36.71875 72.171875 42.53125 67.59375 
Q 48.34375 63.03125 48.34375 54.546875 
Q 48.34375 49.5625 44.625 45.453125 
Q 40.921875 41.359375 36.421875 40.328125 
Q 44.921875 38.28125 48.796875 33.546875 
Q 52.6875 28.8125 52.6875 20.65625 
Q 52.6875 11.234375 45.78125 5.609375 
Q 38.875 0 27.734375 0 
z
M 17.09375 63.71875 
L 17.09375 43.171875 
Q 20.171875 42.875 24.703125 42.875 
Q 38.578125 42.875 38.578125 54.15625 
Q 38.578125 64.0625 25.828125 64.0625 
Q 20.953125 64.0625 17.09375 63.71875 
z
M 17.09375 35.59375 
L 17.09375 8.296875 
Q 22.125 7.8125 24.8125 7.8125 
Q 33.984375 7.8125 38.203125 11.25 
Q 42.4375 14.703125 42.4375 22.21875 
Q 42.4375 29.203125 38.40625 32.515625 
Q 34.375 35.84375 24.953125 35.84375 
z
" id="TrebuchetMS-66"/>
       </defs>
       <use xlink:href="#TrebuchetMS-83"/>
       <use x="48.095703" xlink:href="#TrebuchetMS-66"/>
       <use x="104.6875" xlink:href="#TrebuchetMS-83"/>
       <use x="152.783203" xlink:href="#TrebuchetMS-50"/>
       <use x="205.224609" xlink:href="#TrebuchetMS-49"/>
       <use x="257.666016" xlink:href="#TrebuchetMS-49"/>
       <use x="310.107422" xlink:href="#TrebuchetMS-49"/>
       <use x="362.548828" xlink:href="#TrebuchetMS-50"/>
       <use x="414.990234" xlink:href="#TrebuchetMS-56"/>
       <use x="467.431641" xlink:href="#TrebuchetMS-95"/>
       <use x="519.873047" xlink:href="#TrebuchetMS-49"/>
      </g>
     </g>
    </g>
    <g id="xtick_17">
     <g id="line2d_17">
      <g>
       <use style="stroke:#000000;stroke-width:0.8;" x="431.936818" xlink:href="#m132cd3266e" y="93.6"/>
      </g>
     </g>
     <g id="text_17">
      <!-- SBS211128_2 -->
      <g transform="translate(416.349821 116.501162)rotate(-20)scale(0.06 -0.06)">
       <use xlink:href="#TrebuchetMS-83"/>
       <use x="48.095703" xlink:href="#TrebuchetMS-66"/>
       <use x="104.6875" xlink:href="#TrebuchetMS-83"/>
       <use x="152.783203" xlink:href="#TrebuchetMS-50"/>
       <use x="205.224609" xlink:href="#TrebuchetMS-49"/>
       <use x="257.666016" xlink:href="#TrebuchetMS-49"/>
       <use x="310.107422" xlink:href="#TrebuchetMS-49"/>
       <use x="362.548828" xlink:href="#TrebuchetMS-50"/>
       <use x="414.990234" xlink:href="#TrebuchetMS-56"/>
       <use x="467.431641" xlink:href="#TrebuchetMS-95"/>
       <use x="519.873047" xlink:href="#TrebuchetMS-50"/>
      </g>
     </g>
    </g>
    <g id="xtick_18">
     <g id="line2d_18">
      <g>
       <use style="stroke:#000000;stroke-width:0.8;" x="455.500455" xlink:href="#m132cd3266e" y="93.6"/>
      </g>
     </g>
     <g id="text_18">
      <!-- SBS211128_3 -->
      <g transform="translate(439.913457 116.501162)rotate(-20)scale(0.06 -0.06)">
       <use xlink:href="#TrebuchetMS-83"/>
       <use x="48.095703" xlink:href="#TrebuchetMS-66"/>
       <use x="104.6875" xlink:href="#TrebuchetMS-83"/>
       <use x="152.783203" xlink:href="#TrebuchetMS-50"/>
       <use x="205.224609" xlink:href="#TrebuchetMS-49"/>
       <use x="257.666016" xlink:href="#TrebuchetMS-49"/>
       <use x="310.107422" xlink:href="#TrebuchetMS-49"/>
       <use x="362.548828" xlink:href="#TrebuchetMS-50"/>
       <use x="414.990234" xlink:href="#TrebuchetMS-56"/>
       <use x="467.431641" xlink:href="#TrebuchetMS-95"/>
       <use x="519.873047" xlink:href="#TrebuchetMS-51"/>
      </g>
     </g>
    </g>
    <g id="xtick_19">
     <g id="line2d_19">
      <g>
       <use style="stroke:#000000;stroke-width:0.8;" x="479.064091" xlink:href="#m132cd3266e" y="93.6"/>
      </g>
     </g>
     <g id="text_19">
      <!-- SBS211128_4 -->
      <g transform="translate(463.477093 116.501162)rotate(-20)scale(0.06 -0.06)">
       <use xlink:href="#TrebuchetMS-83"/>
       <use x="48.095703" xlink:href="#TrebuchetMS-66"/>
       <use x="104.6875" xlink:href="#TrebuchetMS-83"/>
       <use x="152.783203" xlink:href="#TrebuchetMS-50"/>
       <use x="205.224609" xlink:href="#TrebuchetMS-49"/>
       <use x="257.666016" xlink:href="#TrebuchetMS-49"/>
       <use x="310.107422" xlink:href="#TrebuchetMS-49"/>
       <use x="362.548828" xlink:href="#TrebuchetMS-50"/>
       <use x="414.990234" xlink:href="#TrebuchetMS-56"/>
       <use x="467.431641" xlink:href="#TrebuchetMS-95"/>
       <use x="519.873047" xlink:href="#TrebuchetMS-52"/>
      </g>
     </g>
    </g>
    <g id="xtick_20">
     <g id="line2d_20">
      <g>
       <use style="stroke:#000000;stroke-width:0.8;" x="502.627727" xlink:href="#m132cd3266e" y="93.6"/>
      </g>
     </g>
     <g id="text_20">
      <!-- SBS211128_5 -->
      <g transform="translate(487.04073 116.501162)rotate(-20)scale(0.06 -0.06)">
       <defs>
        <path d="M 11.328125 34.90625 
L 8.015625 37.203125 
L 8.015625 71.828125 
L 43.609375 71.828125 
L 43.609375 63.53125 
L 17.28125 63.53125 
L 17.28125 46.140625 
Q 20.90625 48.828125 26.46875 48.828125 
Q 36.421875 48.828125 41.671875 42.875 
Q 46.921875 36.921875 46.921875 25.921875 
Q 46.921875 -0.984375 22.953125 -0.984375 
Q 12.9375 -0.984375 6.34375 4.59375 
L 10.109375 12.75 
Q 16.75 7.328125 22.90625 7.328125 
Q 36.671875 7.328125 36.671875 24.515625 
Q 36.671875 40.53125 23.09375 40.53125 
Q 16.546875 40.53125 11.328125 34.90625 
z
" id="TrebuchetMS-53"/>
       </defs>
       <use xlink:href="#TrebuchetMS-83"/>
       <use x="48.095703" xlink:href="#TrebuchetMS-66"/>
       <use x="104.6875" xlink:href="#TrebuchetMS-83"/>
       <use x="152.783203" xlink:href="#TrebuchetMS-50"/>
       <use x="205.224609" xlink:href="#TrebuchetMS-49"/>
       <use x="257.666016" xlink:href="#TrebuchetMS-49"/>
       <use x="310.107422" xlink:href="#TrebuchetMS-49"/>
       <use x="362.548828" xlink:href="#TrebuchetMS-50"/>
       <use x="414.990234" xlink:href="#TrebuchetMS-56"/>
       <use x="467.431641" xlink:href="#TrebuchetMS-95"/>
       <use x="519.873047" xlink:href="#TrebuchetMS-53"/>
      </g>
     </g>
    </g>
    <g id="xtick_21">
     <g id="line2d_21">
      <g>
       <use style="stroke:#000000;stroke-width:0.8;" x="526.191364" xlink:href="#m132cd3266e" y="93.6"/>
      </g>
     </g>
     <g id="text_21">
      <!-- SBS211128_6 -->
      <g transform="translate(510.604366 116.501162)rotate(-20)scale(0.06 -0.06)">
       <defs>
        <path d="M 32.8125 72.796875 
L 37.546875 67.578125 
Q 33.25 65.875 25.125 56.03125 
Q 17 46.1875 16.109375 40.875 
Q 20.171875 44.78125 27.390625 44.78125 
Q 36.859375 44.78125 42.578125 38.71875 
Q 48.296875 32.671875 48.296875 22.078125 
Q 48.296875 11.578125 42.40625 5.171875 
Q 36.53125 -1.21875 27.640625 -1.21875 
Q 4.109375 -1.21875 4.109375 29.984375 
Q 4.109375 42.96875 13.3125 56.5625 
Q 22.515625 70.171875 32.8125 72.796875 
z
M 14.359375 22.359375 
Q 14.359375 7.078125 26.90625 7.078125 
Q 32.171875 7.078125 35.21875 11.0625 
Q 38.28125 15.046875 38.28125 21.578125 
Q 38.28125 28.375 35.0625 32.421875 
Q 31.84375 36.46875 26.765625 36.46875 
Q 14.359375 36.46875 14.359375 22.359375 
z
" id="TrebuchetMS-54"/>
       </defs>
       <use xlink:href="#TrebuchetMS-83"/>
       <use x="48.095703" xlink:href="#TrebuchetMS-66"/>
       <use x="104.6875" xlink:href="#TrebuchetMS-83"/>
       <use x="152.783203" xlink:href="#TrebuchetMS-50"/>
       <use x="205.224609" xlink:href="#TrebuchetMS-49"/>
       <use x="257.666016" xlink:href="#TrebuchetMS-49"/>
       <use x="310.107422" xlink:href="#TrebuchetMS-49"/>
       <use x="362.548828" xlink:href="#TrebuchetMS-50"/>
       <use x="414.990234" xlink:href="#TrebuchetMS-56"/>
       <use x="467.431641" xlink:href="#TrebuchetMS-95"/>
       <use x="519.873047" xlink:href="#TrebuchetMS-54"/>
      </g>
     </g>
    </g>
   </g>
   <g id="matplotlib.axis_2">
    <g id="ytick_1">
     <g id="line2d_22">
      <defs>
       <path d="M 0 0 
L -3.5 0 
" id="m06c997210f" style="stroke:#000000;stroke-width:0.8;"/>
      </defs>
      <g>
       <use style="stroke:#000000;stroke-width:0.8;" x="31.355" xlink:href="#m06c997210f" y="93.6"/>
      </g>
     </g>
     <g id="text_22">
      <!-- 0 -->
      <g transform="translate(20.16 96.549375)scale(0.08 -0.08)">
       <use xlink:href="#TrebuchetMS-48"/>
      </g>
     </g>
    </g>
    <g id="ytick_2">
     <g id="line2d_23">
      <g>
       <use style="stroke:#000000;stroke-width:0.8;" x="31.355" xlink:href="#m06c997210f" y="67.189565"/>
      </g>
     </g>
     <g id="text_23">
      <!-- 2 -->
      <g transform="translate(20.16 70.13894)scale(0.08 -0.08)">
       <use xlink:href="#TrebuchetMS-50"/>
      </g>
     </g>
    </g>
    <g id="ytick_3">
     <g id="line2d_24">
      <g>
       <use style="stroke:#000000;stroke-width:0.8;" x="31.355" xlink:href="#m06c997210f" y="40.779131"/>
      </g>
     </g>
     <g id="text_24">
      <!-- 4 -->
      <g transform="translate(20.16 43.728506)scale(0.08 -0.08)">
       <use xlink:href="#TrebuchetMS-52"/>
      </g>
     </g>
    </g>
    <g id="ytick_4">
     <g id="line2d_25">
      <g>
       <use style="stroke:#000000;stroke-width:0.8;" x="31.355" xlink:href="#m06c997210f" y="14.368696"/>
      </g>
     </g>
     <g id="text_25">
      <!-- 6 -->
      <g transform="translate(20.16 17.318071)scale(0.08 -0.08)">
       <use xlink:href="#TrebuchetMS-54"/>
      </g>
     </g>
    </g>
    <g id="text_26">
     <!-- sample volume ($mm^3$) -->
     <g transform="translate(14.48 91.24)rotate(-90)scale(0.08 -0.08)">
      <defs>
       <path d="M 3.171875 3.125 
L 6.453125 11.921875 
Q 14.203125 6.84375 18.953125 6.84375 
Q 27.546875 6.84375 27.546875 14.0625 
Q 27.546875 19.234375 19.234375 22.953125 
Q 12.84375 25.875 10.625 27.390625 
Q 8.40625 28.90625 6.765625 30.828125 
Q 5.125 32.765625 4.3125 34.9375 
Q 3.515625 37.109375 3.515625 39.59375 
Q 3.515625 46.046875 8.203125 49.65625 
Q 12.890625 53.265625 20.453125 53.265625 
Q 26.171875 53.265625 34.859375 49.65625 
L 32.234375 41.0625 
Q 26.703125 45.453125 21.140625 45.453125 
Q 17.828125 45.453125 15.546875 43.890625 
Q 13.28125 42.328125 13.28125 39.9375 
Q 13.28125 34.90625 19 32.328125 
L 25.640625 29.296875 
Q 31.734375 26.515625 34.515625 22.953125 
Q 37.3125 19.390625 37.3125 14.015625 
Q 37.3125 6.984375 32.375 3 
Q 27.4375 -0.984375 18.703125 -0.984375 
Q 10.453125 -0.984375 3.171875 3.125 
z
" id="TrebuchetMS-115"/>
       <path d="M 36.140625 6 
Q 30.5625 -0.984375 19.09375 -0.984375 
Q 12.9375 -0.984375 8.421875 3.484375 
Q 3.90625 7.953125 3.90625 14.59375 
Q 3.90625 22.5625 10.859375 28.046875 
Q 17.828125 33.546875 28.609375 33.546875 
Q 31.546875 33.546875 35.25 32.28125 
Q 35.25 44.96875 23.921875 44.96875 
Q 15.234375 44.96875 10.546875 40.28125 
L 6.640625 48.046875 
Q 9.28125 50.203125 13.9375 51.734375 
Q 18.609375 53.265625 22.859375 53.265625 
Q 34.234375 53.265625 39.375 48.09375 
Q 44.53125 42.921875 44.53125 31.640625 
L 44.53125 12.890625 
Q 44.53125 6 48.640625 3.71875 
L 48.640625 -0.921875 
Q 42.96875 -0.921875 40.15625 0.6875 
Q 37.359375 2.296875 36.140625 6 
z
M 35.25 25.6875 
Q 30.859375 26.65625 29.109375 26.65625 
Q 22.078125 26.65625 17.625 23.046875 
Q 13.1875 19.4375 13.1875 14.5 
Q 13.1875 6.34375 22.796875 6.34375 
Q 29.828125 6.34375 35.25 13.03125 
z
" id="TrebuchetMS-97"/>
       <path d="M 67.140625 0 
L 67.140625 33.109375 
Q 67.140625 45.453125 56.453125 45.453125 
Q 53.078125 45.453125 50.140625 43.375 
Q 47.21875 41.3125 46.140625 38.671875 
L 46.140625 0 
L 36.859375 0 
L 36.859375 37.15625 
Q 36.859375 41.015625 33.953125 43.234375 
Q 31.0625 45.453125 26.265625 45.453125 
Q 23.484375 45.453125 20.328125 43.296875 
Q 17.1875 41.15625 15.875 38.578125 
L 15.875 0 
L 6.59375 0 
L 6.59375 52.296875 
L 12.640625 52.296875 
L 15.71875 46.234375 
Q 21.09375 53.265625 29.15625 53.265625 
Q 40.375 53.265625 44.875 46.296875 
Q 46.4375 49.265625 50.6875 51.265625 
Q 54.9375 53.265625 59.421875 53.265625 
Q 67.53125 53.265625 71.96875 48.453125 
Q 76.421875 43.65625 76.421875 34.96875 
L 76.421875 0 
z
" id="TrebuchetMS-109"/>
       <path d="M 15.875 2.875 
L 15.875 -20.515625 
L 6.59375 -20.515625 
L 6.59375 52.296875 
L 15.875 52.296875 
L 15.875 48 
Q 21.140625 53.265625 28.609375 53.265625 
Q 39.75 53.265625 45.953125 46.328125 
Q 52.15625 39.40625 52.15625 26.03125 
Q 52.15625 14.109375 45.90625 6.5625 
Q 39.65625 -0.984375 27.828125 -0.984375 
Q 24.515625 -0.984375 20.71875 0.1875 
Q 16.9375 1.375 15.875 2.875 
z
M 15.875 41.015625 
L 15.875 10.546875 
Q 16.75 9.234375 19.578125 8.03125 
Q 22.40625 6.84375 25.09375 6.84375 
Q 42.390625 6.84375 42.390625 26.375 
Q 42.390625 36.28125 38.28125 40.859375 
Q 34.1875 45.453125 25.140625 45.453125 
Q 23.1875 45.453125 20.359375 44.078125 
Q 17.53125 42.71875 15.875 41.015625 
z
" id="TrebuchetMS-112"/>
       <path d="M 7.328125 14.796875 
L 7.328125 73.734375 
L 16.609375 73.734375 
L 16.609375 16.359375 
Q 16.609375 12.15625 19.015625 9.734375 
Q 21.4375 7.328125 25.34375 7.328125 
L 25.34375 -0.984375 
Q 7.328125 -0.984375 7.328125 14.796875 
z
" id="TrebuchetMS-108"/>
       <path d="M 50.640625 25.25 
L 12.9375 25.25 
Q 12.9375 16.0625 17.96875 11.140625 
Q 22.40625 6.84375 29.390625 6.84375 
Q 37.359375 6.84375 42.671875 11.46875 
L 46.578125 4.78125 
Q 44.4375 2.640625 39.984375 1.078125 
Q 34.421875 -0.984375 27.59375 -0.984375 
Q 17.71875 -0.984375 10.84375 5.71875 
Q 3.171875 13.09375 3.171875 25.53125 
Q 3.171875 38.484375 11.03125 46.296875 
Q 18.0625 53.265625 27.6875 53.265625 
Q 38.875 53.265625 45.21875 46.96875 
Q 51.375 40.921875 51.375 30.90625 
Q 51.375 27.828125 50.640625 25.25 
z
M 28.125 45.453125 
Q 21.921875 45.453125 17.71875 41.453125 
Q 13.71875 37.640625 13.1875 31.984375 
L 42.140625 31.984375 
Q 42.140625 37.59375 38.625 41.359375 
Q 34.765625 45.453125 28.125 45.453125 
z
" id="TrebuchetMS-101"/>
       <path id="TrebuchetMS-32"/>
       <path d="M 25.4375 -0.984375 
L 23 -0.984375 
L 0.59375 52.4375 
L 10.75 52.4375 
L 24.5625 15.828125 
L 38.671875 52.4375 
L 48.390625 52.4375 
z
" id="TrebuchetMS-118"/>
       <path d="M 3.171875 26.265625 
Q 3.171875 38.375 9.6875 45.8125 
Q 16.21875 53.265625 26.859375 53.265625 
Q 38.09375 53.265625 44.28125 46.109375 
Q 50.484375 38.96875 50.484375 26.265625 
Q 50.484375 13.625 44.140625 6.3125 
Q 37.796875 -0.984375 26.859375 -0.984375 
Q 15.671875 -0.984375 9.421875 6.390625 
Q 3.171875 13.765625 3.171875 26.265625 
z
M 12.9375 26.265625 
Q 12.9375 6.59375 26.859375 6.59375 
Q 33.34375 6.59375 37.03125 11.859375 
Q 40.71875 17.140625 40.71875 26.265625 
Q 40.71875 45.703125 26.859375 45.703125 
Q 20.515625 45.703125 16.71875 40.53125 
Q 12.9375 35.359375 12.9375 26.265625 
z
" id="TrebuchetMS-111"/>
       <path d="M 15.375 52.296875 
L 15.375 18.953125 
Q 15.375 6.84375 25.875 6.84375 
Q 30.46875 6.84375 34.28125 9.46875 
Q 38.09375 12.109375 39.3125 15.578125 
L 39.3125 52.296875 
L 48.578125 52.296875 
L 48.578125 0 
L 39.3125 0 
L 39.3125 7.234375 
Q 37.75 4.15625 33.03125 1.578125 
Q 28.328125 -0.984375 23.828125 -0.984375 
Q 15.234375 -0.984375 10.671875 3.953125 
Q 6.109375 8.890625 6.109375 17.96875 
L 6.109375 52.296875 
z
" id="TrebuchetMS-117"/>
       <path d="M 30.171875 72.015625 
L 30.171875 67.96875 
Q 20.515625 54 20.515625 27.203125 
Q 20.515625 -4.640625 30.171875 -15.765625 
L 30.171875 -20.90625 
Q 20.3125 -14.015625 14.859375 -1.140625 
Q 9.421875 11.71875 9.421875 27.296875 
Q 9.421875 40.578125 15.625 54.125 
Q 21.828125 67.671875 30.171875 72.015625 
z
" id="TrebuchetMS-40"/>
       <path d="M 89.796875 33.015625 
L 83.40625 0 
L 74.421875 0 
L 80.71875 32.71875 
Q 81.109375 34.8125 81.296875 36.328125 
Q 81.5 37.84375 81.5 38.921875 
Q 81.5 43.3125 79.046875 45.75 
Q 76.609375 48.1875 72.21875 48.1875 
Q 65.671875 48.1875 60.546875 43.28125 
Q 55.421875 38.375 53.90625 30.515625 
L 47.90625 0 
L 38.921875 0 
L 45.3125 32.71875 
Q 45.703125 34.515625 45.890625 36.046875 
Q 46.09375 37.59375 46.09375 38.8125 
Q 46.09375 43.265625 43.65625 45.71875 
Q 41.21875 48.1875 36.921875 48.1875 
Q 30.28125 48.1875 25.140625 43.28125 
Q 20.015625 38.375 18.5 30.515625 
L 12.5 0 
L 3.515625 0 
L 14.203125 54.6875 
L 23.1875 54.6875 
L 21.484375 46.1875 
Q 25.140625 50.984375 30.046875 53.484375 
Q 34.96875 56 40.578125 56 
Q 46.53125 56 50.359375 52.875 
Q 54.203125 49.75 54.984375 44.1875 
Q 59.078125 49.953125 64.46875 52.96875 
Q 69.875 56 75.875 56 
Q 82.90625 56 86.734375 51.953125 
Q 90.578125 47.90625 90.578125 40.484375 
Q 90.578125 38.875 90.375 36.9375 
Q 90.1875 35.015625 89.796875 33.015625 
z
" id="DejaVuSans-Oblique-109"/>
       <path d="M 40.578125 39.3125 
Q 47.65625 37.796875 51.625 33 
Q 55.609375 28.21875 55.609375 21.1875 
Q 55.609375 10.40625 48.1875 4.484375 
Q 40.765625 -1.421875 27.09375 -1.421875 
Q 22.515625 -1.421875 17.65625 -0.515625 
Q 12.796875 0.390625 7.625 2.203125 
L 7.625 11.71875 
Q 11.71875 9.328125 16.59375 8.109375 
Q 21.484375 6.890625 26.8125 6.890625 
Q 36.078125 6.890625 40.9375 10.546875 
Q 45.796875 14.203125 45.796875 21.1875 
Q 45.796875 27.640625 41.28125 31.265625 
Q 36.765625 34.90625 28.71875 34.90625 
L 20.21875 34.90625 
L 20.21875 43.015625 
L 29.109375 43.015625 
Q 36.375 43.015625 40.234375 45.921875 
Q 44.09375 48.828125 44.09375 54.296875 
Q 44.09375 59.90625 40.109375 62.90625 
Q 36.140625 65.921875 28.71875 65.921875 
Q 24.65625 65.921875 20.015625 65.03125 
Q 15.375 64.15625 9.8125 62.3125 
L 9.8125 71.09375 
Q 15.4375 72.65625 20.34375 73.4375 
Q 25.25 74.21875 29.59375 74.21875 
Q 40.828125 74.21875 47.359375 69.109375 
Q 53.90625 64.015625 53.90625 55.328125 
Q 53.90625 49.265625 50.4375 45.09375 
Q 46.96875 40.921875 40.578125 39.3125 
z
" id="DejaVuSans-51"/>
       <path d="M 9.421875 -20.90625 
L 9.421875 -15.765625 
Q 19.09375 -4.640625 19.09375 27.203125 
Q 19.09375 54 9.421875 67.96875 
L 9.421875 72.015625 
Q 17.78125 67.671875 23.96875 54.125 
Q 30.171875 40.578125 30.171875 27.296875 
Q 30.171875 11.71875 24.71875 -1.140625 
Q 19.28125 -14.015625 9.421875 -20.90625 
z
" id="TrebuchetMS-41"/>
      </defs>
      <use transform="translate(0 0.765625)" xlink:href="#TrebuchetMS-115"/>
      <use transform="translate(40.478516 0.765625)" xlink:href="#TrebuchetMS-97"/>
      <use transform="translate(93.017578 0.765625)" xlink:href="#TrebuchetMS-109"/>
      <use transform="translate(176.025391 0.765625)" xlink:href="#TrebuchetMS-112"/>
      <use transform="translate(231.738281 0.765625)" xlink:href="#TrebuchetMS-108"/>
      <use transform="translate(261.230469 0.765625)" xlink:href="#TrebuchetMS-101"/>
      <use transform="translate(315.771484 0.765625)" xlink:href="#TrebuchetMS-32"/>
      <use transform="translate(345.898438 0.765625)" xlink:href="#TrebuchetMS-118"/>
      <use transform="translate(394.873047 0.765625)" xlink:href="#TrebuchetMS-111"/>
      <use transform="translate(448.535156 0.765625)" xlink:href="#TrebuchetMS-108"/>
      <use transform="translate(478.027344 0.765625)" xlink:href="#TrebuchetMS-117"/>
      <use transform="translate(532.666016 0.765625)" xlink:href="#TrebuchetMS-109"/>
      <use transform="translate(615.673828 0.765625)" xlink:href="#TrebuchetMS-101"/>
      <use transform="translate(670.214844 0.765625)" xlink:href="#TrebuchetMS-32"/>
      <use transform="translate(700.341797 0.765625)" xlink:href="#TrebuchetMS-40"/>
      <use transform="translate(737.060547 0.765625)" xlink:href="#DejaVuSans-Oblique-109"/>
      <use transform="translate(834.472656 0.765625)" xlink:href="#DejaVuSans-Oblique-109"/>
      <use transform="translate(936.534661 39.046875)scale(0.7)" xlink:href="#DejaVuSans-51"/>
      <use transform="translate(983.805169 0.765625)" xlink:href="#TrebuchetMS-41"/>
     </g>
    </g>
   </g>
   <g id="line2d_26">
    <defs>
     <path d="M 0 1.5 
C 0.397805 1.5 0.77937 1.341951 1.06066 1.06066 
C 1.341951 0.77937 1.5 0.397805 1.5 0 
C 1.5 -0.397805 1.341951 -0.77937 1.06066 -1.06066 
C 0.77937 -1.341951 0.397805 -1.5 0 -1.5 
C -0.397805 -1.5 -0.77937 -1.341951 -1.06066 -1.06066 
C -1.341951 -0.77937 -1.5 -0.397805 -1.5 0 
C -1.5 0.397805 -1.341951 0.77937 -1.06066 1.06066 
C -0.77937 1.341951 -0.397805 1.5 0 1.5 
z
" id="m3ee1fa589d" style="stroke:#000000;stroke-opacity:0;"/>
    </defs>
    <g clip-path="url(#pe08c00a4e4)">
     <use style="fill:#708090;fill-opacity:0.3;stroke:#000000;stroke-opacity:0;" x="54.918636" xlink:href="#m3ee1fa589d" y="38.582582"/>
     <use style="fill:#708090;fill-opacity:0.3;stroke:#000000;stroke-opacity:0;" x="54.918636" xlink:href="#m3ee1fa589d" y="59.554892"/>
     <use style="fill:#708090;fill-opacity:0.3;stroke:#000000;stroke-opacity:0;" x="54.918636" xlink:href="#m3ee1fa589d" y="56.658461"/>
     <use style="fill:#708090;fill-opacity:0.3;stroke:#000000;stroke-opacity:0;" x="54.918636" xlink:href="#m3ee1fa589d" y="50.839769"/>
     <use style="fill:#708090;fill-opacity:0.3;stroke:#000000;stroke-opacity:0;" x="54.918636" xlink:href="#m3ee1fa589d" y="62.77747"/>
     <use style="fill:#708090;fill-opacity:0.3;stroke:#000000;stroke-opacity:0;" x="54.918636" xlink:href="#m3ee1fa589d" y="67.656739"/>
     <use style="fill:#708090;fill-opacity:0.3;stroke:#000000;stroke-opacity:0;" x="54.918636" xlink:href="#m3ee1fa589d" y="64.650315"/>
     <use style="fill:#708090;fill-opacity:0.3;stroke:#000000;stroke-opacity:0;" x="54.918636" xlink:href="#m3ee1fa589d" y="57.944279"/>
    </g>
   </g>
   <g id="line2d_27">
    <defs>
     <path d="M 0 1.5 
C 0.397805 1.5 0.77937 1.341951 1.06066 1.06066 
C 1.341951 0.77937 1.5 0.397805 1.5 0 
C 1.5 -0.397805 1.341951 -0.77937 1.06066 -1.06066 
C 0.77937 -1.341951 0.397805 -1.5 0 -1.5 
C -0.397805 -1.5 -0.77937 -1.341951 -1.06066 -1.06066 
C -1.341951 -0.77937 -1.5 -0.397805 -1.5 0 
C -1.5 0.397805 -1.341951 0.77937 -1.06066 1.06066 
C -0.77937 1.341951 -0.397805 1.5 0 1.5 
z
" id="m331a79f600" style="stroke:#000000;stroke-opacity:0;"/>
    </defs>
    <g clip-path="url(#pe08c00a4e4)">
     <use style="fill:#708090;stroke:#000000;stroke-opacity:0;" x="54.918636" xlink:href="#m331a79f600" y="57.333063"/>
    </g>
   </g>
   <g id="line2d_28">
    <g clip-path="url(#pe08c00a4e4)">
     <use style="fill:#708090;fill-opacity:0.3;stroke:#000000;stroke-opacity:0;" x="78.482273" xlink:href="#m3ee1fa589d" y="70.269269"/>
     <use style="fill:#708090;fill-opacity:0.3;stroke:#000000;stroke-opacity:0;" x="78.482273" xlink:href="#m3ee1fa589d" y="67.847081"/>
     <use style="fill:#708090;fill-opacity:0.3;stroke:#000000;stroke-opacity:0;" x="78.482273" xlink:href="#m3ee1fa589d" y="66.548094"/>
     <use style="fill:#708090;fill-opacity:0.3;stroke:#000000;stroke-opacity:0;" x="78.482273" xlink:href="#m3ee1fa589d" y="63.760531"/>
    </g>
   </g>
   <g id="line2d_29">
    <g clip-path="url(#pe08c00a4e4)">
     <use style="fill:#708090;stroke:#000000;stroke-opacity:0;" x="78.482273" xlink:href="#m331a79f600" y="67.106243"/>
    </g>
   </g>
   <g id="line2d_30">
    <g clip-path="url(#pe08c00a4e4)">
     <use style="fill:#708090;fill-opacity:0.3;stroke:#000000;stroke-opacity:0;" x="102.045909" xlink:href="#m3ee1fa589d" y="54.376588"/>
     <use style="fill:#708090;fill-opacity:0.3;stroke:#000000;stroke-opacity:0;" x="102.045909" xlink:href="#m3ee1fa589d" y="40.271864"/>
     <use style="fill:#708090;fill-opacity:0.3;stroke:#000000;stroke-opacity:0;" x="102.045909" xlink:href="#m3ee1fa589d" y="28.153217"/>
     <use style="fill:#708090;fill-opacity:0.3;stroke:#000000;stroke-opacity:0;" x="102.045909" xlink:href="#m3ee1fa589d" y="56.076841"/>
    </g>
   </g>
   <g id="line2d_31">
    <g clip-path="url(#pe08c00a4e4)">
     <use style="fill:#708090;stroke:#000000;stroke-opacity:0;" x="102.045909" xlink:href="#m331a79f600" y="44.719628"/>
    </g>
   </g>
   <g id="line2d_32">
    <g clip-path="url(#pe08c00a4e4)">
     <use style="fill:#708090;fill-opacity:0.3;stroke:#000000;stroke-opacity:0;" x="125.609545" xlink:href="#m3ee1fa589d" y="67.654529"/>
     <use style="fill:#708090;fill-opacity:0.3;stroke:#000000;stroke-opacity:0;" x="125.609545" xlink:href="#m3ee1fa589d" y="68.728189"/>
    </g>
   </g>
   <g id="line2d_33">
    <g clip-path="url(#pe08c00a4e4)">
     <use style="fill:#708090;stroke:#000000;stroke-opacity:0;" x="125.609545" xlink:href="#m331a79f600" y="68.191359"/>
    </g>
   </g>
   <g id="line2d_34">
    <g clip-path="url(#pe08c00a4e4)">
     <use style="fill:#708090;fill-opacity:0.3;stroke:#000000;stroke-opacity:0;" x="149.173182" xlink:href="#m3ee1fa589d" y="52.529909"/>
     <use style="fill:#708090;fill-opacity:0.3;stroke:#000000;stroke-opacity:0;" x="149.173182" xlink:href="#m3ee1fa589d" y="61.131516"/>
    </g>
   </g>
   <g id="line2d_35">
    <g clip-path="url(#pe08c00a4e4)">
     <use style="fill:#708090;stroke:#000000;stroke-opacity:0;" x="149.173182" xlink:href="#m331a79f600" y="56.830712"/>
    </g>
   </g>
   <g id="line2d_36">
    <g clip-path="url(#pe08c00a4e4)">
     <use style="fill:#708090;fill-opacity:0.3;stroke:#000000;stroke-opacity:0;" x="172.736818" xlink:href="#m3ee1fa589d" y="59.237427"/>
     <use style="fill:#708090;fill-opacity:0.3;stroke:#000000;stroke-opacity:0;" x="172.736818" xlink:href="#m3ee1fa589d" y="71.645042"/>
    </g>
   </g>
   <g id="line2d_37">
    <g clip-path="url(#pe08c00a4e4)">
     <use style="fill:#708090;stroke:#000000;stroke-opacity:0;" x="172.736818" xlink:href="#m331a79f600" y="65.441235"/>
    </g>
   </g>
   <g id="line2d_38">
    <g clip-path="url(#pe08c00a4e4)">
     <use style="fill:#708090;fill-opacity:0.3;stroke:#000000;stroke-opacity:0;" x="196.300455" xlink:href="#m3ee1fa589d" y="73.076785"/>
     <use style="fill:#708090;fill-opacity:0.3;stroke:#000000;stroke-opacity:0;" x="196.300455" xlink:href="#m3ee1fa589d" y="77.099913"/>
    </g>
   </g>
   <g id="line2d_39">
    <g clip-path="url(#pe08c00a4e4)">
     <use style="fill:#708090;stroke:#000000;stroke-opacity:0;" x="196.300455" xlink:href="#m331a79f600" y="75.088349"/>
    </g>
   </g>
   <g id="line2d_40">
    <g clip-path="url(#pe08c00a4e4)">
     <use style="fill:#708090;fill-opacity:0.3;stroke:#000000;stroke-opacity:0;" x="219.864091" xlink:href="#m3ee1fa589d" y="66.731809"/>
     <use style="fill:#708090;fill-opacity:0.3;stroke:#000000;stroke-opacity:0;" x="219.864091" xlink:href="#m3ee1fa589d" y="58.374821"/>
    </g>
   </g>
   <g id="line2d_41">
    <g clip-path="url(#pe08c00a4e4)">
     <use style="fill:#708090;stroke:#000000;stroke-opacity:0;" x="219.864091" xlink:href="#m331a79f600" y="62.553315"/>
    </g>
   </g>
   <g id="line2d_42">
    <g clip-path="url(#pe08c00a4e4)">
     <use style="fill:#708090;fill-opacity:0.3;stroke:#000000;stroke-opacity:0;" x="243.427727" xlink:href="#m3ee1fa589d" y="65.332578"/>
     <use style="fill:#708090;fill-opacity:0.3;stroke:#000000;stroke-opacity:0;" x="243.427727" xlink:href="#m3ee1fa589d" y="64.269568"/>
    </g>
   </g>
   <g id="line2d_43">
    <g clip-path="url(#pe08c00a4e4)">
     <use style="fill:#708090;stroke:#000000;stroke-opacity:0;" x="243.427727" xlink:href="#m331a79f600" y="64.801073"/>
    </g>
   </g>
   <g id="line2d_44">
    <g clip-path="url(#pe08c00a4e4)">
     <use style="fill:#708090;fill-opacity:0.3;stroke:#000000;stroke-opacity:0;" x="266.991364" xlink:href="#m3ee1fa589d" y="61.14566"/>
     <use style="fill:#708090;fill-opacity:0.3;stroke:#000000;stroke-opacity:0;" x="266.991364" xlink:href="#m3ee1fa589d" y="39.059862"/>
     <use style="fill:#708090;fill-opacity:0.3;stroke:#000000;stroke-opacity:0;" x="266.991364" xlink:href="#m3ee1fa589d" y="57.94444"/>
     <use style="fill:#708090;fill-opacity:0.3;stroke:#000000;stroke-opacity:0;" x="266.991364" xlink:href="#m3ee1fa589d" y="67.081816"/>
    </g>
   </g>
   <g id="line2d_45">
    <g clip-path="url(#pe08c00a4e4)">
     <use style="fill:#708090;stroke:#000000;stroke-opacity:0;" x="266.991364" xlink:href="#m331a79f600" y="56.307945"/>
    </g>
   </g>
   <g id="line2d_46">
    <g clip-path="url(#pe08c00a4e4)">
     <use style="fill:#708090;fill-opacity:0.3;stroke:#000000;stroke-opacity:0;" x="290.555" xlink:href="#m3ee1fa589d" y="53.340951"/>
     <use style="fill:#708090;fill-opacity:0.3;stroke:#000000;stroke-opacity:0;" x="290.555" xlink:href="#m3ee1fa589d" y="55.427526"/>
     <use style="fill:#708090;fill-opacity:0.3;stroke:#000000;stroke-opacity:0;" x="290.555" xlink:href="#m3ee1fa589d" y="54.855558"/>
    </g>
   </g>
   <g id="line2d_47">
    <g clip-path="url(#pe08c00a4e4)">
     <use style="fill:#708090;stroke:#000000;stroke-opacity:0;" x="290.555" xlink:href="#m331a79f600" y="54.541345"/>
    </g>
   </g>
   <g id="line2d_48">
    <g clip-path="url(#pe08c00a4e4)">
     <use style="fill:#708090;fill-opacity:0.3;stroke:#000000;stroke-opacity:0;" x="314.118636" xlink:href="#m3ee1fa589d" y="57.543017"/>
     <use style="fill:#708090;fill-opacity:0.3;stroke:#000000;stroke-opacity:0;" x="314.118636" xlink:href="#m3ee1fa589d" y="63.221777"/>
    </g>
   </g>
   <g id="line2d_49">
    <g clip-path="url(#pe08c00a4e4)">
     <use style="fill:#708090;stroke:#000000;stroke-opacity:0;" x="314.118636" xlink:href="#m331a79f600" y="60.382397"/>
    </g>
   </g>
   <g id="line2d_50">
    <g clip-path="url(#pe08c00a4e4)">
     <use style="fill:#708090;fill-opacity:0.3;stroke:#000000;stroke-opacity:0;" x="337.682273" xlink:href="#m3ee1fa589d" y="42.832777"/>
     <use style="fill:#708090;fill-opacity:0.3;stroke:#000000;stroke-opacity:0;" x="337.682273" xlink:href="#m3ee1fa589d" y="36.938269"/>
     <use style="fill:#708090;fill-opacity:0.3;stroke:#000000;stroke-opacity:0;" x="337.682273" xlink:href="#m3ee1fa589d" y="57.010172"/>
    </g>
   </g>
   <g id="line2d_51">
    <g clip-path="url(#pe08c00a4e4)">
     <use style="fill:#708090;stroke:#000000;stroke-opacity:0;" x="337.682273" xlink:href="#m331a79f600" y="45.593739"/>
    </g>
   </g>
   <g id="line2d_52">
    <g clip-path="url(#pe08c00a4e4)">
     <use style="fill:#708090;fill-opacity:0.3;stroke:#000000;stroke-opacity:0;" x="361.245909" xlink:href="#m3ee1fa589d" y="45.103721"/>
     <use style="fill:#708090;fill-opacity:0.3;stroke:#000000;stroke-opacity:0;" x="361.245909" xlink:href="#m3ee1fa589d" y="56.556133"/>
     <use style="fill:#708090;fill-opacity:0.3;stroke:#000000;stroke-opacity:0;" x="361.245909" xlink:href="#m3ee1fa589d" y="44.934274"/>
     <use style="fill:#708090;fill-opacity:0.3;stroke:#000000;stroke-opacity:0;" x="361.245909" xlink:href="#m3ee1fa589d" y="13.802609"/>
     <use style="fill:#708090;fill-opacity:0.3;stroke:#000000;stroke-opacity:0;" x="361.245909" xlink:href="#m3ee1fa589d" y="56.395975"/>
     <use style="fill:#708090;fill-opacity:0.3;stroke:#000000;stroke-opacity:0;" x="361.245909" xlink:href="#m3ee1fa589d" y="39.695847"/>
     <use style="fill:#708090;fill-opacity:0.3;stroke:#000000;stroke-opacity:0;" x="361.245909" xlink:href="#m3ee1fa589d" y="40.723637"/>
     <use style="fill:#708090;fill-opacity:0.3;stroke:#000000;stroke-opacity:0;" x="361.245909" xlink:href="#m3ee1fa589d" y="62.388855"/>
    </g>
   </g>
   <g id="line2d_53">
    <g clip-path="url(#pe08c00a4e4)">
     <use style="fill:#708090;stroke:#000000;stroke-opacity:0;" x="361.245909" xlink:href="#m331a79f600" y="44.950131"/>
    </g>
   </g>
   <g id="line2d_54">
    <g clip-path="url(#pe08c00a4e4)">
     <use style="fill:#708090;fill-opacity:0.3;stroke:#000000;stroke-opacity:0;" x="384.809545" xlink:href="#m3ee1fa589d" y="50.871121"/>
     <use style="fill:#708090;fill-opacity:0.3;stroke:#000000;stroke-opacity:0;" x="384.809545" xlink:href="#m3ee1fa589d" y="34.233706"/>
     <use style="fill:#708090;fill-opacity:0.3;stroke:#000000;stroke-opacity:0;" x="384.809545" xlink:href="#m3ee1fa589d" y="54.867609"/>
     <use style="fill:#708090;fill-opacity:0.3;stroke:#000000;stroke-opacity:0;" x="384.809545" xlink:href="#m3ee1fa589d" y="21.061745"/>
     <use style="fill:#708090;fill-opacity:0.3;stroke:#000000;stroke-opacity:0;" x="384.809545" xlink:href="#m3ee1fa589d" y="62.588711"/>
     <use style="fill:#708090;fill-opacity:0.3;stroke:#000000;stroke-opacity:0;" x="384.809545" xlink:href="#m3ee1fa589d" y="44.27079"/>
     <use style="fill:#708090;fill-opacity:0.3;stroke:#000000;stroke-opacity:0;" x="384.809545" xlink:href="#m3ee1fa589d" y="46.014424"/>
     <use style="fill:#708090;fill-opacity:0.3;stroke:#000000;stroke-opacity:0;" x="384.809545" xlink:href="#m3ee1fa589d" y="66.918237"/>
    </g>
   </g>
   <g id="line2d_55">
    <g clip-path="url(#pe08c00a4e4)">
     <use style="fill:#708090;stroke:#000000;stroke-opacity:0;" x="384.809545" xlink:href="#m331a79f600" y="47.603293"/>
    </g>
   </g>
   <g id="line2d_56">
    <g clip-path="url(#pe08c00a4e4)">
     <use style="fill:#708090;fill-opacity:0.3;stroke:#000000;stroke-opacity:0;" x="408.373182" xlink:href="#m3ee1fa589d" y="76.756805"/>
     <use style="fill:#708090;fill-opacity:0.3;stroke:#000000;stroke-opacity:0;" x="408.373182" xlink:href="#m3ee1fa589d" y="68.084604"/>
     <use style="fill:#708090;fill-opacity:0.3;stroke:#000000;stroke-opacity:0;" x="408.373182" xlink:href="#m3ee1fa589d" y="73.120467"/>
     <use style="fill:#708090;fill-opacity:0.3;stroke:#000000;stroke-opacity:0;" x="408.373182" xlink:href="#m3ee1fa589d" y="72.796497"/>
    </g>
   </g>
   <g id="line2d_57">
    <g clip-path="url(#pe08c00a4e4)">
     <use style="fill:#708090;stroke:#000000;stroke-opacity:0;" x="408.373182" xlink:href="#m331a79f600" y="72.689593"/>
    </g>
   </g>
   <g id="line2d_58">
    <g clip-path="url(#pe08c00a4e4)">
     <use style="fill:#708090;fill-opacity:0.3;stroke:#000000;stroke-opacity:0;" x="431.936818" xlink:href="#m3ee1fa589d" y="69.077368"/>
     <use style="fill:#708090;fill-opacity:0.3;stroke:#000000;stroke-opacity:0;" x="431.936818" xlink:href="#m3ee1fa589d" y="71.770155"/>
     <use style="fill:#708090;fill-opacity:0.3;stroke:#000000;stroke-opacity:0;" x="431.936818" xlink:href="#m3ee1fa589d" y="71.299281"/>
     <use style="fill:#708090;fill-opacity:0.3;stroke:#000000;stroke-opacity:0;" x="431.936818" xlink:href="#m3ee1fa589d" y="71.49743"/>
    </g>
   </g>
   <g id="line2d_59">
    <g clip-path="url(#pe08c00a4e4)">
     <use style="fill:#708090;stroke:#000000;stroke-opacity:0;" x="431.936818" xlink:href="#m331a79f600" y="70.911059"/>
    </g>
   </g>
   <g id="line2d_60">
    <g clip-path="url(#pe08c00a4e4)">
     <use style="fill:#708090;fill-opacity:0.3;stroke:#000000;stroke-opacity:0;" x="455.500455" xlink:href="#m3ee1fa589d" y="54.2199"/>
     <use style="fill:#708090;fill-opacity:0.3;stroke:#000000;stroke-opacity:0;" x="455.500455" xlink:href="#m3ee1fa589d" y="56.694748"/>
     <use style="fill:#708090;fill-opacity:0.3;stroke:#000000;stroke-opacity:0;" x="455.500455" xlink:href="#m3ee1fa589d" y="54.902198"/>
     <use style="fill:#708090;fill-opacity:0.3;stroke:#000000;stroke-opacity:0;" x="455.500455" xlink:href="#m3ee1fa589d" y="63.479035"/>
    </g>
   </g>
   <g id="line2d_61">
    <g clip-path="url(#pe08c00a4e4)">
     <use style="fill:#708090;stroke:#000000;stroke-opacity:0;" x="455.500455" xlink:href="#m331a79f600" y="57.32397"/>
    </g>
   </g>
   <g id="line2d_62">
    <g clip-path="url(#pe08c00a4e4)">
     <use style="fill:#708090;fill-opacity:0.3;stroke:#000000;stroke-opacity:0;" x="479.064091" xlink:href="#m3ee1fa589d" y="20.162123"/>
     <use style="fill:#708090;fill-opacity:0.3;stroke:#000000;stroke-opacity:0;" x="479.064091" xlink:href="#m3ee1fa589d" y="43.076503"/>
     <use style="fill:#708090;fill-opacity:0.3;stroke:#000000;stroke-opacity:0;" x="479.064091" xlink:href="#m3ee1fa589d" y="46.54819"/>
     <use style="fill:#708090;fill-opacity:0.3;stroke:#000000;stroke-opacity:0;" x="479.064091" xlink:href="#m3ee1fa589d" y="20.068751"/>
    </g>
   </g>
   <g id="line2d_63">
    <g clip-path="url(#pe08c00a4e4)">
     <use style="fill:#708090;stroke:#000000;stroke-opacity:0;" x="479.064091" xlink:href="#m331a79f600" y="32.463892"/>
    </g>
   </g>
   <g id="line2d_64">
    <g clip-path="url(#pe08c00a4e4)">
     <use style="fill:#708090;fill-opacity:0.3;stroke:#000000;stroke-opacity:0;" x="502.627727" xlink:href="#m3ee1fa589d" y="29.338084"/>
     <use style="fill:#708090;fill-opacity:0.3;stroke:#000000;stroke-opacity:0;" x="502.627727" xlink:href="#m3ee1fa589d" y="30.588512"/>
     <use style="fill:#708090;fill-opacity:0.3;stroke:#000000;stroke-opacity:0;" x="502.627727" xlink:href="#m3ee1fa589d" y="33.405113"/>
     <use style="fill:#708090;fill-opacity:0.3;stroke:#000000;stroke-opacity:0;" x="502.627727" xlink:href="#m3ee1fa589d" y="43.49462"/>
    </g>
   </g>
   <g id="line2d_65">
    <g clip-path="url(#pe08c00a4e4)">
     <use style="fill:#708090;stroke:#000000;stroke-opacity:0;" x="502.627727" xlink:href="#m331a79f600" y="34.206582"/>
    </g>
   </g>
   <g id="line2d_66">
    <g clip-path="url(#pe08c00a4e4)">
     <use style="fill:#708090;fill-opacity:0.3;stroke:#000000;stroke-opacity:0;" x="526.191364" xlink:href="#m3ee1fa589d" y="47.309383"/>
     <use style="fill:#708090;fill-opacity:0.3;stroke:#000000;stroke-opacity:0;" x="526.191364" xlink:href="#m3ee1fa589d" y="42.815868"/>
     <use style="fill:#708090;fill-opacity:0.3;stroke:#000000;stroke-opacity:0;" x="526.191364" xlink:href="#m3ee1fa589d" y="24.645732"/>
     <use style="fill:#708090;fill-opacity:0.3;stroke:#000000;stroke-opacity:0;" x="526.191364" xlink:href="#m3ee1fa589d" y="44.914777"/>
    </g>
   </g>
   <g id="line2d_67">
    <g clip-path="url(#pe08c00a4e4)">
     <use style="fill:#708090;stroke:#000000;stroke-opacity:0;" x="526.191364" xlink:href="#m331a79f600" y="39.92144"/>
    </g>
   </g>
   <g id="patch_3">
    <path d="M 31.355 93.6 
L 31.355 7.2 
" style="fill:none;stroke:#000000;stroke-linecap:square;stroke-linejoin:miter;stroke-width:0.8;"/>
   </g>
   <g id="patch_4">
    <path d="M 31.355 93.6 
L 549.755 93.6 
" style="fill:none;stroke:#000000;stroke-linecap:square;stroke-linejoin:miter;stroke-width:0.8;"/>
   </g>
  </g>
 </g>
 <defs>
  <clipPath id="pe08c00a4e4">
   <rect height="86.4" width="518.4" x="31.355" y="7.2"/>
  </clipPath>
 </defs>
</svg>
