<?xml version="1.0" encoding="utf-8" standalone="no"?>
<!DOCTYPE svg PUBLIC "-//W3C//DTD SVG 1.1//EN"
  "http://www.w3.org/Graphics/SVG/1.1/DTD/svg11.dtd">
<!-- Created with matplotlib (https://matplotlib.org/) -->
<svg height="134.978109pt" version="1.1" viewBox="0 0 135.456006 134.978109" width="135.456006pt" xmlns="http://www.w3.org/2000/svg" xmlns:xlink="http://www.w3.org/1999/xlink">
 <metadata>
  <rdf:RDF xmlns:cc="http://creativecommons.org/ns#" xmlns:dc="http://purl.org/dc/elements/1.1/" xmlns:rdf="http://www.w3.org/1999/02/22-rdf-syntax-ns#">
   <cc:Work>
    <dc:type rdf:resource="http://purl.org/dc/dcmitype/StillImage"/>
    <dc:date>2022-02-09T11:08:31.734055</dc:date>
    <dc:format>image/svg+xml</dc:format>
    <dc:creator>
     <cc:Agent>
      <dc:title>Matplotlib v3.3.2, https://matplotlib.org/</dc:title>
     </cc:Agent>
    </dc:creator>
   </cc:Work>
  </rdf:RDF>
 </metadata>
 <defs>
  <style type="text/css">*{stroke-linecap:butt;stroke-linejoin:round;}</style>
 </defs>
 <g id="figure_1">
  <g id="patch_1">
   <path d="M 0 134.978109 
L 135.456006 134.978109 
L 135.456006 0 
L 0 0 
z
" style="fill:none;"/>
  </g>
  <g id="axes_1">
   <g id="patch_2">
    <path d="M 38.325 96.6 
L 124.725 96.6 
L 124.725 10.2 
L 38.325 10.2 
z
" style="fill:#ffffff;"/>
   </g>
   <g id="patch_3">
    <path clip-path="url(#p4492eea6d6)" d="M 42.252273 96.6 
L 49.392769 96.6 
L 49.392769 96.6 
L 42.252273 96.6 
z
" style="fill:#08306b;"/>
   </g>
   <g id="patch_4">
    <path clip-path="url(#p4492eea6d6)" d="M 56.533264 96.6 
L 63.67376 96.6 
L 63.67376 96.6 
L 56.533264 96.6 
z
" style="fill:#08306b;"/>
   </g>
   <g id="patch_5">
    <path clip-path="url(#p4492eea6d6)" d="M 70.814256 96.6 
L 77.954752 96.6 
L 77.954752 68.088 
L 70.814256 68.088 
z
" style="fill:#08306b;"/>
   </g>
   <g id="patch_6">
    <path clip-path="url(#p4492eea6d6)" d="M 85.095248 96.6 
L 92.235744 96.6 
L 92.235744 24.888 
L 85.095248 24.888 
z
" style="fill:#08306b;"/>
   </g>
   <g id="patch_7">
    <path clip-path="url(#p4492eea6d6)" d="M 99.37624 96.6 
L 106.516736 96.6 
L 106.516736 24.888 
L 99.37624 24.888 
z
" style="fill:#08306b;"/>
   </g>
   <g id="patch_8">
    <path clip-path="url(#p4492eea6d6)" d="M 113.657231 96.6 
L 120.797727 96.6 
L 120.797727 10.2 
L 113.657231 10.2 
z
" style="fill:#08306b;"/>
   </g>
   <g id="matplotlib.axis_1">
    <g id="xtick_1">
     <g id="line2d_1">
      <defs>
       <path d="M 0 0 
L 0 3.5 
" id="m3bd4828f58" style="stroke:#000000;stroke-width:0.8;"/>
      </defs>
      <g>
       <use style="stroke:#000000;stroke-width:0.8;" x="45.822521" xlink:href="#m3bd4828f58" y="96.6"/>
      </g>
     </g>
     <g id="text_1">
      <!-- O -->
      <g transform="translate(44.468783 109.140196)rotate(-20)scale(0.06 -0.06)">
       <defs>
        <path d="M 3.90625 36.375 
Q 3.90625 51.90625 11.6875 62.34375 
Q 19.484375 72.796875 32.71875 72.796875 
Q 47.609375 72.796875 55.546875 63.171875 
Q 63.484375 53.5625 63.484375 36.375 
Q 63.484375 18.75 55.515625 8.765625 
Q 47.5625 -1.21875 32.71875 -1.21875 
Q 19.1875 -1.21875 11.546875 9.328125 
Q 3.90625 19.875 3.90625 36.375 
z
M 14.15625 36.375 
Q 14.15625 24.078125 19.015625 15.8125 
Q 23.875 7.5625 32.71875 7.5625 
Q 42.71875 7.5625 47.96875 15.125 
Q 53.21875 22.703125 53.21875 36.375 
Q 53.21875 64.015625 32.71875 64.015625 
Q 23.640625 64.015625 18.890625 56.59375 
Q 14.15625 49.171875 14.15625 36.375 
z
" id="TrebuchetMS-79"/>
       </defs>
       <use xlink:href="#TrebuchetMS-79"/>
      </g>
     </g>
    </g>
    <g id="xtick_2">
     <g id="line2d_2">
      <g>
       <use style="stroke:#000000;stroke-width:0.8;" x="60.103512" xlink:href="#m3bd4828f58" y="96.6"/>
      </g>
     </g>
     <g id="text_2">
      <!-- OR -->
      <g transform="translate(57.108983 110.334594)rotate(-20)scale(0.06 -0.06)">
       <defs>
        <path d="M 47.015625 0 
L 27.9375 30.71875 
Q 24.65625 30.71875 17.578125 31.203125 
L 17.578125 0 
L 7.8125 0 
L 7.8125 71.53125 
Q 8.34375 71.53125 15.40625 71.890625 
Q 22.46875 72.265625 25.6875 72.265625 
Q 51.46875 72.265625 51.46875 51.765625 
Q 51.46875 45.015625 47.3125 39.625 
Q 43.171875 34.234375 37.453125 32.90625 
L 58.203125 0 
z
M 17.578125 62.75 
L 17.578125 39.5 
Q 21.09375 39.015625 24.421875 39.015625 
Q 33.203125 39.015625 37.203125 41.84375 
Q 41.21875 44.671875 41.21875 51.953125 
Q 41.21875 57.953125 36.921875 60.59375 
Q 32.625 63.234375 23.34375 63.234375 
Q 21.875 63.234375 17.578125 62.75 
z
" id="TrebuchetMS-82"/>
       </defs>
       <use xlink:href="#TrebuchetMS-79"/>
       <use x="67.382812" xlink:href="#TrebuchetMS-82"/>
      </g>
     </g>
    </g>
    <g id="xtick_3">
     <g id="line2d_3">
      <g>
       <use style="stroke:#000000;stroke-width:0.8;" x="74.384504" xlink:href="#m3bd4828f58" y="96.6"/>
      </g>
     </g>
     <g id="text_3">
      <!-- ORT -->
      <g transform="translate(69.869435 111.441457)rotate(-20)scale(0.06 -0.06)">
       <defs>
        <path d="M 33.40625 62.75 
L 33.40625 0 
L 23.640625 0 
L 23.640625 62.75 
L 0.875 62.75 
L 0.875 71.53125 
L 57.171875 71.53125 
L 57.171875 62.75 
z
" id="TrebuchetMS-84"/>
       </defs>
       <use xlink:href="#TrebuchetMS-79"/>
       <use x="67.382812" xlink:href="#TrebuchetMS-82"/>
       <use x="121.460938" xlink:href="#TrebuchetMS-84"/>
      </g>
     </g>
    </g>
    <g id="xtick_4">
     <g id="line2d_4">
      <g>
       <use style="stroke:#000000;stroke-width:0.8;" x="88.665496" xlink:href="#m3bd4828f58" y="96.6"/>
      </g>
     </g>
     <g id="text_4">
      <!-- ORTO -->
      <g transform="translate(82.405682 112.711528)rotate(-20)scale(0.06 -0.06)">
       <use xlink:href="#TrebuchetMS-79"/>
       <use x="67.382812" xlink:href="#TrebuchetMS-82"/>
       <use x="121.460938" xlink:href="#TrebuchetMS-84"/>
       <use x="174.017578" xlink:href="#TrebuchetMS-79"/>
      </g>
     </g>
    </g>
    <g id="xtick_5">
     <g id="line2d_5">
      <g>
       <use style="stroke:#000000;stroke-width:0.8;" x="102.946488" xlink:href="#m3bd4828f58" y="96.6"/>
      </g>
     </g>
     <g id="text_5">
      <!-- ORTOU -->
      <g transform="translate(94.858678 114.0422)rotate(-20)scale(0.06 -0.06)">
       <defs>
        <path d="M 7.328125 71.53125 
L 17.09375 71.53125 
L 17.09375 22.5625 
Q 17.09375 16.015625 21.234375 11.78125 
Q 25.390625 7.5625 32.234375 7.5625 
Q 39.453125 7.5625 43.59375 11.65625 
Q 47.75 15.765625 47.75 22.796875 
L 47.75 71.53125 
L 57.515625 71.53125 
L 57.515625 21.78125 
Q 57.515625 10.9375 50.75 4.859375 
Q 44 -1.21875 32.328125 -1.21875 
Q 20.3125 -1.21875 13.8125 4.734375 
Q 7.328125 10.6875 7.328125 21.828125 
z
" id="TrebuchetMS-85"/>
       </defs>
       <use xlink:href="#TrebuchetMS-79"/>
       <use x="67.382812" xlink:href="#TrebuchetMS-82"/>
       <use x="121.460938" xlink:href="#TrebuchetMS-84"/>
       <use x="174.017578" xlink:href="#TrebuchetMS-79"/>
       <use x="241.400391" xlink:href="#TrebuchetMS-85"/>
      </g>
     </g>
    </g>
    <g id="xtick_6">
     <g id="line2d_6">
      <g>
       <use style="stroke:#000000;stroke-width:0.8;" x="117.227479" xlink:href="#m3bd4828f58" y="96.6"/>
      </g>
     </g>
     <g id="text_6">
      <!-- ORTOUL -->
      <g transform="translate(107.712071 115.081406)rotate(-20)scale(0.06 -0.06)">
       <defs>
        <path d="M 7.328125 0 
L 7.328125 71.53125 
L 17.09375 71.53125 
L 17.09375 8.796875 
L 49.421875 8.796875 
L 49.421875 0 
z
" id="TrebuchetMS-76"/>
       </defs>
       <use xlink:href="#TrebuchetMS-79"/>
       <use x="67.382812" xlink:href="#TrebuchetMS-82"/>
       <use x="121.460938" xlink:href="#TrebuchetMS-84"/>
       <use x="174.017578" xlink:href="#TrebuchetMS-79"/>
       <use x="241.400391" xlink:href="#TrebuchetMS-85"/>
       <use x="306.244141" xlink:href="#TrebuchetMS-76"/>
      </g>
     </g>
    </g>
    <g id="text_7">
     <!-- staining steps -->
     <g transform="translate(57.11625 126.136859)scale(0.08 -0.08)">
      <defs>
       <path d="M 3.171875 3.125 
L 6.453125 11.921875 
Q 14.203125 6.84375 18.953125 6.84375 
Q 27.546875 6.84375 27.546875 14.0625 
Q 27.546875 19.234375 19.234375 22.953125 
Q 12.84375 25.875 10.625 27.390625 
Q 8.40625 28.90625 6.765625 30.828125 
Q 5.125 32.765625 4.3125 34.9375 
Q 3.515625 37.109375 3.515625 39.59375 
Q 3.515625 46.046875 8.203125 49.65625 
Q 12.890625 53.265625 20.453125 53.265625 
Q 26.171875 53.265625 34.859375 49.65625 
L 32.234375 41.0625 
Q 26.703125 45.453125 21.140625 45.453125 
Q 17.828125 45.453125 15.546875 43.890625 
Q 13.28125 42.328125 13.28125 39.9375 
Q 13.28125 34.90625 19 32.328125 
L 25.640625 29.296875 
Q 31.734375 26.515625 34.515625 22.953125 
Q 37.3125 19.390625 37.3125 14.015625 
Q 37.3125 6.984375 32.375 3 
Q 27.4375 -0.984375 18.703125 -0.984375 
Q 10.453125 -0.984375 3.171875 3.125 
z
" id="TrebuchetMS-115"/>
       <path d="M 9.90625 44.96875 
L 3.859375 44.96875 
L 3.859375 52.296875 
L 9.90625 52.296875 
L 9.90625 63.234375 
L 19.1875 66.796875 
L 19.1875 52.296875 
L 33.546875 52.296875 
L 33.546875 44.96875 
L 19.1875 44.96875 
L 19.1875 19 
Q 19.1875 12.40625 21.40625 9.625 
Q 23.640625 6.84375 28.5625 6.84375 
Q 32.125 6.84375 35.9375 8.640625 
L 37.3125 0.484375 
Q 31.546875 -0.984375 24.65625 -0.984375 
Q 18.453125 -0.984375 14.171875 3.625 
Q 9.90625 8.25 9.90625 15.28125 
z
" id="TrebuchetMS-116"/>
       <path d="M 36.140625 6 
Q 30.5625 -0.984375 19.09375 -0.984375 
Q 12.9375 -0.984375 8.421875 3.484375 
Q 3.90625 7.953125 3.90625 14.59375 
Q 3.90625 22.5625 10.859375 28.046875 
Q 17.828125 33.546875 28.609375 33.546875 
Q 31.546875 33.546875 35.25 32.28125 
Q 35.25 44.96875 23.921875 44.96875 
Q 15.234375 44.96875 10.546875 40.28125 
L 6.640625 48.046875 
Q 9.28125 50.203125 13.9375 51.734375 
Q 18.609375 53.265625 22.859375 53.265625 
Q 34.234375 53.265625 39.375 48.09375 
Q 44.53125 42.921875 44.53125 31.640625 
L 44.53125 12.890625 
Q 44.53125 6 48.640625 3.71875 
L 48.640625 -0.921875 
Q 42.96875 -0.921875 40.15625 0.6875 
Q 37.359375 2.296875 36.140625 6 
z
M 35.25 25.6875 
Q 30.859375 26.65625 29.109375 26.65625 
Q 22.078125 26.65625 17.625 23.046875 
Q 13.1875 19.4375 13.1875 14.5 
Q 13.1875 6.34375 22.796875 6.34375 
Q 29.828125 6.34375 35.25 13.03125 
z
" id="TrebuchetMS-97"/>
       <path d="M 16.15625 72.078125 
Q 18.5625 72.078125 20.234375 70.390625 
Q 21.921875 68.703125 21.921875 66.359375 
Q 21.921875 63.96875 20.234375 62.28125 
Q 18.5625 60.59375 16.15625 60.59375 
Q 13.8125 60.59375 12.125 62.28125 
Q 10.453125 63.96875 10.453125 66.359375 
Q 10.453125 68.75 12.109375 70.40625 
Q 13.765625 72.078125 16.15625 72.078125 
z
M 11.078125 0 
L 11.078125 44.484375 
L 3.90625 44.484375 
L 3.90625 52.296875 
L 20.359375 52.296875 
L 20.359375 0 
z
" id="TrebuchetMS-105"/>
       <path d="M 38.765625 0 
L 38.765625 30.421875 
Q 38.765625 38.765625 36.25 42.109375 
Q 33.734375 45.453125 27.828125 45.453125 
Q 24.65625 45.453125 21.1875 43.546875 
Q 17.71875 41.65625 15.875 38.875 
L 15.875 0 
L 6.59375 0 
L 6.59375 52.296875 
L 12.9375 52.296875 
L 15.875 45.5625 
Q 20.453125 53.265625 30.859375 53.265625 
Q 48.046875 53.265625 48.046875 32.375 
L 48.046875 0 
z
" id="TrebuchetMS-110"/>
       <path d="M 4.6875 -14.3125 
L 9.71875 -6.890625 
Q 17.828125 -12.3125 24.65625 -12.3125 
Q 30.953125 -12.3125 34.59375 -10.125 
Q 38.234375 -7.953125 38.234375 -4.734375 
Q 38.234375 1.609375 29.046875 1.609375 
Q 27.484375 1.609375 23.375 0.828125 
Q 19.28125 0.046875 17 0.046875 
Q 5.859375 0.046875 5.859375 8.453125 
Q 5.859375 11.03125 8.46875 13.125 
Q 11.078125 15.234375 14.9375 16.15625 
Q 3.90625 21.34375 3.90625 34.125 
Q 3.90625 42.328125 9.609375 47.796875 
Q 15.328125 53.265625 23.734375 53.265625 
Q 31.453125 53.265625 35.796875 50.09375 
L 40.4375 55.671875 
L 46.484375 49.953125 
L 40.921875 45.75 
Q 44.484375 41.109375 44.484375 33.640625 
Q 44.484375 25.734375 39.546875 20.359375 
Q 34.625 14.984375 26.609375 14.203125 
L 18.953125 13.421875 
Q 17.578125 13.28125 15.28125 12.375 
Q 12.984375 11.46875 12.984375 10.015625 
Q 12.984375 8.015625 17.78125 8.015625 
Q 19.875 8.015625 24.3125 8.765625 
Q 28.765625 9.515625 30.90625 9.515625 
Q 38.625 9.515625 42.9375 5.828125 
Q 47.265625 2.15625 47.265625 -4.390625 
Q 47.265625 -11.625 40.796875 -16.0625 
Q 34.328125 -20.515625 24.421875 -20.515625 
Q 19.34375 -20.515625 13.71875 -18.703125 
Q 8.109375 -16.890625 4.6875 -14.3125 
z
M 24.359375 45.796875 
Q 19.53125 45.796875 16.46875 42.375 
Q 13.421875 38.96875 13.421875 34.078125 
Q 13.421875 28.609375 16.375 25.015625 
Q 19.34375 21.4375 24.359375 21.4375 
Q 29.296875 21.4375 32.078125 24.921875 
Q 34.859375 28.421875 34.859375 34.078125 
Q 34.859375 38.96875 31.859375 42.375 
Q 28.859375 45.796875 24.359375 45.796875 
z
" id="TrebuchetMS-103"/>
       <path id="TrebuchetMS-32"/>
       <path d="M 50.640625 25.25 
L 12.9375 25.25 
Q 12.9375 16.0625 17.96875 11.140625 
Q 22.40625 6.84375 29.390625 6.84375 
Q 37.359375 6.84375 42.671875 11.46875 
L 46.578125 4.78125 
Q 44.4375 2.640625 39.984375 1.078125 
Q 34.421875 -0.984375 27.59375 -0.984375 
Q 17.71875 -0.984375 10.84375 5.71875 
Q 3.171875 13.09375 3.171875 25.53125 
Q 3.171875 38.484375 11.03125 46.296875 
Q 18.0625 53.265625 27.6875 53.265625 
Q 38.875 53.265625 45.21875 46.96875 
Q 51.375 40.921875 51.375 30.90625 
Q 51.375 27.828125 50.640625 25.25 
z
M 28.125 45.453125 
Q 21.921875 45.453125 17.71875 41.453125 
Q 13.71875 37.640625 13.1875 31.984375 
L 42.140625 31.984375 
Q 42.140625 37.59375 38.625 41.359375 
Q 34.765625 45.453125 28.125 45.453125 
z
" id="TrebuchetMS-101"/>
       <path d="M 15.875 2.875 
L 15.875 -20.515625 
L 6.59375 -20.515625 
L 6.59375 52.296875 
L 15.875 52.296875 
L 15.875 48 
Q 21.140625 53.265625 28.609375 53.265625 
Q 39.75 53.265625 45.953125 46.328125 
Q 52.15625 39.40625 52.15625 26.03125 
Q 52.15625 14.109375 45.90625 6.5625 
Q 39.65625 -0.984375 27.828125 -0.984375 
Q 24.515625 -0.984375 20.71875 0.1875 
Q 16.9375 1.375 15.875 2.875 
z
M 15.875 41.015625 
L 15.875 10.546875 
Q 16.75 9.234375 19.578125 8.03125 
Q 22.40625 6.84375 25.09375 6.84375 
Q 42.390625 6.84375 42.390625 26.375 
Q 42.390625 36.28125 38.28125 40.859375 
Q 34.1875 45.453125 25.140625 45.453125 
Q 23.1875 45.453125 20.359375 44.078125 
Q 17.53125 42.71875 15.875 41.015625 
z
" id="TrebuchetMS-112"/>
      </defs>
      <use xlink:href="#TrebuchetMS-115"/>
      <use x="40.478516" xlink:href="#TrebuchetMS-116"/>
      <use x="80.126953" xlink:href="#TrebuchetMS-97"/>
      <use x="132.666016" xlink:href="#TrebuchetMS-105"/>
      <use x="161.181641" xlink:href="#TrebuchetMS-110"/>
      <use x="215.820312" xlink:href="#TrebuchetMS-105"/>
      <use x="244.335938" xlink:href="#TrebuchetMS-110"/>
      <use x="298.974609" xlink:href="#TrebuchetMS-103"/>
      <use x="349.169922" xlink:href="#TrebuchetMS-32"/>
      <use x="379.296875" xlink:href="#TrebuchetMS-115"/>
      <use x="419.775391" xlink:href="#TrebuchetMS-116"/>
      <use x="459.423828" xlink:href="#TrebuchetMS-101"/>
      <use x="513.964844" xlink:href="#TrebuchetMS-112"/>
      <use x="569.677734" xlink:href="#TrebuchetMS-115"/>
     </g>
    </g>
   </g>
   <g id="matplotlib.axis_2">
    <g id="ytick_1">
     <g id="line2d_7">
      <defs>
       <path d="M 0 0 
L -3.5 0 
" id="mecbfdfcae6" style="stroke:#000000;stroke-width:0.8;"/>
      </defs>
      <g>
       <use style="stroke:#000000;stroke-width:0.8;" x="38.325" xlink:href="#mecbfdfcae6" y="96.6"/>
      </g>
     </g>
     <g id="text_8">
      <!-- 0 -->
      <g transform="translate(27.13 99.549375)scale(0.08 -0.08)">
       <defs>
        <path d="M 3.125 37.9375 
Q 3.125 53.375 9.375 63.078125 
Q 15.625 72.796875 26.953125 72.796875 
Q 38.1875 72.796875 43.828125 64.6875 
Q 49.46875 56.59375 49.46875 36.375 
Q 49.46875 19 43.546875 9 
Q 37.640625 -0.984375 26.265625 -0.984375 
Q 14.890625 -0.984375 9 7.078125 
Q 3.125 15.140625 3.125 37.9375 
z
M 12.890625 37.0625 
Q 12.890625 7.328125 25.59375 7.328125 
Q 32.859375 7.328125 36.28125 13.921875 
Q 39.703125 20.515625 39.703125 37.015625 
Q 39.703125 48.390625 38.375 53.703125 
Q 37.0625 59.03125 34.125 61.765625 
Q 31.203125 64.5 26.703125 64.5 
Q 12.890625 64.5 12.890625 37.0625 
z
" id="TrebuchetMS-48"/>
       </defs>
       <use xlink:href="#TrebuchetMS-48"/>
      </g>
     </g>
    </g>
    <g id="ytick_2">
     <g id="line2d_8">
      <g>
       <use style="stroke:#000000;stroke-width:0.8;" x="38.325" xlink:href="#mecbfdfcae6" y="75"/>
      </g>
     </g>
     <g id="text_9">
      <!-- 25 -->
      <g transform="translate(22.935 77.949375)scale(0.08 -0.08)">
       <defs>
        <path d="M 3.375 0 
L 3.375 1.953125 
L 25.78125 36.28125 
Q 32.8125 47.078125 32.8125 54.59375 
Q 32.8125 64.5 21.625 64.5 
Q 17.671875 64.5 14.203125 62.421875 
Q 10.75 60.359375 9.1875 57.171875 
L 2.875 62.359375 
Q 4.546875 67.140625 9.40625 69.96875 
Q 14.265625 72.796875 21.140625 72.796875 
Q 31.453125 72.796875 37.25 68.03125 
Q 43.0625 63.28125 43.0625 54.59375 
Q 43.0625 46.53125 35.359375 34.28125 
L 19.28125 8.796875 
L 47.3125 8.796875 
L 47.3125 0 
z
" id="TrebuchetMS-50"/>
        <path d="M 11.328125 34.90625 
L 8.015625 37.203125 
L 8.015625 71.828125 
L 43.609375 71.828125 
L 43.609375 63.53125 
L 17.28125 63.53125 
L 17.28125 46.140625 
Q 20.90625 48.828125 26.46875 48.828125 
Q 36.421875 48.828125 41.671875 42.875 
Q 46.921875 36.921875 46.921875 25.921875 
Q 46.921875 -0.984375 22.953125 -0.984375 
Q 12.9375 -0.984375 6.34375 4.59375 
L 10.109375 12.75 
Q 16.75 7.328125 22.90625 7.328125 
Q 36.671875 7.328125 36.671875 24.515625 
Q 36.671875 40.53125 23.09375 40.53125 
Q 16.546875 40.53125 11.328125 34.90625 
z
" id="TrebuchetMS-53"/>
       </defs>
       <use xlink:href="#TrebuchetMS-50"/>
       <use x="52.441406" xlink:href="#TrebuchetMS-53"/>
      </g>
     </g>
    </g>
    <g id="ytick_3">
     <g id="line2d_9">
      <g>
       <use style="stroke:#000000;stroke-width:0.8;" x="38.325" xlink:href="#mecbfdfcae6" y="53.4"/>
      </g>
     </g>
     <g id="text_10">
      <!-- 50 -->
      <g transform="translate(22.935 56.349375)scale(0.08 -0.08)">
       <use xlink:href="#TrebuchetMS-53"/>
       <use x="52.441406" xlink:href="#TrebuchetMS-48"/>
      </g>
     </g>
    </g>
    <g id="ytick_4">
     <g id="line2d_10">
      <g>
       <use style="stroke:#000000;stroke-width:0.8;" x="38.325" xlink:href="#mecbfdfcae6" y="31.8"/>
      </g>
     </g>
     <g id="text_11">
      <!-- 75 -->
      <g transform="translate(22.935 34.749375)scale(0.08 -0.08)">
       <defs>
        <path d="M 20.90625 0 
L 10.0625 0 
Q 13.671875 11.46875 22.21875 30.34375 
Q 30.765625 49.21875 37.84375 62.546875 
L 4.109375 62.546875 
L 4.109375 71.828125 
L 50.484375 71.828125 
L 50.484375 68.015625 
L 44.1875 55.609375 
Q 41.015625 49.3125 37.546875 41.796875 
Q 34.078125 34.28125 30.75 26.46875 
Q 27.4375 18.65625 24.953125 11.96875 
Q 22.46875 5.28125 20.90625 0 
z
" id="TrebuchetMS-55"/>
       </defs>
       <use xlink:href="#TrebuchetMS-55"/>
       <use x="52.441406" xlink:href="#TrebuchetMS-53"/>
      </g>
     </g>
    </g>
    <g id="ytick_5">
     <g id="line2d_11">
      <g>
       <use style="stroke:#000000;stroke-width:0.8;" x="38.325" xlink:href="#mecbfdfcae6" y="10.2"/>
      </g>
     </g>
     <g id="text_12">
      <!-- 100 -->
      <g transform="translate(18.74 13.149375)scale(0.08 -0.08)">
       <defs>
        <path d="M 24.3125 0 
L 24.3125 54.828125 
L 9.765625 45.75 
L 9.765625 54.890625 
Q 15.28125 57.671875 21.5 62.546875 
Q 27.734375 67.4375 31.15625 71.828125 
L 34.078125 71.828125 
L 34.078125 0 
z
" id="TrebuchetMS-49"/>
       </defs>
       <use xlink:href="#TrebuchetMS-49"/>
       <use x="52.441406" xlink:href="#TrebuchetMS-48"/>
       <use x="104.882812" xlink:href="#TrebuchetMS-48"/>
      </g>
     </g>
    </g>
    <g id="text_13">
     <!-- % of samples -->
     <g transform="translate(13.09875 76.0875)rotate(-90)scale(0.08 -0.08)">
      <defs>
       <path d="M 10.640625 -0.984375 
L 4.4375 -0.984375 
L 47.5625 72.796875 
L 53.71875 72.796875 
z
M 2.984375 56.734375 
Q 2.984375 63.921875 6.9375 68.359375 
Q 10.890625 72.796875 17 72.796875 
Q 23 72.796875 26.578125 68.40625 
Q 30.171875 64.015625 30.171875 55.8125 
Q 30.171875 48.1875 26.359375 43.71875 
Q 22.5625 39.265625 16.546875 39.265625 
Q 2.984375 39.265625 2.984375 56.734375 
z
M 9.125 56.25 
Q 9.125 50.53125 11.046875 47.375 
Q 12.984375 44.234375 16.109375 44.234375 
Q 24.03125 44.234375 24.03125 56.203125 
Q 24.03125 67.828125 16.84375 67.828125 
Q 13.28125 67.828125 11.203125 64.703125 
Q 9.125 61.578125 9.125 56.25 
z
M 29.34375 16.5 
Q 29.34375 23.6875 33.296875 28.125 
Q 37.25 32.5625 43.359375 32.5625 
Q 49.359375 32.5625 52.953125 28.171875 
Q 56.546875 23.78125 56.546875 15.578125 
Q 56.546875 7.953125 52.734375 3.484375 
Q 48.921875 -0.984375 42.921875 -0.984375 
Q 29.34375 -0.984375 29.34375 16.5 
z
M 35.5 16.015625 
Q 35.5 10.296875 37.421875 7.140625 
Q 39.359375 4 42.484375 4 
Q 50.390625 4 50.390625 15.96875 
Q 50.390625 27.59375 43.21875 27.59375 
Q 39.65625 27.59375 37.578125 24.46875 
Q 35.5 21.34375 35.5 16.015625 
z
" id="TrebuchetMS-37"/>
       <path d="M 3.171875 26.265625 
Q 3.171875 38.375 9.6875 45.8125 
Q 16.21875 53.265625 26.859375 53.265625 
Q 38.09375 53.265625 44.28125 46.109375 
Q 50.484375 38.96875 50.484375 26.265625 
Q 50.484375 13.625 44.140625 6.3125 
Q 37.796875 -0.984375 26.859375 -0.984375 
Q 15.671875 -0.984375 9.421875 6.390625 
Q 3.171875 13.765625 3.171875 26.265625 
z
M 12.9375 26.265625 
Q 12.9375 6.59375 26.859375 6.59375 
Q 33.34375 6.59375 37.03125 11.859375 
Q 40.71875 17.140625 40.71875 26.265625 
Q 40.71875 45.703125 26.859375 45.703125 
Q 20.515625 45.703125 16.71875 40.53125 
Q 12.9375 35.359375 12.9375 26.265625 
z
" id="TrebuchetMS-111"/>
       <path d="M 34.859375 65.4375 
Q 32.03125 66.40625 29.59375 66.40625 
Q 25.34375 66.40625 22.578125 63.1875 
Q 19.828125 59.96875 19.828125 55.03125 
Q 19.828125 53.71875 20.0625 52.296875 
L 30.71875 52.296875 
L 30.71875 44.484375 
L 20.0625 44.484375 
L 20.0625 0 
L 10.796875 0 
L 10.796875 44.484375 
L 3.171875 44.484375 
L 3.171875 52.296875 
L 10.796875 52.296875 
Q 10.796875 62.3125 15.71875 68.015625 
Q 20.65625 73.734375 28.765625 73.734375 
Q 32.8125 73.734375 37.453125 72.265625 
z
" id="TrebuchetMS-102"/>
       <path d="M 67.140625 0 
L 67.140625 33.109375 
Q 67.140625 45.453125 56.453125 45.453125 
Q 53.078125 45.453125 50.140625 43.375 
Q 47.21875 41.3125 46.140625 38.671875 
L 46.140625 0 
L 36.859375 0 
L 36.859375 37.15625 
Q 36.859375 41.015625 33.953125 43.234375 
Q 31.0625 45.453125 26.265625 45.453125 
Q 23.484375 45.453125 20.328125 43.296875 
Q 17.1875 41.15625 15.875 38.578125 
L 15.875 0 
L 6.59375 0 
L 6.59375 52.296875 
L 12.640625 52.296875 
L 15.71875 46.234375 
Q 21.09375 53.265625 29.15625 53.265625 
Q 40.375 53.265625 44.875 46.296875 
Q 46.4375 49.265625 50.6875 51.265625 
Q 54.9375 53.265625 59.421875 53.265625 
Q 67.53125 53.265625 71.96875 48.453125 
Q 76.421875 43.65625 76.421875 34.96875 
L 76.421875 0 
z
" id="TrebuchetMS-109"/>
       <path d="M 7.328125 14.796875 
L 7.328125 73.734375 
L 16.609375 73.734375 
L 16.609375 16.359375 
Q 16.609375 12.15625 19.015625 9.734375 
Q 21.4375 7.328125 25.34375 7.328125 
L 25.34375 -0.984375 
Q 7.328125 -0.984375 7.328125 14.796875 
z
" id="TrebuchetMS-108"/>
      </defs>
      <use xlink:href="#TrebuchetMS-37"/>
      <use x="60.009766" xlink:href="#TrebuchetMS-32"/>
      <use x="90.136719" xlink:href="#TrebuchetMS-111"/>
      <use x="143.798828" xlink:href="#TrebuchetMS-102"/>
      <use x="180.761719" xlink:href="#TrebuchetMS-32"/>
      <use x="210.888672" xlink:href="#TrebuchetMS-115"/>
      <use x="251.367188" xlink:href="#TrebuchetMS-97"/>
      <use x="303.90625" xlink:href="#TrebuchetMS-109"/>
      <use x="386.914062" xlink:href="#TrebuchetMS-112"/>
      <use x="442.626953" xlink:href="#TrebuchetMS-108"/>
      <use x="472.119141" xlink:href="#TrebuchetMS-101"/>
      <use x="526.660156" xlink:href="#TrebuchetMS-115"/>
     </g>
    </g>
   </g>
   <g id="line2d_12">
    <path d="M 45.822521 96.6 
L 60.103512 96.6 
L 74.384504 81.912 
L 88.665496 81.912 
L 102.946488 53.4 
L 117.227479 96.6 
" style="fill:none;stroke:#d3d3d3;stroke-linecap:square;stroke-width:1.5;"/>
    <defs>
     <path d="M 0 1.5 
C 0.397805 1.5 0.77937 1.341951 1.06066 1.06066 
C 1.341951 0.77937 1.5 0.397805 1.5 0 
C 1.5 -0.397805 1.341951 -0.77937 1.06066 -1.06066 
C 0.77937 -1.341951 0.397805 -1.5 0 -1.5 
C -0.397805 -1.5 -0.77937 -1.341951 -1.06066 -1.06066 
C -1.341951 -0.77937 -1.5 -0.397805 -1.5 0 
C -1.5 0.397805 -1.341951 0.77937 -1.06066 1.06066 
C -0.77937 1.341951 -0.397805 1.5 0 1.5 
z
" id="ma688e09d0b" style="stroke:#d3d3d3;"/>
    </defs>
    <g>
     <use style="fill:#d3d3d3;stroke:#d3d3d3;" x="45.822521" xlink:href="#ma688e09d0b" y="96.6"/>
     <use style="fill:#d3d3d3;stroke:#d3d3d3;" x="60.103512" xlink:href="#ma688e09d0b" y="96.6"/>
     <use style="fill:#d3d3d3;stroke:#d3d3d3;" x="74.384504" xlink:href="#ma688e09d0b" y="81.912"/>
     <use style="fill:#d3d3d3;stroke:#d3d3d3;" x="88.665496" xlink:href="#ma688e09d0b" y="81.912"/>
     <use style="fill:#d3d3d3;stroke:#d3d3d3;" x="102.946488" xlink:href="#ma688e09d0b" y="53.4"/>
     <use style="fill:#d3d3d3;stroke:#d3d3d3;" x="117.227479" xlink:href="#ma688e09d0b" y="96.6"/>
    </g>
   </g>
   <g id="line2d_13">
    <path d="M 45.822521 96.6 
L 60.103512 96.6 
L 74.384504 68.088 
L 88.665496 24.888 
L 102.946488 53.4 
L 117.227479 10.2 
" style="fill:none;stroke:#87cefa;stroke-linecap:square;stroke-width:1.5;"/>
    <defs>
     <path d="M 0 1.5 
C 0.397805 1.5 0.77937 1.341951 1.06066 1.06066 
C 1.341951 0.77937 1.5 0.397805 1.5 0 
C 1.5 -0.397805 1.341951 -0.77937 1.06066 -1.06066 
C 0.77937 -1.341951 0.397805 -1.5 0 -1.5 
C -0.397805 -1.5 -0.77937 -1.341951 -1.06066 -1.06066 
C -1.341951 -0.77937 -1.5 -0.397805 -1.5 0 
C -1.5 0.397805 -1.341951 0.77937 -1.06066 1.06066 
C -0.77937 1.341951 -0.397805 1.5 0 1.5 
z
" id="m51ec71ec75" style="stroke:#87cefa;"/>
    </defs>
    <g>
     <use style="fill:#87cefa;stroke:#87cefa;" x="45.822521" xlink:href="#m51ec71ec75" y="96.6"/>
     <use style="fill:#87cefa;stroke:#87cefa;" x="60.103512" xlink:href="#m51ec71ec75" y="96.6"/>
     <use style="fill:#87cefa;stroke:#87cefa;" x="74.384504" xlink:href="#m51ec71ec75" y="68.088"/>
     <use style="fill:#87cefa;stroke:#87cefa;" x="88.665496" xlink:href="#m51ec71ec75" y="24.888"/>
     <use style="fill:#87cefa;stroke:#87cefa;" x="102.946488" xlink:href="#m51ec71ec75" y="53.4"/>
     <use style="fill:#87cefa;stroke:#87cefa;" x="117.227479" xlink:href="#m51ec71ec75" y="10.2"/>
    </g>
   </g>
   <g id="patch_9">
    <path d="M 38.325 96.6 
L 38.325 10.2 
" style="fill:none;stroke:#000000;stroke-linecap:square;stroke-linejoin:miter;stroke-width:0.8;"/>
   </g>
   <g id="patch_10">
    <path d="M 38.325 96.6 
L 124.725 96.6 
" style="fill:none;stroke:#000000;stroke-linecap:square;stroke-linejoin:miter;stroke-width:0.8;"/>
   </g>
   <g id="legend_1">
    <g id="patch_11">
     <path d="M 41.125 24.94 
L 66.991875 24.94 
Q 67.791875 24.94 67.791875 24.14 
L 67.791875 13 
Q 67.791875 12.2 66.991875 12.2 
L 41.125 12.2 
Q 40.325 12.2 40.325 13 
L 40.325 24.14 
Q 40.325 24.94 41.125 24.94 
z
" style="fill:#ffffff;opacity:0.8;stroke:#cccccc;stroke-linejoin:miter;stroke-width:0.5;"/>
    </g>
    <g id="line2d_14">
     <path d="M 41.925 15.349375 
L 49.925 15.349375 
" style="fill:none;stroke:#d3d3d3;stroke-linecap:square;stroke-width:1.5;"/>
    </g>
    <g id="line2d_15">
     <g>
      <use style="fill:#d3d3d3;stroke:#d3d3d3;" x="45.925" xlink:href="#ma688e09d0b" y="15.349375"/>
     </g>
    </g>
    <g id="text_14">
     <!-- crack I -->
     <g transform="translate(53.125 16.749375)scale(0.04 -0.04)">
      <defs>
       <path d="M 46.046875 48.046875 
L 41.453125 41.5 
Q 40.046875 42.921875 36.453125 44.1875 
Q 32.859375 45.453125 29.390625 45.453125 
Q 21.828125 45.453125 17.375 40.15625 
Q 12.9375 34.859375 12.9375 25.640625 
Q 12.9375 16.453125 17.46875 11.640625 
Q 22.015625 6.84375 30.078125 6.84375 
Q 36.328125 6.84375 42.671875 11.671875 
L 46.34375 3.859375 
Q 38.875 -0.984375 27.828125 -0.984375 
Q 17.140625 -0.984375 10.15625 6.1875 
Q 3.171875 13.375 3.171875 25.640625 
Q 3.171875 38.140625 10.421875 45.703125 
Q 17.671875 53.265625 30.28125 53.265625 
Q 34.328125 53.265625 39.0625 51.5625 
Q 43.796875 49.859375 46.046875 48.046875 
z
" id="TrebuchetMS-99"/>
       <path d="M 35.015625 43.359375 
Q 31.984375 45.453125 28.90625 45.453125 
Q 23.96875 45.453125 20.28125 40.90625 
Q 16.609375 36.375 16.609375 29.984375 
L 16.609375 0 
L 7.328125 0 
L 7.328125 52.296875 
L 16.609375 52.296875 
L 16.609375 43.953125 
Q 21.6875 53.265625 31.6875 53.265625 
Q 34.1875 53.265625 38.875 52.390625 
z
" id="TrebuchetMS-114"/>
       <path d="M 40.375 0 
L 23.96875 26.171875 
L 15.875 17.828125 
L 15.875 0 
L 6.59375 0 
L 6.59375 73.734375 
L 15.875 73.734375 
L 15.875 27.984375 
L 35.890625 52.296875 
L 46.734375 52.296875 
L 29.984375 32.421875 
L 50.4375 0 
z
" id="TrebuchetMS-107"/>
       <path d="M 9.03125 0 
L 9.03125 71.53125 
L 18.796875 71.53125 
L 18.796875 0 
z
" id="TrebuchetMS-73"/>
      </defs>
      <use xlink:href="#TrebuchetMS-99"/>
      <use x="49.511719" xlink:href="#TrebuchetMS-114"/>
      <use x="88.378906" xlink:href="#TrebuchetMS-97"/>
      <use x="140.917969" xlink:href="#TrebuchetMS-99"/>
      <use x="190.429688" xlink:href="#TrebuchetMS-107"/>
      <use x="240.869141" xlink:href="#TrebuchetMS-32"/>
      <use x="270.996094" xlink:href="#TrebuchetMS-73"/>
     </g>
    </g>
    <g id="line2d_16">
     <path d="M 41.925 21.119375 
L 49.925 21.119375 
" style="fill:none;stroke:#87cefa;stroke-linecap:square;stroke-width:1.5;"/>
    </g>
    <g id="line2d_17">
     <g>
      <use style="fill:#87cefa;stroke:#87cefa;" x="45.925" xlink:href="#m51ec71ec75" y="21.119375"/>
     </g>
    </g>
    <g id="text_15">
     <!-- crack II -->
     <g transform="translate(53.125 22.519375)scale(0.04 -0.04)">
      <use xlink:href="#TrebuchetMS-99"/>
      <use x="49.511719" xlink:href="#TrebuchetMS-114"/>
      <use x="88.378906" xlink:href="#TrebuchetMS-97"/>
      <use x="140.917969" xlink:href="#TrebuchetMS-99"/>
      <use x="190.429688" xlink:href="#TrebuchetMS-107"/>
      <use x="240.869141" xlink:href="#TrebuchetMS-32"/>
      <use x="270.996094" xlink:href="#TrebuchetMS-73"/>
      <use x="298.828125" xlink:href="#TrebuchetMS-73"/>
     </g>
    </g>
   </g>
  </g>
 </g>
 <defs>
  <clipPath id="p4492eea6d6">
   <rect height="86.4" width="86.4" x="38.325" y="10.2"/>
  </clipPath>
 </defs>
</svg>
