<?xml version="1.0" encoding="utf-8" standalone="no"?>
<!DOCTYPE svg PUBLIC "-//W3C//DTD SVG 1.1//EN"
  "http://www.w3.org/Graphics/SVG/1.1/DTD/svg11.dtd">
<!-- Created with matplotlib (https://matplotlib.org/) -->
<svg height="140.929375pt" version="1.1" viewBox="0 0 154.565 140.929375" width="154.565pt" xmlns="http://www.w3.org/2000/svg" xmlns:xlink="http://www.w3.org/1999/xlink">
 <metadata>
  <rdf:RDF xmlns:cc="http://creativecommons.org/ns#" xmlns:dc="http://purl.org/dc/elements/1.1/" xmlns:rdf="http://www.w3.org/1999/02/22-rdf-syntax-ns#">
   <cc:Work>
    <dc:type rdf:resource="http://purl.org/dc/dcmitype/StillImage"/>
    <dc:date>2022-02-09T10:58:49.692089</dc:date>
    <dc:format>image/svg+xml</dc:format>
    <dc:creator>
     <cc:Agent>
      <dc:title>Matplotlib v3.3.2, https://matplotlib.org/</dc:title>
     </cc:Agent>
    </dc:creator>
   </cc:Work>
  </rdf:RDF>
 </metadata>
 <defs>
  <style type="text/css">*{stroke-linecap:butt;stroke-linejoin:round;}</style>
 </defs>
 <g id="figure_1">
  <g id="patch_1">
   <path d="M 0 140.929375 
L 154.565 140.929375 
L 154.565 0 
L 0 0 
z
" style="fill:none;"/>
  </g>
  <g id="axes_1">
   <g id="patch_2">
    <path d="M 38.325 119.189375 
L 147.365 119.189375 
L 147.365 10.149375 
L 38.325 10.149375 
z
" style="fill:#ffffff;"/>
   </g>
   <g id="PolyCollection_1">
    <path clip-path="url(#pcd3e3e5bd4)" d="M 61.617965 77.250913 
L 55.922035 77.250913 
L 55.851657 76.903544 
L 55.78074 76.556175 
L 55.7091 76.208806 
L 55.636542 75.861437 
L 55.562861 75.514068 
L 55.487843 75.166699 
L 55.411271 74.81933 
L 55.332928 74.471961 
L 55.252596 74.124592 
L 55.170067 73.777223 
L 55.085138 73.429854 
L 54.997623 73.082485 
L 54.907349 72.735115 
L 54.814164 72.387746 
L 54.717939 72.040377 
L 54.618569 71.693008 
L 54.515979 71.345639 
L 54.410123 70.99827 
L 54.300988 70.650901 
L 54.188596 70.303532 
L 54.073002 69.956163 
L 53.954299 69.608794 
L 53.832617 69.261425 
L 53.70812 68.914056 
L 53.581009 68.566687 
L 53.45152 68.219318 
L 53.319921 67.871948 
L 53.186511 67.524579 
L 53.051621 67.17721 
L 52.915605 66.829841 
L 52.778842 66.482472 
L 52.641734 66.135103 
L 52.504695 65.787734 
L 52.368156 65.440365 
L 52.232558 65.092996 
L 52.098346 64.745627 
L 51.965969 64.398258 
L 51.835875 64.050889 
L 51.708505 63.70352 
L 51.584293 63.35615 
L 51.463661 63.008781 
L 51.347016 62.661412 
L 51.234747 62.314043 
L 51.127223 61.966674 
L 51.02479 61.619305 
L 50.927768 61.271936 
L 50.836453 60.924567 
L 50.751112 60.577198 
L 50.671985 60.229829 
L 50.599281 59.88246 
L 50.53318 59.535091 
L 50.473835 59.187722 
L 50.421366 58.840352 
L 50.375869 58.492983 
L 50.33741 58.145614 
L 50.306029 57.798245 
L 50.281741 57.450876 
L 50.264539 57.103507 
L 50.254392 56.756138 
L 50.25125 56.408769 
L 50.255044 56.0614 
L 50.265687 55.714031 
L 50.28308 55.366662 
L 50.307107 55.019293 
L 50.337645 54.671924 
L 50.374556 54.324554 
L 50.417697 53.977185 
L 50.466916 53.629816 
L 50.522058 53.282447 
L 50.58296 52.935078 
L 50.649457 52.587709 
L 50.721383 52.24034 
L 50.798567 51.892971 
L 50.880839 51.545602 
L 50.968026 51.198233 
L 51.059956 50.850864 
L 51.156457 50.503495 
L 51.257355 50.156126 
L 51.362478 49.808757 
L 51.47165 49.461387 
L 51.5847 49.114018 
L 51.70145 48.766649 
L 51.821726 48.41928 
L 51.94535 48.071911 
L 52.072143 47.724542 
L 52.201925 47.377173 
L 52.33451 47.029804 
L 52.469715 46.682435 
L 52.60735 46.335066 
L 52.747222 45.987697 
L 52.889137 45.640328 
L 53.032896 45.292959 
L 53.178295 44.945589 
L 53.32513 44.59822 
L 53.47319 44.250851 
L 53.622263 43.903482 
L 53.772132 43.556113 
L 53.922579 43.208744 
L 54.073382 42.861375 
L 63.466618 42.861375 
L 63.466618 42.861375 
L 63.617421 43.208744 
L 63.767868 43.556113 
L 63.917737 43.903482 
L 64.06681 44.250851 
L 64.21487 44.59822 
L 64.361705 44.945589 
L 64.507104 45.292959 
L 64.650863 45.640328 
L 64.792778 45.987697 
L 64.93265 46.335066 
L 65.070285 46.682435 
L 65.20549 47.029804 
L 65.338075 47.377173 
L 65.467857 47.724542 
L 65.59465 48.071911 
L 65.718274 48.41928 
L 65.83855 48.766649 
L 65.9553 49.114018 
L 66.06835 49.461387 
L 66.177522 49.808757 
L 66.282645 50.156126 
L 66.383543 50.503495 
L 66.480044 50.850864 
L 66.571974 51.198233 
L 66.659161 51.545602 
L 66.741433 51.892971 
L 66.818617 52.24034 
L 66.890543 52.587709 
L 66.95704 52.935078 
L 67.017942 53.282447 
L 67.073084 53.629816 
L 67.122303 53.977185 
L 67.165444 54.324554 
L 67.202355 54.671924 
L 67.232893 55.019293 
L 67.25692 55.366662 
L 67.274313 55.714031 
L 67.284956 56.0614 
L 67.28875 56.408769 
L 67.285608 56.756138 
L 67.275461 57.103507 
L 67.258259 57.450876 
L 67.233971 57.798245 
L 67.20259 58.145614 
L 67.164131 58.492983 
L 67.118634 58.840352 
L 67.066165 59.187722 
L 67.00682 59.535091 
L 66.940719 59.88246 
L 66.868015 60.229829 
L 66.788888 60.577198 
L 66.703547 60.924567 
L 66.612232 61.271936 
L 66.51521 61.619305 
L 66.412777 61.966674 
L 66.305253 62.314043 
L 66.192984 62.661412 
L 66.076339 63.008781 
L 65.955707 63.35615 
L 65.831495 63.70352 
L 65.704125 64.050889 
L 65.574031 64.398258 
L 65.441654 64.745627 
L 65.307442 65.092996 
L 65.171844 65.440365 
L 65.035305 65.787734 
L 64.898266 66.135103 
L 64.761158 66.482472 
L 64.624395 66.829841 
L 64.488379 67.17721 
L 64.353489 67.524579 
L 64.220079 67.871948 
L 64.08848 68.219318 
L 63.958991 68.566687 
L 63.83188 68.914056 
L 63.707383 69.261425 
L 63.585701 69.608794 
L 63.466998 69.956163 
L 63.351404 70.303532 
L 63.239012 70.650901 
L 63.129877 70.99827 
L 63.024021 71.345639 
L 62.921431 71.693008 
L 62.822061 72.040377 
L 62.725836 72.387746 
L 62.632651 72.735115 
L 62.542377 73.082485 
L 62.454862 73.429854 
L 62.369933 73.777223 
L 62.287404 74.124592 
L 62.207072 74.471961 
L 62.128729 74.81933 
L 62.052157 75.166699 
L 61.977139 75.514068 
L 61.903458 75.861437 
L 61.8309 76.208806 
L 61.75926 76.556175 
L 61.688343 76.903544 
L 61.617965 77.250913 
z
" style="fill:#ff8c00;fill-opacity:0.3;"/>
   </g>
   <g id="PolyCollection_2">
    <path clip-path="url(#pcd3e3e5bd4)" d="M 100.308046 78.299375 
L 85.381954 78.299375 
L 85.281819 77.870147 
L 85.186312 77.44092 
L 85.095558 77.011692 
L 85.009665 76.582465 
L 84.928727 76.153237 
L 84.852823 75.72401 
L 84.782015 75.294782 
L 84.716352 74.865554 
L 84.655867 74.436327 
L 84.600577 74.007099 
L 84.550486 73.577872 
L 84.505581 73.148644 
L 84.465837 72.719417 
L 84.431213 72.290189 
L 84.401658 71.860961 
L 84.377104 71.431734 
L 84.357475 71.002506 
L 84.34268 70.573279 
L 84.332619 70.144051 
L 84.327182 69.714824 
L 84.32625 69.285596 
L 84.329694 68.856368 
L 84.337379 68.427141 
L 84.349161 67.997913 
L 84.364892 67.568686 
L 84.384418 67.139458 
L 84.407581 66.710231 
L 84.434218 66.281003 
L 84.464164 65.851775 
L 84.497254 65.422548 
L 84.533317 64.99332 
L 84.572187 64.564093 
L 84.613693 64.134865 
L 84.65767 63.705638 
L 84.703949 63.27641 
L 84.752368 62.847182 
L 84.802765 62.417955 
L 84.854982 61.988727 
L 84.908863 61.5595 
L 84.964259 61.130272 
L 85.021022 60.701045 
L 85.079013 60.271817 
L 85.138095 59.842589 
L 85.198138 59.413362 
L 85.259016 58.984134 
L 85.320611 58.554907 
L 85.38281 58.125679 
L 85.445507 57.696452 
L 85.508601 57.267224 
L 85.572 56.837997 
L 85.635616 56.408769 
L 85.699368 55.979541 
L 85.763184 55.550314 
L 85.826996 55.121086 
L 85.890743 54.691859 
L 85.954372 54.262631 
L 86.017834 53.833404 
L 86.08109 53.404176 
L 86.144104 52.974948 
L 86.206847 52.545721 
L 86.269298 52.116493 
L 86.331439 51.687266 
L 86.393261 51.258038 
L 86.454759 50.828811 
L 86.515931 50.399583 
L 86.576786 49.970355 
L 86.637333 49.541128 
L 86.697588 49.1119 
L 86.757572 48.682673 
L 86.817309 48.253445 
L 86.876829 47.824218 
L 86.936164 47.39499 
L 86.995351 46.965762 
L 87.054429 46.536535 
L 87.113441 46.107307 
L 87.172433 45.67808 
L 87.231451 45.248852 
L 87.290546 44.819625 
L 87.349768 44.390397 
L 87.40917 43.961169 
L 87.468805 43.531942 
L 87.528725 43.102714 
L 87.588986 42.673487 
L 87.649638 42.244259 
L 87.710735 41.815032 
L 87.772328 41.385804 
L 87.834465 40.956576 
L 87.897193 40.527349 
L 87.960558 40.098121 
L 88.024601 39.668894 
L 88.08936 39.239666 
L 88.15487 38.810439 
L 88.221162 38.381211 
L 88.288263 37.951983 
L 88.356195 37.522756 
L 88.424975 37.093528 
L 88.494615 36.664301 
L 88.565122 36.235073 
L 88.636497 35.805846 
L 97.053503 35.805846 
L 97.053503 35.805846 
L 97.124878 36.235073 
L 97.195385 36.664301 
L 97.265025 37.093528 
L 97.333805 37.522756 
L 97.401737 37.951983 
L 97.468838 38.381211 
L 97.53513 38.810439 
L 97.60064 39.239666 
L 97.665399 39.668894 
L 97.729442 40.098121 
L 97.792807 40.527349 
L 97.855535 40.956576 
L 97.917672 41.385804 
L 97.979265 41.815032 
L 98.040362 42.244259 
L 98.101014 42.673487 
L 98.161275 43.102714 
L 98.221195 43.531942 
L 98.28083 43.961169 
L 98.340232 44.390397 
L 98.399454 44.819625 
L 98.458549 45.248852 
L 98.517567 45.67808 
L 98.576559 46.107307 
L 98.635571 46.536535 
L 98.694649 46.965762 
L 98.753836 47.39499 
L 98.813171 47.824218 
L 98.872691 48.253445 
L 98.932428 48.682673 
L 98.992412 49.1119 
L 99.052667 49.541128 
L 99.113214 49.970355 
L 99.174069 50.399583 
L 99.235241 50.828811 
L 99.296739 51.258038 
L 99.358561 51.687266 
L 99.420702 52.116493 
L 99.483153 52.545721 
L 99.545896 52.974948 
L 99.60891 53.404176 
L 99.672166 53.833404 
L 99.735628 54.262631 
L 99.799257 54.691859 
L 99.863004 55.121086 
L 99.926816 55.550314 
L 99.990632 55.979541 
L 100.054384 56.408769 
L 100.118 56.837997 
L 100.181399 57.267224 
L 100.244493 57.696452 
L 100.30719 58.125679 
L 100.369389 58.554907 
L 100.430984 58.984134 
L 100.491862 59.413362 
L 100.551905 59.842589 
L 100.610987 60.271817 
L 100.668978 60.701045 
L 100.725741 61.130272 
L 100.781137 61.5595 
L 100.835018 61.988727 
L 100.887235 62.417955 
L 100.937632 62.847182 
L 100.986051 63.27641 
L 101.03233 63.705638 
L 101.076307 64.134865 
L 101.117813 64.564093 
L 101.156683 64.99332 
L 101.192746 65.422548 
L 101.225836 65.851775 
L 101.255782 66.281003 
L 101.282419 66.710231 
L 101.305582 67.139458 
L 101.325108 67.568686 
L 101.340839 67.997913 
L 101.352621 68.427141 
L 101.360306 68.856368 
L 101.36375 69.285596 
L 101.362818 69.714824 
L 101.357381 70.144051 
L 101.34732 70.573279 
L 101.332525 71.002506 
L 101.312896 71.431734 
L 101.288342 71.860961 
L 101.258787 72.290189 
L 101.224163 72.719417 
L 101.184419 73.148644 
L 101.139514 73.577872 
L 101.089423 74.007099 
L 101.034133 74.436327 
L 100.973648 74.865554 
L 100.907985 75.294782 
L 100.837177 75.72401 
L 100.761273 76.153237 
L 100.680335 76.582465 
L 100.594442 77.011692 
L 100.503688 77.44092 
L 100.408181 77.870147 
L 100.308046 78.299375 
z
" style="fill:#ff8c00;fill-opacity:0.3;"/>
   </g>
   <g id="PolyCollection_3">
    <path clip-path="url(#pcd3e3e5bd4)" d="M 134.971787 119.189375 
L 118.868213 119.189375 
L 118.815878 118.087961 
L 118.77316 116.986547 
L 118.740078 115.885133 
L 118.716603 114.783718 
L 118.702664 113.682304 
L 118.698141 112.58089 
L 118.702873 111.479476 
L 118.716654 110.378062 
L 118.739237 109.276648 
L 118.770333 108.175234 
L 118.809615 107.073819 
L 118.85672 105.972405 
L 118.911249 104.870991 
L 118.972771 103.769577 
L 119.040825 102.668163 
L 119.114924 101.566749 
L 119.194554 100.465335 
L 119.279183 99.36392 
L 119.368257 98.262506 
L 119.461208 97.161092 
L 119.557455 96.059678 
L 119.656407 94.958264 
L 119.757466 93.85685 
L 119.860031 92.755436 
L 119.963499 91.654021 
L 120.06727 90.552607 
L 120.170749 89.451193 
L 120.273347 88.349779 
L 120.374486 87.248365 
L 120.473603 86.146951 
L 120.570146 85.045537 
L 120.663584 83.944122 
L 120.753404 82.842708 
L 120.839116 81.741294 
L 120.920253 80.63988 
L 120.996374 79.538466 
L 121.067065 78.437052 
L 121.131944 77.335638 
L 121.190656 76.234223 
L 121.242881 75.132809 
L 121.288331 74.031395 
L 121.326753 72.929981 
L 121.35793 71.828567 
L 121.381681 70.727153 
L 121.397862 69.625739 
L 121.406369 68.524324 
L 121.407133 67.42291 
L 121.400128 66.321496 
L 121.385365 65.220082 
L 121.362892 64.118668 
L 121.332801 63.017254 
L 121.295218 61.91584 
L 121.250312 60.814426 
L 121.198287 59.713011 
L 121.139386 58.611597 
L 121.073887 57.510183 
L 121.002106 56.408769 
L 120.92439 55.307355 
L 120.841123 54.205941 
L 120.752718 53.104527 
L 120.659618 52.003112 
L 120.562295 50.901698 
L 120.461246 49.800284 
L 120.356993 48.69887 
L 120.250079 47.597456 
L 120.141066 46.496042 
L 120.030533 45.394628 
L 119.919073 44.293213 
L 119.807288 43.191799 
L 119.69579 42.090385 
L 119.585198 40.988971 
L 119.476128 39.887557 
L 119.3692 38.786143 
L 119.265026 37.684729 
L 119.164212 36.583314 
L 119.067355 35.4819 
L 118.975035 34.380486 
L 118.887817 33.279072 
L 118.806246 32.177658 
L 118.730844 31.076244 
L 118.662108 29.97483 
L 118.600505 28.873415 
L 118.546472 27.772001 
L 118.500413 26.670587 
L 118.462696 25.569173 
L 118.43365 24.467759 
L 118.413568 23.366345 
L 118.402699 22.264931 
L 118.40125 21.163516 
L 118.409387 20.062102 
L 118.427229 18.960688 
L 118.454853 17.859274 
L 118.49229 16.75786 
L 118.539527 15.656446 
L 118.596504 14.555032 
L 118.663121 13.453617 
L 118.739233 12.352203 
L 118.824654 11.250789 
L 118.919156 10.149375 
L 134.920844 10.149375 
L 134.920844 10.149375 
L 135.015346 11.250789 
L 135.100767 12.352203 
L 135.176879 13.453617 
L 135.243496 14.555032 
L 135.300473 15.656446 
L 135.34771 16.75786 
L 135.385147 17.859274 
L 135.412771 18.960688 
L 135.430613 20.062102 
L 135.43875 21.163516 
L 135.437301 22.264931 
L 135.426432 23.366345 
L 135.40635 24.467759 
L 135.377304 25.569173 
L 135.339587 26.670587 
L 135.293528 27.772001 
L 135.239495 28.873415 
L 135.177892 29.97483 
L 135.109156 31.076244 
L 135.033754 32.177658 
L 134.952183 33.279072 
L 134.864965 34.380486 
L 134.772645 35.4819 
L 134.675788 36.583314 
L 134.574974 37.684729 
L 134.4708 38.786143 
L 134.363872 39.887557 
L 134.254802 40.988971 
L 134.14421 42.090385 
L 134.032712 43.191799 
L 133.920927 44.293213 
L 133.809467 45.394628 
L 133.698934 46.496042 
L 133.589921 47.597456 
L 133.483007 48.69887 
L 133.378754 49.800284 
L 133.277705 50.901698 
L 133.180382 52.003112 
L 133.087282 53.104527 
L 132.998877 54.205941 
L 132.91561 55.307355 
L 132.837894 56.408769 
L 132.766113 57.510183 
L 132.700614 58.611597 
L 132.641713 59.713011 
L 132.589688 60.814426 
L 132.544782 61.91584 
L 132.507199 63.017254 
L 132.477108 64.118668 
L 132.454635 65.220082 
L 132.439872 66.321496 
L 132.432867 67.42291 
L 132.433631 68.524324 
L 132.442138 69.625739 
L 132.458319 70.727153 
L 132.48207 71.828567 
L 132.513247 72.929981 
L 132.551669 74.031395 
L 132.597119 75.132809 
L 132.649344 76.234223 
L 132.708056 77.335638 
L 132.772935 78.437052 
L 132.843626 79.538466 
L 132.919747 80.63988 
L 133.000884 81.741294 
L 133.086596 82.842708 
L 133.176416 83.944122 
L 133.269854 85.045537 
L 133.366397 86.146951 
L 133.465514 87.248365 
L 133.566653 88.349779 
L 133.669251 89.451193 
L 133.77273 90.552607 
L 133.876501 91.654021 
L 133.979969 92.755436 
L 134.082534 93.85685 
L 134.183593 94.958264 
L 134.282545 96.059678 
L 134.378792 97.161092 
L 134.471743 98.262506 
L 134.560817 99.36392 
L 134.645446 100.465335 
L 134.725076 101.566749 
L 134.799175 102.668163 
L 134.867229 103.769577 
L 134.928751 104.870991 
L 134.98328 105.972405 
L 135.030385 107.073819 
L 135.069667 108.175234 
L 135.100763 109.276648 
L 135.123346 110.378062 
L 135.137127 111.479476 
L 135.141859 112.58089 
L 135.137336 113.682304 
L 135.123397 114.783718 
L 135.099922 115.885133 
L 135.06684 116.986547 
L 135.024122 118.087961 
L 134.971787 119.189375 
z
" style="fill:#ff8c00;fill-opacity:0.3;"/>
   </g>
   <g id="matplotlib.axis_1">
    <g id="xtick_1">
     <g id="line2d_1">
      <defs>
       <path d="M 0 0 
L 0 3.5 
" id="m66b26ec03c" style="stroke:#000000;stroke-width:0.8;"/>
      </defs>
      <g>
       <use style="stroke:#000000;stroke-width:0.8;" x="58.77" xlink:href="#m66b26ec03c" y="119.189375"/>
      </g>
     </g>
     <g id="text_1">
      <!-- 1sRO_halft -->
      <g transform="translate(39.399375 132.088125)scale(0.08 -0.08)">
       <defs>
        <path d="M 24.3125 0 
L 24.3125 54.828125 
L 9.765625 45.75 
L 9.765625 54.890625 
Q 15.28125 57.671875 21.5 62.546875 
Q 27.734375 67.4375 31.15625 71.828125 
L 34.078125 71.828125 
L 34.078125 0 
z
" id="TrebuchetMS-49"/>
        <path d="M 3.171875 3.125 
L 6.453125 11.921875 
Q 14.203125 6.84375 18.953125 6.84375 
Q 27.546875 6.84375 27.546875 14.0625 
Q 27.546875 19.234375 19.234375 22.953125 
Q 12.84375 25.875 10.625 27.390625 
Q 8.40625 28.90625 6.765625 30.828125 
Q 5.125 32.765625 4.3125 34.9375 
Q 3.515625 37.109375 3.515625 39.59375 
Q 3.515625 46.046875 8.203125 49.65625 
Q 12.890625 53.265625 20.453125 53.265625 
Q 26.171875 53.265625 34.859375 49.65625 
L 32.234375 41.0625 
Q 26.703125 45.453125 21.140625 45.453125 
Q 17.828125 45.453125 15.546875 43.890625 
Q 13.28125 42.328125 13.28125 39.9375 
Q 13.28125 34.90625 19 32.328125 
L 25.640625 29.296875 
Q 31.734375 26.515625 34.515625 22.953125 
Q 37.3125 19.390625 37.3125 14.015625 
Q 37.3125 6.984375 32.375 3 
Q 27.4375 -0.984375 18.703125 -0.984375 
Q 10.453125 -0.984375 3.171875 3.125 
z
" id="TrebuchetMS-115"/>
        <path d="M 47.015625 0 
L 27.9375 30.71875 
Q 24.65625 30.71875 17.578125 31.203125 
L 17.578125 0 
L 7.8125 0 
L 7.8125 71.53125 
Q 8.34375 71.53125 15.40625 71.890625 
Q 22.46875 72.265625 25.6875 72.265625 
Q 51.46875 72.265625 51.46875 51.765625 
Q 51.46875 45.015625 47.3125 39.625 
Q 43.171875 34.234375 37.453125 32.90625 
L 58.203125 0 
z
M 17.578125 62.75 
L 17.578125 39.5 
Q 21.09375 39.015625 24.421875 39.015625 
Q 33.203125 39.015625 37.203125 41.84375 
Q 41.21875 44.671875 41.21875 51.953125 
Q 41.21875 57.953125 36.921875 60.59375 
Q 32.625 63.234375 23.34375 63.234375 
Q 21.875 63.234375 17.578125 62.75 
z
" id="TrebuchetMS-82"/>
        <path d="M 3.90625 36.375 
Q 3.90625 51.90625 11.6875 62.34375 
Q 19.484375 72.796875 32.71875 72.796875 
Q 47.609375 72.796875 55.546875 63.171875 
Q 63.484375 53.5625 63.484375 36.375 
Q 63.484375 18.75 55.515625 8.765625 
Q 47.5625 -1.21875 32.71875 -1.21875 
Q 19.1875 -1.21875 11.546875 9.328125 
Q 3.90625 19.875 3.90625 36.375 
z
M 14.15625 36.375 
Q 14.15625 24.078125 19.015625 15.8125 
Q 23.875 7.5625 32.71875 7.5625 
Q 42.71875 7.5625 47.96875 15.125 
Q 53.21875 22.703125 53.21875 36.375 
Q 53.21875 64.015625 32.71875 64.015625 
Q 23.640625 64.015625 18.890625 56.59375 
Q 14.15625 49.171875 14.15625 36.375 
z
" id="TrebuchetMS-79"/>
        <path d="M -0.390625 -12.40625 
L -0.390625 -6.109375 
L 52.59375 -6.109375 
L 52.59375 -12.40625 
z
" id="TrebuchetMS-95"/>
        <path d="M 38.8125 0 
L 38.8125 32.859375 
Q 38.8125 38.71875 35.9375 42.078125 
Q 33.0625 45.453125 27.828125 45.453125 
Q 24.46875 45.453125 21.0625 43.46875 
Q 17.671875 41.5 15.875 38.875 
L 15.875 0 
L 6.59375 0 
L 6.59375 73.734375 
L 15.875 73.734375 
L 15.875 46.53125 
Q 17.71875 49.421875 21.84375 51.34375 
Q 25.984375 53.265625 30.375 53.265625 
Q 38.671875 53.265625 43.375 47.796875 
Q 48.09375 42.328125 48.09375 32.859375 
L 48.09375 0 
z
" id="TrebuchetMS-104"/>
        <path d="M 36.140625 6 
Q 30.5625 -0.984375 19.09375 -0.984375 
Q 12.9375 -0.984375 8.421875 3.484375 
Q 3.90625 7.953125 3.90625 14.59375 
Q 3.90625 22.5625 10.859375 28.046875 
Q 17.828125 33.546875 28.609375 33.546875 
Q 31.546875 33.546875 35.25 32.28125 
Q 35.25 44.96875 23.921875 44.96875 
Q 15.234375 44.96875 10.546875 40.28125 
L 6.640625 48.046875 
Q 9.28125 50.203125 13.9375 51.734375 
Q 18.609375 53.265625 22.859375 53.265625 
Q 34.234375 53.265625 39.375 48.09375 
Q 44.53125 42.921875 44.53125 31.640625 
L 44.53125 12.890625 
Q 44.53125 6 48.640625 3.71875 
L 48.640625 -0.921875 
Q 42.96875 -0.921875 40.15625 0.6875 
Q 37.359375 2.296875 36.140625 6 
z
M 35.25 25.6875 
Q 30.859375 26.65625 29.109375 26.65625 
Q 22.078125 26.65625 17.625 23.046875 
Q 13.1875 19.4375 13.1875 14.5 
Q 13.1875 6.34375 22.796875 6.34375 
Q 29.828125 6.34375 35.25 13.03125 
z
" id="TrebuchetMS-97"/>
        <path d="M 7.328125 14.796875 
L 7.328125 73.734375 
L 16.609375 73.734375 
L 16.609375 16.359375 
Q 16.609375 12.15625 19.015625 9.734375 
Q 21.4375 7.328125 25.34375 7.328125 
L 25.34375 -0.984375 
Q 7.328125 -0.984375 7.328125 14.796875 
z
" id="TrebuchetMS-108"/>
        <path d="M 34.859375 65.4375 
Q 32.03125 66.40625 29.59375 66.40625 
Q 25.34375 66.40625 22.578125 63.1875 
Q 19.828125 59.96875 19.828125 55.03125 
Q 19.828125 53.71875 20.0625 52.296875 
L 30.71875 52.296875 
L 30.71875 44.484375 
L 20.0625 44.484375 
L 20.0625 0 
L 10.796875 0 
L 10.796875 44.484375 
L 3.171875 44.484375 
L 3.171875 52.296875 
L 10.796875 52.296875 
Q 10.796875 62.3125 15.71875 68.015625 
Q 20.65625 73.734375 28.765625 73.734375 
Q 32.8125 73.734375 37.453125 72.265625 
z
" id="TrebuchetMS-102"/>
        <path d="M 9.90625 44.96875 
L 3.859375 44.96875 
L 3.859375 52.296875 
L 9.90625 52.296875 
L 9.90625 63.234375 
L 19.1875 66.796875 
L 19.1875 52.296875 
L 33.546875 52.296875 
L 33.546875 44.96875 
L 19.1875 44.96875 
L 19.1875 19 
Q 19.1875 12.40625 21.40625 9.625 
Q 23.640625 6.84375 28.5625 6.84375 
Q 32.125 6.84375 35.9375 8.640625 
L 37.3125 0.484375 
Q 31.546875 -0.984375 24.65625 -0.984375 
Q 18.453125 -0.984375 14.171875 3.625 
Q 9.90625 8.25 9.90625 15.28125 
z
" id="TrebuchetMS-116"/>
       </defs>
       <use xlink:href="#TrebuchetMS-49"/>
       <use x="52.441406" xlink:href="#TrebuchetMS-115"/>
       <use x="92.919922" xlink:href="#TrebuchetMS-82"/>
       <use x="151.123047" xlink:href="#TrebuchetMS-79"/>
       <use x="218.505859" xlink:href="#TrebuchetMS-95"/>
       <use x="270.947266" xlink:href="#TrebuchetMS-104"/>
       <use x="325.585938" xlink:href="#TrebuchetMS-97"/>
       <use x="378.125" xlink:href="#TrebuchetMS-108"/>
       <use x="407.617188" xlink:href="#TrebuchetMS-102"/>
       <use x="444.580078" xlink:href="#TrebuchetMS-116"/>
      </g>
     </g>
    </g>
    <g id="xtick_2">
     <g id="line2d_2">
      <g>
       <use style="stroke:#000000;stroke-width:0.8;" x="92.845" xlink:href="#m66b26ec03c" y="119.189375"/>
      </g>
     </g>
     <g id="text_2">
      <!-- 1sRO -->
      <g transform="translate(84.104375 132.088125)scale(0.08 -0.08)">
       <use xlink:href="#TrebuchetMS-49"/>
       <use x="52.441406" xlink:href="#TrebuchetMS-115"/>
       <use x="92.919922" xlink:href="#TrebuchetMS-82"/>
       <use x="151.123047" xlink:href="#TrebuchetMS-79"/>
      </g>
     </g>
    </g>
    <g id="xtick_3">
     <g id="line2d_3">
      <g>
       <use style="stroke:#000000;stroke-width:0.8;" x="126.92" xlink:href="#m66b26ec03c" y="119.189375"/>
      </g>
     </g>
     <g id="text_3">
      <!-- 2sRO -->
      <g transform="translate(118.179375 132.088125)scale(0.08 -0.08)">
       <defs>
        <path d="M 3.375 0 
L 3.375 1.953125 
L 25.78125 36.28125 
Q 32.8125 47.078125 32.8125 54.59375 
Q 32.8125 64.5 21.625 64.5 
Q 17.671875 64.5 14.203125 62.421875 
Q 10.75 60.359375 9.1875 57.171875 
L 2.875 62.359375 
Q 4.546875 67.140625 9.40625 69.96875 
Q 14.265625 72.796875 21.140625 72.796875 
Q 31.453125 72.796875 37.25 68.03125 
Q 43.0625 63.28125 43.0625 54.59375 
Q 43.0625 46.53125 35.359375 34.28125 
L 19.28125 8.796875 
L 47.3125 8.796875 
L 47.3125 0 
z
" id="TrebuchetMS-50"/>
       </defs>
       <use xlink:href="#TrebuchetMS-50"/>
       <use x="52.441406" xlink:href="#TrebuchetMS-115"/>
       <use x="92.919922" xlink:href="#TrebuchetMS-82"/>
       <use x="151.123047" xlink:href="#TrebuchetMS-79"/>
      </g>
     </g>
    </g>
   </g>
   <g id="matplotlib.axis_2">
    <g id="ytick_1">
     <g id="line2d_4">
      <defs>
       <path d="M 0 0 
L -3.5 0 
" id="mb1cd2db7b2" style="stroke:#000000;stroke-width:0.8;"/>
      </defs>
      <g>
       <use style="stroke:#000000;stroke-width:0.8;" x="38.325" xlink:href="#mb1cd2db7b2" y="119.189375"/>
      </g>
     </g>
     <g id="text_4">
      <!-- 0 -->
      <g transform="translate(27.13 122.13875)scale(0.08 -0.08)">
       <defs>
        <path d="M 3.125 37.9375 
Q 3.125 53.375 9.375 63.078125 
Q 15.625 72.796875 26.953125 72.796875 
Q 38.1875 72.796875 43.828125 64.6875 
Q 49.46875 56.59375 49.46875 36.375 
Q 49.46875 19 43.546875 9 
Q 37.640625 -0.984375 26.265625 -0.984375 
Q 14.890625 -0.984375 9 7.078125 
Q 3.125 15.140625 3.125 37.9375 
z
M 12.890625 37.0625 
Q 12.890625 7.328125 25.59375 7.328125 
Q 32.859375 7.328125 36.28125 13.921875 
Q 39.703125 20.515625 39.703125 37.015625 
Q 39.703125 48.390625 38.375 53.703125 
Q 37.0625 59.03125 34.125 61.765625 
Q 31.203125 64.5 26.703125 64.5 
Q 12.890625 64.5 12.890625 37.0625 
z
" id="TrebuchetMS-48"/>
       </defs>
       <use xlink:href="#TrebuchetMS-48"/>
      </g>
     </g>
    </g>
    <g id="ytick_2">
     <g id="line2d_5">
      <g>
       <use style="stroke:#000000;stroke-width:0.8;" x="38.325" xlink:href="#mb1cd2db7b2" y="91.929375"/>
      </g>
     </g>
     <g id="text_5">
      <!-- 25 -->
      <g transform="translate(22.935 94.87875)scale(0.08 -0.08)">
       <defs>
        <path d="M 11.328125 34.90625 
L 8.015625 37.203125 
L 8.015625 71.828125 
L 43.609375 71.828125 
L 43.609375 63.53125 
L 17.28125 63.53125 
L 17.28125 46.140625 
Q 20.90625 48.828125 26.46875 48.828125 
Q 36.421875 48.828125 41.671875 42.875 
Q 46.921875 36.921875 46.921875 25.921875 
Q 46.921875 -0.984375 22.953125 -0.984375 
Q 12.9375 -0.984375 6.34375 4.59375 
L 10.109375 12.75 
Q 16.75 7.328125 22.90625 7.328125 
Q 36.671875 7.328125 36.671875 24.515625 
Q 36.671875 40.53125 23.09375 40.53125 
Q 16.546875 40.53125 11.328125 34.90625 
z
" id="TrebuchetMS-53"/>
       </defs>
       <use xlink:href="#TrebuchetMS-50"/>
       <use x="52.441406" xlink:href="#TrebuchetMS-53"/>
      </g>
     </g>
    </g>
    <g id="ytick_3">
     <g id="line2d_6">
      <g>
       <use style="stroke:#000000;stroke-width:0.8;" x="38.325" xlink:href="#mb1cd2db7b2" y="64.669375"/>
      </g>
     </g>
     <g id="text_6">
      <!-- 50 -->
      <g transform="translate(22.935 67.61875)scale(0.08 -0.08)">
       <use xlink:href="#TrebuchetMS-53"/>
       <use x="52.441406" xlink:href="#TrebuchetMS-48"/>
      </g>
     </g>
    </g>
    <g id="ytick_4">
     <g id="line2d_7">
      <g>
       <use style="stroke:#000000;stroke-width:0.8;" x="38.325" xlink:href="#mb1cd2db7b2" y="37.409375"/>
      </g>
     </g>
     <g id="text_7">
      <!-- 75 -->
      <g transform="translate(22.935 40.35875)scale(0.08 -0.08)">
       <defs>
        <path d="M 20.90625 0 
L 10.0625 0 
Q 13.671875 11.46875 22.21875 30.34375 
Q 30.765625 49.21875 37.84375 62.546875 
L 4.109375 62.546875 
L 4.109375 71.828125 
L 50.484375 71.828125 
L 50.484375 68.015625 
L 44.1875 55.609375 
Q 41.015625 49.3125 37.546875 41.796875 
Q 34.078125 34.28125 30.75 26.46875 
Q 27.4375 18.65625 24.953125 11.96875 
Q 22.46875 5.28125 20.90625 0 
z
" id="TrebuchetMS-55"/>
       </defs>
       <use xlink:href="#TrebuchetMS-55"/>
       <use x="52.441406" xlink:href="#TrebuchetMS-53"/>
      </g>
     </g>
    </g>
    <g id="ytick_5">
     <g id="line2d_8">
      <g>
       <use style="stroke:#000000;stroke-width:0.8;" x="38.325" xlink:href="#mb1cd2db7b2" y="10.149375"/>
      </g>
     </g>
     <g id="text_8">
      <!-- 100 -->
      <g transform="translate(18.74 13.09875)scale(0.08 -0.08)">
       <use xlink:href="#TrebuchetMS-49"/>
       <use x="52.441406" xlink:href="#TrebuchetMS-48"/>
       <use x="104.882812" xlink:href="#TrebuchetMS-48"/>
      </g>
     </g>
    </g>
    <g id="text_9">
     <!-- % of sideways samples / exp. -->
     <g transform="translate(13.09875 116.79375)rotate(-90)scale(0.08 -0.08)">
      <defs>
       <path d="M 10.640625 -0.984375 
L 4.4375 -0.984375 
L 47.5625 72.796875 
L 53.71875 72.796875 
z
M 2.984375 56.734375 
Q 2.984375 63.921875 6.9375 68.359375 
Q 10.890625 72.796875 17 72.796875 
Q 23 72.796875 26.578125 68.40625 
Q 30.171875 64.015625 30.171875 55.8125 
Q 30.171875 48.1875 26.359375 43.71875 
Q 22.5625 39.265625 16.546875 39.265625 
Q 2.984375 39.265625 2.984375 56.734375 
z
M 9.125 56.25 
Q 9.125 50.53125 11.046875 47.375 
Q 12.984375 44.234375 16.109375 44.234375 
Q 24.03125 44.234375 24.03125 56.203125 
Q 24.03125 67.828125 16.84375 67.828125 
Q 13.28125 67.828125 11.203125 64.703125 
Q 9.125 61.578125 9.125 56.25 
z
M 29.34375 16.5 
Q 29.34375 23.6875 33.296875 28.125 
Q 37.25 32.5625 43.359375 32.5625 
Q 49.359375 32.5625 52.953125 28.171875 
Q 56.546875 23.78125 56.546875 15.578125 
Q 56.546875 7.953125 52.734375 3.484375 
Q 48.921875 -0.984375 42.921875 -0.984375 
Q 29.34375 -0.984375 29.34375 16.5 
z
M 35.5 16.015625 
Q 35.5 10.296875 37.421875 7.140625 
Q 39.359375 4 42.484375 4 
Q 50.390625 4 50.390625 15.96875 
Q 50.390625 27.59375 43.21875 27.59375 
Q 39.65625 27.59375 37.578125 24.46875 
Q 35.5 21.34375 35.5 16.015625 
z
" id="TrebuchetMS-37"/>
       <path id="TrebuchetMS-32"/>
       <path d="M 3.171875 26.265625 
Q 3.171875 38.375 9.6875 45.8125 
Q 16.21875 53.265625 26.859375 53.265625 
Q 38.09375 53.265625 44.28125 46.109375 
Q 50.484375 38.96875 50.484375 26.265625 
Q 50.484375 13.625 44.140625 6.3125 
Q 37.796875 -0.984375 26.859375 -0.984375 
Q 15.671875 -0.984375 9.421875 6.390625 
Q 3.171875 13.765625 3.171875 26.265625 
z
M 12.9375 26.265625 
Q 12.9375 6.59375 26.859375 6.59375 
Q 33.34375 6.59375 37.03125 11.859375 
Q 40.71875 17.140625 40.71875 26.265625 
Q 40.71875 45.703125 26.859375 45.703125 
Q 20.515625 45.703125 16.71875 40.53125 
Q 12.9375 35.359375 12.9375 26.265625 
z
" id="TrebuchetMS-111"/>
       <path d="M 16.15625 72.078125 
Q 18.5625 72.078125 20.234375 70.390625 
Q 21.921875 68.703125 21.921875 66.359375 
Q 21.921875 63.96875 20.234375 62.28125 
Q 18.5625 60.59375 16.15625 60.59375 
Q 13.8125 60.59375 12.125 62.28125 
Q 10.453125 63.96875 10.453125 66.359375 
Q 10.453125 68.75 12.109375 70.40625 
Q 13.765625 72.078125 16.15625 72.078125 
z
M 11.078125 0 
L 11.078125 44.484375 
L 3.90625 44.484375 
L 3.90625 52.296875 
L 20.359375 52.296875 
L 20.359375 0 
z
" id="TrebuchetMS-105"/>
       <path d="M 39.75 0.046875 
L 39.75 3.90625 
Q 34.90625 -0.921875 25.6875 -0.921875 
Q 15.875 -0.921875 9.765625 6.109375 
Q 3.65625 13.140625 3.65625 24.859375 
Q 3.65625 36.625 10.6875 44.9375 
Q 17.71875 53.265625 27.4375 53.265625 
Q 35.546875 53.265625 39.75 49.46875 
L 39.75 73.734375 
L 49.03125 73.734375 
L 49.03125 0.046875 
z
M 39.75 40.1875 
Q 36.234375 45.453125 30.125 45.453125 
Q 22.65625 45.453125 18.03125 39.890625 
Q 13.421875 34.328125 13.421875 25.734375 
Q 13.421875 6.84375 30.609375 6.84375 
Q 32.8125 6.84375 35.890625 8.234375 
Q 38.96875 9.625 39.75 11.1875 
z
" id="TrebuchetMS-100"/>
       <path d="M 50.640625 25.25 
L 12.9375 25.25 
Q 12.9375 16.0625 17.96875 11.140625 
Q 22.40625 6.84375 29.390625 6.84375 
Q 37.359375 6.84375 42.671875 11.46875 
L 46.578125 4.78125 
Q 44.4375 2.640625 39.984375 1.078125 
Q 34.421875 -0.984375 27.59375 -0.984375 
Q 17.71875 -0.984375 10.84375 5.71875 
Q 3.171875 13.09375 3.171875 25.53125 
Q 3.171875 38.484375 11.03125 46.296875 
Q 18.0625 53.265625 27.6875 53.265625 
Q 38.875 53.265625 45.21875 46.96875 
Q 51.375 40.921875 51.375 30.90625 
Q 51.375 27.828125 50.640625 25.25 
z
M 28.125 45.453125 
Q 21.921875 45.453125 17.71875 41.453125 
Q 13.71875 37.640625 13.1875 31.984375 
L 42.140625 31.984375 
Q 42.140625 37.59375 38.625 41.359375 
Q 34.765625 45.453125 28.125 45.453125 
z
" id="TrebuchetMS-101"/>
       <path d="M 54.9375 -0.984375 
L 52.484375 -0.984375 
L 37.15625 34.625 
L 21.875 -0.984375 
L 19.4375 -0.984375 
L 0.734375 52.4375 
L 10.640625 52.4375 
L 21.828125 18.109375 
L 35.75 52.4375 
L 38.1875 52.4375 
L 52.546875 18.109375 
L 64.546875 52.4375 
L 73.6875 52.4375 
z
" id="TrebuchetMS-119"/>
       <path d="M 26.5625 -8.890625 
Q 24.75 -13.875 18.96875 -17.1875 
Q 13.1875 -20.515625 6.0625 -20.515625 
L 6.0625 -12.203125 
Q 11.859375 -12.203125 16.015625 -9.484375 
Q 20.171875 -6.78125 20.171875 -2.875 
Q 20.171875 1.421875 18.65625 5.59375 
Q 17.140625 9.765625 14.75 15.921875 
L 0.59375 52.296875 
L 10.0625 52.296875 
L 25.4375 11.859375 
L 39.265625 52.296875 
L 48.734375 52.296875 
z
" id="TrebuchetMS-121"/>
       <path d="M 67.140625 0 
L 67.140625 33.109375 
Q 67.140625 45.453125 56.453125 45.453125 
Q 53.078125 45.453125 50.140625 43.375 
Q 47.21875 41.3125 46.140625 38.671875 
L 46.140625 0 
L 36.859375 0 
L 36.859375 37.15625 
Q 36.859375 41.015625 33.953125 43.234375 
Q 31.0625 45.453125 26.265625 45.453125 
Q 23.484375 45.453125 20.328125 43.296875 
Q 17.1875 41.15625 15.875 38.578125 
L 15.875 0 
L 6.59375 0 
L 6.59375 52.296875 
L 12.640625 52.296875 
L 15.71875 46.234375 
Q 21.09375 53.265625 29.15625 53.265625 
Q 40.375 53.265625 44.875 46.296875 
Q 46.4375 49.265625 50.6875 51.265625 
Q 54.9375 53.265625 59.421875 53.265625 
Q 67.53125 53.265625 71.96875 48.453125 
Q 76.421875 43.65625 76.421875 34.96875 
L 76.421875 0 
z
" id="TrebuchetMS-109"/>
       <path d="M 15.875 2.875 
L 15.875 -20.515625 
L 6.59375 -20.515625 
L 6.59375 52.296875 
L 15.875 52.296875 
L 15.875 48 
Q 21.140625 53.265625 28.609375 53.265625 
Q 39.75 53.265625 45.953125 46.328125 
Q 52.15625 39.40625 52.15625 26.03125 
Q 52.15625 14.109375 45.90625 6.5625 
Q 39.65625 -0.984375 27.828125 -0.984375 
Q 24.515625 -0.984375 20.71875 0.1875 
Q 16.9375 1.375 15.875 2.875 
z
M 15.875 41.015625 
L 15.875 10.546875 
Q 16.75 9.234375 19.578125 8.03125 
Q 22.40625 6.84375 25.09375 6.84375 
Q 42.390625 6.84375 42.390625 26.375 
Q 42.390625 36.28125 38.28125 40.859375 
Q 34.1875 45.453125 25.140625 45.453125 
Q 23.1875 45.453125 20.359375 44.078125 
Q 17.53125 42.71875 15.875 41.015625 
z
" id="TrebuchetMS-112"/>
       <path d="M 17.09375 0 
L 9.234375 0 
L 35.15625 71.828125 
L 42.921875 71.828125 
z
" id="TrebuchetMS-47"/>
       <path d="M 38.421875 0 
L 24.171875 19.046875 
L 11.421875 0 
L 0.59375 0 
L 19.578125 26.765625 
L 2.15625 52.296875 
L 12.59375 52.296875 
L 24.3125 34.328125 
L 37.453125 52.296875 
L 47.703125 52.296875 
L 28.71875 26.765625 
L 49.515625 0 
z
" id="TrebuchetMS-120"/>
       <path d="M 17.28125 13.71875 
Q 20.3125 13.71875 22.453125 11.5625 
Q 24.609375 9.421875 24.609375 6.390625 
Q 24.609375 3.375 22.453125 1.1875 
Q 20.3125 -0.984375 17.28125 -0.984375 
Q 14.265625 -0.984375 12.109375 1.1875 
Q 9.96875 3.375 9.96875 6.390625 
Q 9.96875 9.421875 12.109375 11.5625 
Q 14.265625 13.71875 17.28125 13.71875 
z
" id="TrebuchetMS-46"/>
      </defs>
      <use xlink:href="#TrebuchetMS-37"/>
      <use x="60.009766" xlink:href="#TrebuchetMS-32"/>
      <use x="90.136719" xlink:href="#TrebuchetMS-111"/>
      <use x="143.798828" xlink:href="#TrebuchetMS-102"/>
      <use x="180.761719" xlink:href="#TrebuchetMS-32"/>
      <use x="210.888672" xlink:href="#TrebuchetMS-115"/>
      <use x="251.367188" xlink:href="#TrebuchetMS-105"/>
      <use x="279.882812" xlink:href="#TrebuchetMS-100"/>
      <use x="335.595703" xlink:href="#TrebuchetMS-101"/>
      <use x="390.136719" xlink:href="#TrebuchetMS-119"/>
      <use x="464.550781" xlink:href="#TrebuchetMS-97"/>
      <use x="517.089844" xlink:href="#TrebuchetMS-121"/>
      <use x="566.40625" xlink:href="#TrebuchetMS-115"/>
      <use x="606.884766" xlink:href="#TrebuchetMS-32"/>
      <use x="637.011719" xlink:href="#TrebuchetMS-115"/>
      <use x="677.490234" xlink:href="#TrebuchetMS-97"/>
      <use x="730.029297" xlink:href="#TrebuchetMS-109"/>
      <use x="813.037109" xlink:href="#TrebuchetMS-112"/>
      <use x="868.75" xlink:href="#TrebuchetMS-108"/>
      <use x="898.242188" xlink:href="#TrebuchetMS-101"/>
      <use x="952.783203" xlink:href="#TrebuchetMS-115"/>
      <use x="993.261719" xlink:href="#TrebuchetMS-32"/>
      <use x="1023.388672" xlink:href="#TrebuchetMS-47"/>
      <use x="1075.830078" xlink:href="#TrebuchetMS-32"/>
      <use x="1105.957031" xlink:href="#TrebuchetMS-101"/>
      <use x="1160.498047" xlink:href="#TrebuchetMS-120"/>
      <use x="1210.595703" xlink:href="#TrebuchetMS-112"/>
      <use x="1266.308594" xlink:href="#TrebuchetMS-46"/>
     </g>
    </g>
   </g>
   <g id="line2d_9">
    <defs>
     <path d="M 0 0.75 
C 0.198902 0.75 0.389685 0.670975 0.53033 0.53033 
C 0.670975 0.389685 0.75 0.198902 0.75 0 
C 0.75 -0.198902 0.670975 -0.389685 0.53033 -0.53033 
C 0.389685 -0.670975 0.198902 -0.75 0 -0.75 
C -0.198902 -0.75 -0.389685 -0.670975 -0.53033 -0.53033 
C -0.670975 -0.389685 -0.75 -0.198902 -0.75 0 
C -0.75 0.198902 -0.670975 0.389685 -0.53033 0.53033 
C -0.389685 0.670975 -0.198902 0.75 0 0.75 
z
" id="m992f1a9fe1" style="stroke:#ff8c00;"/>
    </defs>
    <g>
     <use style="fill:#ff8c00;stroke:#ff8c00;" x="64.304957" xlink:href="#m992f1a9fe1" y="77.250913"/>
     <use style="fill:#ff8c00;stroke:#ff8c00;" x="56.68544" xlink:href="#m992f1a9fe1" y="60.475529"/>
     <use style="fill:#ff8c00;stroke:#ff8c00;" x="56.970255" xlink:href="#m992f1a9fe1" y="58.611597"/>
     <use style="fill:#ff8c00;stroke:#ff8c00;" x="55.113859" xlink:href="#m992f1a9fe1" y="64.669375"/>
     <use style="fill:#ff8c00;stroke:#ff8c00;" x="61.718876" xlink:href="#m992f1a9fe1" y="52.553819"/>
     <use style="fill:#ff8c00;stroke:#ff8c00;" x="50.927507" xlink:href="#m992f1a9fe1" y="42.861375"/>
     <use style="fill:#ff8c00;stroke:#ff8c00;" x="64.715446" xlink:href="#m992f1a9fe1" y="49.800284"/>
    </g>
   </g>
   <g id="line2d_10">
    <g>
     <use style="fill:#ff8c00;stroke:#ff8c00;" x="98.379957" xlink:href="#m992f1a9fe1" y="75.573375"/>
     <use style="fill:#ff8c00;stroke:#ff8c00;" x="90.76044" xlink:href="#m992f1a9fe1" y="78.299375"/>
     <use style="fill:#ff8c00;stroke:#ff8c00;" x="91.045255" xlink:href="#m992f1a9fe1" y="52.553819"/>
     <use style="fill:#ff8c00;stroke:#ff8c00;" x="89.188859" xlink:href="#m992f1a9fe1" y="35.805846"/>
     <use style="fill:#ff8c00;stroke:#ff8c00;" x="95.793876" xlink:href="#m992f1a9fe1" y="64.669375"/>
    </g>
   </g>
   <g id="line2d_11">
    <g>
     <use style="fill:#ff8c00;stroke:#ff8c00;" x="132.454957" xlink:href="#m992f1a9fe1" y="119.189375"/>
     <use style="fill:#ff8c00;stroke:#ff8c00;" x="124.83544" xlink:href="#m992f1a9fe1" y="119.189375"/>
     <use style="fill:#ff8c00;stroke:#ff8c00;" x="125.120255" xlink:href="#m992f1a9fe1" y="28.322708"/>
     <use style="fill:#ff8c00;stroke:#ff8c00;" x="123.263859" xlink:href="#m992f1a9fe1" y="37.409375"/>
     <use style="fill:#ff8c00;stroke:#ff8c00;" x="129.868876" xlink:href="#m992f1a9fe1" y="10.149375"/>
     <use style="fill:#ff8c00;stroke:#ff8c00;" x="119.077507" xlink:href="#m992f1a9fe1" y="10.149375"/>
     <use style="fill:#ff8c00;stroke:#ff8c00;" x="132.865446" xlink:href="#m992f1a9fe1" y="91.929375"/>
     <use style="fill:#ff8c00;stroke:#ff8c00;" x="124.326187" xlink:href="#m992f1a9fe1" y="20.062102"/>
     <use style="fill:#ff8c00;stroke:#ff8c00;" x="128.007126" xlink:href="#m992f1a9fe1" y="119.189375"/>
     <use style="fill:#ff8c00;stroke:#ff8c00;" x="126.07027" xlink:href="#m992f1a9fe1" y="119.189375"/>
     <use style="fill:#ff8c00;stroke:#ff8c00;" x="131.902133" xlink:href="#m992f1a9fe1" y="119.189375"/>
     <use style="fill:#ff8c00;stroke:#ff8c00;" x="119.900071" xlink:href="#m992f1a9fe1" y="10.149375"/>
     <use style="fill:#ff8c00;stroke:#ff8c00;" x="125.821363" xlink:href="#m992f1a9fe1" y="37.409375"/>
     <use style="fill:#ff8c00;stroke:#ff8c00;" x="125.611335" xlink:href="#m992f1a9fe1" y="10.149375"/>
     <use style="fill:#ff8c00;stroke:#ff8c00;" x="130.783319" xlink:href="#m992f1a9fe1" y="119.189375"/>
     <use style="fill:#ff8c00;stroke:#ff8c00;" x="123.172121" xlink:href="#m992f1a9fe1" y="82.842708"/>
    </g>
   </g>
   <g id="patch_3">
    <path d="M 38.325 119.189375 
L 38.325 10.149375 
" style="fill:none;stroke:#000000;stroke-linecap:square;stroke-linejoin:miter;stroke-width:0.8;"/>
   </g>
  </g>
 </g>
 <defs>
  <clipPath id="pcd3e3e5bd4">
   <rect height="109.04" width="109.04" x="38.325" y="10.149375"/>
  </clipPath>
 </defs>
</svg>
